%TF.GenerationSoftware,KiCad,Pcbnew,9.0.7*%
%TF.CreationDate,2026-01-23T18:30:01+09:00*%
%TF.ProjectId,ono-kairo,6f6e6f2d-6b61-4697-926f-2e6b69636164,rev?*%
%TF.SameCoordinates,Original*%
%TF.FileFunction,Legend,Top*%
%TF.FilePolarity,Positive*%
%FSLAX46Y46*%
G04 Gerber Fmt 4.6, Leading zero omitted, Abs format (unit mm)*
G04 Created by KiCad (PCBNEW 9.0.7) date 2026-01-23 18:30:01*
%MOMM*%
%LPD*%
G01*
G04 APERTURE LIST*
%ADD10C,0.150000*%
%ADD11C,0.120000*%
G04 APERTURE END LIST*
D10*
X143932380Y-48728152D02*
X143932380Y-49728152D01*
X143932380Y-48775771D02*
X144027618Y-48728152D01*
X144027618Y-48728152D02*
X144218094Y-48728152D01*
X144218094Y-48728152D02*
X144313332Y-48775771D01*
X144313332Y-48775771D02*
X144360951Y-48823390D01*
X144360951Y-48823390D02*
X144408570Y-48918628D01*
X144408570Y-48918628D02*
X144408570Y-49204342D01*
X144408570Y-49204342D02*
X144360951Y-49299580D01*
X144360951Y-49299580D02*
X144313332Y-49347200D01*
X144313332Y-49347200D02*
X144218094Y-49394819D01*
X144218094Y-49394819D02*
X144027618Y-49394819D01*
X144027618Y-49394819D02*
X143932380Y-49347200D01*
X144837142Y-49394819D02*
X144837142Y-48394819D01*
X144837142Y-48871009D02*
X145408570Y-48871009D01*
X145408570Y-49394819D02*
X145408570Y-48394819D01*
X145646666Y-49490057D02*
X146408570Y-49490057D01*
X146599047Y-49347200D02*
X146694285Y-49394819D01*
X146694285Y-49394819D02*
X146884761Y-49394819D01*
X146884761Y-49394819D02*
X146979999Y-49347200D01*
X146979999Y-49347200D02*
X147027618Y-49251961D01*
X147027618Y-49251961D02*
X147027618Y-49204342D01*
X147027618Y-49204342D02*
X146979999Y-49109104D01*
X146979999Y-49109104D02*
X146884761Y-49061485D01*
X146884761Y-49061485D02*
X146741904Y-49061485D01*
X146741904Y-49061485D02*
X146646666Y-49013866D01*
X146646666Y-49013866D02*
X146599047Y-48918628D01*
X146599047Y-48918628D02*
X146599047Y-48871009D01*
X146599047Y-48871009D02*
X146646666Y-48775771D01*
X146646666Y-48775771D02*
X146741904Y-48728152D01*
X146741904Y-48728152D02*
X146884761Y-48728152D01*
X146884761Y-48728152D02*
X146979999Y-48775771D01*
X147837142Y-49347200D02*
X147741904Y-49394819D01*
X147741904Y-49394819D02*
X147551428Y-49394819D01*
X147551428Y-49394819D02*
X147456190Y-49347200D01*
X147456190Y-49347200D02*
X147408571Y-49251961D01*
X147408571Y-49251961D02*
X147408571Y-48871009D01*
X147408571Y-48871009D02*
X147456190Y-48775771D01*
X147456190Y-48775771D02*
X147551428Y-48728152D01*
X147551428Y-48728152D02*
X147741904Y-48728152D01*
X147741904Y-48728152D02*
X147837142Y-48775771D01*
X147837142Y-48775771D02*
X147884761Y-48871009D01*
X147884761Y-48871009D02*
X147884761Y-48966247D01*
X147884761Y-48966247D02*
X147408571Y-49061485D01*
X148313333Y-48728152D02*
X148313333Y-49394819D01*
X148313333Y-48823390D02*
X148360952Y-48775771D01*
X148360952Y-48775771D02*
X148456190Y-48728152D01*
X148456190Y-48728152D02*
X148599047Y-48728152D01*
X148599047Y-48728152D02*
X148694285Y-48775771D01*
X148694285Y-48775771D02*
X148741904Y-48871009D01*
X148741904Y-48871009D02*
X148741904Y-49394819D01*
X149170476Y-49347200D02*
X149265714Y-49394819D01*
X149265714Y-49394819D02*
X149456190Y-49394819D01*
X149456190Y-49394819D02*
X149551428Y-49347200D01*
X149551428Y-49347200D02*
X149599047Y-49251961D01*
X149599047Y-49251961D02*
X149599047Y-49204342D01*
X149599047Y-49204342D02*
X149551428Y-49109104D01*
X149551428Y-49109104D02*
X149456190Y-49061485D01*
X149456190Y-49061485D02*
X149313333Y-49061485D01*
X149313333Y-49061485D02*
X149218095Y-49013866D01*
X149218095Y-49013866D02*
X149170476Y-48918628D01*
X149170476Y-48918628D02*
X149170476Y-48871009D01*
X149170476Y-48871009D02*
X149218095Y-48775771D01*
X149218095Y-48775771D02*
X149313333Y-48728152D01*
X149313333Y-48728152D02*
X149456190Y-48728152D01*
X149456190Y-48728152D02*
X149551428Y-48775771D01*
X150170476Y-49394819D02*
X150075238Y-49347200D01*
X150075238Y-49347200D02*
X150027619Y-49299580D01*
X150027619Y-49299580D02*
X149980000Y-49204342D01*
X149980000Y-49204342D02*
X149980000Y-48918628D01*
X149980000Y-48918628D02*
X150027619Y-48823390D01*
X150027619Y-48823390D02*
X150075238Y-48775771D01*
X150075238Y-48775771D02*
X150170476Y-48728152D01*
X150170476Y-48728152D02*
X150313333Y-48728152D01*
X150313333Y-48728152D02*
X150408571Y-48775771D01*
X150408571Y-48775771D02*
X150456190Y-48823390D01*
X150456190Y-48823390D02*
X150503809Y-48918628D01*
X150503809Y-48918628D02*
X150503809Y-49204342D01*
X150503809Y-49204342D02*
X150456190Y-49299580D01*
X150456190Y-49299580D02*
X150408571Y-49347200D01*
X150408571Y-49347200D02*
X150313333Y-49394819D01*
X150313333Y-49394819D02*
X150170476Y-49394819D01*
X150932381Y-49394819D02*
X150932381Y-48728152D01*
X150932381Y-48918628D02*
X150980000Y-48823390D01*
X150980000Y-48823390D02*
X151027619Y-48775771D01*
X151027619Y-48775771D02*
X151122857Y-48728152D01*
X151122857Y-48728152D02*
X151218095Y-48728152D01*
X152075238Y-49394819D02*
X151503810Y-49394819D01*
X151789524Y-49394819D02*
X151789524Y-48394819D01*
X151789524Y-48394819D02*
X151694286Y-48537676D01*
X151694286Y-48537676D02*
X151599048Y-48632914D01*
X151599048Y-48632914D02*
X151503810Y-48680533D01*
X171107142Y-42904819D02*
X171107142Y-41904819D01*
X171107142Y-42285771D02*
X171202380Y-42238152D01*
X171202380Y-42238152D02*
X171392856Y-42238152D01*
X171392856Y-42238152D02*
X171488094Y-42285771D01*
X171488094Y-42285771D02*
X171535713Y-42333390D01*
X171535713Y-42333390D02*
X171583332Y-42428628D01*
X171583332Y-42428628D02*
X171583332Y-42714342D01*
X171583332Y-42714342D02*
X171535713Y-42809580D01*
X171535713Y-42809580D02*
X171488094Y-42857200D01*
X171488094Y-42857200D02*
X171392856Y-42904819D01*
X171392856Y-42904819D02*
X171202380Y-42904819D01*
X171202380Y-42904819D02*
X171107142Y-42857200D01*
X172440475Y-42238152D02*
X172440475Y-42904819D01*
X172011904Y-42238152D02*
X172011904Y-42761961D01*
X172011904Y-42761961D02*
X172059523Y-42857200D01*
X172059523Y-42857200D02*
X172154761Y-42904819D01*
X172154761Y-42904819D02*
X172297618Y-42904819D01*
X172297618Y-42904819D02*
X172392856Y-42857200D01*
X172392856Y-42857200D02*
X172440475Y-42809580D01*
X172773809Y-42238152D02*
X173154761Y-42238152D01*
X172916666Y-41904819D02*
X172916666Y-42761961D01*
X172916666Y-42761961D02*
X172964285Y-42857200D01*
X172964285Y-42857200D02*
X173059523Y-42904819D01*
X173059523Y-42904819D02*
X173154761Y-42904819D01*
X173345238Y-42238152D02*
X173726190Y-42238152D01*
X173488095Y-41904819D02*
X173488095Y-42761961D01*
X173488095Y-42761961D02*
X173535714Y-42857200D01*
X173535714Y-42857200D02*
X173630952Y-42904819D01*
X173630952Y-42904819D02*
X173726190Y-42904819D01*
X174202381Y-42904819D02*
X174107143Y-42857200D01*
X174107143Y-42857200D02*
X174059524Y-42809580D01*
X174059524Y-42809580D02*
X174011905Y-42714342D01*
X174011905Y-42714342D02*
X174011905Y-42428628D01*
X174011905Y-42428628D02*
X174059524Y-42333390D01*
X174059524Y-42333390D02*
X174107143Y-42285771D01*
X174107143Y-42285771D02*
X174202381Y-42238152D01*
X174202381Y-42238152D02*
X174345238Y-42238152D01*
X174345238Y-42238152D02*
X174440476Y-42285771D01*
X174440476Y-42285771D02*
X174488095Y-42333390D01*
X174488095Y-42333390D02*
X174535714Y-42428628D01*
X174535714Y-42428628D02*
X174535714Y-42714342D01*
X174535714Y-42714342D02*
X174488095Y-42809580D01*
X174488095Y-42809580D02*
X174440476Y-42857200D01*
X174440476Y-42857200D02*
X174345238Y-42904819D01*
X174345238Y-42904819D02*
X174202381Y-42904819D01*
X174964286Y-42238152D02*
X174964286Y-42904819D01*
X174964286Y-42333390D02*
X175011905Y-42285771D01*
X175011905Y-42285771D02*
X175107143Y-42238152D01*
X175107143Y-42238152D02*
X175250000Y-42238152D01*
X175250000Y-42238152D02*
X175345238Y-42285771D01*
X175345238Y-42285771D02*
X175392857Y-42381009D01*
X175392857Y-42381009D02*
X175392857Y-42904819D01*
X171107142Y-31904819D02*
X171107142Y-30904819D01*
X171107142Y-31285771D02*
X171202380Y-31238152D01*
X171202380Y-31238152D02*
X171392856Y-31238152D01*
X171392856Y-31238152D02*
X171488094Y-31285771D01*
X171488094Y-31285771D02*
X171535713Y-31333390D01*
X171535713Y-31333390D02*
X171583332Y-31428628D01*
X171583332Y-31428628D02*
X171583332Y-31714342D01*
X171583332Y-31714342D02*
X171535713Y-31809580D01*
X171535713Y-31809580D02*
X171488094Y-31857200D01*
X171488094Y-31857200D02*
X171392856Y-31904819D01*
X171392856Y-31904819D02*
X171202380Y-31904819D01*
X171202380Y-31904819D02*
X171107142Y-31857200D01*
X172440475Y-31238152D02*
X172440475Y-31904819D01*
X172011904Y-31238152D02*
X172011904Y-31761961D01*
X172011904Y-31761961D02*
X172059523Y-31857200D01*
X172059523Y-31857200D02*
X172154761Y-31904819D01*
X172154761Y-31904819D02*
X172297618Y-31904819D01*
X172297618Y-31904819D02*
X172392856Y-31857200D01*
X172392856Y-31857200D02*
X172440475Y-31809580D01*
X172773809Y-31238152D02*
X173154761Y-31238152D01*
X172916666Y-30904819D02*
X172916666Y-31761961D01*
X172916666Y-31761961D02*
X172964285Y-31857200D01*
X172964285Y-31857200D02*
X173059523Y-31904819D01*
X173059523Y-31904819D02*
X173154761Y-31904819D01*
X173345238Y-31238152D02*
X173726190Y-31238152D01*
X173488095Y-30904819D02*
X173488095Y-31761961D01*
X173488095Y-31761961D02*
X173535714Y-31857200D01*
X173535714Y-31857200D02*
X173630952Y-31904819D01*
X173630952Y-31904819D02*
X173726190Y-31904819D01*
X174202381Y-31904819D02*
X174107143Y-31857200D01*
X174107143Y-31857200D02*
X174059524Y-31809580D01*
X174059524Y-31809580D02*
X174011905Y-31714342D01*
X174011905Y-31714342D02*
X174011905Y-31428628D01*
X174011905Y-31428628D02*
X174059524Y-31333390D01*
X174059524Y-31333390D02*
X174107143Y-31285771D01*
X174107143Y-31285771D02*
X174202381Y-31238152D01*
X174202381Y-31238152D02*
X174345238Y-31238152D01*
X174345238Y-31238152D02*
X174440476Y-31285771D01*
X174440476Y-31285771D02*
X174488095Y-31333390D01*
X174488095Y-31333390D02*
X174535714Y-31428628D01*
X174535714Y-31428628D02*
X174535714Y-31714342D01*
X174535714Y-31714342D02*
X174488095Y-31809580D01*
X174488095Y-31809580D02*
X174440476Y-31857200D01*
X174440476Y-31857200D02*
X174345238Y-31904819D01*
X174345238Y-31904819D02*
X174202381Y-31904819D01*
X174964286Y-31238152D02*
X174964286Y-31904819D01*
X174964286Y-31333390D02*
X175011905Y-31285771D01*
X175011905Y-31285771D02*
X175107143Y-31238152D01*
X175107143Y-31238152D02*
X175250000Y-31238152D01*
X175250000Y-31238152D02*
X175345238Y-31285771D01*
X175345238Y-31285771D02*
X175392857Y-31381009D01*
X175392857Y-31381009D02*
X175392857Y-31904819D01*
X183738095Y-57104819D02*
X183738095Y-56104819D01*
X183738095Y-56581009D02*
X184309523Y-56581009D01*
X184309523Y-57104819D02*
X184309523Y-56104819D01*
X185261904Y-56104819D02*
X184785714Y-56104819D01*
X184785714Y-56104819D02*
X184738095Y-56581009D01*
X184738095Y-56581009D02*
X184785714Y-56533390D01*
X184785714Y-56533390D02*
X184880952Y-56485771D01*
X184880952Y-56485771D02*
X185119047Y-56485771D01*
X185119047Y-56485771D02*
X185214285Y-56533390D01*
X185214285Y-56533390D02*
X185261904Y-56581009D01*
X185261904Y-56581009D02*
X185309523Y-56676247D01*
X185309523Y-56676247D02*
X185309523Y-56914342D01*
X185309523Y-56914342D02*
X185261904Y-57009580D01*
X185261904Y-57009580D02*
X185214285Y-57057200D01*
X185214285Y-57057200D02*
X185119047Y-57104819D01*
X185119047Y-57104819D02*
X184880952Y-57104819D01*
X184880952Y-57104819D02*
X184785714Y-57057200D01*
X184785714Y-57057200D02*
X184738095Y-57009580D01*
X183738095Y-50604819D02*
X183738095Y-49604819D01*
X183738095Y-50081009D02*
X184309523Y-50081009D01*
X184309523Y-50604819D02*
X184309523Y-49604819D01*
X185214285Y-49938152D02*
X185214285Y-50604819D01*
X184976190Y-49557200D02*
X184738095Y-50271485D01*
X184738095Y-50271485D02*
X185357142Y-50271485D01*
X183738095Y-44604819D02*
X183738095Y-43604819D01*
X183738095Y-44081009D02*
X184309523Y-44081009D01*
X184309523Y-44604819D02*
X184309523Y-43604819D01*
X184690476Y-43604819D02*
X185309523Y-43604819D01*
X185309523Y-43604819D02*
X184976190Y-43985771D01*
X184976190Y-43985771D02*
X185119047Y-43985771D01*
X185119047Y-43985771D02*
X185214285Y-44033390D01*
X185214285Y-44033390D02*
X185261904Y-44081009D01*
X185261904Y-44081009D02*
X185309523Y-44176247D01*
X185309523Y-44176247D02*
X185309523Y-44414342D01*
X185309523Y-44414342D02*
X185261904Y-44509580D01*
X185261904Y-44509580D02*
X185214285Y-44557200D01*
X185214285Y-44557200D02*
X185119047Y-44604819D01*
X185119047Y-44604819D02*
X184833333Y-44604819D01*
X184833333Y-44604819D02*
X184738095Y-44557200D01*
X184738095Y-44557200D02*
X184690476Y-44509580D01*
X183738095Y-33104819D02*
X183738095Y-32104819D01*
X183738095Y-32581009D02*
X184309523Y-32581009D01*
X184309523Y-33104819D02*
X184309523Y-32104819D01*
X185309523Y-33104819D02*
X184738095Y-33104819D01*
X185023809Y-33104819D02*
X185023809Y-32104819D01*
X185023809Y-32104819D02*
X184928571Y-32247676D01*
X184928571Y-32247676D02*
X184833333Y-32342914D01*
X184833333Y-32342914D02*
X184738095Y-32390533D01*
X183738095Y-39104819D02*
X183738095Y-38104819D01*
X183738095Y-38581009D02*
X184309523Y-38581009D01*
X184309523Y-39104819D02*
X184309523Y-38104819D01*
X184738095Y-38200057D02*
X184785714Y-38152438D01*
X184785714Y-38152438D02*
X184880952Y-38104819D01*
X184880952Y-38104819D02*
X185119047Y-38104819D01*
X185119047Y-38104819D02*
X185214285Y-38152438D01*
X185214285Y-38152438D02*
X185261904Y-38200057D01*
X185261904Y-38200057D02*
X185309523Y-38295295D01*
X185309523Y-38295295D02*
X185309523Y-38390533D01*
X185309523Y-38390533D02*
X185261904Y-38533390D01*
X185261904Y-38533390D02*
X184690476Y-39104819D01*
X184690476Y-39104819D02*
X185309523Y-39104819D01*
X175587142Y-51994819D02*
X175110952Y-51994819D01*
X175110952Y-51994819D02*
X175110952Y-50994819D01*
X175920476Y-51471009D02*
X176253809Y-51471009D01*
X176396666Y-51994819D02*
X175920476Y-51994819D01*
X175920476Y-51994819D02*
X175920476Y-50994819D01*
X175920476Y-50994819D02*
X176396666Y-50994819D01*
X176825238Y-51994819D02*
X176825238Y-50994819D01*
X176825238Y-50994819D02*
X177063333Y-50994819D01*
X177063333Y-50994819D02*
X177206190Y-51042438D01*
X177206190Y-51042438D02*
X177301428Y-51137676D01*
X177301428Y-51137676D02*
X177349047Y-51232914D01*
X177349047Y-51232914D02*
X177396666Y-51423390D01*
X177396666Y-51423390D02*
X177396666Y-51566247D01*
X177396666Y-51566247D02*
X177349047Y-51756723D01*
X177349047Y-51756723D02*
X177301428Y-51851961D01*
X177301428Y-51851961D02*
X177206190Y-51947200D01*
X177206190Y-51947200D02*
X177063333Y-51994819D01*
X177063333Y-51994819D02*
X176825238Y-51994819D01*
X159310714Y-39609819D02*
X159310714Y-38943152D01*
X159310714Y-39038390D02*
X159358333Y-38990771D01*
X159358333Y-38990771D02*
X159453571Y-38943152D01*
X159453571Y-38943152D02*
X159596428Y-38943152D01*
X159596428Y-38943152D02*
X159691666Y-38990771D01*
X159691666Y-38990771D02*
X159739285Y-39086009D01*
X159739285Y-39086009D02*
X159739285Y-39609819D01*
X159739285Y-39086009D02*
X159786904Y-38990771D01*
X159786904Y-38990771D02*
X159882142Y-38943152D01*
X159882142Y-38943152D02*
X160024999Y-38943152D01*
X160024999Y-38943152D02*
X160120238Y-38990771D01*
X160120238Y-38990771D02*
X160167857Y-39086009D01*
X160167857Y-39086009D02*
X160167857Y-39609819D01*
X161072618Y-39562200D02*
X160977380Y-39609819D01*
X160977380Y-39609819D02*
X160786904Y-39609819D01*
X160786904Y-39609819D02*
X160691666Y-39562200D01*
X160691666Y-39562200D02*
X160644047Y-39514580D01*
X160644047Y-39514580D02*
X160596428Y-39419342D01*
X160596428Y-39419342D02*
X160596428Y-39133628D01*
X160596428Y-39133628D02*
X160644047Y-39038390D01*
X160644047Y-39038390D02*
X160691666Y-38990771D01*
X160691666Y-38990771D02*
X160786904Y-38943152D01*
X160786904Y-38943152D02*
X160977380Y-38943152D01*
X160977380Y-38943152D02*
X161072618Y-38990771D01*
X161501190Y-38943152D02*
X161501190Y-39943152D01*
X161501190Y-38990771D02*
X161596428Y-38943152D01*
X161596428Y-38943152D02*
X161786904Y-38943152D01*
X161786904Y-38943152D02*
X161882142Y-38990771D01*
X161882142Y-38990771D02*
X161929761Y-39038390D01*
X161929761Y-39038390D02*
X161977380Y-39133628D01*
X161977380Y-39133628D02*
X161977380Y-39419342D01*
X161977380Y-39419342D02*
X161929761Y-39514580D01*
X161929761Y-39514580D02*
X161882142Y-39562200D01*
X161882142Y-39562200D02*
X161786904Y-39609819D01*
X161786904Y-39609819D02*
X161596428Y-39609819D01*
X161596428Y-39609819D02*
X161501190Y-39562200D01*
X162310714Y-38609819D02*
X162929761Y-38609819D01*
X162929761Y-38609819D02*
X162596428Y-38990771D01*
X162596428Y-38990771D02*
X162739285Y-38990771D01*
X162739285Y-38990771D02*
X162834523Y-39038390D01*
X162834523Y-39038390D02*
X162882142Y-39086009D01*
X162882142Y-39086009D02*
X162929761Y-39181247D01*
X162929761Y-39181247D02*
X162929761Y-39419342D01*
X162929761Y-39419342D02*
X162882142Y-39514580D01*
X162882142Y-39514580D02*
X162834523Y-39562200D01*
X162834523Y-39562200D02*
X162739285Y-39609819D01*
X162739285Y-39609819D02*
X162453571Y-39609819D01*
X162453571Y-39609819D02*
X162358333Y-39562200D01*
X162358333Y-39562200D02*
X162310714Y-39514580D01*
X163310714Y-38705057D02*
X163358333Y-38657438D01*
X163358333Y-38657438D02*
X163453571Y-38609819D01*
X163453571Y-38609819D02*
X163691666Y-38609819D01*
X163691666Y-38609819D02*
X163786904Y-38657438D01*
X163786904Y-38657438D02*
X163834523Y-38705057D01*
X163834523Y-38705057D02*
X163882142Y-38800295D01*
X163882142Y-38800295D02*
X163882142Y-38895533D01*
X163882142Y-38895533D02*
X163834523Y-39038390D01*
X163834523Y-39038390D02*
X163263095Y-39609819D01*
X163263095Y-39609819D02*
X163882142Y-39609819D01*
X164501190Y-38609819D02*
X164596428Y-38609819D01*
X164596428Y-38609819D02*
X164691666Y-38657438D01*
X164691666Y-38657438D02*
X164739285Y-38705057D01*
X164739285Y-38705057D02*
X164786904Y-38800295D01*
X164786904Y-38800295D02*
X164834523Y-38990771D01*
X164834523Y-38990771D02*
X164834523Y-39228866D01*
X164834523Y-39228866D02*
X164786904Y-39419342D01*
X164786904Y-39419342D02*
X164739285Y-39514580D01*
X164739285Y-39514580D02*
X164691666Y-39562200D01*
X164691666Y-39562200D02*
X164596428Y-39609819D01*
X164596428Y-39609819D02*
X164501190Y-39609819D01*
X164501190Y-39609819D02*
X164405952Y-39562200D01*
X164405952Y-39562200D02*
X164358333Y-39514580D01*
X164358333Y-39514580D02*
X164310714Y-39419342D01*
X164310714Y-39419342D02*
X164263095Y-39228866D01*
X164263095Y-39228866D02*
X164263095Y-38990771D01*
X164263095Y-38990771D02*
X164310714Y-38800295D01*
X164310714Y-38800295D02*
X164358333Y-38705057D01*
X164358333Y-38705057D02*
X164405952Y-38657438D01*
X164405952Y-38657438D02*
X164501190Y-38609819D01*
X165405952Y-39038390D02*
X165310714Y-38990771D01*
X165310714Y-38990771D02*
X165263095Y-38943152D01*
X165263095Y-38943152D02*
X165215476Y-38847914D01*
X165215476Y-38847914D02*
X165215476Y-38800295D01*
X165215476Y-38800295D02*
X165263095Y-38705057D01*
X165263095Y-38705057D02*
X165310714Y-38657438D01*
X165310714Y-38657438D02*
X165405952Y-38609819D01*
X165405952Y-38609819D02*
X165596428Y-38609819D01*
X165596428Y-38609819D02*
X165691666Y-38657438D01*
X165691666Y-38657438D02*
X165739285Y-38705057D01*
X165739285Y-38705057D02*
X165786904Y-38800295D01*
X165786904Y-38800295D02*
X165786904Y-38847914D01*
X165786904Y-38847914D02*
X165739285Y-38943152D01*
X165739285Y-38943152D02*
X165691666Y-38990771D01*
X165691666Y-38990771D02*
X165596428Y-39038390D01*
X165596428Y-39038390D02*
X165405952Y-39038390D01*
X165405952Y-39038390D02*
X165310714Y-39086009D01*
X165310714Y-39086009D02*
X165263095Y-39133628D01*
X165263095Y-39133628D02*
X165215476Y-39228866D01*
X165215476Y-39228866D02*
X165215476Y-39419342D01*
X165215476Y-39419342D02*
X165263095Y-39514580D01*
X165263095Y-39514580D02*
X165310714Y-39562200D01*
X165310714Y-39562200D02*
X165405952Y-39609819D01*
X165405952Y-39609819D02*
X165596428Y-39609819D01*
X165596428Y-39609819D02*
X165691666Y-39562200D01*
X165691666Y-39562200D02*
X165739285Y-39514580D01*
X165739285Y-39514580D02*
X165786904Y-39419342D01*
X165786904Y-39419342D02*
X165786904Y-39228866D01*
X165786904Y-39228866D02*
X165739285Y-39133628D01*
X165739285Y-39133628D02*
X165691666Y-39086009D01*
X165691666Y-39086009D02*
X165596428Y-39038390D01*
X145682380Y-57394819D02*
X145682380Y-56394819D01*
X145682380Y-57347200D02*
X145587142Y-57394819D01*
X145587142Y-57394819D02*
X145396666Y-57394819D01*
X145396666Y-57394819D02*
X145301428Y-57347200D01*
X145301428Y-57347200D02*
X145253809Y-57299580D01*
X145253809Y-57299580D02*
X145206190Y-57204342D01*
X145206190Y-57204342D02*
X145206190Y-56918628D01*
X145206190Y-56918628D02*
X145253809Y-56823390D01*
X145253809Y-56823390D02*
X145301428Y-56775771D01*
X145301428Y-56775771D02*
X145396666Y-56728152D01*
X145396666Y-56728152D02*
X145587142Y-56728152D01*
X145587142Y-56728152D02*
X145682380Y-56775771D01*
X146110952Y-57347200D02*
X146206190Y-57394819D01*
X146206190Y-57394819D02*
X146396666Y-57394819D01*
X146396666Y-57394819D02*
X146491904Y-57347200D01*
X146491904Y-57347200D02*
X146539523Y-57251961D01*
X146539523Y-57251961D02*
X146539523Y-57204342D01*
X146539523Y-57204342D02*
X146491904Y-57109104D01*
X146491904Y-57109104D02*
X146396666Y-57061485D01*
X146396666Y-57061485D02*
X146253809Y-57061485D01*
X146253809Y-57061485D02*
X146158571Y-57013866D01*
X146158571Y-57013866D02*
X146110952Y-56918628D01*
X146110952Y-56918628D02*
X146110952Y-56871009D01*
X146110952Y-56871009D02*
X146158571Y-56775771D01*
X146158571Y-56775771D02*
X146253809Y-56728152D01*
X146253809Y-56728152D02*
X146396666Y-56728152D01*
X146396666Y-56728152D02*
X146491904Y-56775771D01*
X147491904Y-57394819D02*
X146920476Y-57394819D01*
X147206190Y-57394819D02*
X147206190Y-56394819D01*
X147206190Y-56394819D02*
X147110952Y-56537676D01*
X147110952Y-56537676D02*
X147015714Y-56632914D01*
X147015714Y-56632914D02*
X146920476Y-56680533D01*
X148063333Y-56823390D02*
X147968095Y-56775771D01*
X147968095Y-56775771D02*
X147920476Y-56728152D01*
X147920476Y-56728152D02*
X147872857Y-56632914D01*
X147872857Y-56632914D02*
X147872857Y-56585295D01*
X147872857Y-56585295D02*
X147920476Y-56490057D01*
X147920476Y-56490057D02*
X147968095Y-56442438D01*
X147968095Y-56442438D02*
X148063333Y-56394819D01*
X148063333Y-56394819D02*
X148253809Y-56394819D01*
X148253809Y-56394819D02*
X148349047Y-56442438D01*
X148349047Y-56442438D02*
X148396666Y-56490057D01*
X148396666Y-56490057D02*
X148444285Y-56585295D01*
X148444285Y-56585295D02*
X148444285Y-56632914D01*
X148444285Y-56632914D02*
X148396666Y-56728152D01*
X148396666Y-56728152D02*
X148349047Y-56775771D01*
X148349047Y-56775771D02*
X148253809Y-56823390D01*
X148253809Y-56823390D02*
X148063333Y-56823390D01*
X148063333Y-56823390D02*
X147968095Y-56871009D01*
X147968095Y-56871009D02*
X147920476Y-56918628D01*
X147920476Y-56918628D02*
X147872857Y-57013866D01*
X147872857Y-57013866D02*
X147872857Y-57204342D01*
X147872857Y-57204342D02*
X147920476Y-57299580D01*
X147920476Y-57299580D02*
X147968095Y-57347200D01*
X147968095Y-57347200D02*
X148063333Y-57394819D01*
X148063333Y-57394819D02*
X148253809Y-57394819D01*
X148253809Y-57394819D02*
X148349047Y-57347200D01*
X148349047Y-57347200D02*
X148396666Y-57299580D01*
X148396666Y-57299580D02*
X148444285Y-57204342D01*
X148444285Y-57204342D02*
X148444285Y-57013866D01*
X148444285Y-57013866D02*
X148396666Y-56918628D01*
X148396666Y-56918628D02*
X148349047Y-56871009D01*
X148349047Y-56871009D02*
X148253809Y-56823390D01*
X148872857Y-57394819D02*
X148872857Y-56394819D01*
X148872857Y-56775771D02*
X148968095Y-56728152D01*
X148968095Y-56728152D02*
X149158571Y-56728152D01*
X149158571Y-56728152D02*
X149253809Y-56775771D01*
X149253809Y-56775771D02*
X149301428Y-56823390D01*
X149301428Y-56823390D02*
X149349047Y-56918628D01*
X149349047Y-56918628D02*
X149349047Y-57204342D01*
X149349047Y-57204342D02*
X149301428Y-57299580D01*
X149301428Y-57299580D02*
X149253809Y-57347200D01*
X149253809Y-57347200D02*
X149158571Y-57394819D01*
X149158571Y-57394819D02*
X148968095Y-57394819D01*
X148968095Y-57394819D02*
X148872857Y-57347200D01*
X149730000Y-56490057D02*
X149777619Y-56442438D01*
X149777619Y-56442438D02*
X149872857Y-56394819D01*
X149872857Y-56394819D02*
X150110952Y-56394819D01*
X150110952Y-56394819D02*
X150206190Y-56442438D01*
X150206190Y-56442438D02*
X150253809Y-56490057D01*
X150253809Y-56490057D02*
X150301428Y-56585295D01*
X150301428Y-56585295D02*
X150301428Y-56680533D01*
X150301428Y-56680533D02*
X150253809Y-56823390D01*
X150253809Y-56823390D02*
X149682381Y-57394819D01*
X149682381Y-57394819D02*
X150301428Y-57394819D01*
X150920476Y-56394819D02*
X151015714Y-56394819D01*
X151015714Y-56394819D02*
X151110952Y-56442438D01*
X151110952Y-56442438D02*
X151158571Y-56490057D01*
X151158571Y-56490057D02*
X151206190Y-56585295D01*
X151206190Y-56585295D02*
X151253809Y-56775771D01*
X151253809Y-56775771D02*
X151253809Y-57013866D01*
X151253809Y-57013866D02*
X151206190Y-57204342D01*
X151206190Y-57204342D02*
X151158571Y-57299580D01*
X151158571Y-57299580D02*
X151110952Y-57347200D01*
X151110952Y-57347200D02*
X151015714Y-57394819D01*
X151015714Y-57394819D02*
X150920476Y-57394819D01*
X150920476Y-57394819D02*
X150825238Y-57347200D01*
X150825238Y-57347200D02*
X150777619Y-57299580D01*
X150777619Y-57299580D02*
X150730000Y-57204342D01*
X150730000Y-57204342D02*
X150682381Y-57013866D01*
X150682381Y-57013866D02*
X150682381Y-56775771D01*
X150682381Y-56775771D02*
X150730000Y-56585295D01*
X150730000Y-56585295D02*
X150777619Y-56490057D01*
X150777619Y-56490057D02*
X150825238Y-56442438D01*
X150825238Y-56442438D02*
X150920476Y-56394819D01*
X157324819Y-62166666D02*
X156848628Y-62499999D01*
X157324819Y-62738094D02*
X156324819Y-62738094D01*
X156324819Y-62738094D02*
X156324819Y-62357142D01*
X156324819Y-62357142D02*
X156372438Y-62261904D01*
X156372438Y-62261904D02*
X156420057Y-62214285D01*
X156420057Y-62214285D02*
X156515295Y-62166666D01*
X156515295Y-62166666D02*
X156658152Y-62166666D01*
X156658152Y-62166666D02*
X156753390Y-62214285D01*
X156753390Y-62214285D02*
X156801009Y-62261904D01*
X156801009Y-62261904D02*
X156848628Y-62357142D01*
X156848628Y-62357142D02*
X156848628Y-62738094D01*
X156324819Y-61833332D02*
X156324819Y-61166666D01*
X156324819Y-61166666D02*
X157324819Y-61595237D01*
X162024285Y-59584819D02*
X161452857Y-59584819D01*
X161738571Y-59584819D02*
X161738571Y-58584819D01*
X161738571Y-58584819D02*
X161643333Y-58727676D01*
X161643333Y-58727676D02*
X161548095Y-58822914D01*
X161548095Y-58822914D02*
X161452857Y-58870533D01*
X162452857Y-59584819D02*
X162452857Y-58584819D01*
X162452857Y-58584819D02*
X162786190Y-59299104D01*
X162786190Y-59299104D02*
X163119523Y-58584819D01*
X163119523Y-58584819D02*
X163119523Y-59584819D01*
X157824819Y-38095238D02*
X157824819Y-38666666D01*
X157824819Y-38380952D02*
X156824819Y-38380952D01*
X156824819Y-38380952D02*
X156967676Y-38476190D01*
X156967676Y-38476190D02*
X157062914Y-38571428D01*
X157062914Y-38571428D02*
X157110533Y-38666666D01*
X156824819Y-37476190D02*
X156824819Y-37380952D01*
X156824819Y-37380952D02*
X156872438Y-37285714D01*
X156872438Y-37285714D02*
X156920057Y-37238095D01*
X156920057Y-37238095D02*
X157015295Y-37190476D01*
X157015295Y-37190476D02*
X157205771Y-37142857D01*
X157205771Y-37142857D02*
X157443866Y-37142857D01*
X157443866Y-37142857D02*
X157634342Y-37190476D01*
X157634342Y-37190476D02*
X157729580Y-37238095D01*
X157729580Y-37238095D02*
X157777200Y-37285714D01*
X157777200Y-37285714D02*
X157824819Y-37380952D01*
X157824819Y-37380952D02*
X157824819Y-37476190D01*
X157824819Y-37476190D02*
X157777200Y-37571428D01*
X157777200Y-37571428D02*
X157729580Y-37619047D01*
X157729580Y-37619047D02*
X157634342Y-37666666D01*
X157634342Y-37666666D02*
X157443866Y-37714285D01*
X157443866Y-37714285D02*
X157205771Y-37714285D01*
X157205771Y-37714285D02*
X157015295Y-37666666D01*
X157015295Y-37666666D02*
X156920057Y-37619047D01*
X156920057Y-37619047D02*
X156872438Y-37571428D01*
X156872438Y-37571428D02*
X156824819Y-37476190D01*
X157824819Y-36714285D02*
X156824819Y-36714285D01*
X157443866Y-36619047D02*
X157824819Y-36333333D01*
X157158152Y-36333333D02*
X157539104Y-36714285D01*
X172880952Y-59584819D02*
X172309524Y-59584819D01*
X172595238Y-59584819D02*
X172595238Y-58584819D01*
X172595238Y-58584819D02*
X172500000Y-58727676D01*
X172500000Y-58727676D02*
X172404762Y-58822914D01*
X172404762Y-58822914D02*
X172309524Y-58870533D01*
X173309524Y-59584819D02*
X173309524Y-58584819D01*
X173404762Y-59203866D02*
X173690476Y-59584819D01*
X173690476Y-58918152D02*
X173309524Y-59299104D01*
X161475714Y-31084819D02*
X160999524Y-31084819D01*
X160999524Y-31084819D02*
X160951905Y-31561009D01*
X160951905Y-31561009D02*
X160999524Y-31513390D01*
X160999524Y-31513390D02*
X161094762Y-31465771D01*
X161094762Y-31465771D02*
X161332857Y-31465771D01*
X161332857Y-31465771D02*
X161428095Y-31513390D01*
X161428095Y-31513390D02*
X161475714Y-31561009D01*
X161475714Y-31561009D02*
X161523333Y-31656247D01*
X161523333Y-31656247D02*
X161523333Y-31894342D01*
X161523333Y-31894342D02*
X161475714Y-31989580D01*
X161475714Y-31989580D02*
X161428095Y-32037200D01*
X161428095Y-32037200D02*
X161332857Y-32084819D01*
X161332857Y-32084819D02*
X161094762Y-32084819D01*
X161094762Y-32084819D02*
X160999524Y-32037200D01*
X160999524Y-32037200D02*
X160951905Y-31989580D01*
X162475714Y-32084819D02*
X161904286Y-32084819D01*
X162190000Y-32084819D02*
X162190000Y-31084819D01*
X162190000Y-31084819D02*
X162094762Y-31227676D01*
X162094762Y-31227676D02*
X161999524Y-31322914D01*
X161999524Y-31322914D02*
X161904286Y-31370533D01*
X163094762Y-31084819D02*
X163190000Y-31084819D01*
X163190000Y-31084819D02*
X163285238Y-31132438D01*
X163285238Y-31132438D02*
X163332857Y-31180057D01*
X163332857Y-31180057D02*
X163380476Y-31275295D01*
X163380476Y-31275295D02*
X163428095Y-31465771D01*
X163428095Y-31465771D02*
X163428095Y-31703866D01*
X163428095Y-31703866D02*
X163380476Y-31894342D01*
X163380476Y-31894342D02*
X163332857Y-31989580D01*
X163332857Y-31989580D02*
X163285238Y-32037200D01*
X163285238Y-32037200D02*
X163190000Y-32084819D01*
X163190000Y-32084819D02*
X163094762Y-32084819D01*
X163094762Y-32084819D02*
X162999524Y-32037200D01*
X162999524Y-32037200D02*
X162951905Y-31989580D01*
X162951905Y-31989580D02*
X162904286Y-31894342D01*
X162904286Y-31894342D02*
X162856667Y-31703866D01*
X162856667Y-31703866D02*
X162856667Y-31465771D01*
X162856667Y-31465771D02*
X162904286Y-31275295D01*
X162904286Y-31275295D02*
X162951905Y-31180057D01*
X162951905Y-31180057D02*
X162999524Y-31132438D01*
X162999524Y-31132438D02*
X163094762Y-31084819D01*
X169788095Y-52154819D02*
X169788095Y-52964342D01*
X169788095Y-52964342D02*
X169835714Y-53059580D01*
X169835714Y-53059580D02*
X169883333Y-53107200D01*
X169883333Y-53107200D02*
X169978571Y-53154819D01*
X169978571Y-53154819D02*
X170169047Y-53154819D01*
X170169047Y-53154819D02*
X170264285Y-53107200D01*
X170264285Y-53107200D02*
X170311904Y-53059580D01*
X170311904Y-53059580D02*
X170359523Y-52964342D01*
X170359523Y-52964342D02*
X170359523Y-52154819D01*
X170740476Y-52154819D02*
X171359523Y-52154819D01*
X171359523Y-52154819D02*
X171026190Y-52535771D01*
X171026190Y-52535771D02*
X171169047Y-52535771D01*
X171169047Y-52535771D02*
X171264285Y-52583390D01*
X171264285Y-52583390D02*
X171311904Y-52631009D01*
X171311904Y-52631009D02*
X171359523Y-52726247D01*
X171359523Y-52726247D02*
X171359523Y-52964342D01*
X171359523Y-52964342D02*
X171311904Y-53059580D01*
X171311904Y-53059580D02*
X171264285Y-53107200D01*
X171264285Y-53107200D02*
X171169047Y-53154819D01*
X171169047Y-53154819D02*
X170883333Y-53154819D01*
X170883333Y-53154819D02*
X170788095Y-53107200D01*
X170788095Y-53107200D02*
X170740476Y-53059580D01*
X161594761Y-53584819D02*
X161023333Y-53584819D01*
X161309047Y-53584819D02*
X161309047Y-52584819D01*
X161309047Y-52584819D02*
X161213809Y-52727676D01*
X161213809Y-52727676D02*
X161118571Y-52822914D01*
X161118571Y-52822914D02*
X161023333Y-52870533D01*
X162213809Y-52584819D02*
X162309047Y-52584819D01*
X162309047Y-52584819D02*
X162404285Y-52632438D01*
X162404285Y-52632438D02*
X162451904Y-52680057D01*
X162451904Y-52680057D02*
X162499523Y-52775295D01*
X162499523Y-52775295D02*
X162547142Y-52965771D01*
X162547142Y-52965771D02*
X162547142Y-53203866D01*
X162547142Y-53203866D02*
X162499523Y-53394342D01*
X162499523Y-53394342D02*
X162451904Y-53489580D01*
X162451904Y-53489580D02*
X162404285Y-53537200D01*
X162404285Y-53537200D02*
X162309047Y-53584819D01*
X162309047Y-53584819D02*
X162213809Y-53584819D01*
X162213809Y-53584819D02*
X162118571Y-53537200D01*
X162118571Y-53537200D02*
X162070952Y-53489580D01*
X162070952Y-53489580D02*
X162023333Y-53394342D01*
X162023333Y-53394342D02*
X161975714Y-53203866D01*
X161975714Y-53203866D02*
X161975714Y-52965771D01*
X161975714Y-52965771D02*
X162023333Y-52775295D01*
X162023333Y-52775295D02*
X162070952Y-52680057D01*
X162070952Y-52680057D02*
X162118571Y-52632438D01*
X162118571Y-52632438D02*
X162213809Y-52584819D01*
X162975714Y-53584819D02*
X162975714Y-52584819D01*
X163070952Y-53203866D02*
X163356666Y-53584819D01*
X163356666Y-52918152D02*
X162975714Y-53299104D01*
X145865237Y-40899580D02*
X145817618Y-40947200D01*
X145817618Y-40947200D02*
X145674761Y-40994819D01*
X145674761Y-40994819D02*
X145579523Y-40994819D01*
X145579523Y-40994819D02*
X145436666Y-40947200D01*
X145436666Y-40947200D02*
X145341428Y-40851961D01*
X145341428Y-40851961D02*
X145293809Y-40756723D01*
X145293809Y-40756723D02*
X145246190Y-40566247D01*
X145246190Y-40566247D02*
X145246190Y-40423390D01*
X145246190Y-40423390D02*
X145293809Y-40232914D01*
X145293809Y-40232914D02*
X145341428Y-40137676D01*
X145341428Y-40137676D02*
X145436666Y-40042438D01*
X145436666Y-40042438D02*
X145579523Y-39994819D01*
X145579523Y-39994819D02*
X145674761Y-39994819D01*
X145674761Y-39994819D02*
X145817618Y-40042438D01*
X145817618Y-40042438D02*
X145865237Y-40090057D01*
X146722380Y-40994819D02*
X146722380Y-39994819D01*
X146722380Y-40947200D02*
X146627142Y-40994819D01*
X146627142Y-40994819D02*
X146436666Y-40994819D01*
X146436666Y-40994819D02*
X146341428Y-40947200D01*
X146341428Y-40947200D02*
X146293809Y-40899580D01*
X146293809Y-40899580D02*
X146246190Y-40804342D01*
X146246190Y-40804342D02*
X146246190Y-40518628D01*
X146246190Y-40518628D02*
X146293809Y-40423390D01*
X146293809Y-40423390D02*
X146341428Y-40375771D01*
X146341428Y-40375771D02*
X146436666Y-40328152D01*
X146436666Y-40328152D02*
X146627142Y-40328152D01*
X146627142Y-40328152D02*
X146722380Y-40375771D01*
X147150952Y-40947200D02*
X147246190Y-40994819D01*
X147246190Y-40994819D02*
X147436666Y-40994819D01*
X147436666Y-40994819D02*
X147531904Y-40947200D01*
X147531904Y-40947200D02*
X147579523Y-40851961D01*
X147579523Y-40851961D02*
X147579523Y-40804342D01*
X147579523Y-40804342D02*
X147531904Y-40709104D01*
X147531904Y-40709104D02*
X147436666Y-40661485D01*
X147436666Y-40661485D02*
X147293809Y-40661485D01*
X147293809Y-40661485D02*
X147198571Y-40613866D01*
X147198571Y-40613866D02*
X147150952Y-40518628D01*
X147150952Y-40518628D02*
X147150952Y-40471009D01*
X147150952Y-40471009D02*
X147198571Y-40375771D01*
X147198571Y-40375771D02*
X147293809Y-40328152D01*
X147293809Y-40328152D02*
X147436666Y-40328152D01*
X147436666Y-40328152D02*
X147531904Y-40375771D01*
X148436666Y-40947200D02*
X148341428Y-40994819D01*
X148341428Y-40994819D02*
X148150952Y-40994819D01*
X148150952Y-40994819D02*
X148055714Y-40947200D01*
X148055714Y-40947200D02*
X148008095Y-40899580D01*
X148008095Y-40899580D02*
X147960476Y-40804342D01*
X147960476Y-40804342D02*
X147960476Y-40518628D01*
X147960476Y-40518628D02*
X148008095Y-40423390D01*
X148008095Y-40423390D02*
X148055714Y-40375771D01*
X148055714Y-40375771D02*
X148150952Y-40328152D01*
X148150952Y-40328152D02*
X148341428Y-40328152D01*
X148341428Y-40328152D02*
X148436666Y-40375771D01*
X149246190Y-40947200D02*
X149150952Y-40994819D01*
X149150952Y-40994819D02*
X148960476Y-40994819D01*
X148960476Y-40994819D02*
X148865238Y-40947200D01*
X148865238Y-40947200D02*
X148817619Y-40851961D01*
X148817619Y-40851961D02*
X148817619Y-40471009D01*
X148817619Y-40471009D02*
X148865238Y-40375771D01*
X148865238Y-40375771D02*
X148960476Y-40328152D01*
X148960476Y-40328152D02*
X149150952Y-40328152D01*
X149150952Y-40328152D02*
X149246190Y-40375771D01*
X149246190Y-40375771D02*
X149293809Y-40471009D01*
X149293809Y-40471009D02*
X149293809Y-40566247D01*
X149293809Y-40566247D02*
X148817619Y-40661485D01*
X149865238Y-40994819D02*
X149770000Y-40947200D01*
X149770000Y-40947200D02*
X149722381Y-40851961D01*
X149722381Y-40851961D02*
X149722381Y-39994819D01*
X150389048Y-40994819D02*
X150293810Y-40947200D01*
X150293810Y-40947200D02*
X150246191Y-40851961D01*
X150246191Y-40851961D02*
X150246191Y-39994819D01*
X151293810Y-40994819D02*
X150722382Y-40994819D01*
X151008096Y-40994819D02*
X151008096Y-39994819D01*
X151008096Y-39994819D02*
X150912858Y-40137676D01*
X150912858Y-40137676D02*
X150817620Y-40232914D01*
X150817620Y-40232914D02*
X150722382Y-40280533D01*
X144206190Y-31471009D02*
X144539523Y-31471009D01*
X144682380Y-31994819D02*
X144206190Y-31994819D01*
X144206190Y-31994819D02*
X144206190Y-30994819D01*
X144206190Y-30994819D02*
X144682380Y-30994819D01*
X145682380Y-31899580D02*
X145634761Y-31947200D01*
X145634761Y-31947200D02*
X145491904Y-31994819D01*
X145491904Y-31994819D02*
X145396666Y-31994819D01*
X145396666Y-31994819D02*
X145253809Y-31947200D01*
X145253809Y-31947200D02*
X145158571Y-31851961D01*
X145158571Y-31851961D02*
X145110952Y-31756723D01*
X145110952Y-31756723D02*
X145063333Y-31566247D01*
X145063333Y-31566247D02*
X145063333Y-31423390D01*
X145063333Y-31423390D02*
X145110952Y-31232914D01*
X145110952Y-31232914D02*
X145158571Y-31137676D01*
X145158571Y-31137676D02*
X145253809Y-31042438D01*
X145253809Y-31042438D02*
X145396666Y-30994819D01*
X145396666Y-30994819D02*
X145491904Y-30994819D01*
X145491904Y-30994819D02*
X145634761Y-31042438D01*
X145634761Y-31042438D02*
X145682380Y-31090057D01*
X145872857Y-32090057D02*
X146634761Y-32090057D01*
X146825238Y-31947200D02*
X146920476Y-31994819D01*
X146920476Y-31994819D02*
X147110952Y-31994819D01*
X147110952Y-31994819D02*
X147206190Y-31947200D01*
X147206190Y-31947200D02*
X147253809Y-31851961D01*
X147253809Y-31851961D02*
X147253809Y-31804342D01*
X147253809Y-31804342D02*
X147206190Y-31709104D01*
X147206190Y-31709104D02*
X147110952Y-31661485D01*
X147110952Y-31661485D02*
X146968095Y-31661485D01*
X146968095Y-31661485D02*
X146872857Y-31613866D01*
X146872857Y-31613866D02*
X146825238Y-31518628D01*
X146825238Y-31518628D02*
X146825238Y-31471009D01*
X146825238Y-31471009D02*
X146872857Y-31375771D01*
X146872857Y-31375771D02*
X146968095Y-31328152D01*
X146968095Y-31328152D02*
X147110952Y-31328152D01*
X147110952Y-31328152D02*
X147206190Y-31375771D01*
X148063333Y-31947200D02*
X147968095Y-31994819D01*
X147968095Y-31994819D02*
X147777619Y-31994819D01*
X147777619Y-31994819D02*
X147682381Y-31947200D01*
X147682381Y-31947200D02*
X147634762Y-31851961D01*
X147634762Y-31851961D02*
X147634762Y-31471009D01*
X147634762Y-31471009D02*
X147682381Y-31375771D01*
X147682381Y-31375771D02*
X147777619Y-31328152D01*
X147777619Y-31328152D02*
X147968095Y-31328152D01*
X147968095Y-31328152D02*
X148063333Y-31375771D01*
X148063333Y-31375771D02*
X148110952Y-31471009D01*
X148110952Y-31471009D02*
X148110952Y-31566247D01*
X148110952Y-31566247D02*
X147634762Y-31661485D01*
X148539524Y-31328152D02*
X148539524Y-31994819D01*
X148539524Y-31423390D02*
X148587143Y-31375771D01*
X148587143Y-31375771D02*
X148682381Y-31328152D01*
X148682381Y-31328152D02*
X148825238Y-31328152D01*
X148825238Y-31328152D02*
X148920476Y-31375771D01*
X148920476Y-31375771D02*
X148968095Y-31471009D01*
X148968095Y-31471009D02*
X148968095Y-31994819D01*
X149396667Y-31947200D02*
X149491905Y-31994819D01*
X149491905Y-31994819D02*
X149682381Y-31994819D01*
X149682381Y-31994819D02*
X149777619Y-31947200D01*
X149777619Y-31947200D02*
X149825238Y-31851961D01*
X149825238Y-31851961D02*
X149825238Y-31804342D01*
X149825238Y-31804342D02*
X149777619Y-31709104D01*
X149777619Y-31709104D02*
X149682381Y-31661485D01*
X149682381Y-31661485D02*
X149539524Y-31661485D01*
X149539524Y-31661485D02*
X149444286Y-31613866D01*
X149444286Y-31613866D02*
X149396667Y-31518628D01*
X149396667Y-31518628D02*
X149396667Y-31471009D01*
X149396667Y-31471009D02*
X149444286Y-31375771D01*
X149444286Y-31375771D02*
X149539524Y-31328152D01*
X149539524Y-31328152D02*
X149682381Y-31328152D01*
X149682381Y-31328152D02*
X149777619Y-31375771D01*
X150396667Y-31994819D02*
X150301429Y-31947200D01*
X150301429Y-31947200D02*
X150253810Y-31899580D01*
X150253810Y-31899580D02*
X150206191Y-31804342D01*
X150206191Y-31804342D02*
X150206191Y-31518628D01*
X150206191Y-31518628D02*
X150253810Y-31423390D01*
X150253810Y-31423390D02*
X150301429Y-31375771D01*
X150301429Y-31375771D02*
X150396667Y-31328152D01*
X150396667Y-31328152D02*
X150539524Y-31328152D01*
X150539524Y-31328152D02*
X150634762Y-31375771D01*
X150634762Y-31375771D02*
X150682381Y-31423390D01*
X150682381Y-31423390D02*
X150730000Y-31518628D01*
X150730000Y-31518628D02*
X150730000Y-31804342D01*
X150730000Y-31804342D02*
X150682381Y-31899580D01*
X150682381Y-31899580D02*
X150634762Y-31947200D01*
X150634762Y-31947200D02*
X150539524Y-31994819D01*
X150539524Y-31994819D02*
X150396667Y-31994819D01*
X151158572Y-31994819D02*
X151158572Y-31328152D01*
X151158572Y-31518628D02*
X151206191Y-31423390D01*
X151206191Y-31423390D02*
X151253810Y-31375771D01*
X151253810Y-31375771D02*
X151349048Y-31328152D01*
X151349048Y-31328152D02*
X151444286Y-31328152D01*
X152301429Y-31994819D02*
X151730001Y-31994819D01*
X152015715Y-31994819D02*
X152015715Y-30994819D01*
X152015715Y-30994819D02*
X151920477Y-31137676D01*
X151920477Y-31137676D02*
X151825239Y-31232914D01*
X151825239Y-31232914D02*
X151730001Y-31280533D01*
D11*
%TO.C,pH_sensor1*%
X150480000Y-52900000D02*
G75*
G02*
X145480000Y-52900000I-2500000J0D01*
G01*
X145480000Y-52900000D02*
G75*
G02*
X150480000Y-52900000I2500000J0D01*
G01*
X150970000Y-52900000D02*
G75*
G02*
X145420000Y-54444830I-2990000J0D01*
G01*
X145420000Y-51355170D02*
G75*
G02*
X150970000Y-52900000I2560000J-1544830D01*
G01*
X145420000Y-51355000D02*
X145420000Y-54445000D01*
%TO.C,button*%
X170130000Y-47850000D02*
X170130000Y-45650000D01*
X170750000Y-43630000D02*
X175750000Y-43630000D01*
X170750000Y-49870000D02*
X175750000Y-49870000D01*
X176370000Y-45650000D02*
X176370000Y-47850000D01*
X175000000Y-46750000D02*
G75*
G02*
X171500000Y-46750000I-1750000J0D01*
G01*
X171500000Y-46750000D02*
G75*
G02*
X175000000Y-46750000I1750000J0D01*
G01*
X170130000Y-36850000D02*
X170130000Y-34650000D01*
X170750000Y-32630000D02*
X175750000Y-32630000D01*
X170750000Y-38870000D02*
X175750000Y-38870000D01*
X176370000Y-34650000D02*
X176370000Y-36850000D01*
X175000000Y-35750000D02*
G75*
G02*
X171500000Y-35750000I-1750000J0D01*
G01*
X171500000Y-35750000D02*
G75*
G02*
X175000000Y-35750000I1750000J0D01*
G01*
%TO.C,LED*%
X177901437Y-55580000D02*
G75*
G02*
X174670000Y-55735516I-1671437J1080000D01*
G01*
X177270961Y-55580000D02*
G75*
G02*
X175189039Y-55580000I-1040961J1080000D01*
G01*
X175189039Y-53420000D02*
G75*
G02*
X177270961Y-53420000I1040961J-1080000D01*
G01*
X174670000Y-53264484D02*
G75*
G02*
X177901437Y-53420000I1560000J-1235516D01*
G01*
X174670000Y-55580000D02*
X174670000Y-55736000D01*
X174670000Y-53264000D02*
X174670000Y-53420000D01*
%TO.C,mcp3208*%
X160465000Y-39995000D02*
X164585000Y-39995000D01*
X160465000Y-40050000D02*
X160465000Y-39995000D01*
X160465000Y-50115000D02*
X160465000Y-50060000D01*
X164585000Y-39995000D02*
X164585000Y-40050000D01*
X164585000Y-50060000D02*
X164585000Y-50115000D01*
X164585000Y-50115000D02*
X160465000Y-50115000D01*
X159925000Y-40045000D02*
X159685000Y-39715000D01*
X160165000Y-39715000D01*
X159925000Y-40045000D01*
G36*
X159925000Y-40045000D02*
G01*
X159685000Y-39715000D01*
X160165000Y-39715000D01*
X159925000Y-40045000D01*
G37*
%TO.C,ds18b20*%
X146430000Y-62350000D02*
X150030000Y-62350000D01*
X146391522Y-62338478D02*
G75*
G02*
X148230000Y-57899999I1838478J1838478D01*
G01*
X148230000Y-57900000D02*
G75*
G02*
X150068478Y-62338478I0J-2600000D01*
G01*
%TO.C,R7*%
X155870000Y-62270000D02*
X155540000Y-62270000D01*
X155870000Y-55730000D02*
X155870000Y-62270000D01*
X155540000Y-55730000D02*
X155870000Y-55730000D01*
X153460000Y-55730000D02*
X153130000Y-55730000D01*
X153130000Y-62270000D02*
X153460000Y-62270000D01*
X153130000Y-55730000D02*
X153130000Y-62270000D01*
%TO.C,1M*%
X159040000Y-60130000D02*
X165580000Y-60130000D01*
X159040000Y-60460000D02*
X159040000Y-60130000D01*
X159040000Y-62540000D02*
X159040000Y-62870000D01*
X159040000Y-62870000D02*
X165580000Y-62870000D01*
X165580000Y-60130000D02*
X165580000Y-60460000D01*
X165580000Y-62870000D02*
X165580000Y-62540000D01*
%TO.C,10k*%
X156370000Y-34230000D02*
X156370000Y-40770000D01*
X156040000Y-34230000D02*
X156370000Y-34230000D01*
X153960000Y-34230000D02*
X153630000Y-34230000D01*
X153630000Y-34230000D02*
X153630000Y-40770000D01*
X156370000Y-40770000D02*
X156040000Y-40770000D01*
X153630000Y-40770000D02*
X153960000Y-40770000D01*
%TO.C,1k*%
X169730000Y-60130000D02*
X176270000Y-60130000D01*
X169730000Y-60460000D02*
X169730000Y-60130000D01*
X169730000Y-62540000D02*
X169730000Y-62870000D01*
X169730000Y-62870000D02*
X176270000Y-62870000D01*
X176270000Y-60130000D02*
X176270000Y-60460000D01*
X176270000Y-62870000D02*
X176270000Y-62540000D01*
%TO.C,510*%
X158920000Y-32630000D02*
X165460000Y-32630000D01*
X158920000Y-32960000D02*
X158920000Y-32630000D01*
X158920000Y-35040000D02*
X158920000Y-35370000D01*
X158920000Y-35370000D02*
X165460000Y-35370000D01*
X165460000Y-32630000D02*
X165460000Y-32960000D01*
X165460000Y-35370000D02*
X165460000Y-35040000D01*
%TO.C,U3*%
X169050000Y-53640000D02*
X172050000Y-53640000D01*
X169050000Y-55860000D02*
X172050000Y-55860000D01*
X168540000Y-53660000D02*
X168260000Y-53660000D01*
X168540000Y-53380000D01*
X168540000Y-53660000D01*
G36*
X168540000Y-53660000D02*
G01*
X168260000Y-53660000D01*
X168540000Y-53380000D01*
X168540000Y-53660000D01*
G37*
%TO.C,10k*%
X158920000Y-54130000D02*
X165460000Y-54130000D01*
X158920000Y-54460000D02*
X158920000Y-54130000D01*
X158920000Y-56540000D02*
X158920000Y-56870000D01*
X158920000Y-56870000D02*
X165460000Y-56870000D01*
X165460000Y-54130000D02*
X165460000Y-54460000D01*
X165460000Y-56870000D02*
X165460000Y-56540000D01*
%TO.C,Cdscell1*%
X145710000Y-42955000D02*
X145710000Y-46045000D01*
X145710000Y-42955170D02*
G75*
G02*
X151260000Y-44500000I2560000J-1544830D01*
G01*
X151260000Y-44500000D02*
G75*
G02*
X145710000Y-46044830I-2990000J0D01*
G01*
X150770000Y-44500000D02*
G75*
G02*
X145770000Y-44500000I-2500000J0D01*
G01*
X145770000Y-44500000D02*
G75*
G02*
X150770000Y-44500000I2500000J0D01*
G01*
%TO.C,EC_sensor1*%
X145670000Y-33955000D02*
X145670000Y-37045000D01*
X145670000Y-33955170D02*
G75*
G02*
X151220000Y-35500000I2560000J-1544830D01*
G01*
X151220000Y-35500000D02*
G75*
G02*
X145670000Y-37044830I-2990000J0D01*
G01*
X150730000Y-35500000D02*
G75*
G02*
X145730000Y-35500000I-2500000J0D01*
G01*
X145730000Y-35500000D02*
G75*
G02*
X150730000Y-35500000I2500000J0D01*
G01*
%TD*%
M02*
