%TF.GenerationSoftware,KiCad,Pcbnew,9.0.7*%
%TF.CreationDate,2026-01-23T18:30:01+09:00*%
%TF.ProjectId,ono-kairo,6f6e6f2d-6b61-4697-926f-2e6b69636164,rev?*%
%TF.SameCoordinates,Original*%
%TF.FileFunction,Soldermask,Top*%
%TF.FilePolarity,Negative*%
%FSLAX46Y46*%
G04 Gerber Fmt 4.6, Leading zero omitted, Abs format (unit mm)*
G04 Created by KiCad (PCBNEW 9.0.7) date 2026-01-23 18:30:01*
%MOMM*%
%LPD*%
G01*
G04 APERTURE LIST*
G04 Aperture macros list*
%AMRoundRect*
0 Rectangle with rounded corners*
0 $1 Rounding radius*
0 $2 $3 $4 $5 $6 $7 $8 $9 X,Y pos of 4 corners*
0 Add a 4 corners polygon primitive as box body*
4,1,4,$2,$3,$4,$5,$6,$7,$8,$9,$2,$3,0*
0 Add four circle primitives for the rounded corners*
1,1,$1+$1,$2,$3*
1,1,$1+$1,$4,$5*
1,1,$1+$1,$6,$7*
1,1,$1+$1,$8,$9*
0 Add four rect primitives between the rounded corners*
20,1,$1+$1,$2,$3,$4,$5,0*
20,1,$1+$1,$4,$5,$6,$7,0*
20,1,$1+$1,$6,$7,$8,$9,0*
20,1,$1+$1,$8,$9,$2,$3,0*%
G04 Aperture macros list end*
%ADD10C,1.800000*%
%ADD11R,1.800000X1.800000*%
%ADD12C,1.700000*%
%ADD13C,3.800000*%
%ADD14RoundRect,0.150000X-0.825000X-0.150000X0.825000X-0.150000X0.825000X0.150000X-0.825000X0.150000X0*%
%ADD15R,1.050000X1.500000*%
%ADD16O,1.050000X1.500000*%
%ADD17C,1.600000*%
%ADD18R,0.750000X0.300000*%
%ADD19R,1.750000X1.450000*%
G04 APERTURE END LIST*
D10*
%TO.C,pH_sensor1*%
X149250000Y-52900000D03*
D11*
X146710000Y-52900000D03*
%TD*%
D12*
%TO.C,button*%
X170000000Y-44500000D03*
X176500000Y-44500000D03*
X170000000Y-49000000D03*
X176500000Y-49000000D03*
%TD*%
%TO.C,button*%
X170000000Y-33500000D03*
X176500000Y-33500000D03*
X170000000Y-38000000D03*
X176500000Y-38000000D03*
%TD*%
D13*
%TO.C,H5*%
X184500000Y-59500000D03*
%TD*%
%TO.C,H4*%
X184500000Y-53000000D03*
%TD*%
%TO.C,H3*%
X184500000Y-47000000D03*
%TD*%
%TO.C,H1*%
X184500000Y-35500000D03*
%TD*%
%TO.C,H2*%
X184500000Y-41500000D03*
%TD*%
D10*
%TO.C,LED*%
X177500000Y-54500000D03*
D11*
X174960000Y-54500000D03*
%TD*%
D14*
%TO.C,mcp3208*%
X165000000Y-40610000D03*
X160050000Y-40610000D03*
X160050000Y-41880000D03*
X160050000Y-43150000D03*
X160050000Y-44420000D03*
X160050000Y-45690000D03*
X160050000Y-46960000D03*
X160050000Y-48230000D03*
X160050000Y-49500000D03*
X165000000Y-49500000D03*
X165000000Y-48230000D03*
X165000000Y-46960000D03*
X165000000Y-45690000D03*
X165000000Y-44420000D03*
X165000000Y-43150000D03*
X165000000Y-41880000D03*
%TD*%
D15*
%TO.C,ds18b20*%
X146960000Y-60500000D03*
D16*
X148230000Y-60500000D03*
X149500000Y-60500000D03*
%TD*%
D17*
%TO.C,R7*%
X154500000Y-55190000D03*
X154500000Y-62810000D03*
%TD*%
%TO.C,1M*%
X158500000Y-61500000D03*
X166120000Y-61500000D03*
%TD*%
%TO.C,10k*%
X155000000Y-33690000D03*
X155000000Y-41310000D03*
%TD*%
%TO.C,1k*%
X169190000Y-61500000D03*
X176810000Y-61500000D03*
%TD*%
%TO.C,510*%
X158380000Y-34000000D03*
X166000000Y-34000000D03*
%TD*%
D18*
%TO.C,U3*%
X169100000Y-54000000D03*
X169100000Y-54500000D03*
X169100000Y-55000000D03*
X169100000Y-55500000D03*
X172000000Y-55500000D03*
X172000000Y-55000000D03*
X172000000Y-54500000D03*
X172000000Y-54000000D03*
D19*
X170550000Y-54750000D03*
%TD*%
D17*
%TO.C,10k*%
X158380000Y-55500000D03*
X166000000Y-55500000D03*
%TD*%
D11*
%TO.C,Cdscell1*%
X147000000Y-44500000D03*
D10*
X149540000Y-44500000D03*
%TD*%
D11*
%TO.C,EC_sensor1*%
X146960000Y-35500000D03*
D10*
X149500000Y-35500000D03*
%TD*%
M02*
