M48
; DRILL file {KiCad 9.0.7} date 2026-01-29T16:28:05+0900
; FORMAT={-:-/ absolute / metric / decimal}
; #@! TF.CreationDate,2026-01-29T16:28:05+09:00
; #@! TF.GenerationSoftware,Kicad,Pcbnew,9.0.7
; #@! TF.FileFunction,Plated,1,2,PTH
FMAT,2
METRIC
; #@! TA.AperFunction,Plated,PTH,ViaDrill
T1C0.300
; #@! TA.AperFunction,Plated,PTH,ComponentDrill
T2C0.750
; #@! TA.AperFunction,Plated,PTH,ComponentDrill
T3C0.800
; #@! TA.AperFunction,Plated,PTH,ComponentDrill
T4C0.900
; #@! TA.AperFunction,Plated,PTH,ComponentDrill
T5C1.000
; #@! TA.AperFunction,Plated,PTH,ComponentDrill
T6C2.200
%
G90
G05
T1
X163.5Y-66.5
X168.5Y-68.5
X171.5Y-68.5
X173.0Y-62.5
X177.0Y-49.5
X183.0Y-44.5
X192.5Y-68.0
X194.0Y-49.0
T2
X186.46Y-43.5
X187.73Y-43.5
X189.0Y-43.5
T3
X163.0Y-45.38
X163.0Y-53.0
X163.0Y-55.38
X163.0Y-63.0
X166.0Y-45.38
X166.0Y-53.0
X166.0Y-55.38
X166.0Y-63.0
X167.19Y-71.0
X169.26Y-56.84
X169.26Y-59.38
X169.26Y-61.92
X169.26Y-64.46
X174.81Y-71.0
X176.88Y-56.84
X176.88Y-59.38
X176.88Y-61.92
X176.88Y-64.46
X179.88Y-47.22
X179.88Y-54.84
X179.88Y-57.34
X179.88Y-64.96
X183.38Y-47.22
X183.38Y-49.76
X183.38Y-52.3
X183.38Y-54.84
X183.38Y-57.38
X183.38Y-59.92
X183.38Y-62.46
X183.38Y-65.0
X191.0Y-47.22
X191.0Y-49.76
X191.0Y-52.3
X191.0Y-54.84
X191.0Y-57.38
X191.0Y-59.92
X191.0Y-62.46
X191.0Y-65.0
T4
X161.96Y-71.0
X164.5Y-71.0
X170.225Y-42.5
X171.34Y-50.96
X172.765Y-42.5
X173.88Y-50.96
X177.225Y-42.5
X179.765Y-42.5
T5
X177.75Y-70.5
X177.75Y-75.0
X184.25Y-70.5
X184.25Y-75.0
X186.75Y-70.5
X186.75Y-75.0
X193.25Y-70.5
X193.25Y-75.0
T6
X197.0Y-34.5
X197.0Y-39.876
X197.0Y-45.251
X197.0Y-54.622
X197.0Y-59.998
X197.0Y-65.373
X197.0Y-70.749
X197.0Y-76.124
X197.0Y-81.5
M30
