%TF.GenerationSoftware,KiCad,Pcbnew,9.0.7*%
%TF.CreationDate,2026-01-23T18:30:01+09:00*%
%TF.ProjectId,ono-kairo,6f6e6f2d-6b61-4697-926f-2e6b69636164,rev?*%
%TF.SameCoordinates,Original*%
%TF.FileFunction,Copper,L1,Top*%
%TF.FilePolarity,Positive*%
%FSLAX46Y46*%
G04 Gerber Fmt 4.6, Leading zero omitted, Abs format (unit mm)*
G04 Created by KiCad (PCBNEW 9.0.7) date 2026-01-23 18:30:01*
%MOMM*%
%LPD*%
G01*
G04 APERTURE LIST*
G04 Aperture macros list*
%AMRoundRect*
0 Rectangle with rounded corners*
0 $1 Rounding radius*
0 $2 $3 $4 $5 $6 $7 $8 $9 X,Y pos of 4 corners*
0 Add a 4 corners polygon primitive as box body*
4,1,4,$2,$3,$4,$5,$6,$7,$8,$9,$2,$3,0*
0 Add four circle primitives for the rounded corners*
1,1,$1+$1,$2,$3*
1,1,$1+$1,$4,$5*
1,1,$1+$1,$6,$7*
1,1,$1+$1,$8,$9*
0 Add four rect primitives between the rounded corners*
20,1,$1+$1,$2,$3,$4,$5,0*
20,1,$1+$1,$4,$5,$6,$7,0*
20,1,$1+$1,$6,$7,$8,$9,0*
20,1,$1+$1,$8,$9,$2,$3,0*%
G04 Aperture macros list end*
%TA.AperFunction,ComponentPad*%
%ADD10C,1.800000*%
%TD*%
%TA.AperFunction,ComponentPad*%
%ADD11R,1.800000X1.800000*%
%TD*%
%TA.AperFunction,ComponentPad*%
%ADD12C,1.700000*%
%TD*%
%TA.AperFunction,ComponentPad*%
%ADD13C,3.800000*%
%TD*%
%TA.AperFunction,SMDPad,CuDef*%
%ADD14RoundRect,0.150000X-0.825000X-0.150000X0.825000X-0.150000X0.825000X0.150000X-0.825000X0.150000X0*%
%TD*%
%TA.AperFunction,ComponentPad*%
%ADD15R,1.050000X1.500000*%
%TD*%
%TA.AperFunction,ComponentPad*%
%ADD16O,1.050000X1.500000*%
%TD*%
%TA.AperFunction,ComponentPad*%
%ADD17C,1.600000*%
%TD*%
%TA.AperFunction,SMDPad,CuDef*%
%ADD18R,0.750000X0.300000*%
%TD*%
%TA.AperFunction,SMDPad,CuDef*%
%ADD19R,1.750000X1.450000*%
%TD*%
%TA.AperFunction,ViaPad*%
%ADD20C,0.600000*%
%TD*%
%TA.AperFunction,Conductor*%
%ADD21C,0.200000*%
%TD*%
G04 APERTURE END LIST*
D10*
%TO.P,pH_sensor1,2*%
%TO.N,Net-(U1-CH0)*%
X149250000Y-52900000D03*
D11*
%TO.P,pH_sensor1,1*%
%TO.N,Net-(D1-K)*%
X146710000Y-52900000D03*
%TD*%
D12*
%TO.P,button,1,Pin_1*%
%TO.N,Net-(J1-Pin_1)*%
X170000000Y-44500000D03*
X176500000Y-44500000D03*
%TO.P,button,2,Pin_2*%
%TO.N,Net-(J2-Pin_2)*%
X170000000Y-49000000D03*
X176500000Y-49000000D03*
%TD*%
%TO.P,button,1,Pin_1*%
%TO.N,Net-(J1-Pin_1)*%
X170000000Y-33500000D03*
X176500000Y-33500000D03*
%TO.P,button,2,Pin_2*%
%TO.N,Net-(J1-Pin_2)*%
X170000000Y-38000000D03*
X176500000Y-38000000D03*
%TD*%
D13*
%TO.P,H5,1,1*%
%TO.N,Net-(J1-Pin_1)*%
X184500000Y-59500000D03*
%TD*%
%TO.P,H4,1,1*%
%TO.N,Net-(D1-K)*%
X184500000Y-53000000D03*
%TD*%
%TO.P,H3,1,1*%
%TO.N,Net-(D1-A)*%
X184500000Y-47000000D03*
%TD*%
%TO.P,H1,1,1*%
%TO.N,Net-(J1-Pin_2)*%
X184500000Y-35500000D03*
%TD*%
%TO.P,H2,1,1*%
%TO.N,Net-(J2-Pin_2)*%
X184500000Y-41500000D03*
%TD*%
D10*
%TO.P,LED,2,A*%
%TO.N,Net-(D1-A)*%
X177500000Y-54500000D03*
D11*
%TO.P,LED,1,K*%
%TO.N,Net-(D1-K)*%
X174960000Y-54500000D03*
%TD*%
D14*
%TO.P,mcp3208,16,Vdd*%
%TO.N,Net-(J1-Pin_1)*%
X165000000Y-40610000D03*
%TO.P,mcp3208,1,CH0*%
%TO.N,Net-(U1-CH0)*%
X160050000Y-40610000D03*
%TO.P,mcp3208,2,CH1*%
%TO.N,Net-(U1-CH1)*%
X160050000Y-41880000D03*
%TO.P,mcp3208,3,CH2*%
%TO.N,Net-(U1-CH2)*%
X160050000Y-43150000D03*
%TO.P,mcp3208,4,CH3*%
%TO.N,unconnected-(U1-CH3-Pad4)*%
X160050000Y-44420000D03*
%TO.P,mcp3208,5,CH4*%
%TO.N,unconnected-(U1-CH4-Pad5)*%
X160050000Y-45690000D03*
%TO.P,mcp3208,6,CH5*%
%TO.N,unconnected-(U1-CH5-Pad6)*%
X160050000Y-46960000D03*
%TO.P,mcp3208,7,CH6*%
%TO.N,unconnected-(U1-CH6-Pad7)*%
X160050000Y-48230000D03*
%TO.P,mcp3208,8,CH7*%
%TO.N,unconnected-(U1-CH7-Pad8)*%
X160050000Y-49500000D03*
%TO.P,mcp3208,9,DGND*%
%TO.N,Net-(D1-K)*%
X165000000Y-49500000D03*
%TO.P,mcp3208,10,~{CS}/SHDN*%
%TO.N,CE0*%
X165000000Y-48230000D03*
%TO.P,mcp3208,11,Din*%
%TO.N,MOSI*%
X165000000Y-46960000D03*
%TO.P,mcp3208,12,Dout*%
%TO.N,MISO*%
X165000000Y-45690000D03*
%TO.P,mcp3208,13,CLK*%
%TO.N,CLK*%
X165000000Y-44420000D03*
%TO.P,mcp3208,14,AGND*%
%TO.N,Net-(D1-K)*%
X165000000Y-43150000D03*
%TO.P,mcp3208,15,Vref*%
%TO.N,Net-(J1-Pin_1)*%
X165000000Y-41880000D03*
%TD*%
D15*
%TO.P,ds18b20,1,GND*%
%TO.N,Net-(D1-K)*%
X146960000Y-60500000D03*
D16*
%TO.P,ds18b20,2,DQ*%
%TO.N,Net-(U2-DQ)*%
X148230000Y-60500000D03*
%TO.P,ds18b20,3,V_{DD}*%
%TO.N,Net-(J1-Pin_1)*%
X149500000Y-60500000D03*
%TD*%
D17*
%TO.P,R7,1*%
%TO.N,Net-(J1-Pin_1)*%
X154500000Y-55190000D03*
%TO.P,R7,2*%
%TO.N,Net-(D1-K)*%
X154500000Y-62810000D03*
%TD*%
%TO.P,1M,1*%
%TO.N,Net-(U1-CH0)*%
X158500000Y-61500000D03*
%TO.P,1M,2*%
X166120000Y-61500000D03*
%TD*%
%TO.P,10k,1*%
%TO.N,Net-(J1-Pin_1)*%
X155000000Y-33690000D03*
%TO.P,10k,2*%
%TO.N,Net-(U2-DQ)*%
X155000000Y-41310000D03*
%TD*%
%TO.P,1k,1*%
%TO.N,Net-(J1-Pin_1)*%
X169190000Y-61500000D03*
%TO.P,1k,2*%
%TO.N,Net-(U1-CH1)*%
X176810000Y-61500000D03*
%TD*%
%TO.P,510,1*%
%TO.N,Net-(U1-CH0)*%
X158380000Y-34000000D03*
%TO.P,510,2*%
%TO.N,Net-(D1-K)*%
X166000000Y-34000000D03*
%TD*%
D18*
%TO.P,U3,1*%
%TO.N,Net-(U1-CH0)*%
X169100000Y-54000000D03*
%TO.P,U3,2,-*%
X169100000Y-54500000D03*
%TO.P,U3,3,+*%
%TO.N,unconnected-(U3A-+-Pad3)*%
X169100000Y-55000000D03*
%TO.P,U3,4,V-*%
%TO.N,Net-(D1-K)*%
X169100000Y-55500000D03*
%TO.P,U3,5*%
%TO.N,N/C*%
X172000000Y-55500000D03*
%TO.P,U3,6*%
X172000000Y-55000000D03*
%TO.P,U3,7*%
X172000000Y-54500000D03*
%TO.P,U3,8,V+*%
%TO.N,Net-(J1-Pin_1)*%
X172000000Y-54000000D03*
D19*
%TO.P,U3,9,V-*%
%TO.N,Net-(D1-K)*%
X170550000Y-54750000D03*
%TD*%
D17*
%TO.P,10k,1*%
%TO.N,Net-(D1-K)*%
X158380000Y-55500000D03*
%TO.P,10k,2*%
X166000000Y-55500000D03*
%TD*%
D11*
%TO.P,Cdscell1,1*%
%TO.N,Net-(J1-Pin_1)*%
X147000000Y-44500000D03*
D10*
%TO.P,Cdscell1,2*%
%TO.N,Net-(U1-CH2)*%
X149540000Y-44500000D03*
%TD*%
D11*
%TO.P,EC_sensor1,1*%
%TO.N,Net-(U1-CH1)*%
X146960000Y-35500000D03*
D10*
%TO.P,EC_sensor1,2*%
%TO.N,Net-(D1-K)*%
X149500000Y-35500000D03*
%TD*%
D20*
%TO.N,*%
X156500000Y-58000000D03*
X167500000Y-39000000D03*
X181000000Y-40500000D03*
X188500000Y-47500000D03*
X153500000Y-51500000D03*
X167500000Y-63500000D03*
X188000000Y-32500000D03*
X187500000Y-62500000D03*
X167500000Y-59000000D03*
X170000000Y-59000000D03*
X165000000Y-59000000D03*
X167500000Y-52500000D03*
X160000000Y-52000000D03*
X157500000Y-52000000D03*
X153000000Y-46500000D03*
X176000000Y-41500000D03*
X179000000Y-41500000D03*
%TD*%
D21*
%TO.N,Net-(U1-CH1)*%
X148161000Y-36701000D02*
X146960000Y-35500000D01*
X153201000Y-36701000D02*
X148161000Y-36701000D01*
X158380000Y-41880000D02*
X153201000Y-36701000D01*
X160050000Y-41880000D02*
X158380000Y-41880000D01*
%TO.N,Net-(J1-Pin_1)*%
X170362000Y-61500000D02*
X176161000Y-55701000D01*
%TO.N,Net-(D1-A)*%
X177500000Y-54000000D02*
X177500000Y-54500000D01*
X184500000Y-47000000D02*
X177500000Y-54000000D01*
%TO.N,Net-(J2-Pin_2)*%
X177000000Y-49000000D02*
X176500000Y-49000000D01*
X184500000Y-41500000D02*
X177000000Y-49000000D01*
%TO.N,Net-(J1-Pin_2)*%
X182000000Y-38000000D02*
X176500000Y-38000000D01*
X184500000Y-35500000D02*
X182000000Y-38000000D01*
%TO.N,Net-(J1-Pin_1)*%
X172701000Y-53299000D02*
X172000000Y-54000000D01*
X176161000Y-53299000D02*
X172701000Y-53299000D01*
X176161000Y-55701000D02*
X176161000Y-53299000D01*
X169190000Y-61500000D02*
X170362000Y-61500000D01*
%TO.N,Net-(U1-CH0)*%
X158500000Y-61500000D02*
X166120000Y-61500000D01*
X145509000Y-61009000D02*
X148411000Y-63911000D01*
X148411000Y-63911000D02*
X156089000Y-63911000D01*
X145509000Y-51699000D02*
X145509000Y-61009000D01*
X148049000Y-51699000D02*
X145509000Y-51699000D01*
X156089000Y-63911000D02*
X158500000Y-61500000D01*
X149250000Y-52900000D02*
X148049000Y-51699000D01*
X153251000Y-48899000D02*
X149250000Y-52900000D01*
X169100000Y-51983032D02*
X166015968Y-48899000D01*
X166015968Y-48899000D02*
X153251000Y-48899000D01*
X169100000Y-54500000D02*
X169100000Y-51983032D01*
%TO.N,Net-(D1-K)*%
X165000000Y-52027000D02*
X165000000Y-49500000D01*
X168424000Y-55451000D02*
X165000000Y-52027000D01*
X169849000Y-55451000D02*
X168424000Y-55451000D01*
X170550000Y-54750000D02*
X169849000Y-55451000D01*
X171301000Y-53999000D02*
X170550000Y-54750000D01*
X165989892Y-43150000D02*
X171301000Y-48461108D01*
X171301000Y-48461108D02*
X171301000Y-53999000D01*
X165000000Y-43150000D02*
X165989892Y-43150000D01*
X163724000Y-36276000D02*
X166000000Y-34000000D01*
X164025001Y-43150000D02*
X163724000Y-42848999D01*
X165000000Y-43150000D02*
X164025001Y-43150000D01*
X163724000Y-42848999D02*
X163724000Y-36276000D01*
X164498000Y-32498000D02*
X166000000Y-34000000D01*
X152502000Y-32498000D02*
X164498000Y-32498000D01*
X149500000Y-35500000D02*
X152502000Y-32498000D01*
X146710000Y-59290000D02*
X146710000Y-52900000D01*
X146960000Y-59540000D02*
X146710000Y-59290000D01*
X146960000Y-60500000D02*
X146960000Y-59540000D01*
X146960000Y-60623140D02*
X146960000Y-60500000D01*
X149146860Y-62810000D02*
X146960000Y-60623140D01*
X154500000Y-62810000D02*
X149146860Y-62810000D01*
X158380000Y-58930000D02*
X154500000Y-62810000D01*
X158380000Y-55500000D02*
X158380000Y-58930000D01*
X166000000Y-55500000D02*
X158380000Y-55500000D01*
X173509000Y-55951000D02*
X174960000Y-54500000D01*
X171324000Y-55951000D02*
X173509000Y-55951000D01*
X170550000Y-55177000D02*
X171324000Y-55951000D01*
X170550000Y-54750000D02*
X170550000Y-55177000D01*
X169800000Y-55500000D02*
X170550000Y-54750000D01*
X169100000Y-55500000D02*
X169800000Y-55500000D01*
X169100000Y-55500000D02*
X166000000Y-55500000D01*
X165000000Y-49500000D02*
X166000000Y-50500000D01*
X166000000Y-50500000D02*
X166000000Y-55500000D01*
%TO.N,Net-(U1-CH0)*%
X169100000Y-54000000D02*
X169100000Y-54500000D01*
X168699000Y-46502032D02*
X168699000Y-53599000D01*
X163984032Y-43819000D02*
X166015968Y-43819000D01*
X166015968Y-43819000D02*
X168699000Y-46502032D01*
X160775032Y-40610000D02*
X163984032Y-43819000D01*
X168699000Y-53599000D02*
X169100000Y-54000000D01*
X160050000Y-40610000D02*
X160775032Y-40610000D01*
%TO.N,Net-(U1-CH1)*%
X173973000Y-61500000D02*
X176810000Y-61500000D01*
X160050000Y-41880000D02*
X160396968Y-41880000D01*
%TO.N,Net-(J1-Pin_1)*%
X170000000Y-33500000D02*
X176500000Y-33500000D01*
X155791000Y-32899000D02*
X155000000Y-33690000D01*
X158836050Y-32899000D02*
X155791000Y-32899000D01*
%TO.N,Net-(U1-CH0)*%
X158380000Y-38940000D02*
X158380000Y-34000000D01*
X160050000Y-40610000D02*
X158380000Y-38940000D01*
%TO.N,Net-(U1-CH2)*%
X150890000Y-43150000D02*
X149540000Y-44500000D01*
X160050000Y-43150000D02*
X150890000Y-43150000D01*
%TO.N,*%
X172000000Y-55500000D02*
X172000000Y-55000000D01*
X172000000Y-54500000D02*
X172000000Y-55000000D01*
%TO.N,Net-(J1-Pin_1)*%
X172000000Y-46500000D02*
X172000000Y-54000000D01*
X170000000Y-44500000D02*
X172000000Y-46500000D01*
X170000000Y-44500000D02*
X176500000Y-44500000D01*
X167380000Y-41880000D02*
X165000000Y-41880000D01*
X170000000Y-44500000D02*
X167380000Y-41880000D01*
X166110000Y-40610000D02*
X170000000Y-44500000D01*
X165000000Y-40610000D02*
X166110000Y-40610000D01*
%TD*%
%TA.AperFunction,NonConductor*%
G36*
X189943039Y-30519685D02*
G01*
X189988794Y-30572489D01*
X190000000Y-30624000D01*
X190000000Y-64876000D01*
X189980315Y-64943039D01*
X189927511Y-64988794D01*
X189876000Y-65000000D01*
X143124000Y-65000000D01*
X143056961Y-64980315D01*
X143011206Y-64927511D01*
X143000000Y-64876000D01*
X143000000Y-61088054D01*
X144908498Y-61088054D01*
X144912258Y-61102085D01*
X144949423Y-61240785D01*
X144969673Y-61275858D01*
X145008877Y-61343763D01*
X145028479Y-61377715D01*
X145147349Y-61496585D01*
X145147354Y-61496589D01*
X148042284Y-64391520D01*
X148042286Y-64391521D01*
X148042290Y-64391524D01*
X148179209Y-64470573D01*
X148179216Y-64470577D01*
X148331943Y-64511501D01*
X148331945Y-64511501D01*
X148497654Y-64511501D01*
X148497670Y-64511500D01*
X156002331Y-64511500D01*
X156002347Y-64511501D01*
X156009943Y-64511501D01*
X156168054Y-64511501D01*
X156168057Y-64511501D01*
X156320785Y-64470577D01*
X156370904Y-64441639D01*
X156457716Y-64391520D01*
X156569520Y-64279716D01*
X156569520Y-64279714D01*
X156579728Y-64269507D01*
X156579730Y-64269504D01*
X157428080Y-63421153D01*
X166699500Y-63421153D01*
X166699500Y-63578846D01*
X166730261Y-63733489D01*
X166730264Y-63733501D01*
X166790602Y-63879172D01*
X166790609Y-63879185D01*
X166878210Y-64010288D01*
X166878213Y-64010292D01*
X166989707Y-64121786D01*
X166989711Y-64121789D01*
X167120814Y-64209390D01*
X167120827Y-64209397D01*
X167265933Y-64269501D01*
X167266503Y-64269737D01*
X167421153Y-64300499D01*
X167421156Y-64300500D01*
X167421158Y-64300500D01*
X167578844Y-64300500D01*
X167578845Y-64300499D01*
X167733497Y-64269737D01*
X167879179Y-64209394D01*
X168010289Y-64121789D01*
X168121789Y-64010289D01*
X168209394Y-63879179D01*
X168269737Y-63733497D01*
X168300500Y-63578842D01*
X168300500Y-63421158D01*
X168300500Y-63421155D01*
X168300499Y-63421153D01*
X168269737Y-63266503D01*
X168233375Y-63178716D01*
X168209397Y-63120827D01*
X168209390Y-63120814D01*
X168121789Y-62989711D01*
X168121786Y-62989707D01*
X168010292Y-62878213D01*
X168010288Y-62878210D01*
X167879185Y-62790609D01*
X167879172Y-62790602D01*
X167733501Y-62730264D01*
X167733489Y-62730261D01*
X167578845Y-62699500D01*
X167578842Y-62699500D01*
X167421158Y-62699500D01*
X167421155Y-62699500D01*
X167266510Y-62730261D01*
X167266498Y-62730264D01*
X167120827Y-62790602D01*
X167120814Y-62790609D01*
X166989711Y-62878210D01*
X166989707Y-62878213D01*
X166878213Y-62989707D01*
X166878210Y-62989711D01*
X166790609Y-63120814D01*
X166790602Y-63120827D01*
X166730264Y-63266498D01*
X166730261Y-63266510D01*
X166699500Y-63421153D01*
X157428080Y-63421153D01*
X158055158Y-62794075D01*
X158116479Y-62760592D01*
X158181151Y-62763825D01*
X158195466Y-62768477D01*
X158397648Y-62800500D01*
X158397649Y-62800500D01*
X158602351Y-62800500D01*
X158602352Y-62800500D01*
X158804534Y-62768477D01*
X158999219Y-62705220D01*
X159181610Y-62612287D01*
X159274590Y-62544732D01*
X159347213Y-62491971D01*
X159347215Y-62491968D01*
X159347219Y-62491966D01*
X159491966Y-62347219D01*
X159491968Y-62347215D01*
X159491971Y-62347213D01*
X159612284Y-62181614D01*
X159612285Y-62181613D01*
X159612287Y-62181610D01*
X159619117Y-62168204D01*
X159667091Y-62117409D01*
X159729602Y-62100500D01*
X164890398Y-62100500D01*
X164957437Y-62120185D01*
X165000883Y-62168205D01*
X165007715Y-62181614D01*
X165128028Y-62347213D01*
X165272786Y-62491971D01*
X165392359Y-62578844D01*
X165438390Y-62612287D01*
X165554607Y-62671503D01*
X165620776Y-62705218D01*
X165620778Y-62705218D01*
X165620781Y-62705220D01*
X165707784Y-62733489D01*
X165815465Y-62768477D01*
X165916557Y-62784488D01*
X166017648Y-62800500D01*
X166017649Y-62800500D01*
X166222351Y-62800500D01*
X166222352Y-62800500D01*
X166424534Y-62768477D01*
X166619219Y-62705220D01*
X166801610Y-62612287D01*
X166894590Y-62544732D01*
X166967213Y-62491971D01*
X166967215Y-62491968D01*
X166967219Y-62491966D01*
X167111966Y-62347219D01*
X167111968Y-62347215D01*
X167111971Y-62347213D01*
X167170613Y-62266498D01*
X167232287Y-62181610D01*
X167325220Y-61999219D01*
X167388477Y-61804534D01*
X167420500Y-61602352D01*
X167420500Y-61397648D01*
X167388477Y-61195466D01*
X167377131Y-61160548D01*
X167353577Y-61088054D01*
X167325220Y-61000781D01*
X167325218Y-61000778D01*
X167325218Y-61000776D01*
X167285247Y-60922330D01*
X167232287Y-60818390D01*
X167224556Y-60807749D01*
X167111971Y-60652786D01*
X166967213Y-60508028D01*
X166801613Y-60387715D01*
X166801612Y-60387714D01*
X166801610Y-60387713D01*
X166744653Y-60358691D01*
X166619223Y-60294781D01*
X166424534Y-60231522D01*
X166249995Y-60203878D01*
X166222352Y-60199500D01*
X166017648Y-60199500D01*
X165993329Y-60203351D01*
X165815465Y-60231522D01*
X165620776Y-60294781D01*
X165438386Y-60387715D01*
X165272786Y-60508028D01*
X165128028Y-60652786D01*
X165007715Y-60818385D01*
X165000883Y-60831795D01*
X164952909Y-60882591D01*
X164890398Y-60899500D01*
X159729602Y-60899500D01*
X159662563Y-60879815D01*
X159619117Y-60831795D01*
X159616168Y-60826007D01*
X159612287Y-60818390D01*
X159612285Y-60818387D01*
X159612284Y-60818385D01*
X159491971Y-60652786D01*
X159347213Y-60508028D01*
X159181613Y-60387715D01*
X159181612Y-60387714D01*
X159181610Y-60387713D01*
X159124653Y-60358691D01*
X158999223Y-60294781D01*
X158804534Y-60231522D01*
X158629995Y-60203878D01*
X158602352Y-60199500D01*
X158397648Y-60199500D01*
X158344633Y-60207896D01*
X158254257Y-60222211D01*
X158184963Y-60213256D01*
X158131511Y-60168260D01*
X158110872Y-60101509D01*
X158129597Y-60034195D01*
X158147175Y-60012059D01*
X158860520Y-59298716D01*
X158939577Y-59161784D01*
X158980501Y-59009057D01*
X158980501Y-58921153D01*
X164199500Y-58921153D01*
X164199500Y-59078846D01*
X164230261Y-59233489D01*
X164230264Y-59233501D01*
X164290602Y-59379172D01*
X164290609Y-59379185D01*
X164378210Y-59510288D01*
X164378213Y-59510292D01*
X164489707Y-59621786D01*
X164489711Y-59621789D01*
X164620814Y-59709390D01*
X164620827Y-59709397D01*
X164766498Y-59769735D01*
X164766503Y-59769737D01*
X164864571Y-59789244D01*
X164921153Y-59800499D01*
X164921156Y-59800500D01*
X164921158Y-59800500D01*
X165078844Y-59800500D01*
X165078845Y-59800499D01*
X165233497Y-59769737D01*
X165379179Y-59709394D01*
X165510289Y-59621789D01*
X165621789Y-59510289D01*
X165709394Y-59379179D01*
X165769737Y-59233497D01*
X165800500Y-59078842D01*
X165800500Y-58921158D01*
X165800500Y-58921155D01*
X165800499Y-58921153D01*
X166699500Y-58921153D01*
X166699500Y-59078846D01*
X166730261Y-59233489D01*
X166730264Y-59233501D01*
X166790602Y-59379172D01*
X166790609Y-59379185D01*
X166878210Y-59510288D01*
X166878213Y-59510292D01*
X166989707Y-59621786D01*
X166989711Y-59621789D01*
X167120814Y-59709390D01*
X167120827Y-59709397D01*
X167266498Y-59769735D01*
X167266503Y-59769737D01*
X167364571Y-59789244D01*
X167421153Y-59800499D01*
X167421156Y-59800500D01*
X167421158Y-59800500D01*
X167578844Y-59800500D01*
X167578845Y-59800499D01*
X167733497Y-59769737D01*
X167879179Y-59709394D01*
X168010289Y-59621789D01*
X168121789Y-59510289D01*
X168209394Y-59379179D01*
X168269737Y-59233497D01*
X168300500Y-59078842D01*
X168300500Y-58921158D01*
X168300500Y-58921155D01*
X168300499Y-58921153D01*
X169199500Y-58921153D01*
X169199500Y-59078846D01*
X169230261Y-59233489D01*
X169230264Y-59233501D01*
X169290602Y-59379172D01*
X169290609Y-59379185D01*
X169378210Y-59510288D01*
X169378213Y-59510292D01*
X169489707Y-59621786D01*
X169489711Y-59621789D01*
X169620814Y-59709390D01*
X169620827Y-59709397D01*
X169766498Y-59769735D01*
X169766503Y-59769737D01*
X169864571Y-59789244D01*
X169921153Y-59800499D01*
X169921156Y-59800500D01*
X169921158Y-59800500D01*
X170078844Y-59800500D01*
X170078845Y-59800499D01*
X170233497Y-59769737D01*
X170379179Y-59709394D01*
X170510289Y-59621789D01*
X170621789Y-59510289D01*
X170709394Y-59379179D01*
X170769737Y-59233497D01*
X170800500Y-59078842D01*
X170800500Y-58921158D01*
X170800500Y-58921155D01*
X170800499Y-58921153D01*
X170783244Y-58834409D01*
X170769737Y-58766503D01*
X170734430Y-58681264D01*
X170709397Y-58620827D01*
X170709390Y-58620814D01*
X170621789Y-58489711D01*
X170621786Y-58489707D01*
X170510292Y-58378213D01*
X170510288Y-58378210D01*
X170379185Y-58290609D01*
X170379172Y-58290602D01*
X170233501Y-58230264D01*
X170233489Y-58230261D01*
X170078845Y-58199500D01*
X170078842Y-58199500D01*
X169921158Y-58199500D01*
X169921155Y-58199500D01*
X169766510Y-58230261D01*
X169766498Y-58230264D01*
X169620827Y-58290602D01*
X169620814Y-58290609D01*
X169489711Y-58378210D01*
X169489707Y-58378213D01*
X169378213Y-58489707D01*
X169378210Y-58489711D01*
X169290609Y-58620814D01*
X169290602Y-58620827D01*
X169230264Y-58766498D01*
X169230261Y-58766510D01*
X169199500Y-58921153D01*
X168300499Y-58921153D01*
X168283244Y-58834409D01*
X168269737Y-58766503D01*
X168234430Y-58681264D01*
X168209397Y-58620827D01*
X168209390Y-58620814D01*
X168121789Y-58489711D01*
X168121786Y-58489707D01*
X168010292Y-58378213D01*
X168010288Y-58378210D01*
X167879185Y-58290609D01*
X167879172Y-58290602D01*
X167733501Y-58230264D01*
X167733489Y-58230261D01*
X167578845Y-58199500D01*
X167578842Y-58199500D01*
X167421158Y-58199500D01*
X167421155Y-58199500D01*
X167266510Y-58230261D01*
X167266498Y-58230264D01*
X167120827Y-58290602D01*
X167120814Y-58290609D01*
X166989711Y-58378210D01*
X166989707Y-58378213D01*
X166878213Y-58489707D01*
X166878210Y-58489711D01*
X166790609Y-58620814D01*
X166790602Y-58620827D01*
X166730264Y-58766498D01*
X166730261Y-58766510D01*
X166699500Y-58921153D01*
X165800499Y-58921153D01*
X165783244Y-58834409D01*
X165769737Y-58766503D01*
X165734430Y-58681264D01*
X165709397Y-58620827D01*
X165709390Y-58620814D01*
X165621789Y-58489711D01*
X165621786Y-58489707D01*
X165510292Y-58378213D01*
X165510288Y-58378210D01*
X165379185Y-58290609D01*
X165379172Y-58290602D01*
X165233501Y-58230264D01*
X165233489Y-58230261D01*
X165078845Y-58199500D01*
X165078842Y-58199500D01*
X164921158Y-58199500D01*
X164921155Y-58199500D01*
X164766510Y-58230261D01*
X164766498Y-58230264D01*
X164620827Y-58290602D01*
X164620814Y-58290609D01*
X164489711Y-58378210D01*
X164489707Y-58378213D01*
X164378213Y-58489707D01*
X164378210Y-58489711D01*
X164290609Y-58620814D01*
X164290602Y-58620827D01*
X164230264Y-58766498D01*
X164230261Y-58766510D01*
X164199500Y-58921153D01*
X158980501Y-58921153D01*
X158980501Y-58850942D01*
X158980500Y-58850938D01*
X158980500Y-56729601D01*
X159000185Y-56662562D01*
X159048206Y-56619116D01*
X159061610Y-56612287D01*
X159227219Y-56491966D01*
X159371966Y-56347219D01*
X159371968Y-56347215D01*
X159371971Y-56347213D01*
X159492284Y-56181614D01*
X159492285Y-56181613D01*
X159492287Y-56181610D01*
X159499117Y-56168204D01*
X159547091Y-56117409D01*
X159609602Y-56100500D01*
X164770398Y-56100500D01*
X164837437Y-56120185D01*
X164880883Y-56168205D01*
X164887715Y-56181614D01*
X165008028Y-56347213D01*
X165152786Y-56491971D01*
X165307749Y-56604556D01*
X165318390Y-56612287D01*
X165399499Y-56653614D01*
X165500776Y-56705218D01*
X165500778Y-56705218D01*
X165500781Y-56705220D01*
X165575818Y-56729601D01*
X165695465Y-56768477D01*
X165796557Y-56784488D01*
X165897648Y-56800500D01*
X165897649Y-56800500D01*
X166102351Y-56800500D01*
X166102352Y-56800500D01*
X166304534Y-56768477D01*
X166499219Y-56705220D01*
X166681610Y-56612287D01*
X166774590Y-56544732D01*
X166847213Y-56491971D01*
X166847215Y-56491968D01*
X166847219Y-56491966D01*
X166991966Y-56347219D01*
X166991968Y-56347215D01*
X166991971Y-56347213D01*
X167112284Y-56181614D01*
X167112285Y-56181613D01*
X167112287Y-56181610D01*
X167119117Y-56168204D01*
X167167091Y-56117409D01*
X167229602Y-56100500D01*
X168478271Y-56100500D01*
X168521604Y-56108318D01*
X168617517Y-56144091D01*
X168617516Y-56144091D01*
X168624444Y-56144835D01*
X168677127Y-56150500D01*
X169522872Y-56150499D01*
X169582483Y-56144091D01*
X169678393Y-56108318D01*
X169721726Y-56100501D01*
X169879054Y-56100501D01*
X169879057Y-56100501D01*
X170031785Y-56059577D01*
X170116655Y-56010577D01*
X170148640Y-55992110D01*
X170148678Y-55992101D01*
X170210638Y-55975499D01*
X170447902Y-55975499D01*
X170514941Y-55995184D01*
X170535583Y-56011818D01*
X170839139Y-56315374D01*
X170839149Y-56315385D01*
X170843479Y-56319715D01*
X170843480Y-56319716D01*
X170955284Y-56431520D01*
X171042095Y-56481639D01*
X171042097Y-56481641D01*
X171092213Y-56510576D01*
X171092215Y-56510577D01*
X171244942Y-56551500D01*
X171244943Y-56551500D01*
X173422331Y-56551500D01*
X173422347Y-56551501D01*
X173429943Y-56551501D01*
X173588054Y-56551501D01*
X173588057Y-56551501D01*
X173740785Y-56510577D01*
X173790904Y-56481639D01*
X173877716Y-56431520D01*
X173989520Y-56319716D01*
X173989520Y-56319714D01*
X173999728Y-56309507D01*
X173999730Y-56309504D01*
X174372416Y-55936818D01*
X174433739Y-55903333D01*
X174460097Y-55900499D01*
X174812903Y-55900499D01*
X174879942Y-55920184D01*
X174925697Y-55972988D01*
X174935641Y-56042146D01*
X174906616Y-56105702D01*
X174900584Y-56112180D01*
X170358655Y-60654108D01*
X170297332Y-60687593D01*
X170227640Y-60682609D01*
X170183293Y-60654108D01*
X170037213Y-60508028D01*
X169871613Y-60387715D01*
X169871612Y-60387714D01*
X169871610Y-60387713D01*
X169814653Y-60358691D01*
X169689223Y-60294781D01*
X169494534Y-60231522D01*
X169319995Y-60203878D01*
X169292352Y-60199500D01*
X169087648Y-60199500D01*
X169063329Y-60203351D01*
X168885465Y-60231522D01*
X168690776Y-60294781D01*
X168508386Y-60387715D01*
X168342786Y-60508028D01*
X168198028Y-60652786D01*
X168077715Y-60818386D01*
X167984781Y-61000776D01*
X167921522Y-61195465D01*
X167889500Y-61397648D01*
X167889500Y-61602351D01*
X167921522Y-61804534D01*
X167984781Y-61999223D01*
X168036385Y-62100499D01*
X168073418Y-62173181D01*
X168077715Y-62181613D01*
X168198028Y-62347213D01*
X168342786Y-62491971D01*
X168462359Y-62578844D01*
X168508390Y-62612287D01*
X168624607Y-62671503D01*
X168690776Y-62705218D01*
X168690778Y-62705218D01*
X168690781Y-62705220D01*
X168777784Y-62733489D01*
X168885465Y-62768477D01*
X168986557Y-62784488D01*
X169087648Y-62800500D01*
X169087649Y-62800500D01*
X169292351Y-62800500D01*
X169292352Y-62800500D01*
X169494534Y-62768477D01*
X169689219Y-62705220D01*
X169871610Y-62612287D01*
X169964590Y-62544732D01*
X170037213Y-62491971D01*
X170037215Y-62491968D01*
X170037219Y-62491966D01*
X170181966Y-62347219D01*
X170181968Y-62347215D01*
X170181971Y-62347213D01*
X170302285Y-62181613D01*
X170309118Y-62168204D01*
X170357094Y-62117409D01*
X170419602Y-62100501D01*
X170441054Y-62100501D01*
X170441057Y-62100501D01*
X170593785Y-62059577D01*
X170643904Y-62030639D01*
X170730716Y-61980520D01*
X170842520Y-61868716D01*
X170842520Y-61868714D01*
X170852728Y-61858507D01*
X170852730Y-61858504D01*
X171290291Y-61420943D01*
X173372500Y-61420943D01*
X173372500Y-61579057D01*
X173413016Y-61730263D01*
X173413423Y-61731783D01*
X173413426Y-61731790D01*
X173492475Y-61868709D01*
X173492478Y-61868713D01*
X173492480Y-61868716D01*
X173604284Y-61980520D01*
X173604286Y-61980521D01*
X173604290Y-61980524D01*
X173741209Y-62059573D01*
X173741216Y-62059577D01*
X173893943Y-62100500D01*
X175580398Y-62100500D01*
X175647437Y-62120185D01*
X175690883Y-62168205D01*
X175697715Y-62181614D01*
X175818028Y-62347213D01*
X175962786Y-62491971D01*
X176082359Y-62578844D01*
X176128390Y-62612287D01*
X176244607Y-62671503D01*
X176310776Y-62705218D01*
X176310778Y-62705218D01*
X176310781Y-62705220D01*
X176397784Y-62733489D01*
X176505465Y-62768477D01*
X176606557Y-62784488D01*
X176707648Y-62800500D01*
X176707649Y-62800500D01*
X176912351Y-62800500D01*
X176912352Y-62800500D01*
X177114534Y-62768477D01*
X177309219Y-62705220D01*
X177491610Y-62612287D01*
X177584590Y-62544732D01*
X177657213Y-62491971D01*
X177657215Y-62491968D01*
X177657219Y-62491966D01*
X177728032Y-62421153D01*
X186699500Y-62421153D01*
X186699500Y-62578846D01*
X186730261Y-62733489D01*
X186730264Y-62733501D01*
X186790602Y-62879172D01*
X186790609Y-62879185D01*
X186878210Y-63010288D01*
X186878213Y-63010292D01*
X186989707Y-63121786D01*
X186989711Y-63121789D01*
X187120814Y-63209390D01*
X187120827Y-63209397D01*
X187258683Y-63266498D01*
X187266503Y-63269737D01*
X187421153Y-63300499D01*
X187421156Y-63300500D01*
X187421158Y-63300500D01*
X187578844Y-63300500D01*
X187578845Y-63300499D01*
X187733497Y-63269737D01*
X187879179Y-63209394D01*
X188010289Y-63121789D01*
X188121789Y-63010289D01*
X188209394Y-62879179D01*
X188269737Y-62733497D01*
X188300500Y-62578842D01*
X188300500Y-62421158D01*
X188300500Y-62421155D01*
X188300499Y-62421153D01*
X188289360Y-62365156D01*
X188269737Y-62266503D01*
X188234575Y-62181613D01*
X188209397Y-62120827D01*
X188209390Y-62120814D01*
X188121789Y-61989711D01*
X188121786Y-61989707D01*
X188010292Y-61878213D01*
X188010288Y-61878210D01*
X187879185Y-61790609D01*
X187879172Y-61790602D01*
X187733501Y-61730264D01*
X187733489Y-61730261D01*
X187578845Y-61699500D01*
X187578842Y-61699500D01*
X187421158Y-61699500D01*
X187421155Y-61699500D01*
X187266510Y-61730261D01*
X187266498Y-61730264D01*
X187120827Y-61790602D01*
X187120814Y-61790609D01*
X186989711Y-61878210D01*
X186989707Y-61878213D01*
X186878213Y-61989707D01*
X186878210Y-61989711D01*
X186790609Y-62120814D01*
X186790602Y-62120827D01*
X186730264Y-62266498D01*
X186730261Y-62266510D01*
X186699500Y-62421153D01*
X177728032Y-62421153D01*
X177801966Y-62347219D01*
X177805626Y-62342181D01*
X177805627Y-62342181D01*
X177860613Y-62266498D01*
X177922287Y-62181610D01*
X178015220Y-61999219D01*
X178078477Y-61804534D01*
X178110500Y-61602352D01*
X178110500Y-61397648D01*
X178078477Y-61195466D01*
X178067131Y-61160548D01*
X178043577Y-61088054D01*
X178015220Y-61000781D01*
X178015218Y-61000778D01*
X178015218Y-61000776D01*
X177975247Y-60922330D01*
X177922287Y-60818390D01*
X177914556Y-60807749D01*
X177801971Y-60652786D01*
X177657213Y-60508028D01*
X177491613Y-60387715D01*
X177491612Y-60387714D01*
X177491610Y-60387713D01*
X177434653Y-60358691D01*
X177309223Y-60294781D01*
X177114534Y-60231522D01*
X176939995Y-60203878D01*
X176912352Y-60199500D01*
X176707648Y-60199500D01*
X176683329Y-60203351D01*
X176505465Y-60231522D01*
X176310776Y-60294781D01*
X176128386Y-60387715D01*
X175962786Y-60508028D01*
X175818028Y-60652786D01*
X175697715Y-60818385D01*
X175690883Y-60831795D01*
X175642909Y-60882591D01*
X175580398Y-60899500D01*
X173893943Y-60899500D01*
X173741216Y-60940423D01*
X173741209Y-60940426D01*
X173604290Y-61019475D01*
X173604282Y-61019481D01*
X173492481Y-61131282D01*
X173492475Y-61131290D01*
X173413426Y-61268209D01*
X173413423Y-61268216D01*
X173372500Y-61420943D01*
X171290291Y-61420943D01*
X173346048Y-59365186D01*
X182099500Y-59365186D01*
X182099500Y-59634813D01*
X182129686Y-59902719D01*
X182129688Y-59902731D01*
X182189684Y-60165594D01*
X182189687Y-60165602D01*
X182278734Y-60420082D01*
X182395714Y-60662994D01*
X182395716Y-60662997D01*
X182539162Y-60891289D01*
X182707266Y-61102085D01*
X182897915Y-61292734D01*
X183108711Y-61460838D01*
X183337003Y-61604284D01*
X183579921Y-61721267D01*
X183771049Y-61788145D01*
X183834397Y-61810312D01*
X183834405Y-61810315D01*
X183834408Y-61810315D01*
X183834409Y-61810316D01*
X184097268Y-61870312D01*
X184365187Y-61900499D01*
X184365188Y-61900500D01*
X184365191Y-61900500D01*
X184634812Y-61900500D01*
X184634812Y-61900499D01*
X184902732Y-61870312D01*
X185165591Y-61810316D01*
X185420079Y-61721267D01*
X185662997Y-61604284D01*
X185891289Y-61460838D01*
X186102085Y-61292734D01*
X186292734Y-61102085D01*
X186460838Y-60891289D01*
X186604284Y-60662997D01*
X186721267Y-60420079D01*
X186810316Y-60165591D01*
X186870312Y-59902732D01*
X186900500Y-59634809D01*
X186900500Y-59365191D01*
X186870312Y-59097268D01*
X186810316Y-58834409D01*
X186721267Y-58579921D01*
X186624595Y-58379179D01*
X186604285Y-58337005D01*
X186604284Y-58337003D01*
X186460838Y-58108711D01*
X186292734Y-57897915D01*
X186102085Y-57707266D01*
X185891289Y-57539162D01*
X185662997Y-57395716D01*
X185662994Y-57395714D01*
X185420082Y-57278734D01*
X185165602Y-57189687D01*
X185165594Y-57189684D01*
X184968446Y-57144687D01*
X184902732Y-57129688D01*
X184902728Y-57129687D01*
X184902719Y-57129686D01*
X184634813Y-57099500D01*
X184634809Y-57099500D01*
X184365191Y-57099500D01*
X184365186Y-57099500D01*
X184097280Y-57129686D01*
X184097268Y-57129688D01*
X183834405Y-57189684D01*
X183834397Y-57189687D01*
X183579917Y-57278734D01*
X183337005Y-57395714D01*
X183108712Y-57539161D01*
X182897915Y-57707265D01*
X182707265Y-57897915D01*
X182539161Y-58108712D01*
X182395714Y-58337005D01*
X182278734Y-58579917D01*
X182189687Y-58834397D01*
X182189684Y-58834405D01*
X182129688Y-59097268D01*
X182129686Y-59097280D01*
X182099500Y-59365186D01*
X173346048Y-59365186D01*
X176519506Y-56191728D01*
X176519511Y-56191724D01*
X176529714Y-56181520D01*
X176529716Y-56181520D01*
X176641520Y-56069716D01*
X176720577Y-55932784D01*
X176741795Y-55853594D01*
X176778158Y-55793937D01*
X176841005Y-55763407D01*
X176910381Y-55771701D01*
X176917851Y-55775199D01*
X176954626Y-55793937D01*
X176962394Y-55797895D01*
X176962396Y-55797896D01*
X177029553Y-55819716D01*
X177172049Y-55866015D01*
X177389778Y-55900500D01*
X177389779Y-55900500D01*
X177610221Y-55900500D01*
X177610222Y-55900500D01*
X177827951Y-55866015D01*
X178037606Y-55797895D01*
X178234022Y-55697815D01*
X178412365Y-55568242D01*
X178568242Y-55412365D01*
X178697815Y-55234022D01*
X178797895Y-55037606D01*
X178866015Y-54827951D01*
X178900500Y-54610222D01*
X178900500Y-54389778D01*
X178866015Y-54172049D01*
X178799797Y-53968247D01*
X178797896Y-53962396D01*
X178797895Y-53962393D01*
X178700047Y-53770358D01*
X178687151Y-53701689D01*
X178713427Y-53636949D01*
X178722842Y-53626391D01*
X179484047Y-52865186D01*
X182099500Y-52865186D01*
X182099500Y-53134813D01*
X182129686Y-53402719D01*
X182129687Y-53402728D01*
X182129688Y-53402732D01*
X182144480Y-53467539D01*
X182189684Y-53665594D01*
X182189687Y-53665602D01*
X182278734Y-53920082D01*
X182395714Y-54162994D01*
X182417731Y-54198034D01*
X182539162Y-54391289D01*
X182707266Y-54602085D01*
X182897915Y-54792734D01*
X183108711Y-54960838D01*
X183337003Y-55104284D01*
X183579921Y-55221267D01*
X183771049Y-55288145D01*
X183834397Y-55310312D01*
X183834405Y-55310315D01*
X183834408Y-55310315D01*
X183834409Y-55310316D01*
X184097268Y-55370312D01*
X184365187Y-55400499D01*
X184365188Y-55400500D01*
X184365191Y-55400500D01*
X184634812Y-55400500D01*
X184634812Y-55400499D01*
X184902732Y-55370312D01*
X185165591Y-55310316D01*
X185420079Y-55221267D01*
X185662997Y-55104284D01*
X185891289Y-54960838D01*
X186102085Y-54792734D01*
X186292734Y-54602085D01*
X186460838Y-54391289D01*
X186604284Y-54162997D01*
X186721267Y-53920079D01*
X186810316Y-53665591D01*
X186870312Y-53402732D01*
X186900500Y-53134809D01*
X186900500Y-52865191D01*
X186870312Y-52597268D01*
X186810316Y-52334409D01*
X186721267Y-52079921D01*
X186624593Y-51879175D01*
X186604285Y-51837005D01*
X186604284Y-51837003D01*
X186460838Y-51608711D01*
X186292734Y-51397915D01*
X186102085Y-51207266D01*
X185891289Y-51039162D01*
X185662997Y-50895716D01*
X185662994Y-50895714D01*
X185420082Y-50778734D01*
X185165602Y-50689687D01*
X185165594Y-50689684D01*
X184968446Y-50644687D01*
X184902732Y-50629688D01*
X184902728Y-50629687D01*
X184902719Y-50629686D01*
X184634813Y-50599500D01*
X184634809Y-50599500D01*
X184365191Y-50599500D01*
X184365186Y-50599500D01*
X184097280Y-50629686D01*
X184097268Y-50629688D01*
X183834405Y-50689684D01*
X183834397Y-50689687D01*
X183579917Y-50778734D01*
X183337005Y-50895714D01*
X183108712Y-51039161D01*
X182897915Y-51207265D01*
X182707265Y-51397915D01*
X182539161Y-51608712D01*
X182395714Y-51837005D01*
X182278734Y-52079917D01*
X182189687Y-52334397D01*
X182189684Y-52334405D01*
X182129688Y-52597268D01*
X182129686Y-52597280D01*
X182099500Y-52865186D01*
X179484047Y-52865186D01*
X183212659Y-49136574D01*
X183273980Y-49103091D01*
X183343672Y-49108075D01*
X183354140Y-49112537D01*
X183404058Y-49136576D01*
X183579921Y-49221267D01*
X183771049Y-49288145D01*
X183834397Y-49310312D01*
X183834405Y-49310315D01*
X183834408Y-49310315D01*
X183834409Y-49310316D01*
X184097268Y-49370312D01*
X184365187Y-49400499D01*
X184365188Y-49400500D01*
X184365191Y-49400500D01*
X184634812Y-49400500D01*
X184634812Y-49400499D01*
X184902732Y-49370312D01*
X185165591Y-49310316D01*
X185420079Y-49221267D01*
X185662997Y-49104284D01*
X185891289Y-48960838D01*
X186102085Y-48792734D01*
X186292734Y-48602085D01*
X186460838Y-48391289D01*
X186604284Y-48162997D01*
X186721267Y-47920079D01*
X186810316Y-47665591D01*
X186866108Y-47421153D01*
X187699500Y-47421153D01*
X187699500Y-47578846D01*
X187730261Y-47733489D01*
X187730264Y-47733501D01*
X187790602Y-47879172D01*
X187790609Y-47879185D01*
X187878210Y-48010288D01*
X187878213Y-48010292D01*
X187989707Y-48121786D01*
X187989711Y-48121789D01*
X188120814Y-48209390D01*
X188120827Y-48209397D01*
X188198426Y-48241539D01*
X188266503Y-48269737D01*
X188421153Y-48300499D01*
X188421156Y-48300500D01*
X188421158Y-48300500D01*
X188578844Y-48300500D01*
X188578845Y-48300499D01*
X188733497Y-48269737D01*
X188879179Y-48209394D01*
X189010289Y-48121789D01*
X189121789Y-48010289D01*
X189209394Y-47879179D01*
X189269737Y-47733497D01*
X189300500Y-47578842D01*
X189300500Y-47421158D01*
X189300500Y-47421155D01*
X189300499Y-47421153D01*
X189269738Y-47266510D01*
X189269737Y-47266503D01*
X189209794Y-47121786D01*
X189209397Y-47120827D01*
X189209390Y-47120814D01*
X189121789Y-46989711D01*
X189121786Y-46989707D01*
X189010292Y-46878213D01*
X189010288Y-46878210D01*
X188879185Y-46790609D01*
X188879172Y-46790602D01*
X188733501Y-46730264D01*
X188733489Y-46730261D01*
X188578845Y-46699500D01*
X188578842Y-46699500D01*
X188421158Y-46699500D01*
X188421155Y-46699500D01*
X188266510Y-46730261D01*
X188266498Y-46730264D01*
X188120827Y-46790602D01*
X188120814Y-46790609D01*
X187989711Y-46878210D01*
X187989707Y-46878213D01*
X187878213Y-46989707D01*
X187878210Y-46989711D01*
X187790609Y-47120814D01*
X187790602Y-47120827D01*
X187730264Y-47266498D01*
X187730261Y-47266510D01*
X187699500Y-47421153D01*
X186866108Y-47421153D01*
X186870312Y-47402732D01*
X186873956Y-47370396D01*
X186891738Y-47212569D01*
X186900500Y-47134809D01*
X186900500Y-46865191D01*
X186870312Y-46597268D01*
X186810316Y-46334409D01*
X186721267Y-46079921D01*
X186604284Y-45837003D01*
X186460838Y-45608711D01*
X186292734Y-45397915D01*
X186102085Y-45207266D01*
X185891289Y-45039162D01*
X185662997Y-44895716D01*
X185662994Y-44895714D01*
X185420082Y-44778734D01*
X185165602Y-44689687D01*
X185165594Y-44689684D01*
X184968446Y-44644687D01*
X184902732Y-44629688D01*
X184902728Y-44629687D01*
X184902719Y-44629686D01*
X184634813Y-44599500D01*
X184634809Y-44599500D01*
X184365191Y-44599500D01*
X184365186Y-44599500D01*
X184097280Y-44629686D01*
X184097268Y-44629688D01*
X183834405Y-44689684D01*
X183834397Y-44689687D01*
X183579917Y-44778734D01*
X183337005Y-44895714D01*
X183108712Y-45039161D01*
X182897915Y-45207265D01*
X182707265Y-45397915D01*
X182539161Y-45608712D01*
X182395714Y-45837005D01*
X182278734Y-46079917D01*
X182189687Y-46334397D01*
X182189684Y-46334405D01*
X182129688Y-46597268D01*
X182129686Y-46597280D01*
X182099500Y-46865186D01*
X182099500Y-47134813D01*
X182129686Y-47402719D01*
X182129687Y-47402728D01*
X182129688Y-47402732D01*
X182133893Y-47421155D01*
X182189684Y-47665594D01*
X182189687Y-47665602D01*
X182278734Y-47920082D01*
X182387462Y-48145857D01*
X182398814Y-48214799D01*
X182371092Y-48278933D01*
X182363423Y-48287340D01*
X177587584Y-53063181D01*
X177526261Y-53096666D01*
X177499903Y-53099500D01*
X177389778Y-53099500D01*
X177317201Y-53110995D01*
X177172047Y-53133985D01*
X176962396Y-53202103D01*
X176962393Y-53202105D01*
X176917864Y-53224794D01*
X176849195Y-53237690D01*
X176784454Y-53211414D01*
X176744197Y-53154307D01*
X176741800Y-53146423D01*
X176720577Y-53067216D01*
X176701156Y-53033578D01*
X176641524Y-52930290D01*
X176641518Y-52930282D01*
X176529717Y-52818481D01*
X176529709Y-52818475D01*
X176392790Y-52739426D01*
X176392786Y-52739424D01*
X176392784Y-52739423D01*
X176240057Y-52698500D01*
X176240056Y-52698500D01*
X172787668Y-52698500D01*
X172780061Y-52698499D01*
X172780058Y-52698499D01*
X172724498Y-52698499D01*
X172685128Y-52686938D01*
X172657461Y-52678814D01*
X172657460Y-52678813D01*
X172657459Y-52678813D01*
X172611705Y-52626009D01*
X172611703Y-52625998D01*
X172600500Y-52574499D01*
X172600500Y-48893713D01*
X175149500Y-48893713D01*
X175149500Y-49106286D01*
X175181814Y-49310312D01*
X175182754Y-49316243D01*
X175245939Y-49510706D01*
X175248444Y-49518414D01*
X175344951Y-49707820D01*
X175469890Y-49879786D01*
X175620213Y-50030109D01*
X175792179Y-50155048D01*
X175792181Y-50155049D01*
X175792184Y-50155051D01*
X175981588Y-50251557D01*
X176183757Y-50317246D01*
X176393713Y-50350500D01*
X176393714Y-50350500D01*
X176606286Y-50350500D01*
X176606287Y-50350500D01*
X176816243Y-50317246D01*
X177018412Y-50251557D01*
X177207816Y-50155051D01*
X177239134Y-50132297D01*
X177379786Y-50030109D01*
X177379788Y-50030106D01*
X177379792Y-50030104D01*
X177530104Y-49879792D01*
X177530106Y-49879788D01*
X177530109Y-49879786D01*
X177655048Y-49707820D01*
X177655047Y-49707820D01*
X177655051Y-49707816D01*
X177751557Y-49518412D01*
X177817246Y-49316243D01*
X177850500Y-49106287D01*
X177850500Y-49050097D01*
X177870185Y-48983058D01*
X177886819Y-48962416D01*
X180546662Y-46302573D01*
X183212660Y-43636574D01*
X183273981Y-43603091D01*
X183343673Y-43608075D01*
X183354137Y-43612535D01*
X183579921Y-43721267D01*
X183719721Y-43770185D01*
X183834397Y-43810312D01*
X183834405Y-43810315D01*
X183834408Y-43810315D01*
X183834409Y-43810316D01*
X184097268Y-43870312D01*
X184365187Y-43900499D01*
X184365188Y-43900500D01*
X184365191Y-43900500D01*
X184634812Y-43900500D01*
X184634812Y-43900499D01*
X184902732Y-43870312D01*
X185165591Y-43810316D01*
X185420079Y-43721267D01*
X185662997Y-43604284D01*
X185891289Y-43460838D01*
X186102085Y-43292734D01*
X186292734Y-43102085D01*
X186460838Y-42891289D01*
X186604284Y-42662997D01*
X186721267Y-42420079D01*
X186810316Y-42165591D01*
X186870312Y-41902732D01*
X186900500Y-41634809D01*
X186900500Y-41365191D01*
X186870312Y-41097268D01*
X186810316Y-40834409D01*
X186807266Y-40825694D01*
X186738227Y-40628390D01*
X186721267Y-40579921D01*
X186604284Y-40337003D01*
X186460838Y-40108711D01*
X186292734Y-39897915D01*
X186102085Y-39707266D01*
X185891289Y-39539162D01*
X185662997Y-39395716D01*
X185662994Y-39395714D01*
X185420082Y-39278734D01*
X185165602Y-39189687D01*
X185165594Y-39189684D01*
X184968446Y-39144687D01*
X184902732Y-39129688D01*
X184902728Y-39129687D01*
X184902719Y-39129686D01*
X184634813Y-39099500D01*
X184634809Y-39099500D01*
X184365191Y-39099500D01*
X184365186Y-39099500D01*
X184097280Y-39129686D01*
X184097268Y-39129688D01*
X183834405Y-39189684D01*
X183834397Y-39189687D01*
X183579917Y-39278734D01*
X183337005Y-39395714D01*
X183108712Y-39539161D01*
X182897915Y-39707265D01*
X182707265Y-39897915D01*
X182539161Y-40108712D01*
X182395714Y-40337005D01*
X182278734Y-40579917D01*
X182189687Y-40834397D01*
X182189684Y-40834405D01*
X182129688Y-41097268D01*
X182129686Y-41097280D01*
X182099500Y-41365186D01*
X182099500Y-41634813D01*
X182129686Y-41902719D01*
X182129687Y-41902728D01*
X182129688Y-41902732D01*
X182134238Y-41922665D01*
X182189684Y-42165594D01*
X182189687Y-42165602D01*
X182278734Y-42420082D01*
X182278737Y-42420090D01*
X182387461Y-42645858D01*
X182398813Y-42714799D01*
X182371091Y-42778933D01*
X182363422Y-42787340D01*
X177336440Y-47814322D01*
X177275117Y-47847807D01*
X177205425Y-47842823D01*
X177192465Y-47837126D01*
X177018417Y-47748445D01*
X177018414Y-47748444D01*
X177018412Y-47748443D01*
X176816243Y-47682754D01*
X176816241Y-47682753D01*
X176816240Y-47682753D01*
X176654957Y-47657208D01*
X176606287Y-47649500D01*
X176393713Y-47649500D01*
X176345042Y-47657208D01*
X176183760Y-47682753D01*
X176183757Y-47682754D01*
X176027612Y-47733489D01*
X175981585Y-47748444D01*
X175792179Y-47844951D01*
X175620213Y-47969890D01*
X175469890Y-48120213D01*
X175344951Y-48292179D01*
X175248444Y-48481585D01*
X175182753Y-48683760D01*
X175149500Y-48893713D01*
X172600500Y-48893713D01*
X172600500Y-46420945D01*
X172600500Y-46420943D01*
X172565928Y-46291919D01*
X172559577Y-46268215D01*
X172524959Y-46208256D01*
X172522343Y-46203726D01*
X172522339Y-46203716D01*
X172480524Y-46131290D01*
X172480521Y-46131286D01*
X172480520Y-46131284D01*
X172368716Y-46019480D01*
X172368715Y-46019479D01*
X172364385Y-46015149D01*
X172364374Y-46015139D01*
X171661416Y-45312181D01*
X171627931Y-45250858D01*
X171632915Y-45181166D01*
X171674787Y-45125233D01*
X171740251Y-45100816D01*
X171749097Y-45100500D01*
X175214281Y-45100500D01*
X175281320Y-45120185D01*
X175324765Y-45168205D01*
X175344947Y-45207814D01*
X175344948Y-45207815D01*
X175469890Y-45379786D01*
X175620213Y-45530109D01*
X175792179Y-45655048D01*
X175792181Y-45655049D01*
X175792184Y-45655051D01*
X175981588Y-45751557D01*
X176183757Y-45817246D01*
X176393713Y-45850500D01*
X176393714Y-45850500D01*
X176606286Y-45850500D01*
X176606287Y-45850500D01*
X176816243Y-45817246D01*
X177018412Y-45751557D01*
X177207816Y-45655051D01*
X177271598Y-45608711D01*
X177379786Y-45530109D01*
X177379788Y-45530106D01*
X177379792Y-45530104D01*
X177530104Y-45379792D01*
X177530106Y-45379788D01*
X177530109Y-45379786D01*
X177655048Y-45207820D01*
X177655047Y-45207820D01*
X177655051Y-45207816D01*
X177751557Y-45018412D01*
X177817246Y-44816243D01*
X177850500Y-44606287D01*
X177850500Y-44393713D01*
X177817246Y-44183757D01*
X177751557Y-43981588D01*
X177655051Y-43792184D01*
X177655049Y-43792181D01*
X177655048Y-43792179D01*
X177530109Y-43620213D01*
X177379786Y-43469890D01*
X177207820Y-43344951D01*
X177018414Y-43248444D01*
X177018413Y-43248443D01*
X177018412Y-43248443D01*
X176816243Y-43182754D01*
X176816241Y-43182753D01*
X176816240Y-43182753D01*
X176654957Y-43157208D01*
X176606287Y-43149500D01*
X176393713Y-43149500D01*
X176345042Y-43157208D01*
X176183760Y-43182753D01*
X175981585Y-43248444D01*
X175792179Y-43344951D01*
X175620213Y-43469890D01*
X175469890Y-43620213D01*
X175344948Y-43792184D01*
X175344947Y-43792185D01*
X175324765Y-43831795D01*
X175276791Y-43882591D01*
X175214281Y-43899500D01*
X171285719Y-43899500D01*
X171218680Y-43879815D01*
X171175235Y-43831795D01*
X171155052Y-43792185D01*
X171155051Y-43792184D01*
X171030109Y-43620213D01*
X170879786Y-43469890D01*
X170707820Y-43344951D01*
X170518414Y-43248444D01*
X170518413Y-43248443D01*
X170518412Y-43248443D01*
X170316243Y-43182754D01*
X170316241Y-43182753D01*
X170316240Y-43182753D01*
X170154957Y-43157208D01*
X170106287Y-43149500D01*
X169893713Y-43149500D01*
X169865006Y-43154046D01*
X169683757Y-43182753D01*
X169641473Y-43196492D01*
X169571632Y-43198486D01*
X169515476Y-43166241D01*
X167877961Y-41528726D01*
X167860520Y-41511285D01*
X167860520Y-41511284D01*
X167770389Y-41421153D01*
X175199500Y-41421153D01*
X175199500Y-41578846D01*
X175230261Y-41733489D01*
X175230264Y-41733501D01*
X175290602Y-41879172D01*
X175290609Y-41879185D01*
X175378210Y-42010288D01*
X175378213Y-42010292D01*
X175489707Y-42121786D01*
X175489711Y-42121789D01*
X175620814Y-42209390D01*
X175620827Y-42209397D01*
X175715746Y-42248713D01*
X175766503Y-42269737D01*
X175912375Y-42298753D01*
X175921153Y-42300499D01*
X175921156Y-42300500D01*
X175921158Y-42300500D01*
X176078844Y-42300500D01*
X176078845Y-42300499D01*
X176233497Y-42269737D01*
X176379179Y-42209394D01*
X176510289Y-42121789D01*
X176621789Y-42010289D01*
X176709394Y-41879179D01*
X176769737Y-41733497D01*
X176800500Y-41578842D01*
X176800500Y-41421158D01*
X176800500Y-41421155D01*
X176800499Y-41421153D01*
X178199500Y-41421153D01*
X178199500Y-41578846D01*
X178230261Y-41733489D01*
X178230264Y-41733501D01*
X178290602Y-41879172D01*
X178290609Y-41879185D01*
X178378210Y-42010288D01*
X178378213Y-42010292D01*
X178489707Y-42121786D01*
X178489711Y-42121789D01*
X178620814Y-42209390D01*
X178620827Y-42209397D01*
X178715746Y-42248713D01*
X178766503Y-42269737D01*
X178912375Y-42298753D01*
X178921153Y-42300499D01*
X178921156Y-42300500D01*
X178921158Y-42300500D01*
X179078844Y-42300500D01*
X179078845Y-42300499D01*
X179233497Y-42269737D01*
X179379179Y-42209394D01*
X179510289Y-42121789D01*
X179621789Y-42010289D01*
X179709394Y-41879179D01*
X179769737Y-41733497D01*
X179800500Y-41578842D01*
X179800500Y-41421158D01*
X179800500Y-41421155D01*
X179800499Y-41421153D01*
X179769738Y-41266510D01*
X179769737Y-41266503D01*
X179709794Y-41121786D01*
X179709397Y-41120827D01*
X179709390Y-41120814D01*
X179621789Y-40989711D01*
X179621786Y-40989707D01*
X179510292Y-40878213D01*
X179510288Y-40878210D01*
X179379185Y-40790609D01*
X179379172Y-40790602D01*
X179233501Y-40730264D01*
X179233489Y-40730261D01*
X179078845Y-40699500D01*
X179078842Y-40699500D01*
X178921158Y-40699500D01*
X178921155Y-40699500D01*
X178766510Y-40730261D01*
X178766498Y-40730264D01*
X178620827Y-40790602D01*
X178620814Y-40790609D01*
X178489711Y-40878210D01*
X178489707Y-40878213D01*
X178378213Y-40989707D01*
X178378210Y-40989711D01*
X178290609Y-41120814D01*
X178290602Y-41120827D01*
X178230264Y-41266498D01*
X178230261Y-41266510D01*
X178199500Y-41421153D01*
X176800499Y-41421153D01*
X176769738Y-41266510D01*
X176769737Y-41266503D01*
X176709794Y-41121786D01*
X176709397Y-41120827D01*
X176709390Y-41120814D01*
X176621789Y-40989711D01*
X176621786Y-40989707D01*
X176510292Y-40878213D01*
X176510288Y-40878210D01*
X176379185Y-40790609D01*
X176379172Y-40790602D01*
X176233501Y-40730264D01*
X176233489Y-40730261D01*
X176078845Y-40699500D01*
X176078842Y-40699500D01*
X175921158Y-40699500D01*
X175921155Y-40699500D01*
X175766510Y-40730261D01*
X175766498Y-40730264D01*
X175620827Y-40790602D01*
X175620814Y-40790609D01*
X175489711Y-40878210D01*
X175489707Y-40878213D01*
X175378213Y-40989707D01*
X175378210Y-40989711D01*
X175290609Y-41120814D01*
X175290602Y-41120827D01*
X175230264Y-41266498D01*
X175230261Y-41266510D01*
X175199500Y-41421153D01*
X167770389Y-41421153D01*
X167748716Y-41399480D01*
X167741651Y-41392415D01*
X167741644Y-41392409D01*
X166770388Y-40421153D01*
X180199500Y-40421153D01*
X180199500Y-40578846D01*
X180230261Y-40733489D01*
X180230264Y-40733501D01*
X180290602Y-40879172D01*
X180290609Y-40879185D01*
X180378210Y-41010288D01*
X180378213Y-41010292D01*
X180489707Y-41121786D01*
X180489711Y-41121789D01*
X180620814Y-41209390D01*
X180620827Y-41209397D01*
X180706782Y-41245000D01*
X180766503Y-41269737D01*
X180921153Y-41300499D01*
X180921156Y-41300500D01*
X180921158Y-41300500D01*
X181078844Y-41300500D01*
X181078845Y-41300499D01*
X181233497Y-41269737D01*
X181379179Y-41209394D01*
X181510289Y-41121789D01*
X181621789Y-41010289D01*
X181709394Y-40879179D01*
X181769737Y-40733497D01*
X181800500Y-40578842D01*
X181800500Y-40421158D01*
X181800500Y-40421155D01*
X181800499Y-40421153D01*
X181769738Y-40266510D01*
X181769737Y-40266503D01*
X181742027Y-40199605D01*
X181709397Y-40120827D01*
X181709390Y-40120814D01*
X181621789Y-39989711D01*
X181621786Y-39989707D01*
X181510292Y-39878213D01*
X181510288Y-39878210D01*
X181379185Y-39790609D01*
X181379172Y-39790602D01*
X181233501Y-39730264D01*
X181233489Y-39730261D01*
X181078845Y-39699500D01*
X181078842Y-39699500D01*
X180921158Y-39699500D01*
X180921155Y-39699500D01*
X180766510Y-39730261D01*
X180766498Y-39730264D01*
X180620827Y-39790602D01*
X180620814Y-39790609D01*
X180489711Y-39878210D01*
X180489707Y-39878213D01*
X180378213Y-39989707D01*
X180378210Y-39989711D01*
X180290609Y-40120814D01*
X180290602Y-40120827D01*
X180230264Y-40266498D01*
X180230261Y-40266510D01*
X180199500Y-40421153D01*
X166770388Y-40421153D01*
X166597590Y-40248355D01*
X166597588Y-40248352D01*
X166478717Y-40129481D01*
X166478709Y-40129475D01*
X166355147Y-40058137D01*
X166355143Y-40058135D01*
X166355142Y-40058135D01*
X166341785Y-40050423D01*
X166341782Y-40050422D01*
X166340741Y-40049821D01*
X166315064Y-40030118D01*
X166226865Y-39941919D01*
X166085398Y-39858256D01*
X166085397Y-39858255D01*
X166085396Y-39858255D01*
X166085393Y-39858254D01*
X165927573Y-39812402D01*
X165927567Y-39812401D01*
X165890701Y-39809500D01*
X165890694Y-39809500D01*
X164448500Y-39809500D01*
X164381461Y-39789815D01*
X164335706Y-39737011D01*
X164324500Y-39685500D01*
X164324500Y-38921153D01*
X166699500Y-38921153D01*
X166699500Y-39078846D01*
X166730261Y-39233489D01*
X166730264Y-39233501D01*
X166790602Y-39379172D01*
X166790609Y-39379185D01*
X166878210Y-39510288D01*
X166878213Y-39510292D01*
X166989707Y-39621786D01*
X166989711Y-39621789D01*
X167120814Y-39709390D01*
X167120827Y-39709397D01*
X167266498Y-39769735D01*
X167266503Y-39769737D01*
X167421153Y-39800499D01*
X167421156Y-39800500D01*
X167421158Y-39800500D01*
X167578844Y-39800500D01*
X167578845Y-39800499D01*
X167733497Y-39769737D01*
X167879179Y-39709394D01*
X168010289Y-39621789D01*
X168121789Y-39510289D01*
X168209394Y-39379179D01*
X168269737Y-39233497D01*
X168300500Y-39078842D01*
X168300500Y-38921158D01*
X168300500Y-38921155D01*
X168300499Y-38921153D01*
X168292272Y-38879792D01*
X168269737Y-38766503D01*
X168245428Y-38707815D01*
X168209397Y-38620827D01*
X168209390Y-38620814D01*
X168121789Y-38489711D01*
X168121786Y-38489707D01*
X168010292Y-38378213D01*
X168010288Y-38378210D01*
X167879185Y-38290609D01*
X167879172Y-38290602D01*
X167733501Y-38230264D01*
X167733489Y-38230261D01*
X167578845Y-38199500D01*
X167578842Y-38199500D01*
X167421158Y-38199500D01*
X167421155Y-38199500D01*
X167266510Y-38230261D01*
X167266498Y-38230264D01*
X167120827Y-38290602D01*
X167120814Y-38290609D01*
X166989711Y-38378210D01*
X166989707Y-38378213D01*
X166878213Y-38489707D01*
X166878210Y-38489711D01*
X166790609Y-38620814D01*
X166790602Y-38620827D01*
X166730264Y-38766498D01*
X166730261Y-38766510D01*
X166699500Y-38921153D01*
X164324500Y-38921153D01*
X164324500Y-37893713D01*
X168649500Y-37893713D01*
X168649500Y-38106287D01*
X168682754Y-38316243D01*
X168739117Y-38489711D01*
X168748444Y-38518414D01*
X168844951Y-38707820D01*
X168969890Y-38879786D01*
X169120213Y-39030109D01*
X169292179Y-39155048D01*
X169292181Y-39155049D01*
X169292184Y-39155051D01*
X169481588Y-39251557D01*
X169683757Y-39317246D01*
X169893713Y-39350500D01*
X169893714Y-39350500D01*
X170106286Y-39350500D01*
X170106287Y-39350500D01*
X170316243Y-39317246D01*
X170518412Y-39251557D01*
X170707816Y-39155051D01*
X170812707Y-39078844D01*
X170879786Y-39030109D01*
X170879788Y-39030106D01*
X170879792Y-39030104D01*
X171030104Y-38879792D01*
X171030106Y-38879788D01*
X171030109Y-38879786D01*
X171155048Y-38707820D01*
X171155047Y-38707820D01*
X171155051Y-38707816D01*
X171251557Y-38518412D01*
X171317246Y-38316243D01*
X171350500Y-38106287D01*
X171350500Y-37893713D01*
X175149500Y-37893713D01*
X175149500Y-38106287D01*
X175182754Y-38316243D01*
X175239117Y-38489711D01*
X175248444Y-38518414D01*
X175344951Y-38707820D01*
X175469890Y-38879786D01*
X175620213Y-39030109D01*
X175792179Y-39155048D01*
X175792181Y-39155049D01*
X175792184Y-39155051D01*
X175981588Y-39251557D01*
X176183757Y-39317246D01*
X176393713Y-39350500D01*
X176393714Y-39350500D01*
X176606286Y-39350500D01*
X176606287Y-39350500D01*
X176816243Y-39317246D01*
X177018412Y-39251557D01*
X177207816Y-39155051D01*
X177312707Y-39078844D01*
X177379786Y-39030109D01*
X177379788Y-39030106D01*
X177379792Y-39030104D01*
X177530104Y-38879792D01*
X177530106Y-38879788D01*
X177530109Y-38879786D01*
X177588661Y-38799193D01*
X177655051Y-38707816D01*
X177663485Y-38691264D01*
X177675235Y-38668205D01*
X177723209Y-38617409D01*
X177785719Y-38600500D01*
X181913331Y-38600500D01*
X181913347Y-38600501D01*
X181920943Y-38600501D01*
X182079054Y-38600501D01*
X182079057Y-38600501D01*
X182231785Y-38559577D01*
X182281904Y-38530639D01*
X182368716Y-38480520D01*
X182480520Y-38368716D01*
X182480520Y-38368714D01*
X182490728Y-38358507D01*
X182490730Y-38358504D01*
X183212659Y-37636574D01*
X183273980Y-37603091D01*
X183343672Y-37608075D01*
X183354140Y-37612537D01*
X183502037Y-37683760D01*
X183579921Y-37721267D01*
X183771049Y-37788145D01*
X183834397Y-37810312D01*
X183834405Y-37810315D01*
X183834408Y-37810315D01*
X183834409Y-37810316D01*
X184097268Y-37870312D01*
X184365187Y-37900499D01*
X184365188Y-37900500D01*
X184365191Y-37900500D01*
X184634812Y-37900500D01*
X184634812Y-37900499D01*
X184902732Y-37870312D01*
X185165591Y-37810316D01*
X185420079Y-37721267D01*
X185662997Y-37604284D01*
X185891289Y-37460838D01*
X186102085Y-37292734D01*
X186292734Y-37102085D01*
X186460838Y-36891289D01*
X186604284Y-36662997D01*
X186721267Y-36420079D01*
X186810316Y-36165591D01*
X186870312Y-35902732D01*
X186900500Y-35634809D01*
X186900500Y-35365191D01*
X186870312Y-35097268D01*
X186810316Y-34834409D01*
X186804310Y-34817246D01*
X186758286Y-34685715D01*
X186721267Y-34579921D01*
X186604284Y-34337003D01*
X186460838Y-34108711D01*
X186292734Y-33897915D01*
X186102085Y-33707266D01*
X185891289Y-33539162D01*
X185662997Y-33395716D01*
X185662994Y-33395714D01*
X185420082Y-33278734D01*
X185165602Y-33189687D01*
X185165594Y-33189684D01*
X184925212Y-33134819D01*
X184902732Y-33129688D01*
X184902728Y-33129687D01*
X184902719Y-33129686D01*
X184634813Y-33099500D01*
X184634809Y-33099500D01*
X184365191Y-33099500D01*
X184365186Y-33099500D01*
X184097280Y-33129686D01*
X184097268Y-33129688D01*
X183834405Y-33189684D01*
X183834397Y-33189687D01*
X183579917Y-33278734D01*
X183337005Y-33395714D01*
X183108712Y-33539161D01*
X182897915Y-33707265D01*
X182707265Y-33897915D01*
X182539161Y-34108712D01*
X182395714Y-34337005D01*
X182278734Y-34579917D01*
X182189687Y-34834397D01*
X182189684Y-34834405D01*
X182129688Y-35097268D01*
X182129686Y-35097280D01*
X182099500Y-35365186D01*
X182099500Y-35634813D01*
X182129686Y-35902719D01*
X182129687Y-35902728D01*
X182129688Y-35902732D01*
X182174828Y-36100500D01*
X182189684Y-36165590D01*
X182189687Y-36165602D01*
X182278734Y-36420082D01*
X182387462Y-36645858D01*
X182398814Y-36714800D01*
X182371092Y-36778934D01*
X182363423Y-36787341D01*
X181787584Y-37363181D01*
X181726261Y-37396666D01*
X181699903Y-37399500D01*
X177785719Y-37399500D01*
X177718680Y-37379815D01*
X177675235Y-37331795D01*
X177655052Y-37292185D01*
X177655051Y-37292184D01*
X177530109Y-37120213D01*
X177379786Y-36969890D01*
X177207820Y-36844951D01*
X177018414Y-36748444D01*
X177018413Y-36748443D01*
X177018412Y-36748443D01*
X176816243Y-36682754D01*
X176816241Y-36682753D01*
X176816240Y-36682753D01*
X176654957Y-36657208D01*
X176606287Y-36649500D01*
X176393713Y-36649500D01*
X176345042Y-36657208D01*
X176183760Y-36682753D01*
X175981585Y-36748444D01*
X175792179Y-36844951D01*
X175620213Y-36969890D01*
X175469890Y-37120213D01*
X175344951Y-37292179D01*
X175248444Y-37481585D01*
X175182753Y-37683760D01*
X175153206Y-37870312D01*
X175149500Y-37893713D01*
X171350500Y-37893713D01*
X171317246Y-37683757D01*
X171251557Y-37481588D01*
X171155051Y-37292184D01*
X171155049Y-37292181D01*
X171155048Y-37292179D01*
X171030109Y-37120213D01*
X170879786Y-36969890D01*
X170707820Y-36844951D01*
X170518414Y-36748444D01*
X170518413Y-36748443D01*
X170518412Y-36748443D01*
X170316243Y-36682754D01*
X170316241Y-36682753D01*
X170316240Y-36682753D01*
X170154957Y-36657208D01*
X170106287Y-36649500D01*
X169893713Y-36649500D01*
X169845042Y-36657208D01*
X169683760Y-36682753D01*
X169481585Y-36748444D01*
X169292179Y-36844951D01*
X169120213Y-36969890D01*
X168969890Y-37120213D01*
X168844951Y-37292179D01*
X168748444Y-37481585D01*
X168682753Y-37683760D01*
X168653206Y-37870312D01*
X168649500Y-37893713D01*
X164324500Y-37893713D01*
X164324500Y-36576096D01*
X164344185Y-36509057D01*
X164360814Y-36488420D01*
X165555158Y-35294075D01*
X165616479Y-35260592D01*
X165681151Y-35263825D01*
X165695466Y-35268477D01*
X165897648Y-35300500D01*
X165897649Y-35300500D01*
X166102351Y-35300500D01*
X166102352Y-35300500D01*
X166304534Y-35268477D01*
X166499219Y-35205220D01*
X166681610Y-35112287D01*
X166792181Y-35031953D01*
X166847213Y-34991971D01*
X166847215Y-34991968D01*
X166847219Y-34991966D01*
X166991966Y-34847219D01*
X166991968Y-34847215D01*
X166991971Y-34847213D01*
X167061469Y-34751555D01*
X167112287Y-34681610D01*
X167205220Y-34499219D01*
X167268477Y-34304534D01*
X167300500Y-34102352D01*
X167300500Y-33897648D01*
X167287606Y-33816239D01*
X167268477Y-33695465D01*
X167228357Y-33571989D01*
X167205220Y-33500781D01*
X167205217Y-33500777D01*
X167205217Y-33500774D01*
X167176868Y-33445137D01*
X167176867Y-33445136D01*
X167150666Y-33393713D01*
X168649500Y-33393713D01*
X168649500Y-33606287D01*
X168652226Y-33623500D01*
X168663624Y-33695465D01*
X168682754Y-33816243D01*
X168709204Y-33897648D01*
X168748444Y-34018414D01*
X168844951Y-34207820D01*
X168969890Y-34379786D01*
X169120213Y-34530109D01*
X169292179Y-34655048D01*
X169292181Y-34655049D01*
X169292184Y-34655051D01*
X169481588Y-34751557D01*
X169683757Y-34817246D01*
X169893713Y-34850500D01*
X169893714Y-34850500D01*
X170106286Y-34850500D01*
X170106287Y-34850500D01*
X170316243Y-34817246D01*
X170518412Y-34751557D01*
X170707816Y-34655051D01*
X170800607Y-34587635D01*
X170879786Y-34530109D01*
X170879788Y-34530106D01*
X170879792Y-34530104D01*
X171030104Y-34379792D01*
X171030106Y-34379788D01*
X171030109Y-34379786D01*
X171129885Y-34242454D01*
X171155051Y-34207816D01*
X171157961Y-34202105D01*
X171175235Y-34168205D01*
X171223209Y-34117409D01*
X171285719Y-34100500D01*
X175214281Y-34100500D01*
X175281320Y-34120185D01*
X175324765Y-34168205D01*
X175344947Y-34207814D01*
X175344948Y-34207815D01*
X175469890Y-34379786D01*
X175620213Y-34530109D01*
X175792179Y-34655048D01*
X175792181Y-34655049D01*
X175792184Y-34655051D01*
X175981588Y-34751557D01*
X176183757Y-34817246D01*
X176393713Y-34850500D01*
X176393714Y-34850500D01*
X176606286Y-34850500D01*
X176606287Y-34850500D01*
X176816243Y-34817246D01*
X177018412Y-34751557D01*
X177207816Y-34655051D01*
X177300607Y-34587635D01*
X177379786Y-34530109D01*
X177379788Y-34530106D01*
X177379792Y-34530104D01*
X177530104Y-34379792D01*
X177530106Y-34379788D01*
X177530109Y-34379786D01*
X177655048Y-34207820D01*
X177655047Y-34207820D01*
X177655051Y-34207816D01*
X177751557Y-34018412D01*
X177817246Y-33816243D01*
X177850500Y-33606287D01*
X177850500Y-33393713D01*
X177817246Y-33183757D01*
X177751557Y-32981588D01*
X177655051Y-32792184D01*
X177655049Y-32792181D01*
X177655048Y-32792179D01*
X177530109Y-32620213D01*
X177379786Y-32469890D01*
X177312704Y-32421153D01*
X187199500Y-32421153D01*
X187199500Y-32578846D01*
X187230261Y-32733489D01*
X187230264Y-32733501D01*
X187290602Y-32879172D01*
X187290609Y-32879185D01*
X187378210Y-33010288D01*
X187378213Y-33010292D01*
X187489707Y-33121786D01*
X187489711Y-33121789D01*
X187620814Y-33209390D01*
X187620827Y-33209397D01*
X187744973Y-33260819D01*
X187766503Y-33269737D01*
X187921153Y-33300499D01*
X187921156Y-33300500D01*
X187921158Y-33300500D01*
X188078844Y-33300500D01*
X188078845Y-33300499D01*
X188233497Y-33269737D01*
X188379179Y-33209394D01*
X188510289Y-33121789D01*
X188621789Y-33010289D01*
X188709394Y-32879179D01*
X188769737Y-32733497D01*
X188800500Y-32578842D01*
X188800500Y-32421158D01*
X188800500Y-32421155D01*
X188800499Y-32421153D01*
X188769738Y-32266510D01*
X188769737Y-32266503D01*
X188762256Y-32248443D01*
X188709397Y-32120827D01*
X188709390Y-32120814D01*
X188621789Y-31989711D01*
X188621786Y-31989707D01*
X188510292Y-31878213D01*
X188510288Y-31878210D01*
X188379185Y-31790609D01*
X188379172Y-31790602D01*
X188233501Y-31730264D01*
X188233489Y-31730261D01*
X188078845Y-31699500D01*
X188078842Y-31699500D01*
X187921158Y-31699500D01*
X187921155Y-31699500D01*
X187766510Y-31730261D01*
X187766498Y-31730264D01*
X187620827Y-31790602D01*
X187620814Y-31790609D01*
X187489711Y-31878210D01*
X187489707Y-31878213D01*
X187378213Y-31989707D01*
X187378210Y-31989711D01*
X187290609Y-32120814D01*
X187290602Y-32120827D01*
X187230264Y-32266498D01*
X187230261Y-32266510D01*
X187199500Y-32421153D01*
X177312704Y-32421153D01*
X177207820Y-32344951D01*
X177018414Y-32248444D01*
X177018413Y-32248443D01*
X177018412Y-32248443D01*
X176816243Y-32182754D01*
X176816241Y-32182753D01*
X176816240Y-32182753D01*
X176654957Y-32157208D01*
X176606287Y-32149500D01*
X176393713Y-32149500D01*
X176345042Y-32157208D01*
X176183760Y-32182753D01*
X175981585Y-32248444D01*
X175792179Y-32344951D01*
X175620213Y-32469890D01*
X175469890Y-32620213D01*
X175344948Y-32792184D01*
X175344947Y-32792185D01*
X175324765Y-32831795D01*
X175276791Y-32882591D01*
X175214281Y-32899500D01*
X171285719Y-32899500D01*
X171218680Y-32879815D01*
X171175235Y-32831795D01*
X171155052Y-32792185D01*
X171155051Y-32792184D01*
X171030109Y-32620213D01*
X170879786Y-32469890D01*
X170707820Y-32344951D01*
X170518414Y-32248444D01*
X170518413Y-32248443D01*
X170518412Y-32248443D01*
X170316243Y-32182754D01*
X170316241Y-32182753D01*
X170316240Y-32182753D01*
X170154957Y-32157208D01*
X170106287Y-32149500D01*
X169893713Y-32149500D01*
X169845042Y-32157208D01*
X169683760Y-32182753D01*
X169481585Y-32248444D01*
X169292179Y-32344951D01*
X169120213Y-32469890D01*
X168969890Y-32620213D01*
X168844951Y-32792179D01*
X168748444Y-32981585D01*
X168682753Y-33183760D01*
X168661430Y-33318390D01*
X168649500Y-33393713D01*
X167150666Y-33393713D01*
X167112287Y-33318390D01*
X167112285Y-33318387D01*
X167112284Y-33318385D01*
X166991971Y-33152786D01*
X166847213Y-33008028D01*
X166681613Y-32887715D01*
X166681612Y-32887714D01*
X166681610Y-32887713D01*
X166624653Y-32858691D01*
X166499223Y-32794781D01*
X166304534Y-32731522D01*
X166129995Y-32703878D01*
X166102352Y-32699500D01*
X165897648Y-32699500D01*
X165857211Y-32705904D01*
X165695462Y-32731523D01*
X165695460Y-32731523D01*
X165681149Y-32736173D01*
X165611308Y-32738164D01*
X165555157Y-32705921D01*
X164985590Y-32136355D01*
X164985588Y-32136352D01*
X164866717Y-32017481D01*
X164866716Y-32017480D01*
X164779904Y-31967360D01*
X164779904Y-31967359D01*
X164779900Y-31967358D01*
X164729785Y-31938423D01*
X164577057Y-31897499D01*
X164418943Y-31897499D01*
X164411347Y-31897499D01*
X164411331Y-31897500D01*
X152581057Y-31897500D01*
X152422943Y-31897500D01*
X152270215Y-31938423D01*
X152270214Y-31938423D01*
X152270212Y-31938424D01*
X152270209Y-31938425D01*
X152220096Y-31967359D01*
X152220095Y-31967360D01*
X152181389Y-31989707D01*
X152133285Y-32017479D01*
X152133282Y-32017481D01*
X152021478Y-32129286D01*
X150024202Y-34126561D01*
X149962879Y-34160046D01*
X149898203Y-34156811D01*
X149873584Y-34148812D01*
X149827952Y-34133985D01*
X149668384Y-34108712D01*
X149610222Y-34099500D01*
X149389778Y-34099500D01*
X149331622Y-34108711D01*
X149172047Y-34133985D01*
X148962396Y-34202103D01*
X148962393Y-34202104D01*
X148765974Y-34302187D01*
X148587641Y-34431752D01*
X148587636Y-34431756D01*
X148537463Y-34481929D01*
X148476140Y-34515413D01*
X148406448Y-34510428D01*
X148350515Y-34468557D01*
X148333601Y-34437580D01*
X148303797Y-34357671D01*
X148303793Y-34357664D01*
X148217547Y-34242455D01*
X148217544Y-34242452D01*
X148102335Y-34156206D01*
X148102328Y-34156202D01*
X147967482Y-34105908D01*
X147967483Y-34105908D01*
X147907883Y-34099501D01*
X147907881Y-34099500D01*
X147907873Y-34099500D01*
X147907864Y-34099500D01*
X146012129Y-34099500D01*
X146012123Y-34099501D01*
X145952516Y-34105908D01*
X145817671Y-34156202D01*
X145817664Y-34156206D01*
X145702455Y-34242452D01*
X145702452Y-34242455D01*
X145616206Y-34357664D01*
X145616202Y-34357671D01*
X145565908Y-34492517D01*
X145559501Y-34552116D01*
X145559500Y-34552135D01*
X145559500Y-36447870D01*
X145559501Y-36447876D01*
X145565908Y-36507483D01*
X145616202Y-36642328D01*
X145616206Y-36642335D01*
X145702452Y-36757544D01*
X145702455Y-36757547D01*
X145817664Y-36843793D01*
X145817671Y-36843797D01*
X145952517Y-36894091D01*
X145952516Y-36894091D01*
X145959444Y-36894835D01*
X146012127Y-36900500D01*
X147459902Y-36900499D01*
X147489342Y-36909143D01*
X147519329Y-36915667D01*
X147524344Y-36919421D01*
X147526941Y-36920184D01*
X147547583Y-36936818D01*
X147676139Y-37065374D01*
X147676149Y-37065385D01*
X147680479Y-37069715D01*
X147680480Y-37069716D01*
X147792284Y-37181520D01*
X147792286Y-37181521D01*
X147792290Y-37181524D01*
X147929209Y-37260573D01*
X147929216Y-37260577D01*
X148041019Y-37290534D01*
X148081942Y-37301500D01*
X148081943Y-37301500D01*
X152900903Y-37301500D01*
X152967942Y-37321185D01*
X152988584Y-37337819D01*
X155513697Y-39862932D01*
X155547182Y-39924255D01*
X155542198Y-39993947D01*
X155500326Y-40049880D01*
X155434862Y-40074297D01*
X155387698Y-40068544D01*
X155304536Y-40041523D01*
X155169746Y-40020174D01*
X155102352Y-40009500D01*
X154897648Y-40009500D01*
X154873329Y-40013351D01*
X154695465Y-40041522D01*
X154500776Y-40104781D01*
X154318386Y-40197715D01*
X154152786Y-40318028D01*
X154008028Y-40462786D01*
X153887715Y-40628386D01*
X153794781Y-40810776D01*
X153731522Y-41005465D01*
X153699500Y-41207648D01*
X153699500Y-41412351D01*
X153731522Y-41614534D01*
X153794781Y-41809223D01*
X153887715Y-41991613D01*
X154008028Y-42157213D01*
X154152786Y-42301971D01*
X154184734Y-42325182D01*
X154227400Y-42380511D01*
X154233379Y-42450125D01*
X154200774Y-42511920D01*
X154139935Y-42546277D01*
X154111849Y-42549500D01*
X150810942Y-42549500D01*
X150658215Y-42590423D01*
X150644860Y-42598134D01*
X150644857Y-42598135D01*
X150521290Y-42669475D01*
X150521282Y-42669481D01*
X150409478Y-42781286D01*
X150064202Y-43126561D01*
X150002879Y-43160046D01*
X149938203Y-43156811D01*
X149913584Y-43148812D01*
X149867952Y-43133985D01*
X149759086Y-43116742D01*
X149650222Y-43099500D01*
X149429778Y-43099500D01*
X149357201Y-43110995D01*
X149212047Y-43133985D01*
X149002396Y-43202103D01*
X149002393Y-43202104D01*
X148805974Y-43302187D01*
X148627641Y-43431752D01*
X148627636Y-43431756D01*
X148577463Y-43481929D01*
X148516140Y-43515413D01*
X148446448Y-43510428D01*
X148390515Y-43468557D01*
X148373601Y-43437580D01*
X148343797Y-43357671D01*
X148343793Y-43357664D01*
X148257547Y-43242455D01*
X148257544Y-43242452D01*
X148142335Y-43156206D01*
X148142328Y-43156202D01*
X148007482Y-43105908D01*
X148007483Y-43105908D01*
X147947883Y-43099501D01*
X147947881Y-43099500D01*
X147947873Y-43099500D01*
X147947864Y-43099500D01*
X146052129Y-43099500D01*
X146052123Y-43099501D01*
X145992516Y-43105908D01*
X145857671Y-43156202D01*
X145857664Y-43156206D01*
X145742455Y-43242452D01*
X145742452Y-43242455D01*
X145656206Y-43357664D01*
X145656202Y-43357671D01*
X145605908Y-43492517D01*
X145599501Y-43552116D01*
X145599500Y-43552135D01*
X145599500Y-45447870D01*
X145599501Y-45447876D01*
X145605908Y-45507483D01*
X145656202Y-45642328D01*
X145656206Y-45642335D01*
X145742452Y-45757544D01*
X145742455Y-45757547D01*
X145857664Y-45843793D01*
X145857671Y-45843797D01*
X145992517Y-45894091D01*
X145992516Y-45894091D01*
X145999444Y-45894835D01*
X146052127Y-45900500D01*
X147947872Y-45900499D01*
X148007483Y-45894091D01*
X148142331Y-45843796D01*
X148257546Y-45757546D01*
X148343796Y-45642331D01*
X148356335Y-45608712D01*
X148373601Y-45562420D01*
X148415471Y-45506486D01*
X148480936Y-45482068D01*
X148549209Y-45496919D01*
X148577464Y-45518071D01*
X148627636Y-45568243D01*
X148627641Y-45568247D01*
X148729603Y-45642326D01*
X148805978Y-45697815D01*
X148934375Y-45763237D01*
X149002393Y-45797895D01*
X149002396Y-45797896D01*
X149061948Y-45817245D01*
X149212049Y-45866015D01*
X149429778Y-45900500D01*
X149429779Y-45900500D01*
X149650221Y-45900500D01*
X149650222Y-45900500D01*
X149867951Y-45866015D01*
X150077606Y-45797895D01*
X150274022Y-45697815D01*
X150452365Y-45568242D01*
X150608242Y-45412365D01*
X150737815Y-45234022D01*
X150837895Y-45037606D01*
X150906015Y-44827951D01*
X150940500Y-44610222D01*
X150940500Y-44389778D01*
X150906015Y-44172049D01*
X150883188Y-44101794D01*
X150881193Y-44031953D01*
X150913435Y-43975799D01*
X151102417Y-43786816D01*
X151163740Y-43753334D01*
X151190097Y-43750500D01*
X158559093Y-43750500D01*
X158626132Y-43770185D01*
X158671887Y-43822989D01*
X158681831Y-43892147D01*
X158665825Y-43937620D01*
X158623257Y-44009599D01*
X158623254Y-44009606D01*
X158577402Y-44167426D01*
X158577401Y-44167432D01*
X158574500Y-44204298D01*
X158574500Y-44635701D01*
X158577401Y-44672567D01*
X158577402Y-44672573D01*
X158623254Y-44830393D01*
X158623255Y-44830396D01*
X158706917Y-44971862D01*
X158711702Y-44978031D01*
X158709256Y-44979927D01*
X158735857Y-45028642D01*
X158730873Y-45098334D01*
X158710069Y-45130703D01*
X158711702Y-45131969D01*
X158706917Y-45138137D01*
X158623255Y-45279603D01*
X158623254Y-45279606D01*
X158577402Y-45437426D01*
X158577401Y-45437432D01*
X158574500Y-45474298D01*
X158574500Y-45905701D01*
X158577401Y-45942567D01*
X158577402Y-45942573D01*
X158623254Y-46100393D01*
X158623255Y-46100396D01*
X158706917Y-46241862D01*
X158711702Y-46248031D01*
X158709256Y-46249927D01*
X158735857Y-46298642D01*
X158730873Y-46368334D01*
X158710069Y-46400703D01*
X158711702Y-46401969D01*
X158706917Y-46408137D01*
X158623255Y-46549603D01*
X158623254Y-46549606D01*
X158577402Y-46707426D01*
X158577401Y-46707432D01*
X158574500Y-46744298D01*
X158574500Y-47175701D01*
X158577401Y-47212567D01*
X158577402Y-47212573D01*
X158623254Y-47370393D01*
X158623255Y-47370396D01*
X158623256Y-47370398D01*
X158653275Y-47421158D01*
X158706917Y-47511862D01*
X158711702Y-47518031D01*
X158709256Y-47519927D01*
X158735857Y-47568642D01*
X158730873Y-47638334D01*
X158710069Y-47670703D01*
X158711702Y-47671969D01*
X158706917Y-47678137D01*
X158623255Y-47819603D01*
X158623254Y-47819606D01*
X158577402Y-47977426D01*
X158577401Y-47977432D01*
X158574500Y-48014298D01*
X158574500Y-48174500D01*
X158554815Y-48241539D01*
X158502011Y-48287294D01*
X158450500Y-48298500D01*
X153171940Y-48298500D01*
X153131019Y-48309464D01*
X153131019Y-48309465D01*
X153093751Y-48319451D01*
X153019214Y-48339423D01*
X153019209Y-48339426D01*
X152882290Y-48418475D01*
X152882282Y-48418481D01*
X152770478Y-48530286D01*
X149774202Y-51526561D01*
X149712879Y-51560046D01*
X149648203Y-51556811D01*
X149623584Y-51548812D01*
X149577952Y-51533985D01*
X149406893Y-51506892D01*
X149360222Y-51499500D01*
X149139778Y-51499500D01*
X149096232Y-51506397D01*
X148922045Y-51533985D01*
X148851794Y-51556811D01*
X148781953Y-51558806D01*
X148725796Y-51526561D01*
X148536590Y-51337355D01*
X148536588Y-51337352D01*
X148417717Y-51218481D01*
X148417716Y-51218480D01*
X148330904Y-51168360D01*
X148330904Y-51168359D01*
X148330900Y-51168358D01*
X148280785Y-51139423D01*
X148128057Y-51098499D01*
X147969943Y-51098499D01*
X147962347Y-51098499D01*
X147962331Y-51098500D01*
X145429943Y-51098500D01*
X145277216Y-51139423D01*
X145277209Y-51139426D01*
X145140290Y-51218475D01*
X145140282Y-51218481D01*
X145028481Y-51330282D01*
X145028475Y-51330290D01*
X144949426Y-51467209D01*
X144949423Y-51467216D01*
X144908500Y-51619943D01*
X144908500Y-60922330D01*
X144908499Y-60922348D01*
X144908499Y-61088054D01*
X144908498Y-61088054D01*
X143000000Y-61088054D01*
X143000000Y-46421153D01*
X152199500Y-46421153D01*
X152199500Y-46578846D01*
X152230261Y-46733489D01*
X152230264Y-46733501D01*
X152290602Y-46879172D01*
X152290609Y-46879185D01*
X152378210Y-47010288D01*
X152378213Y-47010292D01*
X152489707Y-47121786D01*
X152489711Y-47121789D01*
X152620814Y-47209390D01*
X152620827Y-47209397D01*
X152758683Y-47266498D01*
X152766503Y-47269737D01*
X152921153Y-47300499D01*
X152921156Y-47300500D01*
X152921158Y-47300500D01*
X153078844Y-47300500D01*
X153078845Y-47300499D01*
X153233497Y-47269737D01*
X153379179Y-47209394D01*
X153510289Y-47121789D01*
X153621789Y-47010289D01*
X153709394Y-46879179D01*
X153769737Y-46733497D01*
X153800500Y-46578842D01*
X153800500Y-46421158D01*
X153800500Y-46421155D01*
X153800499Y-46421153D01*
X153796431Y-46400703D01*
X153769737Y-46266503D01*
X153759532Y-46241865D01*
X153709397Y-46120827D01*
X153709390Y-46120814D01*
X153621789Y-45989711D01*
X153621786Y-45989707D01*
X153510292Y-45878213D01*
X153510288Y-45878210D01*
X153379185Y-45790609D01*
X153379172Y-45790602D01*
X153233501Y-45730264D01*
X153233489Y-45730261D01*
X153078845Y-45699500D01*
X153078842Y-45699500D01*
X152921158Y-45699500D01*
X152921155Y-45699500D01*
X152766510Y-45730261D01*
X152766498Y-45730264D01*
X152620827Y-45790602D01*
X152620814Y-45790609D01*
X152489711Y-45878210D01*
X152489707Y-45878213D01*
X152378213Y-45989707D01*
X152378210Y-45989711D01*
X152290609Y-46120814D01*
X152290602Y-46120827D01*
X152230264Y-46266498D01*
X152230261Y-46266510D01*
X152199500Y-46421153D01*
X143000000Y-46421153D01*
X143000000Y-30624000D01*
X143019685Y-30556961D01*
X143072489Y-30511206D01*
X143124000Y-30500000D01*
X189876000Y-30500000D01*
X189943039Y-30519685D01*
G37*
%TD.AperFunction*%
%TA.AperFunction,NonConductor*%
G36*
X153721132Y-33118185D02*
G01*
X153766887Y-33170989D01*
X153776831Y-33240147D01*
X153772025Y-33260811D01*
X153759130Y-33300500D01*
X153731522Y-33385465D01*
X153699500Y-33587648D01*
X153699500Y-33792351D01*
X153731522Y-33994534D01*
X153794781Y-34189223D01*
X153821905Y-34242455D01*
X153880607Y-34357664D01*
X153887715Y-34371613D01*
X154008028Y-34537213D01*
X154152786Y-34681971D01*
X154307749Y-34794556D01*
X154318390Y-34802287D01*
X154434607Y-34861503D01*
X154500776Y-34895218D01*
X154500778Y-34895218D01*
X154500781Y-34895220D01*
X154605137Y-34929127D01*
X154695465Y-34958477D01*
X154796557Y-34974488D01*
X154897648Y-34990500D01*
X154897649Y-34990500D01*
X155102351Y-34990500D01*
X155102352Y-34990500D01*
X155304534Y-34958477D01*
X155499219Y-34895220D01*
X155681610Y-34802287D01*
X155774590Y-34734732D01*
X155847213Y-34681971D01*
X155847215Y-34681968D01*
X155847219Y-34681966D01*
X155991966Y-34537219D01*
X155991968Y-34537215D01*
X155991971Y-34537213D01*
X156068587Y-34431758D01*
X156112287Y-34371610D01*
X156205220Y-34189219D01*
X156268477Y-33994534D01*
X156300500Y-33792352D01*
X156300500Y-33623500D01*
X156320185Y-33556461D01*
X156372989Y-33510706D01*
X156424500Y-33499500D01*
X157004524Y-33499500D01*
X157071563Y-33519185D01*
X157117318Y-33571989D01*
X157127262Y-33641147D01*
X157122455Y-33661817D01*
X157111524Y-33695457D01*
X157111523Y-33695464D01*
X157092394Y-33816239D01*
X157079500Y-33897648D01*
X157079500Y-34102352D01*
X157080507Y-34108711D01*
X157111522Y-34304534D01*
X157174781Y-34499223D01*
X157219830Y-34587635D01*
X157254180Y-34655051D01*
X157267715Y-34681613D01*
X157388028Y-34847213D01*
X157388034Y-34847219D01*
X157532781Y-34991966D01*
X157698390Y-35112287D01*
X157711793Y-35119116D01*
X157762589Y-35167088D01*
X157779500Y-35229601D01*
X157779500Y-38853330D01*
X157779499Y-38853348D01*
X157779499Y-39019054D01*
X157779498Y-39019054D01*
X157779499Y-39019057D01*
X157815938Y-39155048D01*
X157820424Y-39171787D01*
X157830756Y-39189682D01*
X157830757Y-39189684D01*
X157899477Y-39308712D01*
X157899481Y-39308717D01*
X158018349Y-39427585D01*
X158018355Y-39427590D01*
X158617344Y-40026580D01*
X158650829Y-40087903D01*
X158645845Y-40157595D01*
X158636397Y-40177379D01*
X158623257Y-40199597D01*
X158623254Y-40199605D01*
X158577402Y-40357426D01*
X158577401Y-40357432D01*
X158574500Y-40394298D01*
X158574500Y-40825701D01*
X158577401Y-40862567D01*
X158592375Y-40914107D01*
X158592175Y-40983976D01*
X158554232Y-41042646D01*
X158490594Y-41071489D01*
X158421464Y-41061347D01*
X158385617Y-41036382D01*
X153688590Y-36339355D01*
X153688588Y-36339352D01*
X153569717Y-36220481D01*
X153569709Y-36220475D01*
X153474646Y-36165591D01*
X153474644Y-36165590D01*
X153432790Y-36141425D01*
X153432789Y-36141424D01*
X153420263Y-36138067D01*
X153280057Y-36100499D01*
X153121943Y-36100499D01*
X153114347Y-36100499D01*
X153114331Y-36100500D01*
X150948131Y-36100500D01*
X150881092Y-36080815D01*
X150835337Y-36028011D01*
X150825393Y-35958853D01*
X150830200Y-35938183D01*
X150866014Y-35827954D01*
X150866013Y-35827954D01*
X150866015Y-35827951D01*
X150900500Y-35610222D01*
X150900500Y-35389778D01*
X150866015Y-35172049D01*
X150843188Y-35101794D01*
X150841193Y-35031953D01*
X150873436Y-34975797D01*
X152714416Y-33134819D01*
X152775739Y-33101334D01*
X152802097Y-33098500D01*
X153654093Y-33098500D01*
X153721132Y-33118185D01*
G37*
%TD.AperFunction*%
%TA.AperFunction,NonConductor*%
G36*
X164264942Y-33118185D02*
G01*
X164285583Y-33134818D01*
X164705923Y-33555158D01*
X164739407Y-33616480D01*
X164736173Y-33681155D01*
X164731522Y-33695468D01*
X164712394Y-33816239D01*
X164699500Y-33897648D01*
X164699500Y-34102352D01*
X164700507Y-34108711D01*
X164731522Y-34304534D01*
X164736173Y-34318848D01*
X164738165Y-34388690D01*
X164705921Y-34444842D01*
X163358425Y-35792338D01*
X163358418Y-35792345D01*
X163355286Y-35795478D01*
X163355284Y-35795480D01*
X163243480Y-35907284D01*
X163218685Y-35950231D01*
X163164423Y-36044215D01*
X163123499Y-36196943D01*
X163123499Y-36196945D01*
X163123499Y-36365046D01*
X163123500Y-36365059D01*
X163123500Y-41809871D01*
X163103815Y-41876910D01*
X163051011Y-41922665D01*
X162981853Y-41932609D01*
X162918297Y-41903584D01*
X162911819Y-41897552D01*
X161561819Y-40547552D01*
X161528334Y-40486229D01*
X161525500Y-40459871D01*
X161525500Y-40394313D01*
X161525499Y-40394298D01*
X161522598Y-40357432D01*
X161522597Y-40357426D01*
X161476745Y-40199606D01*
X161476744Y-40199603D01*
X161476744Y-40199602D01*
X161393081Y-40058135D01*
X161393076Y-40058129D01*
X161276870Y-39941923D01*
X161276862Y-39941917D01*
X161198681Y-39895681D01*
X161135398Y-39858256D01*
X161135397Y-39858255D01*
X161135396Y-39858255D01*
X161135393Y-39858254D01*
X160977573Y-39812402D01*
X160977567Y-39812401D01*
X160940701Y-39809500D01*
X160940694Y-39809500D01*
X160150098Y-39809500D01*
X160083059Y-39789815D01*
X160062417Y-39773181D01*
X159016819Y-38727583D01*
X158983334Y-38666260D01*
X158980500Y-38639902D01*
X158980500Y-35229601D01*
X159000185Y-35162562D01*
X159048206Y-35119116D01*
X159061610Y-35112287D01*
X159227219Y-34991966D01*
X159371966Y-34847219D01*
X159371968Y-34847215D01*
X159371971Y-34847213D01*
X159441469Y-34751555D01*
X159492287Y-34681610D01*
X159585220Y-34499219D01*
X159648477Y-34304534D01*
X159680500Y-34102352D01*
X159680500Y-33897648D01*
X159667606Y-33816239D01*
X159648477Y-33695465D01*
X159608357Y-33571989D01*
X159585220Y-33500781D01*
X159585218Y-33500778D01*
X159585218Y-33500776D01*
X159492285Y-33318387D01*
X159475573Y-33295384D01*
X159452094Y-33229578D01*
X159467920Y-33161524D01*
X159518026Y-33112830D01*
X159575892Y-33098500D01*
X164197903Y-33098500D01*
X164264942Y-33118185D01*
G37*
%TD.AperFunction*%
%TA.AperFunction,NonConductor*%
G36*
X156407655Y-40769763D02*
G01*
X156447067Y-40796302D01*
X157899478Y-42248713D01*
X157899480Y-42248716D01*
X157988584Y-42337820D01*
X158022068Y-42399141D01*
X158022067Y-42399142D01*
X158022068Y-42399143D01*
X158017084Y-42468834D01*
X157975212Y-42524768D01*
X157951443Y-42533633D01*
X157909749Y-42549184D01*
X157909747Y-42549183D01*
X157909747Y-42549184D01*
X157900902Y-42549500D01*
X155888151Y-42549500D01*
X155821112Y-42529815D01*
X155775357Y-42477011D01*
X155765413Y-42407853D01*
X155794438Y-42344297D01*
X155815266Y-42325182D01*
X155847213Y-42301971D01*
X155847215Y-42301968D01*
X155847219Y-42301966D01*
X155991966Y-42157219D01*
X155991968Y-42157215D01*
X155991971Y-42157213D01*
X156044732Y-42084590D01*
X156112287Y-41991610D01*
X156205220Y-41809219D01*
X156268477Y-41614534D01*
X156300500Y-41412352D01*
X156300500Y-41207648D01*
X156270842Y-41020398D01*
X156268477Y-41005465D01*
X156241455Y-40922302D01*
X156239460Y-40852461D01*
X156275540Y-40792628D01*
X156338240Y-40761799D01*
X156407655Y-40769763D01*
G37*
%TD.AperFunction*%
%TA.AperFunction,NonConductor*%
G36*
X167146942Y-42500185D02*
G01*
X167167584Y-42516819D01*
X168666241Y-44015476D01*
X168699726Y-44076799D01*
X168696492Y-44141473D01*
X168682753Y-44183757D01*
X168650123Y-44389778D01*
X168649500Y-44393713D01*
X168649500Y-44606287D01*
X168654158Y-44635694D01*
X168656436Y-44650076D01*
X168647480Y-44719370D01*
X168602483Y-44772821D01*
X168535731Y-44793460D01*
X168468418Y-44774734D01*
X168446281Y-44757154D01*
X166477481Y-42788354D01*
X166470412Y-42781285D01*
X166470412Y-42781284D01*
X166434944Y-42745816D01*
X166415896Y-42721260D01*
X166384173Y-42667619D01*
X166366993Y-42599896D01*
X166389153Y-42533633D01*
X166443619Y-42489871D01*
X166490907Y-42480500D01*
X167079903Y-42480500D01*
X167146942Y-42500185D01*
G37*
%TD.AperFunction*%
%TA.AperFunction,NonConductor*%
G36*
X170484522Y-45833757D02*
G01*
X171363181Y-46712416D01*
X171396666Y-46773739D01*
X171399500Y-46800097D01*
X171399500Y-47411011D01*
X171379815Y-47478050D01*
X171327011Y-47523805D01*
X171257853Y-47533749D01*
X171194297Y-47504724D01*
X171187819Y-47498692D01*
X169742845Y-46053718D01*
X169709360Y-45992395D01*
X169714344Y-45922703D01*
X169756216Y-45866770D01*
X169821680Y-45842353D01*
X169849919Y-45843563D01*
X169893713Y-45850500D01*
X169893715Y-45850500D01*
X170106286Y-45850500D01*
X170106287Y-45850500D01*
X170316243Y-45817246D01*
X170358523Y-45803507D01*
X170428362Y-45801511D01*
X170484522Y-45833757D01*
G37*
%TD.AperFunction*%
%TA.AperFunction,NonConductor*%
G36*
X161564390Y-42286920D02*
G01*
X161565574Y-42286728D01*
X161596615Y-42300213D01*
X161627874Y-42313108D01*
X161629355Y-42314437D01*
X161629657Y-42314568D01*
X161629890Y-42314916D01*
X161637888Y-42322091D01*
X163488181Y-44172384D01*
X163521666Y-44233707D01*
X163524500Y-44260065D01*
X163524500Y-44635701D01*
X163527401Y-44672567D01*
X163527402Y-44672573D01*
X163573254Y-44830393D01*
X163573255Y-44830396D01*
X163656917Y-44971862D01*
X163661702Y-44978031D01*
X163659256Y-44979927D01*
X163685857Y-45028642D01*
X163680873Y-45098334D01*
X163660069Y-45130703D01*
X163661702Y-45131969D01*
X163656917Y-45138137D01*
X163573255Y-45279603D01*
X163573254Y-45279606D01*
X163527402Y-45437426D01*
X163527401Y-45437432D01*
X163524500Y-45474298D01*
X163524500Y-45905701D01*
X163527401Y-45942567D01*
X163527402Y-45942573D01*
X163573254Y-46100393D01*
X163573255Y-46100396D01*
X163656917Y-46241862D01*
X163661702Y-46248031D01*
X163659256Y-46249927D01*
X163685857Y-46298642D01*
X163680873Y-46368334D01*
X163660069Y-46400703D01*
X163661702Y-46401969D01*
X163656917Y-46408137D01*
X163573255Y-46549603D01*
X163573254Y-46549606D01*
X163527402Y-46707426D01*
X163527401Y-46707432D01*
X163524500Y-46744298D01*
X163524500Y-47175701D01*
X163527401Y-47212567D01*
X163527402Y-47212573D01*
X163573254Y-47370393D01*
X163573255Y-47370396D01*
X163573256Y-47370398D01*
X163603275Y-47421158D01*
X163656917Y-47511862D01*
X163661702Y-47518031D01*
X163659256Y-47519927D01*
X163685857Y-47568642D01*
X163680873Y-47638334D01*
X163660069Y-47670703D01*
X163661702Y-47671969D01*
X163656917Y-47678137D01*
X163573255Y-47819603D01*
X163573254Y-47819606D01*
X163527402Y-47977426D01*
X163527401Y-47977432D01*
X163524500Y-48014298D01*
X163524500Y-48174500D01*
X163504815Y-48241539D01*
X163452011Y-48287294D01*
X163400500Y-48298500D01*
X161649500Y-48298500D01*
X161582461Y-48278815D01*
X161536706Y-48226011D01*
X161525500Y-48174500D01*
X161525500Y-48014313D01*
X161525499Y-48014298D01*
X161525183Y-48010288D01*
X161522598Y-47977431D01*
X161520407Y-47969890D01*
X161476745Y-47819606D01*
X161476744Y-47819603D01*
X161476744Y-47819602D01*
X161393081Y-47678135D01*
X161393078Y-47678132D01*
X161388298Y-47671969D01*
X161390750Y-47670066D01*
X161364155Y-47621421D01*
X161369104Y-47551726D01*
X161389940Y-47519304D01*
X161388298Y-47518031D01*
X161393075Y-47511870D01*
X161393081Y-47511865D01*
X161476744Y-47370398D01*
X161522598Y-47212569D01*
X161525500Y-47175694D01*
X161525500Y-46744306D01*
X161522598Y-46707431D01*
X161476744Y-46549602D01*
X161393081Y-46408135D01*
X161393078Y-46408132D01*
X161388298Y-46401969D01*
X161390750Y-46400066D01*
X161364155Y-46351421D01*
X161369104Y-46281726D01*
X161389940Y-46249304D01*
X161388298Y-46248031D01*
X161393075Y-46241870D01*
X161393081Y-46241865D01*
X161476744Y-46100398D01*
X161522598Y-45942569D01*
X161525500Y-45905694D01*
X161525500Y-45474306D01*
X161522598Y-45437431D01*
X161511117Y-45397915D01*
X161476745Y-45279606D01*
X161476744Y-45279603D01*
X161476744Y-45279602D01*
X161393081Y-45138135D01*
X161393078Y-45138132D01*
X161388298Y-45131969D01*
X161390750Y-45130066D01*
X161364155Y-45081421D01*
X161369104Y-45011726D01*
X161389940Y-44979304D01*
X161388298Y-44978031D01*
X161393075Y-44971870D01*
X161393081Y-44971865D01*
X161476744Y-44830398D01*
X161522598Y-44672569D01*
X161525500Y-44635694D01*
X161525500Y-44204306D01*
X161522598Y-44167431D01*
X161515056Y-44141473D01*
X161482533Y-44029527D01*
X161476744Y-44009602D01*
X161393081Y-43868135D01*
X161393078Y-43868132D01*
X161388298Y-43861969D01*
X161390750Y-43860066D01*
X161364155Y-43811421D01*
X161369104Y-43741726D01*
X161389940Y-43709304D01*
X161388298Y-43708031D01*
X161393075Y-43701870D01*
X161393081Y-43701865D01*
X161476744Y-43560398D01*
X161514118Y-43431756D01*
X161522597Y-43402573D01*
X161522598Y-43402567D01*
X161525499Y-43365701D01*
X161525500Y-43365694D01*
X161525500Y-42934306D01*
X161522598Y-42897431D01*
X161476744Y-42739602D01*
X161393081Y-42598135D01*
X161393080Y-42598134D01*
X161388298Y-42591969D01*
X161390750Y-42590066D01*
X161364155Y-42541421D01*
X161369104Y-42471726D01*
X161379767Y-42449908D01*
X161387377Y-42437568D01*
X161393081Y-42431865D01*
X161444078Y-42345632D01*
X161444666Y-42344680D01*
X161469805Y-42322065D01*
X161494543Y-42298968D01*
X161495720Y-42298753D01*
X161496611Y-42297953D01*
X161530002Y-42292517D01*
X161563284Y-42286464D01*
X161564390Y-42286920D01*
G37*
%TD.AperFunction*%
%TA.AperFunction,NonConductor*%
G36*
X166669485Y-45323719D02*
G01*
X166683567Y-45335834D01*
X168062181Y-46714448D01*
X168095666Y-46775771D01*
X168098500Y-46802129D01*
X168098500Y-49832935D01*
X168078815Y-49899974D01*
X168026011Y-49945729D01*
X167956853Y-49955673D01*
X167893297Y-49926648D01*
X167886819Y-49920616D01*
X166511281Y-48545078D01*
X166477796Y-48483755D01*
X166475345Y-48447658D01*
X166475500Y-48445694D01*
X166475500Y-48014306D01*
X166472598Y-47977431D01*
X166470407Y-47969890D01*
X166426745Y-47819606D01*
X166426744Y-47819603D01*
X166426744Y-47819602D01*
X166343081Y-47678135D01*
X166343078Y-47678132D01*
X166338298Y-47671969D01*
X166340750Y-47670066D01*
X166314155Y-47621421D01*
X166319104Y-47551726D01*
X166339940Y-47519304D01*
X166338298Y-47518031D01*
X166343075Y-47511870D01*
X166343081Y-47511865D01*
X166426744Y-47370398D01*
X166472598Y-47212569D01*
X166475500Y-47175694D01*
X166475500Y-46744306D01*
X166472598Y-46707431D01*
X166426744Y-46549602D01*
X166343081Y-46408135D01*
X166343078Y-46408132D01*
X166338298Y-46401969D01*
X166340750Y-46400066D01*
X166314155Y-46351421D01*
X166319104Y-46281726D01*
X166339940Y-46249304D01*
X166338298Y-46248031D01*
X166343075Y-46241870D01*
X166343081Y-46241865D01*
X166426744Y-46100398D01*
X166472598Y-45942569D01*
X166475500Y-45905694D01*
X166475500Y-45474306D01*
X166472598Y-45437431D01*
X166472597Y-45437426D01*
X166472268Y-45433245D01*
X166486632Y-45364867D01*
X166535683Y-45315110D01*
X166603848Y-45299771D01*
X166669485Y-45323719D01*
G37*
%TD.AperFunction*%
%TA.AperFunction,NonConductor*%
G36*
X166805703Y-50538416D02*
G01*
X166812181Y-50544448D01*
X167774625Y-51506892D01*
X167808110Y-51568215D01*
X167803126Y-51637907D01*
X167761254Y-51693840D01*
X167695790Y-51718257D01*
X167662753Y-51716190D01*
X167578846Y-51699500D01*
X167578842Y-51699500D01*
X167421158Y-51699500D01*
X167421155Y-51699500D01*
X167266510Y-51730261D01*
X167266498Y-51730264D01*
X167120827Y-51790602D01*
X167120814Y-51790609D01*
X166989711Y-51878210D01*
X166989707Y-51878213D01*
X166878213Y-51989707D01*
X166878210Y-51989711D01*
X166827602Y-52065451D01*
X166773989Y-52110256D01*
X166704664Y-52118963D01*
X166641637Y-52088808D01*
X166604918Y-52029365D01*
X166600500Y-51996560D01*
X166600500Y-50632129D01*
X166620185Y-50565090D01*
X166672989Y-50519335D01*
X166742147Y-50509391D01*
X166805703Y-50538416D01*
G37*
%TD.AperFunction*%
%TA.AperFunction,NonConductor*%
G36*
X170653608Y-50264018D02*
G01*
X170693869Y-50321121D01*
X170700500Y-50361128D01*
X170700500Y-53400500D01*
X170680815Y-53467539D01*
X170628011Y-53513294D01*
X170576500Y-53524500D01*
X169915954Y-53524500D01*
X169848915Y-53504815D01*
X169839841Y-53497503D01*
X169839644Y-53497768D01*
X169750188Y-53430800D01*
X169708318Y-53374866D01*
X169700500Y-53331534D01*
X169700500Y-52072091D01*
X169700501Y-52072078D01*
X169700501Y-51903977D01*
X169700501Y-51903975D01*
X169659577Y-51751247D01*
X169624068Y-51689744D01*
X169580520Y-51614316D01*
X169468716Y-51502512D01*
X169468715Y-51502511D01*
X169464385Y-51498181D01*
X169464374Y-51498171D01*
X169335819Y-51369616D01*
X169302334Y-51308293D01*
X169299500Y-51281935D01*
X169299500Y-50361128D01*
X169319185Y-50294089D01*
X169371989Y-50248334D01*
X169441147Y-50238390D01*
X169477044Y-50249772D01*
X169477079Y-50249690D01*
X169478040Y-50250088D01*
X169479800Y-50250646D01*
X169481588Y-50251557D01*
X169683757Y-50317246D01*
X169893713Y-50350500D01*
X169893714Y-50350500D01*
X170106286Y-50350500D01*
X170106287Y-50350500D01*
X170316243Y-50317246D01*
X170518412Y-50251557D01*
X170520198Y-50250646D01*
X170520953Y-50250504D01*
X170522921Y-50249690D01*
X170523092Y-50250103D01*
X170588865Y-50237746D01*
X170653608Y-50264018D01*
G37*
%TD.AperFunction*%
%TA.AperFunction,NonConductor*%
G36*
X168039665Y-53189340D02*
G01*
X168086356Y-53241318D01*
X168098500Y-53294836D01*
X168098500Y-53512330D01*
X168098499Y-53512348D01*
X168098499Y-53678054D01*
X168098498Y-53678054D01*
X168139423Y-53830786D01*
X168146456Y-53842967D01*
X168150229Y-53849501D01*
X168207677Y-53949004D01*
X168207888Y-53949370D01*
X168224500Y-54011369D01*
X168224500Y-54102903D01*
X168204815Y-54169942D01*
X168152011Y-54215697D01*
X168082853Y-54225641D01*
X168019297Y-54196616D01*
X168012819Y-54190584D01*
X167334416Y-53512181D01*
X167300931Y-53450858D01*
X167305915Y-53381166D01*
X167347787Y-53325233D01*
X167413251Y-53300816D01*
X167422097Y-53300500D01*
X167578844Y-53300500D01*
X167578845Y-53300499D01*
X167733497Y-53269737D01*
X167879179Y-53209394D01*
X167905608Y-53191735D01*
X167972285Y-53170856D01*
X168039665Y-53189340D01*
G37*
%TD.AperFunction*%
%TA.AperFunction,NonConductor*%
G36*
X173502539Y-53919185D02*
G01*
X173548294Y-53971989D01*
X173559500Y-54023500D01*
X173559500Y-54999902D01*
X173539815Y-55066941D01*
X173523181Y-55087583D01*
X173296584Y-55314181D01*
X173235261Y-55347666D01*
X173208903Y-55350500D01*
X172997136Y-55350500D01*
X172930097Y-55330815D01*
X172884342Y-55278011D01*
X172873847Y-55213242D01*
X172875500Y-55197873D01*
X172875499Y-54802128D01*
X172875498Y-54802111D01*
X172871320Y-54763253D01*
X172871320Y-54736747D01*
X172875500Y-54697873D01*
X172875499Y-54302128D01*
X172875499Y-54302127D01*
X172875498Y-54302111D01*
X172871320Y-54263253D01*
X172870638Y-54247301D01*
X172870752Y-54242022D01*
X172875500Y-54197873D01*
X172875499Y-54023726D01*
X172875528Y-54022403D01*
X172885704Y-53990343D01*
X172895183Y-53958060D01*
X172896450Y-53956488D01*
X172896666Y-53955808D01*
X172897668Y-53954977D01*
X172911845Y-53937390D01*
X172913445Y-53935791D01*
X172934977Y-53924042D01*
X172950452Y-53911212D01*
X172960800Y-53909953D01*
X172974779Y-53902326D01*
X173001099Y-53899500D01*
X173435500Y-53899500D01*
X173502539Y-53919185D01*
G37*
%TD.AperFunction*%
%TA.AperFunction,NonConductor*%
G36*
X158459185Y-49502050D02*
G01*
X158468147Y-49500762D01*
X158492187Y-49511740D01*
X158517539Y-49519185D01*
X158523466Y-49526025D01*
X158531703Y-49529787D01*
X158545992Y-49552021D01*
X158563294Y-49571989D01*
X158565581Y-49582503D01*
X158569477Y-49588565D01*
X158574500Y-49623500D01*
X158574500Y-49715701D01*
X158577401Y-49752567D01*
X158577402Y-49752573D01*
X158623254Y-49910393D01*
X158623255Y-49910396D01*
X158623256Y-49910398D01*
X158660681Y-49973681D01*
X158706917Y-50051862D01*
X158706923Y-50051870D01*
X158823129Y-50168076D01*
X158823133Y-50168079D01*
X158823135Y-50168081D01*
X158964602Y-50251744D01*
X159006224Y-50263836D01*
X159122426Y-50297597D01*
X159122429Y-50297597D01*
X159122431Y-50297598D01*
X159159306Y-50300500D01*
X159159314Y-50300500D01*
X160940686Y-50300500D01*
X160940694Y-50300500D01*
X160977569Y-50297598D01*
X160977571Y-50297597D01*
X160977573Y-50297597D01*
X161019191Y-50285505D01*
X161135398Y-50251744D01*
X161276865Y-50168081D01*
X161393081Y-50051865D01*
X161476744Y-49910398D01*
X161522598Y-49752569D01*
X161525500Y-49715694D01*
X161525500Y-49623500D01*
X161545185Y-49556461D01*
X161597989Y-49510706D01*
X161649500Y-49499500D01*
X163400500Y-49499500D01*
X163467539Y-49519185D01*
X163513294Y-49571989D01*
X163524500Y-49623500D01*
X163524500Y-49715701D01*
X163527401Y-49752567D01*
X163527402Y-49752573D01*
X163573254Y-49910393D01*
X163573255Y-49910396D01*
X163573256Y-49910398D01*
X163610681Y-49973681D01*
X163656917Y-50051862D01*
X163656923Y-50051870D01*
X163773129Y-50168076D01*
X163773133Y-50168079D01*
X163773135Y-50168081D01*
X163914602Y-50251744D01*
X163956224Y-50263836D01*
X164072426Y-50297597D01*
X164072429Y-50297597D01*
X164072431Y-50297598D01*
X164109306Y-50300500D01*
X164275500Y-50300500D01*
X164342539Y-50320185D01*
X164388294Y-50372989D01*
X164399500Y-50424500D01*
X164399500Y-51940330D01*
X164399499Y-51940348D01*
X164399499Y-52106054D01*
X164399498Y-52106054D01*
X164427189Y-52209397D01*
X164440423Y-52258785D01*
X164468911Y-52308127D01*
X164509936Y-52379185D01*
X164519479Y-52395714D01*
X164519481Y-52395717D01*
X164638349Y-52514585D01*
X164638355Y-52514590D01*
X165363181Y-53239416D01*
X165396666Y-53300739D01*
X165399500Y-53327097D01*
X165399500Y-54270397D01*
X165379815Y-54337436D01*
X165331800Y-54380879D01*
X165318389Y-54387712D01*
X165152786Y-54508028D01*
X165008028Y-54652786D01*
X164887715Y-54818385D01*
X164880883Y-54831795D01*
X164832909Y-54882591D01*
X164770398Y-54899500D01*
X159609602Y-54899500D01*
X159542563Y-54879815D01*
X159499117Y-54831795D01*
X159497159Y-54827952D01*
X159492287Y-54818390D01*
X159492285Y-54818387D01*
X159492284Y-54818385D01*
X159371971Y-54652786D01*
X159227213Y-54508028D01*
X159061613Y-54387715D01*
X159061612Y-54387714D01*
X159061610Y-54387713D01*
X159002235Y-54357460D01*
X158879223Y-54294781D01*
X158684534Y-54231522D01*
X158509995Y-54203878D01*
X158482352Y-54199500D01*
X158277648Y-54199500D01*
X158253329Y-54203351D01*
X158075465Y-54231522D01*
X157880776Y-54294781D01*
X157698386Y-54387715D01*
X157532786Y-54508028D01*
X157388028Y-54652786D01*
X157267715Y-54818386D01*
X157174781Y-55000776D01*
X157111522Y-55195465D01*
X157079500Y-55397648D01*
X157079500Y-55602351D01*
X157111522Y-55804534D01*
X157174781Y-55999223D01*
X157235001Y-56117409D01*
X157267667Y-56181520D01*
X157267715Y-56181613D01*
X157388028Y-56347213D01*
X157388034Y-56347219D01*
X157532781Y-56491966D01*
X157698390Y-56612287D01*
X157711793Y-56619116D01*
X157762589Y-56667088D01*
X157779500Y-56729601D01*
X157779500Y-58629902D01*
X157759815Y-58696941D01*
X157743181Y-58717583D01*
X154944842Y-61515921D01*
X154883519Y-61549406D01*
X154818848Y-61546173D01*
X154804534Y-61541522D01*
X154629995Y-61513878D01*
X154602352Y-61509500D01*
X154397648Y-61509500D01*
X154373329Y-61513351D01*
X154195465Y-61541522D01*
X154000776Y-61604781D01*
X153818386Y-61697715D01*
X153652786Y-61818028D01*
X153508028Y-61962786D01*
X153387715Y-62128385D01*
X153380883Y-62141795D01*
X153332909Y-62192591D01*
X153270398Y-62209500D01*
X149446957Y-62209500D01*
X149379918Y-62189815D01*
X149359276Y-62173181D01*
X149110825Y-61924730D01*
X149077340Y-61863407D01*
X149082324Y-61793715D01*
X149124196Y-61737782D01*
X149189660Y-61713365D01*
X149222696Y-61715431D01*
X149398994Y-61750499D01*
X149398996Y-61750500D01*
X149398997Y-61750500D01*
X149601004Y-61750500D01*
X149601005Y-61750499D01*
X149799127Y-61711091D01*
X149985756Y-61633786D01*
X150153718Y-61521558D01*
X150296558Y-61378718D01*
X150408786Y-61210756D01*
X150486091Y-61024127D01*
X150525500Y-60826003D01*
X150525500Y-60173997D01*
X150486091Y-59975873D01*
X150408786Y-59789244D01*
X150408784Y-59789241D01*
X150408782Y-59789237D01*
X150296558Y-59621281D01*
X150153718Y-59478441D01*
X149985762Y-59366217D01*
X149985752Y-59366212D01*
X149799127Y-59288909D01*
X149799119Y-59288907D01*
X149601007Y-59249500D01*
X149601003Y-59249500D01*
X149398997Y-59249500D01*
X149398992Y-59249500D01*
X149200880Y-59288907D01*
X149200872Y-59288909D01*
X149014244Y-59366213D01*
X148933891Y-59419904D01*
X148867213Y-59440782D01*
X148799833Y-59422297D01*
X148796109Y-59419904D01*
X148715755Y-59366213D01*
X148529127Y-59288909D01*
X148529119Y-59288907D01*
X148331007Y-59249500D01*
X148331003Y-59249500D01*
X148128997Y-59249500D01*
X148128992Y-59249500D01*
X147930880Y-59288907D01*
X147930868Y-59288910D01*
X147850198Y-59322325D01*
X147780729Y-59329794D01*
X147735342Y-59310036D01*
X147735114Y-59310454D01*
X147730447Y-59307905D01*
X147728432Y-59307028D01*
X147727331Y-59306204D01*
X147727330Y-59306203D01*
X147727328Y-59306202D01*
X147592482Y-59255908D01*
X147592483Y-59255908D01*
X147545189Y-59250824D01*
X147480638Y-59224086D01*
X147466300Y-59210514D01*
X147457575Y-59200826D01*
X147440520Y-59171284D01*
X147344528Y-59075292D01*
X147342356Y-59072880D01*
X147328585Y-59044189D01*
X147313334Y-59016258D01*
X147312801Y-59011305D01*
X147312122Y-59009890D01*
X147312404Y-59007615D01*
X147310500Y-58989901D01*
X147310500Y-57921153D01*
X155699500Y-57921153D01*
X155699500Y-58078846D01*
X155730261Y-58233489D01*
X155730264Y-58233501D01*
X155790602Y-58379172D01*
X155790609Y-58379185D01*
X155878210Y-58510288D01*
X155878213Y-58510292D01*
X155989707Y-58621786D01*
X155989711Y-58621789D01*
X156120814Y-58709390D01*
X156120827Y-58709397D01*
X156258683Y-58766498D01*
X156266503Y-58769737D01*
X156421153Y-58800499D01*
X156421156Y-58800500D01*
X156421158Y-58800500D01*
X156578844Y-58800500D01*
X156578845Y-58800499D01*
X156733497Y-58769737D01*
X156879179Y-58709394D01*
X157010289Y-58621789D01*
X157121789Y-58510289D01*
X157209394Y-58379179D01*
X157269737Y-58233497D01*
X157300500Y-58078842D01*
X157300500Y-57921158D01*
X157300500Y-57921155D01*
X157300499Y-57921153D01*
X157269738Y-57766510D01*
X157269737Y-57766503D01*
X157269735Y-57766498D01*
X157209397Y-57620827D01*
X157209390Y-57620814D01*
X157121789Y-57489711D01*
X157121786Y-57489707D01*
X157010292Y-57378213D01*
X157010288Y-57378210D01*
X156879185Y-57290609D01*
X156879172Y-57290602D01*
X156733501Y-57230264D01*
X156733489Y-57230261D01*
X156578845Y-57199500D01*
X156578842Y-57199500D01*
X156421158Y-57199500D01*
X156421155Y-57199500D01*
X156266510Y-57230261D01*
X156266498Y-57230264D01*
X156120827Y-57290602D01*
X156120814Y-57290609D01*
X155989711Y-57378210D01*
X155989707Y-57378213D01*
X155878213Y-57489707D01*
X155878210Y-57489711D01*
X155790609Y-57620814D01*
X155790602Y-57620827D01*
X155730264Y-57766498D01*
X155730261Y-57766510D01*
X155699500Y-57921153D01*
X147310500Y-57921153D01*
X147310500Y-55087648D01*
X153199500Y-55087648D01*
X153199500Y-55292351D01*
X153231522Y-55494534D01*
X153294781Y-55689223D01*
X153350153Y-55797895D01*
X153384862Y-55866015D01*
X153387715Y-55871613D01*
X153508028Y-56037213D01*
X153652786Y-56181971D01*
X153807749Y-56294556D01*
X153818390Y-56302287D01*
X153906574Y-56347219D01*
X154000776Y-56395218D01*
X154000778Y-56395218D01*
X154000781Y-56395220D01*
X154105137Y-56429127D01*
X154195465Y-56458477D01*
X154296557Y-56474488D01*
X154397648Y-56490500D01*
X154397649Y-56490500D01*
X154602351Y-56490500D01*
X154602352Y-56490500D01*
X154804534Y-56458477D01*
X154999219Y-56395220D01*
X155181610Y-56302287D01*
X155274590Y-56234732D01*
X155347213Y-56181971D01*
X155347215Y-56181968D01*
X155347219Y-56181966D01*
X155491966Y-56037219D01*
X155491968Y-56037215D01*
X155491971Y-56037213D01*
X155591298Y-55900499D01*
X155612287Y-55871610D01*
X155705220Y-55689219D01*
X155768477Y-55494534D01*
X155800500Y-55292352D01*
X155800500Y-55087648D01*
X155768477Y-54885466D01*
X155705220Y-54690781D01*
X155705218Y-54690778D01*
X155705218Y-54690776D01*
X155664173Y-54610222D01*
X155612287Y-54508390D01*
X155604556Y-54497749D01*
X155491971Y-54342786D01*
X155347213Y-54198028D01*
X155181613Y-54077715D01*
X155181612Y-54077714D01*
X155181610Y-54077713D01*
X155112159Y-54042326D01*
X154999223Y-53984781D01*
X154804534Y-53921522D01*
X154629995Y-53893878D01*
X154602352Y-53889500D01*
X154397648Y-53889500D01*
X154373329Y-53893351D01*
X154195465Y-53921522D01*
X154000776Y-53984781D01*
X153818386Y-54077715D01*
X153652786Y-54198028D01*
X153508028Y-54342786D01*
X153387715Y-54508386D01*
X153294781Y-54690776D01*
X153231522Y-54885465D01*
X153199500Y-55087648D01*
X147310500Y-55087648D01*
X147310500Y-54424499D01*
X147330185Y-54357460D01*
X147382989Y-54311705D01*
X147434500Y-54300499D01*
X147657871Y-54300499D01*
X147657872Y-54300499D01*
X147717483Y-54294091D01*
X147852331Y-54243796D01*
X147967546Y-54157546D01*
X148053796Y-54042331D01*
X148081429Y-53968243D01*
X148083601Y-53962420D01*
X148125471Y-53906486D01*
X148190936Y-53882068D01*
X148259209Y-53896919D01*
X148287464Y-53918071D01*
X148337636Y-53968243D01*
X148337641Y-53968247D01*
X148439603Y-54042326D01*
X148515978Y-54097815D01*
X148643898Y-54162994D01*
X148712393Y-54197895D01*
X148712396Y-54197896D01*
X148797789Y-54225641D01*
X148922049Y-54266015D01*
X149139778Y-54300500D01*
X149139779Y-54300500D01*
X149360221Y-54300500D01*
X149360222Y-54300500D01*
X149577951Y-54266015D01*
X149787606Y-54197895D01*
X149984022Y-54097815D01*
X150162365Y-53968242D01*
X150318242Y-53812365D01*
X150447815Y-53634022D01*
X150547895Y-53437606D01*
X150616015Y-53227951D01*
X150650500Y-53010222D01*
X150650500Y-52789778D01*
X150616015Y-52572049D01*
X150593188Y-52501794D01*
X150591193Y-52431953D01*
X150623436Y-52375797D01*
X151578081Y-51421153D01*
X152699500Y-51421153D01*
X152699500Y-51578846D01*
X152730261Y-51733489D01*
X152730264Y-51733501D01*
X152790602Y-51879172D01*
X152790609Y-51879185D01*
X152878210Y-52010288D01*
X152878213Y-52010292D01*
X152989707Y-52121786D01*
X152989711Y-52121789D01*
X153120814Y-52209390D01*
X153120827Y-52209397D01*
X153240062Y-52258785D01*
X153266503Y-52269737D01*
X153421153Y-52300499D01*
X153421156Y-52300500D01*
X153421158Y-52300500D01*
X153578844Y-52300500D01*
X153578845Y-52300499D01*
X153733497Y-52269737D01*
X153879179Y-52209394D01*
X154010289Y-52121789D01*
X154121789Y-52010289D01*
X154181348Y-51921153D01*
X156699500Y-51921153D01*
X156699500Y-52078846D01*
X156730261Y-52233489D01*
X156730264Y-52233501D01*
X156790602Y-52379172D01*
X156790609Y-52379185D01*
X156878210Y-52510288D01*
X156878213Y-52510292D01*
X156989707Y-52621786D01*
X156989711Y-52621789D01*
X157120814Y-52709390D01*
X157120827Y-52709397D01*
X157193325Y-52739426D01*
X157266503Y-52769737D01*
X157421153Y-52800499D01*
X157421156Y-52800500D01*
X157421158Y-52800500D01*
X157578844Y-52800500D01*
X157578845Y-52800499D01*
X157733497Y-52769737D01*
X157879179Y-52709394D01*
X158010289Y-52621789D01*
X158121789Y-52510289D01*
X158209394Y-52379179D01*
X158269737Y-52233497D01*
X158300500Y-52078842D01*
X158300500Y-51921158D01*
X158300500Y-51921155D01*
X158300499Y-51921153D01*
X159199500Y-51921153D01*
X159199500Y-52078846D01*
X159230261Y-52233489D01*
X159230264Y-52233501D01*
X159290602Y-52379172D01*
X159290609Y-52379185D01*
X159378210Y-52510288D01*
X159378213Y-52510292D01*
X159489707Y-52621786D01*
X159489711Y-52621789D01*
X159620814Y-52709390D01*
X159620827Y-52709397D01*
X159693325Y-52739426D01*
X159766503Y-52769737D01*
X159921153Y-52800499D01*
X159921156Y-52800500D01*
X159921158Y-52800500D01*
X160078844Y-52800500D01*
X160078845Y-52800499D01*
X160233497Y-52769737D01*
X160379179Y-52709394D01*
X160510289Y-52621789D01*
X160621789Y-52510289D01*
X160709394Y-52379179D01*
X160769737Y-52233497D01*
X160800500Y-52078842D01*
X160800500Y-51921158D01*
X160800500Y-51921155D01*
X160800499Y-51921153D01*
X160774531Y-51790606D01*
X160769737Y-51766503D01*
X160756062Y-51733489D01*
X160709397Y-51620827D01*
X160709390Y-51620814D01*
X160621789Y-51489711D01*
X160621786Y-51489707D01*
X160510292Y-51378213D01*
X160510288Y-51378210D01*
X160379185Y-51290609D01*
X160379172Y-51290602D01*
X160233501Y-51230264D01*
X160233489Y-51230261D01*
X160078845Y-51199500D01*
X160078842Y-51199500D01*
X159921158Y-51199500D01*
X159921155Y-51199500D01*
X159766510Y-51230261D01*
X159766498Y-51230264D01*
X159620827Y-51290602D01*
X159620814Y-51290609D01*
X159489711Y-51378210D01*
X159489707Y-51378213D01*
X159378213Y-51489707D01*
X159378210Y-51489711D01*
X159290609Y-51620814D01*
X159290602Y-51620827D01*
X159230264Y-51766498D01*
X159230261Y-51766510D01*
X159199500Y-51921153D01*
X158300499Y-51921153D01*
X158274531Y-51790606D01*
X158269737Y-51766503D01*
X158256062Y-51733489D01*
X158209397Y-51620827D01*
X158209390Y-51620814D01*
X158121789Y-51489711D01*
X158121786Y-51489707D01*
X158010292Y-51378213D01*
X158010288Y-51378210D01*
X157879185Y-51290609D01*
X157879172Y-51290602D01*
X157733501Y-51230264D01*
X157733489Y-51230261D01*
X157578845Y-51199500D01*
X157578842Y-51199500D01*
X157421158Y-51199500D01*
X157421155Y-51199500D01*
X157266510Y-51230261D01*
X157266498Y-51230264D01*
X157120827Y-51290602D01*
X157120814Y-51290609D01*
X156989711Y-51378210D01*
X156989707Y-51378213D01*
X156878213Y-51489707D01*
X156878210Y-51489711D01*
X156790609Y-51620814D01*
X156790602Y-51620827D01*
X156730264Y-51766498D01*
X156730261Y-51766510D01*
X156699500Y-51921153D01*
X154181348Y-51921153D01*
X154209394Y-51879179D01*
X154269737Y-51733497D01*
X154300500Y-51578842D01*
X154300500Y-51421158D01*
X154300500Y-51421155D01*
X154300499Y-51421153D01*
X154291957Y-51378210D01*
X154269737Y-51266503D01*
X154269735Y-51266498D01*
X154209397Y-51120827D01*
X154209390Y-51120814D01*
X154121789Y-50989711D01*
X154121786Y-50989707D01*
X154010292Y-50878213D01*
X154010288Y-50878210D01*
X153879185Y-50790609D01*
X153879172Y-50790602D01*
X153733501Y-50730264D01*
X153733489Y-50730261D01*
X153578845Y-50699500D01*
X153578842Y-50699500D01*
X153421158Y-50699500D01*
X153421155Y-50699500D01*
X153266510Y-50730261D01*
X153266498Y-50730264D01*
X153120827Y-50790602D01*
X153120814Y-50790609D01*
X152989711Y-50878210D01*
X152989707Y-50878213D01*
X152878213Y-50989707D01*
X152878210Y-50989711D01*
X152790609Y-51120814D01*
X152790602Y-51120827D01*
X152730264Y-51266498D01*
X152730261Y-51266510D01*
X152699500Y-51421153D01*
X151578081Y-51421153D01*
X153463416Y-49535819D01*
X153524739Y-49502334D01*
X153551097Y-49499500D01*
X158450500Y-49499500D01*
X158459185Y-49502050D01*
G37*
%TD.AperFunction*%
%TA.AperFunction,NonConductor*%
G36*
X157143072Y-61118676D02*
G01*
X157199005Y-61160548D01*
X157223422Y-61226012D01*
X157222211Y-61254256D01*
X157199500Y-61397648D01*
X157199500Y-61602351D01*
X157231522Y-61804534D01*
X157236173Y-61818848D01*
X157238165Y-61888690D01*
X157205921Y-61944842D01*
X155987942Y-63162822D01*
X155926619Y-63196307D01*
X155856927Y-63191323D01*
X155800994Y-63149451D01*
X155776577Y-63083987D01*
X155777787Y-63055749D01*
X155800500Y-62912352D01*
X155800500Y-62707648D01*
X155768477Y-62505466D01*
X155763825Y-62491151D01*
X155761832Y-62421312D01*
X155794075Y-62365158D01*
X157012058Y-61147176D01*
X157073380Y-61113692D01*
X157143072Y-61118676D01*
G37*
%TD.AperFunction*%
M02*
