%TF.GenerationSoftware,KiCad,Pcbnew,9.0.7*%
%TF.CreationDate,2026-01-29T16:27:59+09:00*%
%TF.ProjectId,ono-kairo,6f6e6f2d-6b61-4697-926f-2e6b69636164,rev?*%
%TF.SameCoordinates,Original*%
%TF.FileFunction,Legend,Top*%
%TF.FilePolarity,Positive*%
%FSLAX46Y46*%
G04 Gerber Fmt 4.6, Leading zero omitted, Abs format (unit mm)*
G04 Created by KiCad (PCBNEW 9.0.7) date 2026-01-29 16:27:59*
%MOMM*%
%LPD*%
G01*
G04 APERTURE LIST*
%ADD10C,0.150000*%
%ADD11C,0.120000*%
G04 APERTURE END LIST*
D10*
X184738095Y-48954819D02*
X184738095Y-49764342D01*
X184738095Y-49764342D02*
X184785714Y-49859580D01*
X184785714Y-49859580D02*
X184833333Y-49907200D01*
X184833333Y-49907200D02*
X184928571Y-49954819D01*
X184928571Y-49954819D02*
X185119047Y-49954819D01*
X185119047Y-49954819D02*
X185214285Y-49907200D01*
X185214285Y-49907200D02*
X185261904Y-49859580D01*
X185261904Y-49859580D02*
X185309523Y-49764342D01*
X185309523Y-49764342D02*
X185309523Y-48954819D01*
X186309523Y-49954819D02*
X185738095Y-49954819D01*
X186023809Y-49954819D02*
X186023809Y-48954819D01*
X186023809Y-48954819D02*
X185928571Y-49097676D01*
X185928571Y-49097676D02*
X185833333Y-49192914D01*
X185833333Y-49192914D02*
X185738095Y-49240533D01*
X166454819Y-60642381D02*
X166454819Y-61213809D01*
X166454819Y-60928095D02*
X165454819Y-60928095D01*
X165454819Y-60928095D02*
X165597676Y-61023333D01*
X165597676Y-61023333D02*
X165692914Y-61118571D01*
X165692914Y-61118571D02*
X165740533Y-61213809D01*
X165454819Y-60023333D02*
X165454819Y-59928095D01*
X165454819Y-59928095D02*
X165502438Y-59832857D01*
X165502438Y-59832857D02*
X165550057Y-59785238D01*
X165550057Y-59785238D02*
X165645295Y-59737619D01*
X165645295Y-59737619D02*
X165835771Y-59690000D01*
X165835771Y-59690000D02*
X166073866Y-59690000D01*
X166073866Y-59690000D02*
X166264342Y-59737619D01*
X166264342Y-59737619D02*
X166359580Y-59785238D01*
X166359580Y-59785238D02*
X166407200Y-59832857D01*
X166407200Y-59832857D02*
X166454819Y-59928095D01*
X166454819Y-59928095D02*
X166454819Y-60023333D01*
X166454819Y-60023333D02*
X166407200Y-60118571D01*
X166407200Y-60118571D02*
X166359580Y-60166190D01*
X166359580Y-60166190D02*
X166264342Y-60213809D01*
X166264342Y-60213809D02*
X166073866Y-60261428D01*
X166073866Y-60261428D02*
X165835771Y-60261428D01*
X165835771Y-60261428D02*
X165645295Y-60213809D01*
X165645295Y-60213809D02*
X165550057Y-60166190D01*
X165550057Y-60166190D02*
X165502438Y-60118571D01*
X165502438Y-60118571D02*
X165454819Y-60023333D01*
X166454819Y-59261428D02*
X165454819Y-59261428D01*
X166073866Y-59166190D02*
X166454819Y-58880476D01*
X165788152Y-58880476D02*
X166169104Y-59261428D01*
X166550057Y-58690000D02*
X166550057Y-57928095D01*
X166454819Y-57166190D02*
X166454819Y-57737618D01*
X166454819Y-57451904D02*
X165454819Y-57451904D01*
X165454819Y-57451904D02*
X165597676Y-57547142D01*
X165597676Y-57547142D02*
X165692914Y-57642380D01*
X165692914Y-57642380D02*
X165740533Y-57737618D01*
X194952381Y-57602459D02*
X194952381Y-56602459D01*
X194952381Y-56602459D02*
X195285714Y-57316744D01*
X195285714Y-57316744D02*
X195619047Y-56602459D01*
X195619047Y-56602459D02*
X195619047Y-57602459D01*
X196285714Y-56602459D02*
X196476190Y-56602459D01*
X196476190Y-56602459D02*
X196571428Y-56650078D01*
X196571428Y-56650078D02*
X196666666Y-56745316D01*
X196666666Y-56745316D02*
X196714285Y-56935792D01*
X196714285Y-56935792D02*
X196714285Y-57269125D01*
X196714285Y-57269125D02*
X196666666Y-57459601D01*
X196666666Y-57459601D02*
X196571428Y-57554840D01*
X196571428Y-57554840D02*
X196476190Y-57602459D01*
X196476190Y-57602459D02*
X196285714Y-57602459D01*
X196285714Y-57602459D02*
X196190476Y-57554840D01*
X196190476Y-57554840D02*
X196095238Y-57459601D01*
X196095238Y-57459601D02*
X196047619Y-57269125D01*
X196047619Y-57269125D02*
X196047619Y-56935792D01*
X196047619Y-56935792D02*
X196095238Y-56745316D01*
X196095238Y-56745316D02*
X196190476Y-56650078D01*
X196190476Y-56650078D02*
X196285714Y-56602459D01*
X197095238Y-57554840D02*
X197238095Y-57602459D01*
X197238095Y-57602459D02*
X197476190Y-57602459D01*
X197476190Y-57602459D02*
X197571428Y-57554840D01*
X197571428Y-57554840D02*
X197619047Y-57507220D01*
X197619047Y-57507220D02*
X197666666Y-57411982D01*
X197666666Y-57411982D02*
X197666666Y-57316744D01*
X197666666Y-57316744D02*
X197619047Y-57221506D01*
X197619047Y-57221506D02*
X197571428Y-57173887D01*
X197571428Y-57173887D02*
X197476190Y-57126268D01*
X197476190Y-57126268D02*
X197285714Y-57078649D01*
X197285714Y-57078649D02*
X197190476Y-57031030D01*
X197190476Y-57031030D02*
X197142857Y-56983411D01*
X197142857Y-56983411D02*
X197095238Y-56888173D01*
X197095238Y-56888173D02*
X197095238Y-56792935D01*
X197095238Y-56792935D02*
X197142857Y-56697697D01*
X197142857Y-56697697D02*
X197190476Y-56650078D01*
X197190476Y-56650078D02*
X197285714Y-56602459D01*
X197285714Y-56602459D02*
X197523809Y-56602459D01*
X197523809Y-56602459D02*
X197666666Y-56650078D01*
X198095238Y-57602459D02*
X198095238Y-56602459D01*
X199095237Y-57602459D02*
X198523809Y-57602459D01*
X198809523Y-57602459D02*
X198809523Y-56602459D01*
X198809523Y-56602459D02*
X198714285Y-56745316D01*
X198714285Y-56745316D02*
X198619047Y-56840554D01*
X198619047Y-56840554D02*
X198523809Y-56888173D01*
X166454819Y-51118571D02*
X166454819Y-51689999D01*
X166454819Y-51404285D02*
X165454819Y-51404285D01*
X165454819Y-51404285D02*
X165597676Y-51499523D01*
X165597676Y-51499523D02*
X165692914Y-51594761D01*
X165692914Y-51594761D02*
X165740533Y-51689999D01*
X165454819Y-50499523D02*
X165454819Y-50404285D01*
X165454819Y-50404285D02*
X165502438Y-50309047D01*
X165502438Y-50309047D02*
X165550057Y-50261428D01*
X165550057Y-50261428D02*
X165645295Y-50213809D01*
X165645295Y-50213809D02*
X165835771Y-50166190D01*
X165835771Y-50166190D02*
X166073866Y-50166190D01*
X166073866Y-50166190D02*
X166264342Y-50213809D01*
X166264342Y-50213809D02*
X166359580Y-50261428D01*
X166359580Y-50261428D02*
X166407200Y-50309047D01*
X166407200Y-50309047D02*
X166454819Y-50404285D01*
X166454819Y-50404285D02*
X166454819Y-50499523D01*
X166454819Y-50499523D02*
X166407200Y-50594761D01*
X166407200Y-50594761D02*
X166359580Y-50642380D01*
X166359580Y-50642380D02*
X166264342Y-50689999D01*
X166264342Y-50689999D02*
X166073866Y-50737618D01*
X166073866Y-50737618D02*
X165835771Y-50737618D01*
X165835771Y-50737618D02*
X165645295Y-50689999D01*
X165645295Y-50689999D02*
X165550057Y-50642380D01*
X165550057Y-50642380D02*
X165502438Y-50594761D01*
X165502438Y-50594761D02*
X165454819Y-50499523D01*
X166454819Y-49737618D02*
X165454819Y-49737618D01*
X166073866Y-49642380D02*
X166454819Y-49356666D01*
X165788152Y-49356666D02*
X166169104Y-49737618D01*
X166454819Y-48404285D02*
X166454819Y-48975713D01*
X166454819Y-48689999D02*
X165454819Y-48689999D01*
X165454819Y-48689999D02*
X165597676Y-48785237D01*
X165597676Y-48785237D02*
X165692914Y-48880475D01*
X165692914Y-48880475D02*
X165740533Y-48975713D01*
X166550057Y-48213809D02*
X166550057Y-47451904D01*
X165550057Y-47261427D02*
X165502438Y-47213808D01*
X165502438Y-47213808D02*
X165454819Y-47118570D01*
X165454819Y-47118570D02*
X165454819Y-46880475D01*
X165454819Y-46880475D02*
X165502438Y-46785237D01*
X165502438Y-46785237D02*
X165550057Y-46737618D01*
X165550057Y-46737618D02*
X165645295Y-46689999D01*
X165645295Y-46689999D02*
X165740533Y-46689999D01*
X165740533Y-46689999D02*
X165883390Y-46737618D01*
X165883390Y-46737618D02*
X166454819Y-47309046D01*
X166454819Y-47309046D02*
X166454819Y-46689999D01*
X162261905Y-71454819D02*
X162261905Y-70454819D01*
X162261905Y-70454819D02*
X162500000Y-70454819D01*
X162500000Y-70454819D02*
X162642857Y-70502438D01*
X162642857Y-70502438D02*
X162738095Y-70597676D01*
X162738095Y-70597676D02*
X162785714Y-70692914D01*
X162785714Y-70692914D02*
X162833333Y-70883390D01*
X162833333Y-70883390D02*
X162833333Y-71026247D01*
X162833333Y-71026247D02*
X162785714Y-71216723D01*
X162785714Y-71216723D02*
X162738095Y-71311961D01*
X162738095Y-71311961D02*
X162642857Y-71407200D01*
X162642857Y-71407200D02*
X162500000Y-71454819D01*
X162500000Y-71454819D02*
X162261905Y-71454819D01*
X163785714Y-71454819D02*
X163214286Y-71454819D01*
X163500000Y-71454819D02*
X163500000Y-70454819D01*
X163500000Y-70454819D02*
X163404762Y-70597676D01*
X163404762Y-70597676D02*
X163309524Y-70692914D01*
X163309524Y-70692914D02*
X163214286Y-70740533D01*
X163621486Y-49785238D02*
X163621486Y-50356666D01*
X163621486Y-50070952D02*
X162621486Y-50070952D01*
X162621486Y-50070952D02*
X162764343Y-50166190D01*
X162764343Y-50166190D02*
X162859581Y-50261428D01*
X162859581Y-50261428D02*
X162907200Y-50356666D01*
X163621486Y-49356666D02*
X162621486Y-49356666D01*
X163240533Y-49261428D02*
X163621486Y-48975714D01*
X162954819Y-48975714D02*
X163335771Y-49356666D01*
X163621486Y-48023333D02*
X163621486Y-48594761D01*
X163621486Y-48309047D02*
X162621486Y-48309047D01*
X162621486Y-48309047D02*
X162764343Y-48404285D01*
X162764343Y-48404285D02*
X162859581Y-48499523D01*
X162859581Y-48499523D02*
X162907200Y-48594761D01*
X196380952Y-62882810D02*
X196333333Y-62930430D01*
X196333333Y-62930430D02*
X196190476Y-62978049D01*
X196190476Y-62978049D02*
X196095238Y-62978049D01*
X196095238Y-62978049D02*
X195952381Y-62930430D01*
X195952381Y-62930430D02*
X195857143Y-62835191D01*
X195857143Y-62835191D02*
X195809524Y-62739953D01*
X195809524Y-62739953D02*
X195761905Y-62549477D01*
X195761905Y-62549477D02*
X195761905Y-62406620D01*
X195761905Y-62406620D02*
X195809524Y-62216144D01*
X195809524Y-62216144D02*
X195857143Y-62120906D01*
X195857143Y-62120906D02*
X195952381Y-62025668D01*
X195952381Y-62025668D02*
X196095238Y-61978049D01*
X196095238Y-61978049D02*
X196190476Y-61978049D01*
X196190476Y-61978049D02*
X196333333Y-62025668D01*
X196333333Y-62025668D02*
X196380952Y-62073287D01*
X196809524Y-62454239D02*
X197142857Y-62454239D01*
X197285714Y-62978049D02*
X196809524Y-62978049D01*
X196809524Y-62978049D02*
X196809524Y-61978049D01*
X196809524Y-61978049D02*
X197285714Y-61978049D01*
X197904762Y-61978049D02*
X198000000Y-61978049D01*
X198000000Y-61978049D02*
X198095238Y-62025668D01*
X198095238Y-62025668D02*
X198142857Y-62073287D01*
X198142857Y-62073287D02*
X198190476Y-62168525D01*
X198190476Y-62168525D02*
X198238095Y-62359001D01*
X198238095Y-62359001D02*
X198238095Y-62597096D01*
X198238095Y-62597096D02*
X198190476Y-62787572D01*
X198190476Y-62787572D02*
X198142857Y-62882810D01*
X198142857Y-62882810D02*
X198095238Y-62930430D01*
X198095238Y-62930430D02*
X198000000Y-62978049D01*
X198000000Y-62978049D02*
X197904762Y-62978049D01*
X197904762Y-62978049D02*
X197809524Y-62930430D01*
X197809524Y-62930430D02*
X197761905Y-62882810D01*
X197761905Y-62882810D02*
X197714286Y-62787572D01*
X197714286Y-62787572D02*
X197666667Y-62597096D01*
X197666667Y-62597096D02*
X197666667Y-62359001D01*
X197666667Y-62359001D02*
X197714286Y-62168525D01*
X197714286Y-62168525D02*
X197761905Y-62073287D01*
X197761905Y-62073287D02*
X197809524Y-62025668D01*
X197809524Y-62025668D02*
X197904762Y-61978049D01*
X162621486Y-59904285D02*
X162621486Y-60380475D01*
X162621486Y-60380475D02*
X163097676Y-60428094D01*
X163097676Y-60428094D02*
X163050057Y-60380475D01*
X163050057Y-60380475D02*
X163002438Y-60285237D01*
X163002438Y-60285237D02*
X163002438Y-60047142D01*
X163002438Y-60047142D02*
X163050057Y-59951904D01*
X163050057Y-59951904D02*
X163097676Y-59904285D01*
X163097676Y-59904285D02*
X163192914Y-59856666D01*
X163192914Y-59856666D02*
X163431009Y-59856666D01*
X163431009Y-59856666D02*
X163526247Y-59904285D01*
X163526247Y-59904285D02*
X163573867Y-59951904D01*
X163573867Y-59951904D02*
X163621486Y-60047142D01*
X163621486Y-60047142D02*
X163621486Y-60285237D01*
X163621486Y-60285237D02*
X163573867Y-60380475D01*
X163573867Y-60380475D02*
X163526247Y-60428094D01*
X163621486Y-58904285D02*
X163621486Y-59475713D01*
X163621486Y-59189999D02*
X162621486Y-59189999D01*
X162621486Y-59189999D02*
X162764343Y-59285237D01*
X162764343Y-59285237D02*
X162859581Y-59380475D01*
X162859581Y-59380475D02*
X162907200Y-59475713D01*
X162621486Y-58285237D02*
X162621486Y-58189999D01*
X162621486Y-58189999D02*
X162669105Y-58094761D01*
X162669105Y-58094761D02*
X162716724Y-58047142D01*
X162716724Y-58047142D02*
X162811962Y-57999523D01*
X162811962Y-57999523D02*
X163002438Y-57951904D01*
X163002438Y-57951904D02*
X163240533Y-57951904D01*
X163240533Y-57951904D02*
X163431009Y-57999523D01*
X163431009Y-57999523D02*
X163526247Y-58047142D01*
X163526247Y-58047142D02*
X163573867Y-58094761D01*
X163573867Y-58094761D02*
X163621486Y-58189999D01*
X163621486Y-58189999D02*
X163621486Y-58285237D01*
X163621486Y-58285237D02*
X163573867Y-58380475D01*
X163573867Y-58380475D02*
X163526247Y-58428094D01*
X163526247Y-58428094D02*
X163431009Y-58475713D01*
X163431009Y-58475713D02*
X163240533Y-58523332D01*
X163240533Y-58523332D02*
X163002438Y-58523332D01*
X163002438Y-58523332D02*
X162811962Y-58475713D01*
X162811962Y-58475713D02*
X162716724Y-58428094D01*
X162716724Y-58428094D02*
X162669105Y-58380475D01*
X162669105Y-58380475D02*
X162621486Y-58285237D01*
X180334819Y-51625238D02*
X180334819Y-52196666D01*
X180334819Y-51910952D02*
X179334819Y-51910952D01*
X179334819Y-51910952D02*
X179477676Y-52006190D01*
X179477676Y-52006190D02*
X179572914Y-52101428D01*
X179572914Y-52101428D02*
X179620533Y-52196666D01*
X180334819Y-51196666D02*
X179334819Y-51196666D01*
X179953866Y-51101428D02*
X180334819Y-50815714D01*
X179668152Y-50815714D02*
X180049104Y-51196666D01*
X179430057Y-50434761D02*
X179382438Y-50387142D01*
X179382438Y-50387142D02*
X179334819Y-50291904D01*
X179334819Y-50291904D02*
X179334819Y-50053809D01*
X179334819Y-50053809D02*
X179382438Y-49958571D01*
X179382438Y-49958571D02*
X179430057Y-49910952D01*
X179430057Y-49910952D02*
X179525295Y-49863333D01*
X179525295Y-49863333D02*
X179620533Y-49863333D01*
X179620533Y-49863333D02*
X179763390Y-49910952D01*
X179763390Y-49910952D02*
X180334819Y-50482380D01*
X180334819Y-50482380D02*
X180334819Y-49863333D01*
X184587143Y-40394819D02*
X184587143Y-39394819D01*
X184587143Y-39394819D02*
X184825238Y-39394819D01*
X184825238Y-39394819D02*
X184968095Y-39442438D01*
X184968095Y-39442438D02*
X185063333Y-39537676D01*
X185063333Y-39537676D02*
X185110952Y-39632914D01*
X185110952Y-39632914D02*
X185158571Y-39823390D01*
X185158571Y-39823390D02*
X185158571Y-39966247D01*
X185158571Y-39966247D02*
X185110952Y-40156723D01*
X185110952Y-40156723D02*
X185063333Y-40251961D01*
X185063333Y-40251961D02*
X184968095Y-40347200D01*
X184968095Y-40347200D02*
X184825238Y-40394819D01*
X184825238Y-40394819D02*
X184587143Y-40394819D01*
X185539524Y-40347200D02*
X185682381Y-40394819D01*
X185682381Y-40394819D02*
X185920476Y-40394819D01*
X185920476Y-40394819D02*
X186015714Y-40347200D01*
X186015714Y-40347200D02*
X186063333Y-40299580D01*
X186063333Y-40299580D02*
X186110952Y-40204342D01*
X186110952Y-40204342D02*
X186110952Y-40109104D01*
X186110952Y-40109104D02*
X186063333Y-40013866D01*
X186063333Y-40013866D02*
X186015714Y-39966247D01*
X186015714Y-39966247D02*
X185920476Y-39918628D01*
X185920476Y-39918628D02*
X185730000Y-39871009D01*
X185730000Y-39871009D02*
X185634762Y-39823390D01*
X185634762Y-39823390D02*
X185587143Y-39775771D01*
X185587143Y-39775771D02*
X185539524Y-39680533D01*
X185539524Y-39680533D02*
X185539524Y-39585295D01*
X185539524Y-39585295D02*
X185587143Y-39490057D01*
X185587143Y-39490057D02*
X185634762Y-39442438D01*
X185634762Y-39442438D02*
X185730000Y-39394819D01*
X185730000Y-39394819D02*
X185968095Y-39394819D01*
X185968095Y-39394819D02*
X186110952Y-39442438D01*
X187063333Y-40394819D02*
X186491905Y-40394819D01*
X186777619Y-40394819D02*
X186777619Y-39394819D01*
X186777619Y-39394819D02*
X186682381Y-39537676D01*
X186682381Y-39537676D02*
X186587143Y-39632914D01*
X186587143Y-39632914D02*
X186491905Y-39680533D01*
X187634762Y-39823390D02*
X187539524Y-39775771D01*
X187539524Y-39775771D02*
X187491905Y-39728152D01*
X187491905Y-39728152D02*
X187444286Y-39632914D01*
X187444286Y-39632914D02*
X187444286Y-39585295D01*
X187444286Y-39585295D02*
X187491905Y-39490057D01*
X187491905Y-39490057D02*
X187539524Y-39442438D01*
X187539524Y-39442438D02*
X187634762Y-39394819D01*
X187634762Y-39394819D02*
X187825238Y-39394819D01*
X187825238Y-39394819D02*
X187920476Y-39442438D01*
X187920476Y-39442438D02*
X187968095Y-39490057D01*
X187968095Y-39490057D02*
X188015714Y-39585295D01*
X188015714Y-39585295D02*
X188015714Y-39632914D01*
X188015714Y-39632914D02*
X187968095Y-39728152D01*
X187968095Y-39728152D02*
X187920476Y-39775771D01*
X187920476Y-39775771D02*
X187825238Y-39823390D01*
X187825238Y-39823390D02*
X187634762Y-39823390D01*
X187634762Y-39823390D02*
X187539524Y-39871009D01*
X187539524Y-39871009D02*
X187491905Y-39918628D01*
X187491905Y-39918628D02*
X187444286Y-40013866D01*
X187444286Y-40013866D02*
X187444286Y-40204342D01*
X187444286Y-40204342D02*
X187491905Y-40299580D01*
X187491905Y-40299580D02*
X187539524Y-40347200D01*
X187539524Y-40347200D02*
X187634762Y-40394819D01*
X187634762Y-40394819D02*
X187825238Y-40394819D01*
X187825238Y-40394819D02*
X187920476Y-40347200D01*
X187920476Y-40347200D02*
X187968095Y-40299580D01*
X187968095Y-40299580D02*
X188015714Y-40204342D01*
X188015714Y-40204342D02*
X188015714Y-40013866D01*
X188015714Y-40013866D02*
X187968095Y-39918628D01*
X187968095Y-39918628D02*
X187920476Y-39871009D01*
X187920476Y-39871009D02*
X187825238Y-39823390D01*
X188777619Y-39871009D02*
X188920476Y-39918628D01*
X188920476Y-39918628D02*
X188968095Y-39966247D01*
X188968095Y-39966247D02*
X189015714Y-40061485D01*
X189015714Y-40061485D02*
X189015714Y-40204342D01*
X189015714Y-40204342D02*
X188968095Y-40299580D01*
X188968095Y-40299580D02*
X188920476Y-40347200D01*
X188920476Y-40347200D02*
X188825238Y-40394819D01*
X188825238Y-40394819D02*
X188444286Y-40394819D01*
X188444286Y-40394819D02*
X188444286Y-39394819D01*
X188444286Y-39394819D02*
X188777619Y-39394819D01*
X188777619Y-39394819D02*
X188872857Y-39442438D01*
X188872857Y-39442438D02*
X188920476Y-39490057D01*
X188920476Y-39490057D02*
X188968095Y-39585295D01*
X188968095Y-39585295D02*
X188968095Y-39680533D01*
X188968095Y-39680533D02*
X188920476Y-39775771D01*
X188920476Y-39775771D02*
X188872857Y-39823390D01*
X188872857Y-39823390D02*
X188777619Y-39871009D01*
X188777619Y-39871009D02*
X188444286Y-39871009D01*
X189396667Y-39490057D02*
X189444286Y-39442438D01*
X189444286Y-39442438D02*
X189539524Y-39394819D01*
X189539524Y-39394819D02*
X189777619Y-39394819D01*
X189777619Y-39394819D02*
X189872857Y-39442438D01*
X189872857Y-39442438D02*
X189920476Y-39490057D01*
X189920476Y-39490057D02*
X189968095Y-39585295D01*
X189968095Y-39585295D02*
X189968095Y-39680533D01*
X189968095Y-39680533D02*
X189920476Y-39823390D01*
X189920476Y-39823390D02*
X189349048Y-40394819D01*
X189349048Y-40394819D02*
X189968095Y-40394819D01*
X190587143Y-39394819D02*
X190682381Y-39394819D01*
X190682381Y-39394819D02*
X190777619Y-39442438D01*
X190777619Y-39442438D02*
X190825238Y-39490057D01*
X190825238Y-39490057D02*
X190872857Y-39585295D01*
X190872857Y-39585295D02*
X190920476Y-39775771D01*
X190920476Y-39775771D02*
X190920476Y-40013866D01*
X190920476Y-40013866D02*
X190872857Y-40204342D01*
X190872857Y-40204342D02*
X190825238Y-40299580D01*
X190825238Y-40299580D02*
X190777619Y-40347200D01*
X190777619Y-40347200D02*
X190682381Y-40394819D01*
X190682381Y-40394819D02*
X190587143Y-40394819D01*
X190587143Y-40394819D02*
X190491905Y-40347200D01*
X190491905Y-40347200D02*
X190444286Y-40299580D01*
X190444286Y-40299580D02*
X190396667Y-40204342D01*
X190396667Y-40204342D02*
X190349048Y-40013866D01*
X190349048Y-40013866D02*
X190349048Y-39775771D01*
X190349048Y-39775771D02*
X190396667Y-39585295D01*
X190396667Y-39585295D02*
X190444286Y-39490057D01*
X190444286Y-39490057D02*
X190491905Y-39442438D01*
X190491905Y-39442438D02*
X190587143Y-39394819D01*
X180666666Y-67904819D02*
X180666666Y-68619104D01*
X180666666Y-68619104D02*
X180619047Y-68761961D01*
X180619047Y-68761961D02*
X180523809Y-68857200D01*
X180523809Y-68857200D02*
X180380952Y-68904819D01*
X180380952Y-68904819D02*
X180285714Y-68904819D01*
X181666666Y-68904819D02*
X181095238Y-68904819D01*
X181380952Y-68904819D02*
X181380952Y-67904819D01*
X181380952Y-67904819D02*
X181285714Y-68047676D01*
X181285714Y-68047676D02*
X181190476Y-68142914D01*
X181190476Y-68142914D02*
X181095238Y-68190533D01*
X195047619Y-73002438D02*
X194952381Y-72954819D01*
X194952381Y-72954819D02*
X194809524Y-72954819D01*
X194809524Y-72954819D02*
X194666667Y-73002438D01*
X194666667Y-73002438D02*
X194571429Y-73097676D01*
X194571429Y-73097676D02*
X194523810Y-73192914D01*
X194523810Y-73192914D02*
X194476191Y-73383390D01*
X194476191Y-73383390D02*
X194476191Y-73526247D01*
X194476191Y-73526247D02*
X194523810Y-73716723D01*
X194523810Y-73716723D02*
X194571429Y-73811961D01*
X194571429Y-73811961D02*
X194666667Y-73907200D01*
X194666667Y-73907200D02*
X194809524Y-73954819D01*
X194809524Y-73954819D02*
X194904762Y-73954819D01*
X194904762Y-73954819D02*
X195047619Y-73907200D01*
X195047619Y-73907200D02*
X195095238Y-73859580D01*
X195095238Y-73859580D02*
X195095238Y-73526247D01*
X195095238Y-73526247D02*
X194904762Y-73526247D01*
X195523810Y-73954819D02*
X195523810Y-72954819D01*
X195523810Y-72954819D02*
X195904762Y-72954819D01*
X195904762Y-72954819D02*
X196000000Y-73002438D01*
X196000000Y-73002438D02*
X196047619Y-73050057D01*
X196047619Y-73050057D02*
X196095238Y-73145295D01*
X196095238Y-73145295D02*
X196095238Y-73288152D01*
X196095238Y-73288152D02*
X196047619Y-73383390D01*
X196047619Y-73383390D02*
X196000000Y-73431009D01*
X196000000Y-73431009D02*
X195904762Y-73478628D01*
X195904762Y-73478628D02*
X195523810Y-73478628D01*
X196523810Y-73954819D02*
X196523810Y-72954819D01*
X197190476Y-72954819D02*
X197380952Y-72954819D01*
X197380952Y-72954819D02*
X197476190Y-73002438D01*
X197476190Y-73002438D02*
X197571428Y-73097676D01*
X197571428Y-73097676D02*
X197619047Y-73288152D01*
X197619047Y-73288152D02*
X197619047Y-73621485D01*
X197619047Y-73621485D02*
X197571428Y-73811961D01*
X197571428Y-73811961D02*
X197476190Y-73907200D01*
X197476190Y-73907200D02*
X197380952Y-73954819D01*
X197380952Y-73954819D02*
X197190476Y-73954819D01*
X197190476Y-73954819D02*
X197095238Y-73907200D01*
X197095238Y-73907200D02*
X197000000Y-73811961D01*
X197000000Y-73811961D02*
X196952381Y-73621485D01*
X196952381Y-73621485D02*
X196952381Y-73288152D01*
X196952381Y-73288152D02*
X197000000Y-73097676D01*
X197000000Y-73097676D02*
X197095238Y-73002438D01*
X197095238Y-73002438D02*
X197190476Y-72954819D01*
X198000000Y-73050057D02*
X198047619Y-73002438D01*
X198047619Y-73002438D02*
X198142857Y-72954819D01*
X198142857Y-72954819D02*
X198380952Y-72954819D01*
X198380952Y-72954819D02*
X198476190Y-73002438D01*
X198476190Y-73002438D02*
X198523809Y-73050057D01*
X198523809Y-73050057D02*
X198571428Y-73145295D01*
X198571428Y-73145295D02*
X198571428Y-73240533D01*
X198571428Y-73240533D02*
X198523809Y-73383390D01*
X198523809Y-73383390D02*
X197952381Y-73954819D01*
X197952381Y-73954819D02*
X198571428Y-73954819D01*
X199190476Y-72954819D02*
X199285714Y-72954819D01*
X199285714Y-72954819D02*
X199380952Y-73002438D01*
X199380952Y-73002438D02*
X199428571Y-73050057D01*
X199428571Y-73050057D02*
X199476190Y-73145295D01*
X199476190Y-73145295D02*
X199523809Y-73335771D01*
X199523809Y-73335771D02*
X199523809Y-73573866D01*
X199523809Y-73573866D02*
X199476190Y-73764342D01*
X199476190Y-73764342D02*
X199428571Y-73859580D01*
X199428571Y-73859580D02*
X199380952Y-73907200D01*
X199380952Y-73907200D02*
X199285714Y-73954819D01*
X199285714Y-73954819D02*
X199190476Y-73954819D01*
X199190476Y-73954819D02*
X199095238Y-73907200D01*
X199095238Y-73907200D02*
X199047619Y-73859580D01*
X199047619Y-73859580D02*
X199000000Y-73764342D01*
X199000000Y-73764342D02*
X198952381Y-73573866D01*
X198952381Y-73573866D02*
X198952381Y-73335771D01*
X198952381Y-73335771D02*
X199000000Y-73145295D01*
X199000000Y-73145295D02*
X199047619Y-73050057D01*
X199047619Y-73050057D02*
X199095238Y-73002438D01*
X199095238Y-73002438D02*
X199190476Y-72954819D01*
X195047619Y-67401258D02*
X194952381Y-67353639D01*
X194952381Y-67353639D02*
X194809524Y-67353639D01*
X194809524Y-67353639D02*
X194666667Y-67401258D01*
X194666667Y-67401258D02*
X194571429Y-67496496D01*
X194571429Y-67496496D02*
X194523810Y-67591734D01*
X194523810Y-67591734D02*
X194476191Y-67782210D01*
X194476191Y-67782210D02*
X194476191Y-67925067D01*
X194476191Y-67925067D02*
X194523810Y-68115543D01*
X194523810Y-68115543D02*
X194571429Y-68210781D01*
X194571429Y-68210781D02*
X194666667Y-68306020D01*
X194666667Y-68306020D02*
X194809524Y-68353639D01*
X194809524Y-68353639D02*
X194904762Y-68353639D01*
X194904762Y-68353639D02*
X195047619Y-68306020D01*
X195047619Y-68306020D02*
X195095238Y-68258400D01*
X195095238Y-68258400D02*
X195095238Y-67925067D01*
X195095238Y-67925067D02*
X194904762Y-67925067D01*
X195523810Y-68353639D02*
X195523810Y-67353639D01*
X195523810Y-67353639D02*
X195904762Y-67353639D01*
X195904762Y-67353639D02*
X196000000Y-67401258D01*
X196000000Y-67401258D02*
X196047619Y-67448877D01*
X196047619Y-67448877D02*
X196095238Y-67544115D01*
X196095238Y-67544115D02*
X196095238Y-67686972D01*
X196095238Y-67686972D02*
X196047619Y-67782210D01*
X196047619Y-67782210D02*
X196000000Y-67829829D01*
X196000000Y-67829829D02*
X195904762Y-67877448D01*
X195904762Y-67877448D02*
X195523810Y-67877448D01*
X196523810Y-68353639D02*
X196523810Y-67353639D01*
X197190476Y-67353639D02*
X197380952Y-67353639D01*
X197380952Y-67353639D02*
X197476190Y-67401258D01*
X197476190Y-67401258D02*
X197571428Y-67496496D01*
X197571428Y-67496496D02*
X197619047Y-67686972D01*
X197619047Y-67686972D02*
X197619047Y-68020305D01*
X197619047Y-68020305D02*
X197571428Y-68210781D01*
X197571428Y-68210781D02*
X197476190Y-68306020D01*
X197476190Y-68306020D02*
X197380952Y-68353639D01*
X197380952Y-68353639D02*
X197190476Y-68353639D01*
X197190476Y-68353639D02*
X197095238Y-68306020D01*
X197095238Y-68306020D02*
X197000000Y-68210781D01*
X197000000Y-68210781D02*
X196952381Y-68020305D01*
X196952381Y-68020305D02*
X196952381Y-67686972D01*
X196952381Y-67686972D02*
X197000000Y-67496496D01*
X197000000Y-67496496D02*
X197095238Y-67401258D01*
X197095238Y-67401258D02*
X197190476Y-67353639D01*
X198571428Y-68353639D02*
X198000000Y-68353639D01*
X198285714Y-68353639D02*
X198285714Y-67353639D01*
X198285714Y-67353639D02*
X198190476Y-67496496D01*
X198190476Y-67496496D02*
X198095238Y-67591734D01*
X198095238Y-67591734D02*
X198000000Y-67639353D01*
X199428571Y-67353639D02*
X199238095Y-67353639D01*
X199238095Y-67353639D02*
X199142857Y-67401258D01*
X199142857Y-67401258D02*
X199095238Y-67448877D01*
X199095238Y-67448877D02*
X199000000Y-67591734D01*
X199000000Y-67591734D02*
X198952381Y-67782210D01*
X198952381Y-67782210D02*
X198952381Y-68163162D01*
X198952381Y-68163162D02*
X199000000Y-68258400D01*
X199000000Y-68258400D02*
X199047619Y-68306020D01*
X199047619Y-68306020D02*
X199142857Y-68353639D01*
X199142857Y-68353639D02*
X199333333Y-68353639D01*
X199333333Y-68353639D02*
X199428571Y-68306020D01*
X199428571Y-68306020D02*
X199476190Y-68258400D01*
X199476190Y-68258400D02*
X199523809Y-68163162D01*
X199523809Y-68163162D02*
X199523809Y-67925067D01*
X199523809Y-67925067D02*
X199476190Y-67829829D01*
X199476190Y-67829829D02*
X199428571Y-67782210D01*
X199428571Y-67782210D02*
X199333333Y-67734591D01*
X199333333Y-67734591D02*
X199142857Y-67734591D01*
X199142857Y-67734591D02*
X199047619Y-67782210D01*
X199047619Y-67782210D02*
X199000000Y-67829829D01*
X199000000Y-67829829D02*
X198952381Y-67925067D01*
X195928571Y-42760760D02*
X195880952Y-42808380D01*
X195880952Y-42808380D02*
X195738095Y-42855999D01*
X195738095Y-42855999D02*
X195642857Y-42855999D01*
X195642857Y-42855999D02*
X195500000Y-42808380D01*
X195500000Y-42808380D02*
X195404762Y-42713141D01*
X195404762Y-42713141D02*
X195357143Y-42617903D01*
X195357143Y-42617903D02*
X195309524Y-42427427D01*
X195309524Y-42427427D02*
X195309524Y-42284570D01*
X195309524Y-42284570D02*
X195357143Y-42094094D01*
X195357143Y-42094094D02*
X195404762Y-41998856D01*
X195404762Y-41998856D02*
X195500000Y-41903618D01*
X195500000Y-41903618D02*
X195642857Y-41855999D01*
X195642857Y-41855999D02*
X195738095Y-41855999D01*
X195738095Y-41855999D02*
X195880952Y-41903618D01*
X195880952Y-41903618D02*
X195928571Y-41951237D01*
X196833333Y-42855999D02*
X196357143Y-42855999D01*
X196357143Y-42855999D02*
X196357143Y-41855999D01*
X197166667Y-42855999D02*
X197166667Y-41855999D01*
X197738095Y-42855999D02*
X197309524Y-42284570D01*
X197738095Y-41855999D02*
X197166667Y-42427427D01*
X198690476Y-42855999D02*
X198119048Y-42855999D01*
X198404762Y-42855999D02*
X198404762Y-41855999D01*
X198404762Y-41855999D02*
X198309524Y-41998856D01*
X198309524Y-41998856D02*
X198214286Y-42094094D01*
X198214286Y-42094094D02*
X198119048Y-42141713D01*
X189666666Y-67904819D02*
X189666666Y-68619104D01*
X189666666Y-68619104D02*
X189619047Y-68761961D01*
X189619047Y-68761961D02*
X189523809Y-68857200D01*
X189523809Y-68857200D02*
X189380952Y-68904819D01*
X189380952Y-68904819D02*
X189285714Y-68904819D01*
X190095238Y-68000057D02*
X190142857Y-67952438D01*
X190142857Y-67952438D02*
X190238095Y-67904819D01*
X190238095Y-67904819D02*
X190476190Y-67904819D01*
X190476190Y-67904819D02*
X190571428Y-67952438D01*
X190571428Y-67952438D02*
X190619047Y-68000057D01*
X190619047Y-68000057D02*
X190666666Y-68095295D01*
X190666666Y-68095295D02*
X190666666Y-68190533D01*
X190666666Y-68190533D02*
X190619047Y-68333390D01*
X190619047Y-68333390D02*
X190047619Y-68904819D01*
X190047619Y-68904819D02*
X190666666Y-68904819D01*
X195047619Y-78502438D02*
X194952381Y-78454819D01*
X194952381Y-78454819D02*
X194809524Y-78454819D01*
X194809524Y-78454819D02*
X194666667Y-78502438D01*
X194666667Y-78502438D02*
X194571429Y-78597676D01*
X194571429Y-78597676D02*
X194523810Y-78692914D01*
X194523810Y-78692914D02*
X194476191Y-78883390D01*
X194476191Y-78883390D02*
X194476191Y-79026247D01*
X194476191Y-79026247D02*
X194523810Y-79216723D01*
X194523810Y-79216723D02*
X194571429Y-79311961D01*
X194571429Y-79311961D02*
X194666667Y-79407200D01*
X194666667Y-79407200D02*
X194809524Y-79454819D01*
X194809524Y-79454819D02*
X194904762Y-79454819D01*
X194904762Y-79454819D02*
X195047619Y-79407200D01*
X195047619Y-79407200D02*
X195095238Y-79359580D01*
X195095238Y-79359580D02*
X195095238Y-79026247D01*
X195095238Y-79026247D02*
X194904762Y-79026247D01*
X195523810Y-79454819D02*
X195523810Y-78454819D01*
X195523810Y-78454819D02*
X195904762Y-78454819D01*
X195904762Y-78454819D02*
X196000000Y-78502438D01*
X196000000Y-78502438D02*
X196047619Y-78550057D01*
X196047619Y-78550057D02*
X196095238Y-78645295D01*
X196095238Y-78645295D02*
X196095238Y-78788152D01*
X196095238Y-78788152D02*
X196047619Y-78883390D01*
X196047619Y-78883390D02*
X196000000Y-78931009D01*
X196000000Y-78931009D02*
X195904762Y-78978628D01*
X195904762Y-78978628D02*
X195523810Y-78978628D01*
X196523810Y-79454819D02*
X196523810Y-78454819D01*
X197190476Y-78454819D02*
X197380952Y-78454819D01*
X197380952Y-78454819D02*
X197476190Y-78502438D01*
X197476190Y-78502438D02*
X197571428Y-78597676D01*
X197571428Y-78597676D02*
X197619047Y-78788152D01*
X197619047Y-78788152D02*
X197619047Y-79121485D01*
X197619047Y-79121485D02*
X197571428Y-79311961D01*
X197571428Y-79311961D02*
X197476190Y-79407200D01*
X197476190Y-79407200D02*
X197380952Y-79454819D01*
X197380952Y-79454819D02*
X197190476Y-79454819D01*
X197190476Y-79454819D02*
X197095238Y-79407200D01*
X197095238Y-79407200D02*
X197000000Y-79311961D01*
X197000000Y-79311961D02*
X196952381Y-79121485D01*
X196952381Y-79121485D02*
X196952381Y-78788152D01*
X196952381Y-78788152D02*
X197000000Y-78597676D01*
X197000000Y-78597676D02*
X197095238Y-78502438D01*
X197095238Y-78502438D02*
X197190476Y-78454819D01*
X198000000Y-78550057D02*
X198047619Y-78502438D01*
X198047619Y-78502438D02*
X198142857Y-78454819D01*
X198142857Y-78454819D02*
X198380952Y-78454819D01*
X198380952Y-78454819D02*
X198476190Y-78502438D01*
X198476190Y-78502438D02*
X198523809Y-78550057D01*
X198523809Y-78550057D02*
X198571428Y-78645295D01*
X198571428Y-78645295D02*
X198571428Y-78740533D01*
X198571428Y-78740533D02*
X198523809Y-78883390D01*
X198523809Y-78883390D02*
X197952381Y-79454819D01*
X197952381Y-79454819D02*
X198571428Y-79454819D01*
X199523809Y-79454819D02*
X198952381Y-79454819D01*
X199238095Y-79454819D02*
X199238095Y-78454819D01*
X199238095Y-78454819D02*
X199142857Y-78597676D01*
X199142857Y-78597676D02*
X199047619Y-78692914D01*
X199047619Y-78692914D02*
X198952381Y-78740533D01*
X194952381Y-52226868D02*
X194952381Y-51226868D01*
X194952381Y-51226868D02*
X195285714Y-51941153D01*
X195285714Y-51941153D02*
X195619047Y-51226868D01*
X195619047Y-51226868D02*
X195619047Y-52226868D01*
X196095238Y-52226868D02*
X196095238Y-51226868D01*
X196523809Y-52179249D02*
X196666666Y-52226868D01*
X196666666Y-52226868D02*
X196904761Y-52226868D01*
X196904761Y-52226868D02*
X196999999Y-52179249D01*
X196999999Y-52179249D02*
X197047618Y-52131629D01*
X197047618Y-52131629D02*
X197095237Y-52036391D01*
X197095237Y-52036391D02*
X197095237Y-51941153D01*
X197095237Y-51941153D02*
X197047618Y-51845915D01*
X197047618Y-51845915D02*
X196999999Y-51798296D01*
X196999999Y-51798296D02*
X196904761Y-51750677D01*
X196904761Y-51750677D02*
X196714285Y-51703058D01*
X196714285Y-51703058D02*
X196619047Y-51655439D01*
X196619047Y-51655439D02*
X196571428Y-51607820D01*
X196571428Y-51607820D02*
X196523809Y-51512582D01*
X196523809Y-51512582D02*
X196523809Y-51417344D01*
X196523809Y-51417344D02*
X196571428Y-51322106D01*
X196571428Y-51322106D02*
X196619047Y-51274487D01*
X196619047Y-51274487D02*
X196714285Y-51226868D01*
X196714285Y-51226868D02*
X196952380Y-51226868D01*
X196952380Y-51226868D02*
X197095237Y-51274487D01*
X197714285Y-51226868D02*
X197904761Y-51226868D01*
X197904761Y-51226868D02*
X197999999Y-51274487D01*
X197999999Y-51274487D02*
X198095237Y-51369725D01*
X198095237Y-51369725D02*
X198142856Y-51560201D01*
X198142856Y-51560201D02*
X198142856Y-51893534D01*
X198142856Y-51893534D02*
X198095237Y-52084010D01*
X198095237Y-52084010D02*
X197999999Y-52179249D01*
X197999999Y-52179249D02*
X197904761Y-52226868D01*
X197904761Y-52226868D02*
X197714285Y-52226868D01*
X197714285Y-52226868D02*
X197619047Y-52179249D01*
X197619047Y-52179249D02*
X197523809Y-52084010D01*
X197523809Y-52084010D02*
X197476190Y-51893534D01*
X197476190Y-51893534D02*
X197476190Y-51560201D01*
X197476190Y-51560201D02*
X197523809Y-51369725D01*
X197523809Y-51369725D02*
X197619047Y-51274487D01*
X197619047Y-51274487D02*
X197714285Y-51226868D01*
X199095237Y-52226868D02*
X198523809Y-52226868D01*
X198809523Y-52226868D02*
X198809523Y-51226868D01*
X198809523Y-51226868D02*
X198714285Y-51369725D01*
X198714285Y-51369725D02*
X198619047Y-51464963D01*
X198619047Y-51464963D02*
X198523809Y-51512582D01*
X170205237Y-47359580D02*
X170157618Y-47407200D01*
X170157618Y-47407200D02*
X170014761Y-47454819D01*
X170014761Y-47454819D02*
X169919523Y-47454819D01*
X169919523Y-47454819D02*
X169776666Y-47407200D01*
X169776666Y-47407200D02*
X169681428Y-47311961D01*
X169681428Y-47311961D02*
X169633809Y-47216723D01*
X169633809Y-47216723D02*
X169586190Y-47026247D01*
X169586190Y-47026247D02*
X169586190Y-46883390D01*
X169586190Y-46883390D02*
X169633809Y-46692914D01*
X169633809Y-46692914D02*
X169681428Y-46597676D01*
X169681428Y-46597676D02*
X169776666Y-46502438D01*
X169776666Y-46502438D02*
X169919523Y-46454819D01*
X169919523Y-46454819D02*
X170014761Y-46454819D01*
X170014761Y-46454819D02*
X170157618Y-46502438D01*
X170157618Y-46502438D02*
X170205237Y-46550057D01*
X171062380Y-47454819D02*
X171062380Y-46454819D01*
X171062380Y-47407200D02*
X170967142Y-47454819D01*
X170967142Y-47454819D02*
X170776666Y-47454819D01*
X170776666Y-47454819D02*
X170681428Y-47407200D01*
X170681428Y-47407200D02*
X170633809Y-47359580D01*
X170633809Y-47359580D02*
X170586190Y-47264342D01*
X170586190Y-47264342D02*
X170586190Y-46978628D01*
X170586190Y-46978628D02*
X170633809Y-46883390D01*
X170633809Y-46883390D02*
X170681428Y-46835771D01*
X170681428Y-46835771D02*
X170776666Y-46788152D01*
X170776666Y-46788152D02*
X170967142Y-46788152D01*
X170967142Y-46788152D02*
X171062380Y-46835771D01*
X171490952Y-47407200D02*
X171586190Y-47454819D01*
X171586190Y-47454819D02*
X171776666Y-47454819D01*
X171776666Y-47454819D02*
X171871904Y-47407200D01*
X171871904Y-47407200D02*
X171919523Y-47311961D01*
X171919523Y-47311961D02*
X171919523Y-47264342D01*
X171919523Y-47264342D02*
X171871904Y-47169104D01*
X171871904Y-47169104D02*
X171776666Y-47121485D01*
X171776666Y-47121485D02*
X171633809Y-47121485D01*
X171633809Y-47121485D02*
X171538571Y-47073866D01*
X171538571Y-47073866D02*
X171490952Y-46978628D01*
X171490952Y-46978628D02*
X171490952Y-46931009D01*
X171490952Y-46931009D02*
X171538571Y-46835771D01*
X171538571Y-46835771D02*
X171633809Y-46788152D01*
X171633809Y-46788152D02*
X171776666Y-46788152D01*
X171776666Y-46788152D02*
X171871904Y-46835771D01*
X172776666Y-47407200D02*
X172681428Y-47454819D01*
X172681428Y-47454819D02*
X172490952Y-47454819D01*
X172490952Y-47454819D02*
X172395714Y-47407200D01*
X172395714Y-47407200D02*
X172348095Y-47359580D01*
X172348095Y-47359580D02*
X172300476Y-47264342D01*
X172300476Y-47264342D02*
X172300476Y-46978628D01*
X172300476Y-46978628D02*
X172348095Y-46883390D01*
X172348095Y-46883390D02*
X172395714Y-46835771D01*
X172395714Y-46835771D02*
X172490952Y-46788152D01*
X172490952Y-46788152D02*
X172681428Y-46788152D01*
X172681428Y-46788152D02*
X172776666Y-46835771D01*
X173586190Y-47407200D02*
X173490952Y-47454819D01*
X173490952Y-47454819D02*
X173300476Y-47454819D01*
X173300476Y-47454819D02*
X173205238Y-47407200D01*
X173205238Y-47407200D02*
X173157619Y-47311961D01*
X173157619Y-47311961D02*
X173157619Y-46931009D01*
X173157619Y-46931009D02*
X173205238Y-46835771D01*
X173205238Y-46835771D02*
X173300476Y-46788152D01*
X173300476Y-46788152D02*
X173490952Y-46788152D01*
X173490952Y-46788152D02*
X173586190Y-46835771D01*
X173586190Y-46835771D02*
X173633809Y-46931009D01*
X173633809Y-46931009D02*
X173633809Y-47026247D01*
X173633809Y-47026247D02*
X173157619Y-47121485D01*
X174205238Y-47454819D02*
X174110000Y-47407200D01*
X174110000Y-47407200D02*
X174062381Y-47311961D01*
X174062381Y-47311961D02*
X174062381Y-46454819D01*
X174729048Y-47454819D02*
X174633810Y-47407200D01*
X174633810Y-47407200D02*
X174586191Y-47311961D01*
X174586191Y-47311961D02*
X174586191Y-46454819D01*
X175633810Y-47454819D02*
X175062382Y-47454819D01*
X175348096Y-47454819D02*
X175348096Y-46454819D01*
X175348096Y-46454819D02*
X175252858Y-46597676D01*
X175252858Y-46597676D02*
X175157620Y-46692914D01*
X175157620Y-46692914D02*
X175062382Y-46740533D01*
X165717380Y-38288152D02*
X165717380Y-39288152D01*
X165717380Y-38335771D02*
X165812618Y-38288152D01*
X165812618Y-38288152D02*
X166003094Y-38288152D01*
X166003094Y-38288152D02*
X166098332Y-38335771D01*
X166098332Y-38335771D02*
X166145951Y-38383390D01*
X166145951Y-38383390D02*
X166193570Y-38478628D01*
X166193570Y-38478628D02*
X166193570Y-38764342D01*
X166193570Y-38764342D02*
X166145951Y-38859580D01*
X166145951Y-38859580D02*
X166098332Y-38907200D01*
X166098332Y-38907200D02*
X166003094Y-38954819D01*
X166003094Y-38954819D02*
X165812618Y-38954819D01*
X165812618Y-38954819D02*
X165717380Y-38907200D01*
X166622142Y-38954819D02*
X166622142Y-37954819D01*
X166622142Y-38431009D02*
X167193570Y-38431009D01*
X167193570Y-38954819D02*
X167193570Y-37954819D01*
X167431666Y-39050057D02*
X168193570Y-39050057D01*
X168384047Y-38907200D02*
X168479285Y-38954819D01*
X168479285Y-38954819D02*
X168669761Y-38954819D01*
X168669761Y-38954819D02*
X168764999Y-38907200D01*
X168764999Y-38907200D02*
X168812618Y-38811961D01*
X168812618Y-38811961D02*
X168812618Y-38764342D01*
X168812618Y-38764342D02*
X168764999Y-38669104D01*
X168764999Y-38669104D02*
X168669761Y-38621485D01*
X168669761Y-38621485D02*
X168526904Y-38621485D01*
X168526904Y-38621485D02*
X168431666Y-38573866D01*
X168431666Y-38573866D02*
X168384047Y-38478628D01*
X168384047Y-38478628D02*
X168384047Y-38431009D01*
X168384047Y-38431009D02*
X168431666Y-38335771D01*
X168431666Y-38335771D02*
X168526904Y-38288152D01*
X168526904Y-38288152D02*
X168669761Y-38288152D01*
X168669761Y-38288152D02*
X168764999Y-38335771D01*
X169622142Y-38907200D02*
X169526904Y-38954819D01*
X169526904Y-38954819D02*
X169336428Y-38954819D01*
X169336428Y-38954819D02*
X169241190Y-38907200D01*
X169241190Y-38907200D02*
X169193571Y-38811961D01*
X169193571Y-38811961D02*
X169193571Y-38431009D01*
X169193571Y-38431009D02*
X169241190Y-38335771D01*
X169241190Y-38335771D02*
X169336428Y-38288152D01*
X169336428Y-38288152D02*
X169526904Y-38288152D01*
X169526904Y-38288152D02*
X169622142Y-38335771D01*
X169622142Y-38335771D02*
X169669761Y-38431009D01*
X169669761Y-38431009D02*
X169669761Y-38526247D01*
X169669761Y-38526247D02*
X169193571Y-38621485D01*
X170098333Y-38288152D02*
X170098333Y-38954819D01*
X170098333Y-38383390D02*
X170145952Y-38335771D01*
X170145952Y-38335771D02*
X170241190Y-38288152D01*
X170241190Y-38288152D02*
X170384047Y-38288152D01*
X170384047Y-38288152D02*
X170479285Y-38335771D01*
X170479285Y-38335771D02*
X170526904Y-38431009D01*
X170526904Y-38431009D02*
X170526904Y-38954819D01*
X170955476Y-38907200D02*
X171050714Y-38954819D01*
X171050714Y-38954819D02*
X171241190Y-38954819D01*
X171241190Y-38954819D02*
X171336428Y-38907200D01*
X171336428Y-38907200D02*
X171384047Y-38811961D01*
X171384047Y-38811961D02*
X171384047Y-38764342D01*
X171384047Y-38764342D02*
X171336428Y-38669104D01*
X171336428Y-38669104D02*
X171241190Y-38621485D01*
X171241190Y-38621485D02*
X171098333Y-38621485D01*
X171098333Y-38621485D02*
X171003095Y-38573866D01*
X171003095Y-38573866D02*
X170955476Y-38478628D01*
X170955476Y-38478628D02*
X170955476Y-38431009D01*
X170955476Y-38431009D02*
X171003095Y-38335771D01*
X171003095Y-38335771D02*
X171098333Y-38288152D01*
X171098333Y-38288152D02*
X171241190Y-38288152D01*
X171241190Y-38288152D02*
X171336428Y-38335771D01*
X171955476Y-38954819D02*
X171860238Y-38907200D01*
X171860238Y-38907200D02*
X171812619Y-38859580D01*
X171812619Y-38859580D02*
X171765000Y-38764342D01*
X171765000Y-38764342D02*
X171765000Y-38478628D01*
X171765000Y-38478628D02*
X171812619Y-38383390D01*
X171812619Y-38383390D02*
X171860238Y-38335771D01*
X171860238Y-38335771D02*
X171955476Y-38288152D01*
X171955476Y-38288152D02*
X172098333Y-38288152D01*
X172098333Y-38288152D02*
X172193571Y-38335771D01*
X172193571Y-38335771D02*
X172241190Y-38383390D01*
X172241190Y-38383390D02*
X172288809Y-38478628D01*
X172288809Y-38478628D02*
X172288809Y-38764342D01*
X172288809Y-38764342D02*
X172241190Y-38859580D01*
X172241190Y-38859580D02*
X172193571Y-38907200D01*
X172193571Y-38907200D02*
X172098333Y-38954819D01*
X172098333Y-38954819D02*
X171955476Y-38954819D01*
X172717381Y-38954819D02*
X172717381Y-38288152D01*
X172717381Y-38478628D02*
X172765000Y-38383390D01*
X172765000Y-38383390D02*
X172812619Y-38335771D01*
X172812619Y-38335771D02*
X172907857Y-38288152D01*
X172907857Y-38288152D02*
X173003095Y-38288152D01*
X173860238Y-38954819D02*
X173288810Y-38954819D01*
X173574524Y-38954819D02*
X173574524Y-37954819D01*
X173574524Y-37954819D02*
X173479286Y-38097676D01*
X173479286Y-38097676D02*
X173384048Y-38192914D01*
X173384048Y-38192914D02*
X173288810Y-38240533D01*
X179168152Y-62698095D02*
X179168152Y-63174285D01*
X179168152Y-63174285D02*
X179644342Y-63221904D01*
X179644342Y-63221904D02*
X179596723Y-63174285D01*
X179596723Y-63174285D02*
X179549104Y-63079047D01*
X179549104Y-63079047D02*
X179549104Y-62840952D01*
X179549104Y-62840952D02*
X179596723Y-62745714D01*
X179596723Y-62745714D02*
X179644342Y-62698095D01*
X179644342Y-62698095D02*
X179739580Y-62650476D01*
X179739580Y-62650476D02*
X179977675Y-62650476D01*
X179977675Y-62650476D02*
X180072913Y-62698095D01*
X180072913Y-62698095D02*
X180120533Y-62745714D01*
X180120533Y-62745714D02*
X180168152Y-62840952D01*
X180168152Y-62840952D02*
X180168152Y-63079047D01*
X180168152Y-63079047D02*
X180120533Y-63174285D01*
X180120533Y-63174285D02*
X180072913Y-63221904D01*
X180168152Y-61698095D02*
X180168152Y-62269523D01*
X180168152Y-61983809D02*
X179168152Y-61983809D01*
X179168152Y-61983809D02*
X179311009Y-62079047D01*
X179311009Y-62079047D02*
X179406247Y-62174285D01*
X179406247Y-62174285D02*
X179453866Y-62269523D01*
X179168152Y-61079047D02*
X179168152Y-60983809D01*
X179168152Y-60983809D02*
X179215771Y-60888571D01*
X179215771Y-60888571D02*
X179263390Y-60840952D01*
X179263390Y-60840952D02*
X179358628Y-60793333D01*
X179358628Y-60793333D02*
X179549104Y-60745714D01*
X179549104Y-60745714D02*
X179787199Y-60745714D01*
X179787199Y-60745714D02*
X179977675Y-60793333D01*
X179977675Y-60793333D02*
X180072913Y-60840952D01*
X180072913Y-60840952D02*
X180120533Y-60888571D01*
X180120533Y-60888571D02*
X180168152Y-60983809D01*
X180168152Y-60983809D02*
X180168152Y-61079047D01*
X180168152Y-61079047D02*
X180120533Y-61174285D01*
X180120533Y-61174285D02*
X180072913Y-61221904D01*
X180072913Y-61221904D02*
X179977675Y-61269523D01*
X179977675Y-61269523D02*
X179787199Y-61317142D01*
X179787199Y-61317142D02*
X179549104Y-61317142D01*
X179549104Y-61317142D02*
X179358628Y-61269523D01*
X179358628Y-61269523D02*
X179263390Y-61221904D01*
X179263390Y-61221904D02*
X179215771Y-61174285D01*
X179215771Y-61174285D02*
X179168152Y-61079047D01*
X180263390Y-60555238D02*
X180263390Y-59793333D01*
X179263390Y-59602856D02*
X179215771Y-59555237D01*
X179215771Y-59555237D02*
X179168152Y-59459999D01*
X179168152Y-59459999D02*
X179168152Y-59221904D01*
X179168152Y-59221904D02*
X179215771Y-59126666D01*
X179215771Y-59126666D02*
X179263390Y-59079047D01*
X179263390Y-59079047D02*
X179358628Y-59031428D01*
X179358628Y-59031428D02*
X179453866Y-59031428D01*
X179453866Y-59031428D02*
X179596723Y-59079047D01*
X179596723Y-59079047D02*
X180168152Y-59650475D01*
X180168152Y-59650475D02*
X180168152Y-59031428D01*
X195761904Y-36528028D02*
X195666666Y-36480409D01*
X195666666Y-36480409D02*
X195523809Y-36480409D01*
X195523809Y-36480409D02*
X195380952Y-36528028D01*
X195380952Y-36528028D02*
X195285714Y-36623266D01*
X195285714Y-36623266D02*
X195238095Y-36718504D01*
X195238095Y-36718504D02*
X195190476Y-36908980D01*
X195190476Y-36908980D02*
X195190476Y-37051837D01*
X195190476Y-37051837D02*
X195238095Y-37242313D01*
X195238095Y-37242313D02*
X195285714Y-37337551D01*
X195285714Y-37337551D02*
X195380952Y-37432790D01*
X195380952Y-37432790D02*
X195523809Y-37480409D01*
X195523809Y-37480409D02*
X195619047Y-37480409D01*
X195619047Y-37480409D02*
X195761904Y-37432790D01*
X195761904Y-37432790D02*
X195809523Y-37385170D01*
X195809523Y-37385170D02*
X195809523Y-37051837D01*
X195809523Y-37051837D02*
X195619047Y-37051837D01*
X196238095Y-37480409D02*
X196238095Y-36480409D01*
X196238095Y-36480409D02*
X196809523Y-37480409D01*
X196809523Y-37480409D02*
X196809523Y-36480409D01*
X197285714Y-37480409D02*
X197285714Y-36480409D01*
X197285714Y-36480409D02*
X197523809Y-36480409D01*
X197523809Y-36480409D02*
X197666666Y-36528028D01*
X197666666Y-36528028D02*
X197761904Y-36623266D01*
X197761904Y-36623266D02*
X197809523Y-36718504D01*
X197809523Y-36718504D02*
X197857142Y-36908980D01*
X197857142Y-36908980D02*
X197857142Y-37051837D01*
X197857142Y-37051837D02*
X197809523Y-37242313D01*
X197809523Y-37242313D02*
X197761904Y-37337551D01*
X197761904Y-37337551D02*
X197666666Y-37432790D01*
X197666666Y-37432790D02*
X197523809Y-37480409D01*
X197523809Y-37480409D02*
X197285714Y-37480409D01*
X198809523Y-37480409D02*
X198238095Y-37480409D01*
X198523809Y-37480409D02*
X198523809Y-36480409D01*
X198523809Y-36480409D02*
X198428571Y-36623266D01*
X198428571Y-36623266D02*
X198333333Y-36718504D01*
X198333333Y-36718504D02*
X198238095Y-36766123D01*
X168857143Y-70454819D02*
X169476190Y-70454819D01*
X169476190Y-70454819D02*
X169142857Y-70835771D01*
X169142857Y-70835771D02*
X169285714Y-70835771D01*
X169285714Y-70835771D02*
X169380952Y-70883390D01*
X169380952Y-70883390D02*
X169428571Y-70931009D01*
X169428571Y-70931009D02*
X169476190Y-71026247D01*
X169476190Y-71026247D02*
X169476190Y-71264342D01*
X169476190Y-71264342D02*
X169428571Y-71359580D01*
X169428571Y-71359580D02*
X169380952Y-71407200D01*
X169380952Y-71407200D02*
X169285714Y-71454819D01*
X169285714Y-71454819D02*
X169000000Y-71454819D01*
X169000000Y-71454819D02*
X168904762Y-71407200D01*
X168904762Y-71407200D02*
X168857143Y-71359580D01*
X169809524Y-70454819D02*
X170428571Y-70454819D01*
X170428571Y-70454819D02*
X170095238Y-70835771D01*
X170095238Y-70835771D02*
X170238095Y-70835771D01*
X170238095Y-70835771D02*
X170333333Y-70883390D01*
X170333333Y-70883390D02*
X170380952Y-70931009D01*
X170380952Y-70931009D02*
X170428571Y-71026247D01*
X170428571Y-71026247D02*
X170428571Y-71264342D01*
X170428571Y-71264342D02*
X170380952Y-71359580D01*
X170380952Y-71359580D02*
X170333333Y-71407200D01*
X170333333Y-71407200D02*
X170238095Y-71454819D01*
X170238095Y-71454819D02*
X169952381Y-71454819D01*
X169952381Y-71454819D02*
X169857143Y-71407200D01*
X169857143Y-71407200D02*
X169809524Y-71359580D01*
X171047619Y-70454819D02*
X171142857Y-70454819D01*
X171142857Y-70454819D02*
X171238095Y-70502438D01*
X171238095Y-70502438D02*
X171285714Y-70550057D01*
X171285714Y-70550057D02*
X171333333Y-70645295D01*
X171333333Y-70645295D02*
X171380952Y-70835771D01*
X171380952Y-70835771D02*
X171380952Y-71073866D01*
X171380952Y-71073866D02*
X171333333Y-71264342D01*
X171333333Y-71264342D02*
X171285714Y-71359580D01*
X171285714Y-71359580D02*
X171238095Y-71407200D01*
X171238095Y-71407200D02*
X171142857Y-71454819D01*
X171142857Y-71454819D02*
X171047619Y-71454819D01*
X171047619Y-71454819D02*
X170952381Y-71407200D01*
X170952381Y-71407200D02*
X170904762Y-71359580D01*
X170904762Y-71359580D02*
X170857143Y-71264342D01*
X170857143Y-71264342D02*
X170809524Y-71073866D01*
X170809524Y-71073866D02*
X170809524Y-70835771D01*
X170809524Y-70835771D02*
X170857143Y-70645295D01*
X170857143Y-70645295D02*
X170904762Y-70550057D01*
X170904762Y-70550057D02*
X170952381Y-70502438D01*
X170952381Y-70502438D02*
X171047619Y-70454819D01*
X171571429Y-71550057D02*
X172333333Y-71550057D01*
X173095238Y-71454819D02*
X172523810Y-71454819D01*
X172809524Y-71454819D02*
X172809524Y-70454819D01*
X172809524Y-70454819D02*
X172714286Y-70597676D01*
X172714286Y-70597676D02*
X172619048Y-70692914D01*
X172619048Y-70692914D02*
X172523810Y-70740533D01*
X174471190Y-38471009D02*
X174804523Y-38471009D01*
X174947380Y-38994819D02*
X174471190Y-38994819D01*
X174471190Y-38994819D02*
X174471190Y-37994819D01*
X174471190Y-37994819D02*
X174947380Y-37994819D01*
X175947380Y-38899580D02*
X175899761Y-38947200D01*
X175899761Y-38947200D02*
X175756904Y-38994819D01*
X175756904Y-38994819D02*
X175661666Y-38994819D01*
X175661666Y-38994819D02*
X175518809Y-38947200D01*
X175518809Y-38947200D02*
X175423571Y-38851961D01*
X175423571Y-38851961D02*
X175375952Y-38756723D01*
X175375952Y-38756723D02*
X175328333Y-38566247D01*
X175328333Y-38566247D02*
X175328333Y-38423390D01*
X175328333Y-38423390D02*
X175375952Y-38232914D01*
X175375952Y-38232914D02*
X175423571Y-38137676D01*
X175423571Y-38137676D02*
X175518809Y-38042438D01*
X175518809Y-38042438D02*
X175661666Y-37994819D01*
X175661666Y-37994819D02*
X175756904Y-37994819D01*
X175756904Y-37994819D02*
X175899761Y-38042438D01*
X175899761Y-38042438D02*
X175947380Y-38090057D01*
X176137857Y-39090057D02*
X176899761Y-39090057D01*
X177090238Y-38947200D02*
X177185476Y-38994819D01*
X177185476Y-38994819D02*
X177375952Y-38994819D01*
X177375952Y-38994819D02*
X177471190Y-38947200D01*
X177471190Y-38947200D02*
X177518809Y-38851961D01*
X177518809Y-38851961D02*
X177518809Y-38804342D01*
X177518809Y-38804342D02*
X177471190Y-38709104D01*
X177471190Y-38709104D02*
X177375952Y-38661485D01*
X177375952Y-38661485D02*
X177233095Y-38661485D01*
X177233095Y-38661485D02*
X177137857Y-38613866D01*
X177137857Y-38613866D02*
X177090238Y-38518628D01*
X177090238Y-38518628D02*
X177090238Y-38471009D01*
X177090238Y-38471009D02*
X177137857Y-38375771D01*
X177137857Y-38375771D02*
X177233095Y-38328152D01*
X177233095Y-38328152D02*
X177375952Y-38328152D01*
X177375952Y-38328152D02*
X177471190Y-38375771D01*
X178328333Y-38947200D02*
X178233095Y-38994819D01*
X178233095Y-38994819D02*
X178042619Y-38994819D01*
X178042619Y-38994819D02*
X177947381Y-38947200D01*
X177947381Y-38947200D02*
X177899762Y-38851961D01*
X177899762Y-38851961D02*
X177899762Y-38471009D01*
X177899762Y-38471009D02*
X177947381Y-38375771D01*
X177947381Y-38375771D02*
X178042619Y-38328152D01*
X178042619Y-38328152D02*
X178233095Y-38328152D01*
X178233095Y-38328152D02*
X178328333Y-38375771D01*
X178328333Y-38375771D02*
X178375952Y-38471009D01*
X178375952Y-38471009D02*
X178375952Y-38566247D01*
X178375952Y-38566247D02*
X177899762Y-38661485D01*
X178804524Y-38328152D02*
X178804524Y-38994819D01*
X178804524Y-38423390D02*
X178852143Y-38375771D01*
X178852143Y-38375771D02*
X178947381Y-38328152D01*
X178947381Y-38328152D02*
X179090238Y-38328152D01*
X179090238Y-38328152D02*
X179185476Y-38375771D01*
X179185476Y-38375771D02*
X179233095Y-38471009D01*
X179233095Y-38471009D02*
X179233095Y-38994819D01*
X179661667Y-38947200D02*
X179756905Y-38994819D01*
X179756905Y-38994819D02*
X179947381Y-38994819D01*
X179947381Y-38994819D02*
X180042619Y-38947200D01*
X180042619Y-38947200D02*
X180090238Y-38851961D01*
X180090238Y-38851961D02*
X180090238Y-38804342D01*
X180090238Y-38804342D02*
X180042619Y-38709104D01*
X180042619Y-38709104D02*
X179947381Y-38661485D01*
X179947381Y-38661485D02*
X179804524Y-38661485D01*
X179804524Y-38661485D02*
X179709286Y-38613866D01*
X179709286Y-38613866D02*
X179661667Y-38518628D01*
X179661667Y-38518628D02*
X179661667Y-38471009D01*
X179661667Y-38471009D02*
X179709286Y-38375771D01*
X179709286Y-38375771D02*
X179804524Y-38328152D01*
X179804524Y-38328152D02*
X179947381Y-38328152D01*
X179947381Y-38328152D02*
X180042619Y-38375771D01*
X180661667Y-38994819D02*
X180566429Y-38947200D01*
X180566429Y-38947200D02*
X180518810Y-38899580D01*
X180518810Y-38899580D02*
X180471191Y-38804342D01*
X180471191Y-38804342D02*
X180471191Y-38518628D01*
X180471191Y-38518628D02*
X180518810Y-38423390D01*
X180518810Y-38423390D02*
X180566429Y-38375771D01*
X180566429Y-38375771D02*
X180661667Y-38328152D01*
X180661667Y-38328152D02*
X180804524Y-38328152D01*
X180804524Y-38328152D02*
X180899762Y-38375771D01*
X180899762Y-38375771D02*
X180947381Y-38423390D01*
X180947381Y-38423390D02*
X180995000Y-38518628D01*
X180995000Y-38518628D02*
X180995000Y-38804342D01*
X180995000Y-38804342D02*
X180947381Y-38899580D01*
X180947381Y-38899580D02*
X180899762Y-38947200D01*
X180899762Y-38947200D02*
X180804524Y-38994819D01*
X180804524Y-38994819D02*
X180661667Y-38994819D01*
X181423572Y-38994819D02*
X181423572Y-38328152D01*
X181423572Y-38518628D02*
X181471191Y-38423390D01*
X181471191Y-38423390D02*
X181518810Y-38375771D01*
X181518810Y-38375771D02*
X181614048Y-38328152D01*
X181614048Y-38328152D02*
X181709286Y-38328152D01*
X182566429Y-38994819D02*
X181995001Y-38994819D01*
X182280715Y-38994819D02*
X182280715Y-37994819D01*
X182280715Y-37994819D02*
X182185477Y-38137676D01*
X182185477Y-38137676D02*
X182090239Y-38232914D01*
X182090239Y-38232914D02*
X181995001Y-38280533D01*
X172308095Y-53964819D02*
X172308095Y-54774342D01*
X172308095Y-54774342D02*
X172355714Y-54869580D01*
X172355714Y-54869580D02*
X172403333Y-54917200D01*
X172403333Y-54917200D02*
X172498571Y-54964819D01*
X172498571Y-54964819D02*
X172689047Y-54964819D01*
X172689047Y-54964819D02*
X172784285Y-54917200D01*
X172784285Y-54917200D02*
X172831904Y-54869580D01*
X172831904Y-54869580D02*
X172879523Y-54774342D01*
X172879523Y-54774342D02*
X172879523Y-53964819D01*
X173260476Y-53964819D02*
X173879523Y-53964819D01*
X173879523Y-53964819D02*
X173546190Y-54345771D01*
X173546190Y-54345771D02*
X173689047Y-54345771D01*
X173689047Y-54345771D02*
X173784285Y-54393390D01*
X173784285Y-54393390D02*
X173831904Y-54441009D01*
X173831904Y-54441009D02*
X173879523Y-54536247D01*
X173879523Y-54536247D02*
X173879523Y-54774342D01*
X173879523Y-54774342D02*
X173831904Y-54869580D01*
X173831904Y-54869580D02*
X173784285Y-54917200D01*
X173784285Y-54917200D02*
X173689047Y-54964819D01*
X173689047Y-54964819D02*
X173403333Y-54964819D01*
X173403333Y-54964819D02*
X173308095Y-54917200D01*
X173308095Y-54917200D02*
X173260476Y-54869580D01*
X195047619Y-31104819D02*
X195666666Y-31104819D01*
X195666666Y-31104819D02*
X195333333Y-31485771D01*
X195333333Y-31485771D02*
X195476190Y-31485771D01*
X195476190Y-31485771D02*
X195571428Y-31533390D01*
X195571428Y-31533390D02*
X195619047Y-31581009D01*
X195619047Y-31581009D02*
X195666666Y-31676247D01*
X195666666Y-31676247D02*
X195666666Y-31914342D01*
X195666666Y-31914342D02*
X195619047Y-32009580D01*
X195619047Y-32009580D02*
X195571428Y-32057200D01*
X195571428Y-32057200D02*
X195476190Y-32104819D01*
X195476190Y-32104819D02*
X195190476Y-32104819D01*
X195190476Y-32104819D02*
X195095238Y-32057200D01*
X195095238Y-32057200D02*
X195047619Y-32009580D01*
X196095238Y-32009580D02*
X196142857Y-32057200D01*
X196142857Y-32057200D02*
X196095238Y-32104819D01*
X196095238Y-32104819D02*
X196047619Y-32057200D01*
X196047619Y-32057200D02*
X196095238Y-32009580D01*
X196095238Y-32009580D02*
X196095238Y-32104819D01*
X196476190Y-31104819D02*
X197095237Y-31104819D01*
X197095237Y-31104819D02*
X196761904Y-31485771D01*
X196761904Y-31485771D02*
X196904761Y-31485771D01*
X196904761Y-31485771D02*
X196999999Y-31533390D01*
X196999999Y-31533390D02*
X197047618Y-31581009D01*
X197047618Y-31581009D02*
X197095237Y-31676247D01*
X197095237Y-31676247D02*
X197095237Y-31914342D01*
X197095237Y-31914342D02*
X197047618Y-32009580D01*
X197047618Y-32009580D02*
X196999999Y-32057200D01*
X196999999Y-32057200D02*
X196904761Y-32104819D01*
X196904761Y-32104819D02*
X196619047Y-32104819D01*
X196619047Y-32104819D02*
X196523809Y-32057200D01*
X196523809Y-32057200D02*
X196476190Y-32009580D01*
X197380952Y-31104819D02*
X197714285Y-32104819D01*
X197714285Y-32104819D02*
X198047618Y-31104819D01*
X198904761Y-32104819D02*
X198333333Y-32104819D01*
X198619047Y-32104819D02*
X198619047Y-31104819D01*
X198619047Y-31104819D02*
X198523809Y-31247676D01*
X198523809Y-31247676D02*
X198428571Y-31342914D01*
X198428571Y-31342914D02*
X198333333Y-31390533D01*
D11*
%TO.C,U1*%
X184540000Y-45890000D02*
X184540000Y-66330000D01*
X184540000Y-66330000D02*
X189840000Y-66330000D01*
X186190000Y-45890000D02*
X184540000Y-45890000D01*
X189840000Y-45890000D02*
X188190000Y-45890000D01*
X189840000Y-66330000D02*
X189840000Y-45890000D01*
X188190000Y-45890000D02*
G75*
G02*
X186190000Y-45890000I-1000000J0D01*
G01*
%TO.C,10k_1*%
X164630000Y-55920000D02*
X164630000Y-62460000D01*
X164630000Y-62460000D02*
X164960000Y-62460000D01*
X164960000Y-55920000D02*
X164630000Y-55920000D01*
X167040000Y-55920000D02*
X167370000Y-55920000D01*
X167370000Y-55920000D02*
X167370000Y-62460000D01*
X167370000Y-62460000D02*
X167040000Y-62460000D01*
%TO.C,10k1_2*%
X164630000Y-45920000D02*
X164960000Y-45920000D01*
X164630000Y-52460000D02*
X164630000Y-45920000D01*
X164960000Y-52460000D02*
X164630000Y-52460000D01*
X167040000Y-52460000D02*
X167370000Y-52460000D01*
X167370000Y-45920000D02*
X167040000Y-45920000D01*
X167370000Y-52460000D02*
X167370000Y-45920000D01*
%TO.C,D1*%
X161670000Y-69764000D02*
X161670000Y-69920000D01*
X161670000Y-72080000D02*
X161670000Y-72236000D01*
X161670000Y-69764484D02*
G75*
G02*
X164901437Y-69920000I1560000J-1235516D01*
G01*
X162189039Y-69920000D02*
G75*
G02*
X164270961Y-69920000I1040961J-1080000D01*
G01*
X164270961Y-72080000D02*
G75*
G02*
X162189039Y-72080000I-1040961J1080000D01*
G01*
X164901437Y-72080000D02*
G75*
G02*
X161670000Y-72235516I-1671437J1080000D01*
G01*
%TO.C,1k1*%
X161630000Y-45920000D02*
X161960000Y-45920000D01*
X161630000Y-52460000D02*
X161630000Y-45920000D01*
X161960000Y-52460000D02*
X161630000Y-52460000D01*
X164040000Y-52460000D02*
X164370000Y-52460000D01*
X164370000Y-45920000D02*
X164040000Y-45920000D01*
X164370000Y-52460000D02*
X164370000Y-45920000D01*
%TO.C,510*%
X161630000Y-55920000D02*
X161960000Y-55920000D01*
X161630000Y-62460000D02*
X161630000Y-55920000D01*
X161960000Y-62460000D02*
X161630000Y-62460000D01*
X164040000Y-62460000D02*
X164370000Y-62460000D01*
X164370000Y-55920000D02*
X164040000Y-55920000D01*
X164370000Y-62460000D02*
X164370000Y-55920000D01*
%TO.C,1k2*%
X178510000Y-47760000D02*
X178840000Y-47760000D01*
X178510000Y-54300000D02*
X178510000Y-47760000D01*
X178840000Y-54300000D02*
X178510000Y-54300000D01*
X180920000Y-54300000D02*
X181250000Y-54300000D01*
X181250000Y-47760000D02*
X180920000Y-47760000D01*
X181250000Y-54300000D02*
X181250000Y-47760000D01*
%TO.C,DS18B20*%
X185930000Y-45350000D02*
X189530000Y-45350000D01*
X185891522Y-45338478D02*
G75*
G02*
X187730000Y-40899999I1838478J1838478D01*
G01*
X187730000Y-40900000D02*
G75*
G02*
X189568478Y-45338478I0J-2600000D01*
G01*
%TO.C,J1*%
X177880000Y-73850000D02*
X177880000Y-71650000D01*
X178500000Y-69630000D02*
X183500000Y-69630000D01*
X178500000Y-75870000D02*
X183500000Y-75870000D01*
X184120000Y-71650000D02*
X184120000Y-73850000D01*
X182750000Y-72750000D02*
G75*
G02*
X179250000Y-72750000I-1750000J0D01*
G01*
X179250000Y-72750000D02*
G75*
G02*
X182750000Y-72750000I1750000J0D01*
G01*
%TO.C,J2*%
X186880000Y-73850000D02*
X186880000Y-71650000D01*
X187500000Y-69630000D02*
X192500000Y-69630000D01*
X187500000Y-75870000D02*
X192500000Y-75870000D01*
X193120000Y-71650000D02*
X193120000Y-73850000D01*
X191750000Y-72750000D02*
G75*
G02*
X188250000Y-72750000I-1750000J0D01*
G01*
X188250000Y-72750000D02*
G75*
G02*
X191750000Y-72750000I1750000J0D01*
G01*
%TO.C,Cdscell1*%
X170050000Y-49415000D02*
X170050000Y-52505000D01*
X170050000Y-49415170D02*
G75*
G02*
X175600000Y-50960000I2560000J-1544830D01*
G01*
X175600000Y-50960000D02*
G75*
G02*
X170050000Y-52504830I-2990000J0D01*
G01*
X175110000Y-50960000D02*
G75*
G02*
X170110000Y-50960000I-2500000J0D01*
G01*
X170110000Y-50960000D02*
G75*
G02*
X175110000Y-50960000I2500000J0D01*
G01*
%TO.C,pH_sensor1*%
X168935000Y-40955000D02*
X168935000Y-44045000D01*
X168935000Y-40955170D02*
G75*
G02*
X174485000Y-42500000I2560000J-1544830D01*
G01*
X174485000Y-42500000D02*
G75*
G02*
X168935000Y-44044830I-2990000J0D01*
G01*
X173995000Y-42500000D02*
G75*
G02*
X168995000Y-42500000I-2500000J0D01*
G01*
X168995000Y-42500000D02*
G75*
G02*
X173995000Y-42500000I2500000J0D01*
G01*
%TO.C,510_2*%
X178510000Y-57880000D02*
X178510000Y-64420000D01*
X178510000Y-64420000D02*
X178840000Y-64420000D01*
X178840000Y-57880000D02*
X178510000Y-57880000D01*
X180920000Y-57880000D02*
X181250000Y-57880000D01*
X181250000Y-57880000D02*
X181250000Y-64420000D01*
X181250000Y-64420000D02*
X180920000Y-64420000D01*
%TO.C,330_1*%
X167730000Y-69630000D02*
X174270000Y-69630000D01*
X167730000Y-69960000D02*
X167730000Y-69630000D01*
X167730000Y-72040000D02*
X167730000Y-72370000D01*
X167730000Y-72370000D02*
X174270000Y-72370000D01*
X174270000Y-69630000D02*
X174270000Y-69960000D01*
X174270000Y-72370000D02*
X174270000Y-72040000D01*
%TO.C,EC_sensor1*%
X175935000Y-40955000D02*
X175935000Y-44045000D01*
X175935000Y-40955170D02*
G75*
G02*
X181485000Y-42500000I2560000J-1544830D01*
G01*
X181485000Y-42500000D02*
G75*
G02*
X175935000Y-44044830I-2990000J0D01*
G01*
X180995000Y-42500000D02*
G75*
G02*
X175995000Y-42500000I-2500000J0D01*
G01*
X175995000Y-42500000D02*
G75*
G02*
X180995000Y-42500000I2500000J0D01*
G01*
%TO.C,U3*%
X170420000Y-55510000D02*
X170420000Y-65790000D01*
X170420000Y-65790000D02*
X175720000Y-65790000D01*
X172070000Y-55510000D02*
X170420000Y-55510000D01*
X175720000Y-55510000D02*
X174070000Y-55510000D01*
X175720000Y-65790000D02*
X175720000Y-55510000D01*
X174070000Y-55510000D02*
G75*
G02*
X172070000Y-55510000I-1000000J0D01*
G01*
%TD*%
M02*
