%TF.GenerationSoftware,KiCad,Pcbnew,9.0.7*%
%TF.CreationDate,2026-01-23T18:30:01+09:00*%
%TF.ProjectId,ono-kairo,6f6e6f2d-6b61-4697-926f-2e6b69636164,rev?*%
%TF.SameCoordinates,Original*%
%TF.FileFunction,Copper,L2,Bot*%
%TF.FilePolarity,Positive*%
%FSLAX46Y46*%
G04 Gerber Fmt 4.6, Leading zero omitted, Abs format (unit mm)*
G04 Created by KiCad (PCBNEW 9.0.7) date 2026-01-23 18:30:01*
%MOMM*%
%LPD*%
G01*
G04 APERTURE LIST*
%TA.AperFunction,NonConductor*%
%ADD10C,0.200000*%
%TD*%
%TA.AperFunction,ComponentPad*%
%ADD11C,1.800000*%
%TD*%
%TA.AperFunction,ComponentPad*%
%ADD12R,1.800000X1.800000*%
%TD*%
%TA.AperFunction,ComponentPad*%
%ADD13C,1.700000*%
%TD*%
%TA.AperFunction,ComponentPad*%
%ADD14C,3.800000*%
%TD*%
%TA.AperFunction,ComponentPad*%
%ADD15R,1.050000X1.500000*%
%TD*%
%TA.AperFunction,ComponentPad*%
%ADD16O,1.050000X1.500000*%
%TD*%
%TA.AperFunction,ComponentPad*%
%ADD17C,1.600000*%
%TD*%
%TA.AperFunction,ViaPad*%
%ADD18C,0.600000*%
%TD*%
%TA.AperFunction,Conductor*%
%ADD19C,0.200000*%
%TD*%
G04 APERTURE END LIST*
D10*
X143000000Y-30500000D02*
X190000000Y-30500000D01*
X143000000Y-65000000D02*
X143000000Y-30500000D01*
X190000000Y-65000000D02*
X143000000Y-65000000D01*
X190000000Y-30500000D02*
X190000000Y-65000000D01*
D11*
%TO.P,pH_sensor1,2*%
%TO.N,Net-(U1-CH0)*%
X149250000Y-52900000D03*
D12*
%TO.P,pH_sensor1,1*%
%TO.N,Net-(D1-K)*%
X146710000Y-52900000D03*
%TD*%
D13*
%TO.P,button,1,Pin_1*%
%TO.N,Net-(J1-Pin_1)*%
X170000000Y-44500000D03*
X176500000Y-44500000D03*
%TO.P,button,2,Pin_2*%
%TO.N,Net-(J2-Pin_2)*%
X170000000Y-49000000D03*
X176500000Y-49000000D03*
%TD*%
%TO.P,button,1,Pin_1*%
%TO.N,Net-(J1-Pin_1)*%
X170000000Y-33500000D03*
X176500000Y-33500000D03*
%TO.P,button,2,Pin_2*%
%TO.N,Net-(J1-Pin_2)*%
X170000000Y-38000000D03*
X176500000Y-38000000D03*
%TD*%
D14*
%TO.P,H5,1,1*%
%TO.N,Net-(J1-Pin_1)*%
X184500000Y-59500000D03*
%TD*%
%TO.P,H4,1,1*%
%TO.N,Net-(D1-K)*%
X184500000Y-53000000D03*
%TD*%
%TO.P,H3,1,1*%
%TO.N,Net-(D1-A)*%
X184500000Y-47000000D03*
%TD*%
%TO.P,H1,1,1*%
%TO.N,Net-(J1-Pin_2)*%
X184500000Y-35500000D03*
%TD*%
%TO.P,H2,1,1*%
%TO.N,Net-(J2-Pin_2)*%
X184500000Y-41500000D03*
%TD*%
D11*
%TO.P,LED,2,A*%
%TO.N,Net-(D1-A)*%
X177500000Y-54500000D03*
D12*
%TO.P,LED,1,K*%
%TO.N,Net-(D1-K)*%
X174960000Y-54500000D03*
%TD*%
D15*
%TO.P,ds18b20,1,GND*%
%TO.N,Net-(D1-K)*%
X146960000Y-60500000D03*
D16*
%TO.P,ds18b20,2,DQ*%
%TO.N,Net-(U2-DQ)*%
X148230000Y-60500000D03*
%TO.P,ds18b20,3,V_{DD}*%
%TO.N,Net-(J1-Pin_1)*%
X149500000Y-60500000D03*
%TD*%
D17*
%TO.P,R7,1*%
%TO.N,Net-(J1-Pin_1)*%
X154500000Y-55190000D03*
%TO.P,R7,2*%
%TO.N,Net-(D1-K)*%
X154500000Y-62810000D03*
%TD*%
%TO.P,1M,1*%
%TO.N,Net-(U1-CH0)*%
X158500000Y-61500000D03*
%TO.P,1M,2*%
X166120000Y-61500000D03*
%TD*%
%TO.P,10k,1*%
%TO.N,Net-(J1-Pin_1)*%
X155000000Y-33690000D03*
%TO.P,10k,2*%
%TO.N,Net-(U2-DQ)*%
X155000000Y-41310000D03*
%TD*%
%TO.P,1k,1*%
%TO.N,Net-(J1-Pin_1)*%
X169190000Y-61500000D03*
%TO.P,1k,2*%
%TO.N,Net-(U1-CH1)*%
X176810000Y-61500000D03*
%TD*%
%TO.P,510,1*%
%TO.N,Net-(U1-CH0)*%
X158380000Y-34000000D03*
%TO.P,510,2*%
%TO.N,Net-(D1-K)*%
X166000000Y-34000000D03*
%TD*%
%TO.P,10k,1*%
%TO.N,Net-(D1-K)*%
X158380000Y-55500000D03*
%TO.P,10k,2*%
X166000000Y-55500000D03*
%TD*%
D12*
%TO.P,Cdscell1,1*%
%TO.N,Net-(J1-Pin_1)*%
X147000000Y-44500000D03*
D11*
%TO.P,Cdscell1,2*%
%TO.N,Net-(U1-CH2)*%
X149540000Y-44500000D03*
%TD*%
D12*
%TO.P,EC_sensor1,1*%
%TO.N,Net-(U1-CH1)*%
X146960000Y-35500000D03*
D11*
%TO.P,EC_sensor1,2*%
%TO.N,Net-(D1-K)*%
X149500000Y-35500000D03*
%TD*%
D18*
%TO.N,*%
X156500000Y-58000000D03*
X167500000Y-39000000D03*
X181000000Y-40500000D03*
X188500000Y-47500000D03*
X153500000Y-51500000D03*
X167500000Y-63500000D03*
X188000000Y-32500000D03*
X187500000Y-62500000D03*
X167500000Y-59000000D03*
X170000000Y-59000000D03*
X165000000Y-59000000D03*
X167500000Y-52500000D03*
X160000000Y-52000000D03*
X157500000Y-52000000D03*
X153000000Y-46500000D03*
X176000000Y-41500000D03*
X179000000Y-41500000D03*
%TD*%
D19*
%TO.N,Net-(J1-Pin_1)*%
X170291000Y-62601000D02*
X169190000Y-61500000D01*
X180899000Y-62601000D02*
X170291000Y-62601000D01*
X184000000Y-59500000D02*
X180899000Y-62601000D01*
X184500000Y-59500000D02*
X184000000Y-59500000D01*
%TO.N,Net-(D1-K)*%
X176460000Y-53000000D02*
X174960000Y-54500000D01*
X184500000Y-53000000D02*
X176460000Y-53000000D01*
%TO.N,Net-(J1-Pin_2)*%
X176500000Y-38000000D02*
X170000000Y-38000000D01*
%TO.N,Net-(J2-Pin_2)*%
X176500000Y-49000000D02*
X170000000Y-49000000D01*
%TO.N,Net-(U2-DQ)*%
X155601000Y-55792140D02*
X155601000Y-41911000D01*
X149842140Y-61551000D02*
X155601000Y-55792140D01*
X149157860Y-61551000D02*
X149842140Y-61551000D01*
X155601000Y-41911000D02*
X155000000Y-41310000D01*
X148230000Y-60623140D02*
X149157860Y-61551000D01*
X148230000Y-60500000D02*
X148230000Y-60623140D01*
%TO.N,Net-(J1-Pin_1)*%
X149500000Y-60190000D02*
X149500000Y-60500000D01*
X154500000Y-55190000D02*
X149500000Y-60190000D01*
X147000000Y-47690000D02*
X154500000Y-55190000D01*
X147000000Y-44500000D02*
X147000000Y-47690000D01*
X165000000Y-38500000D02*
X165000000Y-40500000D01*
X170000000Y-33500000D02*
X165000000Y-38500000D01*
X169390001Y-32890001D02*
X170000000Y-33500000D01*
X155799999Y-32890001D02*
X169390001Y-32890001D01*
X155000000Y-33690000D02*
X155799999Y-32890001D01*
X146368000Y-33690000D02*
X155000000Y-33690000D01*
X145759000Y-43259000D02*
X145759000Y-34299000D01*
X147000000Y-44500000D02*
X145759000Y-43259000D01*
X145759000Y-34299000D02*
X146368000Y-33690000D01*
%TO.N,Net-(U1-CH1)*%
X148161000Y-36701000D02*
X146960000Y-35500000D01*
X154701000Y-36701000D02*
X148161000Y-36701000D01*
X176810000Y-58810000D02*
X154701000Y-36701000D01*
X176810000Y-61500000D02*
X176810000Y-58810000D01*
%TD*%
%TA.AperFunction,NonConductor*%
G36*
X189342539Y-31120185D02*
G01*
X189388294Y-31172989D01*
X189399500Y-31224500D01*
X189399500Y-46996560D01*
X189379815Y-47063599D01*
X189327011Y-47109354D01*
X189257853Y-47119298D01*
X189194297Y-47090273D01*
X189172398Y-47065451D01*
X189121789Y-46989711D01*
X189121786Y-46989707D01*
X189010292Y-46878213D01*
X189010288Y-46878210D01*
X188879185Y-46790609D01*
X188879172Y-46790602D01*
X188733501Y-46730264D01*
X188733489Y-46730261D01*
X188578845Y-46699500D01*
X188578842Y-46699500D01*
X188421158Y-46699500D01*
X188421155Y-46699500D01*
X188266510Y-46730261D01*
X188266498Y-46730264D01*
X188120827Y-46790602D01*
X188120814Y-46790609D01*
X187989711Y-46878210D01*
X187989707Y-46878213D01*
X187878213Y-46989707D01*
X187878210Y-46989711D01*
X187790609Y-47120814D01*
X187790602Y-47120827D01*
X187730264Y-47266498D01*
X187730261Y-47266510D01*
X187699500Y-47421153D01*
X187699500Y-47578846D01*
X187730261Y-47733489D01*
X187730264Y-47733501D01*
X187790602Y-47879172D01*
X187790609Y-47879185D01*
X187878210Y-48010288D01*
X187878213Y-48010292D01*
X187989707Y-48121786D01*
X187989711Y-48121789D01*
X188120814Y-48209390D01*
X188120827Y-48209397D01*
X188266498Y-48269735D01*
X188266503Y-48269737D01*
X188421153Y-48300499D01*
X188421156Y-48300500D01*
X188421158Y-48300500D01*
X188578844Y-48300500D01*
X188578845Y-48300499D01*
X188733497Y-48269737D01*
X188879179Y-48209394D01*
X189010289Y-48121789D01*
X189121789Y-48010289D01*
X189172398Y-47934548D01*
X189226010Y-47889743D01*
X189295335Y-47881036D01*
X189358363Y-47911190D01*
X189395082Y-47970634D01*
X189399500Y-48003439D01*
X189399500Y-64275500D01*
X189379815Y-64342539D01*
X189327011Y-64388294D01*
X189275500Y-64399500D01*
X168003439Y-64399500D01*
X167936400Y-64379815D01*
X167890645Y-64327011D01*
X167880701Y-64257853D01*
X167909726Y-64194297D01*
X167934548Y-64172398D01*
X167963981Y-64152730D01*
X168010289Y-64121789D01*
X168121789Y-64010289D01*
X168209394Y-63879179D01*
X168269737Y-63733497D01*
X168300500Y-63578842D01*
X168300500Y-63421158D01*
X168300500Y-63421155D01*
X168300499Y-63421153D01*
X168269737Y-63266503D01*
X168246080Y-63209390D01*
X168209397Y-63120827D01*
X168209390Y-63120814D01*
X168121789Y-62989711D01*
X168121786Y-62989707D01*
X168010292Y-62878213D01*
X168010288Y-62878210D01*
X167879185Y-62790609D01*
X167879172Y-62790602D01*
X167733501Y-62730264D01*
X167733489Y-62730261D01*
X167578845Y-62699500D01*
X167578842Y-62699500D01*
X167421158Y-62699500D01*
X167421155Y-62699500D01*
X167266510Y-62730261D01*
X167266498Y-62730264D01*
X167120827Y-62790602D01*
X167120814Y-62790609D01*
X166989711Y-62878210D01*
X166989707Y-62878213D01*
X166878213Y-62989707D01*
X166878210Y-62989711D01*
X166790609Y-63120814D01*
X166790602Y-63120827D01*
X166730264Y-63266498D01*
X166730261Y-63266510D01*
X166699500Y-63421153D01*
X166699500Y-63578846D01*
X166730261Y-63733489D01*
X166730264Y-63733501D01*
X166790602Y-63879172D01*
X166790609Y-63879185D01*
X166878210Y-64010288D01*
X166878213Y-64010292D01*
X166989707Y-64121786D01*
X166989711Y-64121789D01*
X167065452Y-64172398D01*
X167110257Y-64226010D01*
X167118964Y-64295335D01*
X167088810Y-64358363D01*
X167029366Y-64395082D01*
X166996561Y-64399500D01*
X143724500Y-64399500D01*
X143657461Y-64379815D01*
X143611706Y-64327011D01*
X143600500Y-64275500D01*
X143600500Y-62707648D01*
X153199500Y-62707648D01*
X153199500Y-62912351D01*
X153231522Y-63114534D01*
X153294781Y-63309223D01*
X153387715Y-63491613D01*
X153508028Y-63657213D01*
X153652786Y-63801971D01*
X153807749Y-63914556D01*
X153818390Y-63922287D01*
X153934607Y-63981503D01*
X154000776Y-64015218D01*
X154000778Y-64015218D01*
X154000781Y-64015220D01*
X154105137Y-64049127D01*
X154195465Y-64078477D01*
X154296557Y-64094488D01*
X154397648Y-64110500D01*
X154397649Y-64110500D01*
X154602351Y-64110500D01*
X154602352Y-64110500D01*
X154804534Y-64078477D01*
X154999219Y-64015220D01*
X155181610Y-63922287D01*
X155274590Y-63854732D01*
X155347213Y-63801971D01*
X155347215Y-63801968D01*
X155347219Y-63801966D01*
X155491966Y-63657219D01*
X155491968Y-63657215D01*
X155491971Y-63657213D01*
X155548910Y-63578842D01*
X155612287Y-63491610D01*
X155705220Y-63309219D01*
X155768477Y-63114534D01*
X155800500Y-62912352D01*
X155800500Y-62707648D01*
X155785396Y-62612284D01*
X155768477Y-62505465D01*
X155705218Y-62310776D01*
X155671503Y-62244607D01*
X155612287Y-62128390D01*
X155562292Y-62059577D01*
X155491971Y-61962786D01*
X155347213Y-61818028D01*
X155181613Y-61697715D01*
X155181612Y-61697714D01*
X155181610Y-61697713D01*
X155089248Y-61650652D01*
X154999223Y-61604781D01*
X154804534Y-61541522D01*
X154638649Y-61515249D01*
X154602352Y-61509500D01*
X154397648Y-61509500D01*
X154373329Y-61513351D01*
X154195465Y-61541522D01*
X154000776Y-61604781D01*
X153818386Y-61697715D01*
X153652786Y-61818028D01*
X153508028Y-61962786D01*
X153387715Y-62128386D01*
X153294781Y-62310776D01*
X153231522Y-62505465D01*
X153199500Y-62707648D01*
X143600500Y-62707648D01*
X143600500Y-43338054D01*
X145158498Y-43338054D01*
X145185167Y-43437580D01*
X145199423Y-43490785D01*
X145199424Y-43490786D01*
X145204457Y-43499504D01*
X145278477Y-43627712D01*
X145278481Y-43627717D01*
X145397349Y-43746585D01*
X145397355Y-43746590D01*
X145563181Y-43912416D01*
X145596666Y-43973739D01*
X145599500Y-44000097D01*
X145599500Y-45447870D01*
X145599501Y-45447876D01*
X145605908Y-45507483D01*
X145656202Y-45642328D01*
X145656206Y-45642335D01*
X145742452Y-45757544D01*
X145742455Y-45757547D01*
X145857664Y-45843793D01*
X145857671Y-45843797D01*
X145875643Y-45850500D01*
X145992517Y-45894091D01*
X146052127Y-45900500D01*
X146275500Y-45900499D01*
X146342539Y-45920183D01*
X146388294Y-45972987D01*
X146399500Y-46024499D01*
X146399500Y-47603330D01*
X146399499Y-47603348D01*
X146399499Y-47769054D01*
X146399498Y-47769054D01*
X146399499Y-47769057D01*
X146440423Y-47921785D01*
X146468200Y-47969896D01*
X146468200Y-47969897D01*
X146519475Y-48058709D01*
X146519481Y-48058717D01*
X146638349Y-48177585D01*
X146638355Y-48177590D01*
X149830137Y-51369372D01*
X149863622Y-51430695D01*
X149858638Y-51500387D01*
X149816766Y-51556320D01*
X149751302Y-51580737D01*
X149704139Y-51574984D01*
X149577953Y-51533985D01*
X149577954Y-51533985D01*
X149414654Y-51508121D01*
X149360222Y-51499500D01*
X149139778Y-51499500D01*
X149067201Y-51510995D01*
X148922047Y-51533985D01*
X148712396Y-51602103D01*
X148712393Y-51602104D01*
X148515974Y-51702187D01*
X148337641Y-51831752D01*
X148337636Y-51831756D01*
X148287463Y-51881929D01*
X148226140Y-51915413D01*
X148156448Y-51910428D01*
X148100515Y-51868557D01*
X148083601Y-51837580D01*
X148053797Y-51757671D01*
X148053793Y-51757664D01*
X147967547Y-51642455D01*
X147967544Y-51642452D01*
X147852335Y-51556206D01*
X147852328Y-51556202D01*
X147717482Y-51505908D01*
X147717483Y-51505908D01*
X147657883Y-51499501D01*
X147657881Y-51499500D01*
X147657873Y-51499500D01*
X147657864Y-51499500D01*
X145762129Y-51499500D01*
X145762123Y-51499501D01*
X145702516Y-51505908D01*
X145567671Y-51556202D01*
X145567664Y-51556206D01*
X145452455Y-51642452D01*
X145452452Y-51642455D01*
X145366206Y-51757664D01*
X145366202Y-51757671D01*
X145315908Y-51892517D01*
X145309501Y-51952116D01*
X145309500Y-51952135D01*
X145309500Y-53847870D01*
X145309501Y-53847876D01*
X145315908Y-53907483D01*
X145366202Y-54042328D01*
X145366206Y-54042335D01*
X145452452Y-54157544D01*
X145452455Y-54157547D01*
X145567664Y-54243793D01*
X145567671Y-54243797D01*
X145702517Y-54294091D01*
X145702516Y-54294091D01*
X145708925Y-54294780D01*
X145762127Y-54300500D01*
X147657872Y-54300499D01*
X147717483Y-54294091D01*
X147852331Y-54243796D01*
X147967546Y-54157546D01*
X148053796Y-54042331D01*
X148081429Y-53968243D01*
X148083601Y-53962420D01*
X148125471Y-53906486D01*
X148190936Y-53882068D01*
X148259209Y-53896919D01*
X148287464Y-53918071D01*
X148337636Y-53968243D01*
X148337641Y-53968247D01*
X148439603Y-54042326D01*
X148515978Y-54097815D01*
X148643898Y-54162994D01*
X148712393Y-54197895D01*
X148712396Y-54197896D01*
X148815889Y-54231522D01*
X148922049Y-54266015D01*
X149139778Y-54300500D01*
X149139779Y-54300500D01*
X149360221Y-54300500D01*
X149360222Y-54300500D01*
X149577951Y-54266015D01*
X149787606Y-54197895D01*
X149984022Y-54097815D01*
X150162365Y-53968242D01*
X150318242Y-53812365D01*
X150447815Y-53634022D01*
X150547895Y-53437606D01*
X150616015Y-53227951D01*
X150650500Y-53010222D01*
X150650500Y-52789778D01*
X150616015Y-52572049D01*
X150575015Y-52445861D01*
X150573020Y-52376019D01*
X150609101Y-52316187D01*
X150671802Y-52285359D01*
X150741216Y-52293324D01*
X150780625Y-52319860D01*
X152012880Y-53552116D01*
X153205921Y-54745157D01*
X153239406Y-54806480D01*
X153236173Y-54871149D01*
X153231523Y-54885460D01*
X153231523Y-54885462D01*
X153199500Y-55087648D01*
X153199500Y-55292351D01*
X153231522Y-55494534D01*
X153236173Y-55508848D01*
X153238165Y-55578690D01*
X153205921Y-55634842D01*
X149627584Y-59213181D01*
X149566261Y-59246666D01*
X149539903Y-59249500D01*
X149398992Y-59249500D01*
X149200880Y-59288907D01*
X149200872Y-59288909D01*
X149014244Y-59366213D01*
X148933891Y-59419904D01*
X148867213Y-59440782D01*
X148799833Y-59422297D01*
X148796109Y-59419904D01*
X148715755Y-59366213D01*
X148529127Y-59288909D01*
X148529119Y-59288907D01*
X148331007Y-59249500D01*
X148331003Y-59249500D01*
X148128997Y-59249500D01*
X148128992Y-59249500D01*
X147930880Y-59288907D01*
X147930868Y-59288910D01*
X147850198Y-59322325D01*
X147780729Y-59329794D01*
X147735342Y-59310036D01*
X147735114Y-59310454D01*
X147730447Y-59307905D01*
X147728432Y-59307028D01*
X147727331Y-59306204D01*
X147727330Y-59306203D01*
X147727328Y-59306202D01*
X147592482Y-59255908D01*
X147592483Y-59255908D01*
X147532883Y-59249501D01*
X147532881Y-59249500D01*
X147532873Y-59249500D01*
X147532864Y-59249500D01*
X146387129Y-59249500D01*
X146387123Y-59249501D01*
X146327516Y-59255908D01*
X146192671Y-59306202D01*
X146192664Y-59306206D01*
X146077455Y-59392452D01*
X146077452Y-59392455D01*
X145991206Y-59507664D01*
X145991202Y-59507671D01*
X145940908Y-59642517D01*
X145934501Y-59702116D01*
X145934500Y-59702135D01*
X145934500Y-61297870D01*
X145934501Y-61297876D01*
X145940908Y-61357483D01*
X145991202Y-61492328D01*
X145991206Y-61492335D01*
X146077452Y-61607544D01*
X146077455Y-61607547D01*
X146192664Y-61693793D01*
X146192671Y-61693797D01*
X146327517Y-61744091D01*
X146327516Y-61744091D01*
X146334444Y-61744835D01*
X146387127Y-61750500D01*
X147532872Y-61750499D01*
X147592483Y-61744091D01*
X147727331Y-61693796D01*
X147728430Y-61692972D01*
X147729717Y-61692492D01*
X147735112Y-61689547D01*
X147735535Y-61690322D01*
X147793887Y-61668552D01*
X147850198Y-61677673D01*
X147930873Y-61711091D01*
X148128987Y-61750498D01*
X148128992Y-61750499D01*
X148128996Y-61750500D01*
X148128997Y-61750500D01*
X148331003Y-61750500D01*
X148413733Y-61734043D01*
X148421638Y-61734750D01*
X148429077Y-61731976D01*
X148455937Y-61737819D01*
X148483321Y-61740269D01*
X148491331Y-61745518D01*
X148497350Y-61746828D01*
X148525604Y-61767979D01*
X148672999Y-61915374D01*
X148673009Y-61915385D01*
X148677339Y-61919715D01*
X148677340Y-61919716D01*
X148789144Y-62031520D01*
X148789146Y-62031521D01*
X148837741Y-62059577D01*
X148837740Y-62059577D01*
X148837743Y-62059578D01*
X148926069Y-62110574D01*
X148926070Y-62110574D01*
X148926075Y-62110577D01*
X149078802Y-62151500D01*
X149078803Y-62151500D01*
X149755471Y-62151500D01*
X149755487Y-62151501D01*
X149763083Y-62151501D01*
X149921194Y-62151501D01*
X149921197Y-62151501D01*
X150073925Y-62110577D01*
X150162259Y-62059577D01*
X150210856Y-62031520D01*
X150322660Y-61919716D01*
X150322660Y-61919714D01*
X150332864Y-61909511D01*
X150332868Y-61909506D01*
X150844726Y-61397648D01*
X157199500Y-61397648D01*
X157199500Y-61602351D01*
X157231522Y-61804534D01*
X157294781Y-61999223D01*
X157387715Y-62181613D01*
X157508028Y-62347213D01*
X157652786Y-62491971D01*
X157772359Y-62578844D01*
X157818390Y-62612287D01*
X157934607Y-62671503D01*
X158000776Y-62705218D01*
X158000778Y-62705218D01*
X158000781Y-62705220D01*
X158087784Y-62733489D01*
X158195465Y-62768477D01*
X158223555Y-62772926D01*
X158397648Y-62800500D01*
X158397649Y-62800500D01*
X158602351Y-62800500D01*
X158602352Y-62800500D01*
X158804534Y-62768477D01*
X158999219Y-62705220D01*
X159181610Y-62612287D01*
X159328638Y-62505466D01*
X159347213Y-62491971D01*
X159347215Y-62491968D01*
X159347219Y-62491966D01*
X159491966Y-62347219D01*
X159491968Y-62347215D01*
X159491971Y-62347213D01*
X159550613Y-62266498D01*
X159612287Y-62181610D01*
X159705220Y-61999219D01*
X159768477Y-61804534D01*
X159800500Y-61602352D01*
X159800500Y-61397648D01*
X164819500Y-61397648D01*
X164819500Y-61602351D01*
X164851522Y-61804534D01*
X164914781Y-61999223D01*
X165007715Y-62181613D01*
X165128028Y-62347213D01*
X165272786Y-62491971D01*
X165392359Y-62578844D01*
X165438390Y-62612287D01*
X165554607Y-62671503D01*
X165620776Y-62705218D01*
X165620778Y-62705218D01*
X165620781Y-62705220D01*
X165707784Y-62733489D01*
X165815465Y-62768477D01*
X165843555Y-62772926D01*
X166017648Y-62800500D01*
X166017649Y-62800500D01*
X166222351Y-62800500D01*
X166222352Y-62800500D01*
X166424534Y-62768477D01*
X166619219Y-62705220D01*
X166801610Y-62612287D01*
X166948638Y-62505466D01*
X166967213Y-62491971D01*
X166967215Y-62491968D01*
X166967219Y-62491966D01*
X167111966Y-62347219D01*
X167111968Y-62347215D01*
X167111971Y-62347213D01*
X167170613Y-62266498D01*
X167232287Y-62181610D01*
X167325220Y-61999219D01*
X167388477Y-61804534D01*
X167420500Y-61602352D01*
X167420500Y-61397648D01*
X167404697Y-61297872D01*
X167388477Y-61195465D01*
X167325218Y-61000776D01*
X167269430Y-60891287D01*
X167232287Y-60818390D01*
X167224556Y-60807749D01*
X167111971Y-60652786D01*
X166967213Y-60508028D01*
X166801613Y-60387715D01*
X166801612Y-60387714D01*
X166801610Y-60387713D01*
X166744653Y-60358691D01*
X166619223Y-60294781D01*
X166424534Y-60231522D01*
X166249995Y-60203878D01*
X166222352Y-60199500D01*
X166017648Y-60199500D01*
X165993329Y-60203351D01*
X165815465Y-60231522D01*
X165620776Y-60294781D01*
X165438386Y-60387715D01*
X165272786Y-60508028D01*
X165128028Y-60652786D01*
X165007715Y-60818386D01*
X164914781Y-61000776D01*
X164851522Y-61195465D01*
X164819500Y-61397648D01*
X159800500Y-61397648D01*
X159784697Y-61297872D01*
X159768477Y-61195465D01*
X159705218Y-61000776D01*
X159649430Y-60891287D01*
X159612287Y-60818390D01*
X159604556Y-60807749D01*
X159491971Y-60652786D01*
X159347213Y-60508028D01*
X159181613Y-60387715D01*
X159181612Y-60387714D01*
X159181610Y-60387713D01*
X159124653Y-60358691D01*
X158999223Y-60294781D01*
X158804534Y-60231522D01*
X158629995Y-60203878D01*
X158602352Y-60199500D01*
X158397648Y-60199500D01*
X158373329Y-60203351D01*
X158195465Y-60231522D01*
X158000776Y-60294781D01*
X157818386Y-60387715D01*
X157652786Y-60508028D01*
X157508028Y-60652786D01*
X157387715Y-60818386D01*
X157294781Y-61000776D01*
X157231522Y-61195465D01*
X157199500Y-61397648D01*
X150844726Y-61397648D01*
X153321221Y-58921153D01*
X164199500Y-58921153D01*
X164199500Y-59078846D01*
X164230261Y-59233489D01*
X164230264Y-59233501D01*
X164290602Y-59379172D01*
X164290609Y-59379185D01*
X164378210Y-59510288D01*
X164378213Y-59510292D01*
X164489707Y-59621786D01*
X164489711Y-59621789D01*
X164620814Y-59709390D01*
X164620827Y-59709397D01*
X164766498Y-59769735D01*
X164766503Y-59769737D01*
X164921153Y-59800499D01*
X164921156Y-59800500D01*
X164921158Y-59800500D01*
X165078844Y-59800500D01*
X165078845Y-59800499D01*
X165233497Y-59769737D01*
X165379179Y-59709394D01*
X165510289Y-59621789D01*
X165621789Y-59510289D01*
X165709394Y-59379179D01*
X165769737Y-59233497D01*
X165800500Y-59078842D01*
X165800500Y-58921158D01*
X165800500Y-58921155D01*
X165800499Y-58921153D01*
X166699500Y-58921153D01*
X166699500Y-59078846D01*
X166730261Y-59233489D01*
X166730264Y-59233501D01*
X166790602Y-59379172D01*
X166790609Y-59379185D01*
X166878210Y-59510288D01*
X166878213Y-59510292D01*
X166989707Y-59621786D01*
X166989711Y-59621789D01*
X167120814Y-59709390D01*
X167120827Y-59709397D01*
X167266498Y-59769735D01*
X167266503Y-59769737D01*
X167421153Y-59800499D01*
X167421156Y-59800500D01*
X167421158Y-59800500D01*
X167578844Y-59800500D01*
X167578845Y-59800499D01*
X167733497Y-59769737D01*
X167879179Y-59709394D01*
X168010289Y-59621789D01*
X168121789Y-59510289D01*
X168209394Y-59379179D01*
X168269737Y-59233497D01*
X168300500Y-59078842D01*
X168300500Y-58921158D01*
X168300500Y-58921155D01*
X168300499Y-58921153D01*
X169199500Y-58921153D01*
X169199500Y-59078846D01*
X169230261Y-59233489D01*
X169230264Y-59233501D01*
X169290602Y-59379172D01*
X169290609Y-59379185D01*
X169378210Y-59510288D01*
X169378213Y-59510292D01*
X169489707Y-59621786D01*
X169489711Y-59621789D01*
X169620814Y-59709390D01*
X169620827Y-59709397D01*
X169766498Y-59769735D01*
X169766503Y-59769737D01*
X169921153Y-59800499D01*
X169921156Y-59800500D01*
X169921158Y-59800500D01*
X170078844Y-59800500D01*
X170078845Y-59800499D01*
X170233497Y-59769737D01*
X170379179Y-59709394D01*
X170510289Y-59621789D01*
X170621789Y-59510289D01*
X170709394Y-59379179D01*
X170769737Y-59233497D01*
X170800500Y-59078842D01*
X170800500Y-58921158D01*
X170800500Y-58921155D01*
X170800499Y-58921153D01*
X170783244Y-58834409D01*
X170769737Y-58766503D01*
X170709794Y-58621786D01*
X170709397Y-58620827D01*
X170709390Y-58620814D01*
X170621789Y-58489711D01*
X170621786Y-58489707D01*
X170510292Y-58378213D01*
X170510288Y-58378210D01*
X170379185Y-58290609D01*
X170379172Y-58290602D01*
X170233501Y-58230264D01*
X170233489Y-58230261D01*
X170078845Y-58199500D01*
X170078842Y-58199500D01*
X169921158Y-58199500D01*
X169921155Y-58199500D01*
X169766510Y-58230261D01*
X169766498Y-58230264D01*
X169620827Y-58290602D01*
X169620814Y-58290609D01*
X169489711Y-58378210D01*
X169489707Y-58378213D01*
X169378213Y-58489707D01*
X169378210Y-58489711D01*
X169290609Y-58620814D01*
X169290602Y-58620827D01*
X169230264Y-58766498D01*
X169230261Y-58766510D01*
X169199500Y-58921153D01*
X168300499Y-58921153D01*
X168283244Y-58834409D01*
X168269737Y-58766503D01*
X168209794Y-58621786D01*
X168209397Y-58620827D01*
X168209390Y-58620814D01*
X168121789Y-58489711D01*
X168121786Y-58489707D01*
X168010292Y-58378213D01*
X168010288Y-58378210D01*
X167879185Y-58290609D01*
X167879172Y-58290602D01*
X167733501Y-58230264D01*
X167733489Y-58230261D01*
X167578845Y-58199500D01*
X167578842Y-58199500D01*
X167421158Y-58199500D01*
X167421155Y-58199500D01*
X167266510Y-58230261D01*
X167266498Y-58230264D01*
X167120827Y-58290602D01*
X167120814Y-58290609D01*
X166989711Y-58378210D01*
X166989707Y-58378213D01*
X166878213Y-58489707D01*
X166878210Y-58489711D01*
X166790609Y-58620814D01*
X166790602Y-58620827D01*
X166730264Y-58766498D01*
X166730261Y-58766510D01*
X166699500Y-58921153D01*
X165800499Y-58921153D01*
X165783244Y-58834409D01*
X165769737Y-58766503D01*
X165709794Y-58621786D01*
X165709397Y-58620827D01*
X165709390Y-58620814D01*
X165621789Y-58489711D01*
X165621786Y-58489707D01*
X165510292Y-58378213D01*
X165510288Y-58378210D01*
X165379185Y-58290609D01*
X165379172Y-58290602D01*
X165233501Y-58230264D01*
X165233489Y-58230261D01*
X165078845Y-58199500D01*
X165078842Y-58199500D01*
X164921158Y-58199500D01*
X164921155Y-58199500D01*
X164766510Y-58230261D01*
X164766498Y-58230264D01*
X164620827Y-58290602D01*
X164620814Y-58290609D01*
X164489711Y-58378210D01*
X164489707Y-58378213D01*
X164378213Y-58489707D01*
X164378210Y-58489711D01*
X164290609Y-58620814D01*
X164290602Y-58620827D01*
X164230264Y-58766498D01*
X164230261Y-58766510D01*
X164199500Y-58921153D01*
X153321221Y-58921153D01*
X154321221Y-57921153D01*
X155699500Y-57921153D01*
X155699500Y-58078846D01*
X155730261Y-58233489D01*
X155730264Y-58233501D01*
X155790602Y-58379172D01*
X155790609Y-58379185D01*
X155878210Y-58510288D01*
X155878213Y-58510292D01*
X155989707Y-58621786D01*
X155989711Y-58621789D01*
X156120814Y-58709390D01*
X156120827Y-58709397D01*
X156258683Y-58766498D01*
X156266503Y-58769737D01*
X156421153Y-58800499D01*
X156421156Y-58800500D01*
X156421158Y-58800500D01*
X156578844Y-58800500D01*
X156578845Y-58800499D01*
X156589179Y-58798443D01*
X156614287Y-58793450D01*
X156614292Y-58793449D01*
X156699800Y-58776439D01*
X156733497Y-58769737D01*
X156879179Y-58709394D01*
X157010289Y-58621789D01*
X157121789Y-58510289D01*
X157209394Y-58379179D01*
X157269737Y-58233497D01*
X157300500Y-58078842D01*
X157300500Y-57921158D01*
X157300500Y-57921155D01*
X157300499Y-57921153D01*
X157269738Y-57766510D01*
X157269737Y-57766503D01*
X157269735Y-57766498D01*
X157209397Y-57620827D01*
X157209390Y-57620814D01*
X157121789Y-57489711D01*
X157121786Y-57489707D01*
X157010292Y-57378213D01*
X157010288Y-57378210D01*
X156879185Y-57290609D01*
X156879172Y-57290602D01*
X156733501Y-57230264D01*
X156733489Y-57230261D01*
X156578845Y-57199500D01*
X156578842Y-57199500D01*
X156421158Y-57199500D01*
X156421155Y-57199500D01*
X156266510Y-57230261D01*
X156266498Y-57230264D01*
X156120827Y-57290602D01*
X156120814Y-57290609D01*
X155989711Y-57378210D01*
X155989707Y-57378213D01*
X155878213Y-57489707D01*
X155878210Y-57489711D01*
X155790609Y-57620814D01*
X155790602Y-57620827D01*
X155730264Y-57766498D01*
X155730261Y-57766510D01*
X155699500Y-57921153D01*
X154321221Y-57921153D01*
X155959506Y-56282868D01*
X155959511Y-56282864D01*
X155969714Y-56272660D01*
X155969716Y-56272660D01*
X156081520Y-56160856D01*
X156109623Y-56112180D01*
X156142110Y-56055911D01*
X156142113Y-56055902D01*
X156142119Y-56055894D01*
X156160577Y-56023925D01*
X156201501Y-55871197D01*
X156201501Y-55713083D01*
X156201501Y-55705488D01*
X156201500Y-55705470D01*
X156201500Y-55397648D01*
X157079500Y-55397648D01*
X157079500Y-55602351D01*
X157111522Y-55804534D01*
X157174781Y-55999223D01*
X157238691Y-56124653D01*
X157257138Y-56160856D01*
X157267715Y-56181613D01*
X157388028Y-56347213D01*
X157532786Y-56491971D01*
X157687749Y-56604556D01*
X157698390Y-56612287D01*
X157814607Y-56671503D01*
X157880776Y-56705218D01*
X157880778Y-56705218D01*
X157880781Y-56705220D01*
X157985137Y-56739127D01*
X158075465Y-56768477D01*
X158176557Y-56784488D01*
X158277648Y-56800500D01*
X158277649Y-56800500D01*
X158482351Y-56800500D01*
X158482352Y-56800500D01*
X158684534Y-56768477D01*
X158879219Y-56705220D01*
X159061610Y-56612287D01*
X159154590Y-56544732D01*
X159227213Y-56491971D01*
X159227215Y-56491968D01*
X159227219Y-56491966D01*
X159371966Y-56347219D01*
X159371968Y-56347215D01*
X159371971Y-56347213D01*
X159426136Y-56272660D01*
X159492287Y-56181610D01*
X159585220Y-55999219D01*
X159648477Y-55804534D01*
X159680500Y-55602352D01*
X159680500Y-55397648D01*
X164699500Y-55397648D01*
X164699500Y-55602351D01*
X164731522Y-55804534D01*
X164794781Y-55999223D01*
X164858691Y-56124653D01*
X164877138Y-56160856D01*
X164887715Y-56181613D01*
X165008028Y-56347213D01*
X165152786Y-56491971D01*
X165307749Y-56604556D01*
X165318390Y-56612287D01*
X165434607Y-56671503D01*
X165500776Y-56705218D01*
X165500778Y-56705218D01*
X165500781Y-56705220D01*
X165605137Y-56739127D01*
X165695465Y-56768477D01*
X165796557Y-56784488D01*
X165897648Y-56800500D01*
X165897649Y-56800500D01*
X166102351Y-56800500D01*
X166102352Y-56800500D01*
X166304534Y-56768477D01*
X166499219Y-56705220D01*
X166681610Y-56612287D01*
X166774590Y-56544732D01*
X166847213Y-56491971D01*
X166847215Y-56491968D01*
X166847219Y-56491966D01*
X166991966Y-56347219D01*
X166991968Y-56347215D01*
X166991971Y-56347213D01*
X167046136Y-56272660D01*
X167112287Y-56181610D01*
X167205220Y-55999219D01*
X167268477Y-55804534D01*
X167300500Y-55602352D01*
X167300500Y-55397648D01*
X167268477Y-55195465D01*
X167205218Y-55000776D01*
X167139169Y-54871149D01*
X167112287Y-54818390D01*
X167033730Y-54710264D01*
X166991971Y-54652786D01*
X166847213Y-54508028D01*
X166681613Y-54387715D01*
X166681612Y-54387714D01*
X166681610Y-54387713D01*
X166624653Y-54358691D01*
X166499223Y-54294781D01*
X166304534Y-54231522D01*
X166129995Y-54203878D01*
X166102352Y-54199500D01*
X165897648Y-54199500D01*
X165873329Y-54203351D01*
X165695465Y-54231522D01*
X165500776Y-54294781D01*
X165318386Y-54387715D01*
X165152786Y-54508028D01*
X165008028Y-54652786D01*
X164887715Y-54818386D01*
X164794781Y-55000776D01*
X164731522Y-55195465D01*
X164699500Y-55397648D01*
X159680500Y-55397648D01*
X159648477Y-55195465D01*
X159585218Y-55000776D01*
X159519169Y-54871149D01*
X159492287Y-54818390D01*
X159413730Y-54710264D01*
X159371971Y-54652786D01*
X159227213Y-54508028D01*
X159061613Y-54387715D01*
X159061612Y-54387714D01*
X159061610Y-54387713D01*
X159004653Y-54358691D01*
X158879223Y-54294781D01*
X158684534Y-54231522D01*
X158509995Y-54203878D01*
X158482352Y-54199500D01*
X158277648Y-54199500D01*
X158253329Y-54203351D01*
X158075465Y-54231522D01*
X157880776Y-54294781D01*
X157698386Y-54387715D01*
X157532786Y-54508028D01*
X157388028Y-54652786D01*
X157267715Y-54818386D01*
X157174781Y-55000776D01*
X157111522Y-55195465D01*
X157079500Y-55397648D01*
X156201500Y-55397648D01*
X156201500Y-51921153D01*
X156699500Y-51921153D01*
X156699500Y-52078846D01*
X156730261Y-52233489D01*
X156730264Y-52233501D01*
X156790602Y-52379172D01*
X156790609Y-52379185D01*
X156878210Y-52510288D01*
X156878213Y-52510292D01*
X156989707Y-52621786D01*
X156989711Y-52621789D01*
X157120814Y-52709390D01*
X157120827Y-52709397D01*
X157266498Y-52769735D01*
X157266503Y-52769737D01*
X157421153Y-52800499D01*
X157421156Y-52800500D01*
X157421158Y-52800500D01*
X157578844Y-52800500D01*
X157578845Y-52800499D01*
X157733497Y-52769737D01*
X157879179Y-52709394D01*
X158010289Y-52621789D01*
X158121789Y-52510289D01*
X158209394Y-52379179D01*
X158269737Y-52233497D01*
X158300500Y-52078842D01*
X158300500Y-51921158D01*
X158300500Y-51921155D01*
X158300499Y-51921153D01*
X159199500Y-51921153D01*
X159199500Y-52078846D01*
X159230261Y-52233489D01*
X159230264Y-52233501D01*
X159290602Y-52379172D01*
X159290609Y-52379185D01*
X159378210Y-52510288D01*
X159378213Y-52510292D01*
X159489707Y-52621786D01*
X159489711Y-52621789D01*
X159620814Y-52709390D01*
X159620827Y-52709397D01*
X159766498Y-52769735D01*
X159766503Y-52769737D01*
X159921153Y-52800499D01*
X159921156Y-52800500D01*
X159921158Y-52800500D01*
X160078844Y-52800500D01*
X160078845Y-52800499D01*
X160233497Y-52769737D01*
X160379179Y-52709394D01*
X160510289Y-52621789D01*
X160621789Y-52510289D01*
X160681348Y-52421153D01*
X166699500Y-52421153D01*
X166699500Y-52578846D01*
X166730261Y-52733489D01*
X166730264Y-52733501D01*
X166790602Y-52879172D01*
X166790609Y-52879185D01*
X166878210Y-53010288D01*
X166878213Y-53010292D01*
X166989707Y-53121786D01*
X166989711Y-53121789D01*
X167120814Y-53209390D01*
X167120827Y-53209397D01*
X167266498Y-53269735D01*
X167266503Y-53269737D01*
X167421153Y-53300499D01*
X167421156Y-53300500D01*
X167421158Y-53300500D01*
X167578844Y-53300500D01*
X167578845Y-53300499D01*
X167733497Y-53269737D01*
X167879179Y-53209394D01*
X168010289Y-53121789D01*
X168121789Y-53010289D01*
X168209394Y-52879179D01*
X168269737Y-52733497D01*
X168300500Y-52578842D01*
X168300500Y-52421158D01*
X168300500Y-52421155D01*
X168300499Y-52421153D01*
X168283244Y-52334409D01*
X168269737Y-52266503D01*
X168246080Y-52209390D01*
X168209397Y-52120827D01*
X168209390Y-52120814D01*
X168121789Y-51989711D01*
X168121786Y-51989707D01*
X168010292Y-51878213D01*
X168010288Y-51878210D01*
X167879185Y-51790609D01*
X167879172Y-51790602D01*
X167733501Y-51730264D01*
X167733489Y-51730261D01*
X167578845Y-51699500D01*
X167578842Y-51699500D01*
X167421158Y-51699500D01*
X167421155Y-51699500D01*
X167266510Y-51730261D01*
X167266498Y-51730264D01*
X167120827Y-51790602D01*
X167120814Y-51790609D01*
X166989711Y-51878210D01*
X166989707Y-51878213D01*
X166878213Y-51989707D01*
X166878210Y-51989711D01*
X166790609Y-52120814D01*
X166790602Y-52120827D01*
X166730264Y-52266498D01*
X166730261Y-52266510D01*
X166699500Y-52421153D01*
X160681348Y-52421153D01*
X160709394Y-52379179D01*
X160769737Y-52233497D01*
X160800500Y-52078842D01*
X160800500Y-51921158D01*
X160800500Y-51921155D01*
X160800499Y-51921153D01*
X160782717Y-51831758D01*
X160769737Y-51766503D01*
X160756062Y-51733489D01*
X160709397Y-51620827D01*
X160709390Y-51620814D01*
X160621789Y-51489711D01*
X160621786Y-51489707D01*
X160510292Y-51378213D01*
X160510288Y-51378210D01*
X160379185Y-51290609D01*
X160379172Y-51290602D01*
X160233501Y-51230264D01*
X160233489Y-51230261D01*
X160078845Y-51199500D01*
X160078842Y-51199500D01*
X159921158Y-51199500D01*
X159921155Y-51199500D01*
X159766510Y-51230261D01*
X159766498Y-51230264D01*
X159620827Y-51290602D01*
X159620814Y-51290609D01*
X159489711Y-51378210D01*
X159489707Y-51378213D01*
X159378213Y-51489707D01*
X159378210Y-51489711D01*
X159290609Y-51620814D01*
X159290602Y-51620827D01*
X159230264Y-51766498D01*
X159230261Y-51766510D01*
X159199500Y-51921153D01*
X158300499Y-51921153D01*
X158282717Y-51831758D01*
X158269737Y-51766503D01*
X158256062Y-51733489D01*
X158209397Y-51620827D01*
X158209390Y-51620814D01*
X158121789Y-51489711D01*
X158121786Y-51489707D01*
X158010292Y-51378213D01*
X158010288Y-51378210D01*
X157879185Y-51290609D01*
X157879172Y-51290602D01*
X157733501Y-51230264D01*
X157733489Y-51230261D01*
X157578845Y-51199500D01*
X157578842Y-51199500D01*
X157421158Y-51199500D01*
X157421155Y-51199500D01*
X157266510Y-51230261D01*
X157266498Y-51230264D01*
X157120827Y-51290602D01*
X157120814Y-51290609D01*
X156989711Y-51378210D01*
X156989707Y-51378213D01*
X156878213Y-51489707D01*
X156878210Y-51489711D01*
X156790609Y-51620814D01*
X156790602Y-51620827D01*
X156730264Y-51766498D01*
X156730261Y-51766510D01*
X156699500Y-51921153D01*
X156201500Y-51921153D01*
X156201500Y-41840307D01*
X156207569Y-41801988D01*
X156229824Y-41733497D01*
X156268477Y-41614534D01*
X156300500Y-41412352D01*
X156300500Y-41207648D01*
X156283017Y-41097268D01*
X156268477Y-41005465D01*
X156227444Y-40879179D01*
X156205220Y-40810781D01*
X156205218Y-40810778D01*
X156205218Y-40810776D01*
X156148519Y-40699500D01*
X156112287Y-40628390D01*
X156104556Y-40617749D01*
X155991971Y-40462786D01*
X155847213Y-40318028D01*
X155681613Y-40197715D01*
X155681612Y-40197714D01*
X155681610Y-40197713D01*
X155624653Y-40168691D01*
X155499223Y-40104781D01*
X155304534Y-40041522D01*
X155129995Y-40013878D01*
X155102352Y-40009500D01*
X154897648Y-40009500D01*
X154873329Y-40013351D01*
X154695465Y-40041522D01*
X154500776Y-40104781D01*
X154318386Y-40197715D01*
X154152786Y-40318028D01*
X154008028Y-40462786D01*
X153887715Y-40628386D01*
X153794781Y-40810776D01*
X153731522Y-41005465D01*
X153699500Y-41207648D01*
X153699500Y-41412351D01*
X153731522Y-41614534D01*
X153794781Y-41809223D01*
X153887715Y-41991613D01*
X154008028Y-42157213D01*
X154152786Y-42301971D01*
X154307749Y-42414556D01*
X154318390Y-42422287D01*
X154434607Y-42481503D01*
X154500776Y-42515218D01*
X154500778Y-42515218D01*
X154500781Y-42515220D01*
X154695466Y-42578477D01*
X154895900Y-42610223D01*
X154959032Y-42640151D01*
X154995964Y-42699462D01*
X155000500Y-42732695D01*
X155000500Y-53814524D01*
X154980815Y-53881563D01*
X154928011Y-53927318D01*
X154858853Y-53937262D01*
X154838183Y-53932455D01*
X154804542Y-53921524D01*
X154804535Y-53921523D01*
X154703443Y-53905511D01*
X154602352Y-53889500D01*
X154397648Y-53889500D01*
X154357211Y-53895904D01*
X154195462Y-53921523D01*
X154195460Y-53921523D01*
X154181149Y-53926173D01*
X154111308Y-53928164D01*
X154055157Y-53895921D01*
X151580389Y-51421153D01*
X152699500Y-51421153D01*
X152699500Y-51578846D01*
X152730261Y-51733489D01*
X152730264Y-51733501D01*
X152790602Y-51879172D01*
X152790609Y-51879185D01*
X152878210Y-52010288D01*
X152878213Y-52010292D01*
X152989707Y-52121786D01*
X152989711Y-52121789D01*
X153120814Y-52209390D01*
X153120827Y-52209397D01*
X153258683Y-52266498D01*
X153266503Y-52269737D01*
X153421153Y-52300499D01*
X153421156Y-52300500D01*
X153421158Y-52300500D01*
X153578844Y-52300500D01*
X153578845Y-52300499D01*
X153733497Y-52269737D01*
X153879179Y-52209394D01*
X154010289Y-52121789D01*
X154121789Y-52010289D01*
X154209394Y-51879179D01*
X154269737Y-51733497D01*
X154300500Y-51578842D01*
X154300500Y-51421158D01*
X154300500Y-51421155D01*
X154300499Y-51421153D01*
X154274531Y-51290606D01*
X154269737Y-51266503D01*
X154269735Y-51266498D01*
X154209397Y-51120827D01*
X154209390Y-51120814D01*
X154121789Y-50989711D01*
X154121786Y-50989707D01*
X154010292Y-50878213D01*
X154010288Y-50878210D01*
X153879185Y-50790609D01*
X153879172Y-50790602D01*
X153733501Y-50730264D01*
X153733489Y-50730261D01*
X153578845Y-50699500D01*
X153578842Y-50699500D01*
X153421158Y-50699500D01*
X153421155Y-50699500D01*
X153266510Y-50730261D01*
X153266498Y-50730264D01*
X153120827Y-50790602D01*
X153120814Y-50790609D01*
X152989711Y-50878210D01*
X152989707Y-50878213D01*
X152878213Y-50989707D01*
X152878210Y-50989711D01*
X152790609Y-51120814D01*
X152790602Y-51120827D01*
X152730264Y-51266498D01*
X152730261Y-51266510D01*
X152699500Y-51421153D01*
X151580389Y-51421153D01*
X147636819Y-47477583D01*
X147603334Y-47416260D01*
X147600500Y-47389902D01*
X147600500Y-46421153D01*
X152199500Y-46421153D01*
X152199500Y-46578846D01*
X152230261Y-46733489D01*
X152230264Y-46733501D01*
X152290602Y-46879172D01*
X152290609Y-46879185D01*
X152378210Y-47010288D01*
X152378213Y-47010292D01*
X152489707Y-47121786D01*
X152489711Y-47121789D01*
X152620814Y-47209390D01*
X152620827Y-47209397D01*
X152758683Y-47266498D01*
X152766503Y-47269737D01*
X152921153Y-47300499D01*
X152921156Y-47300500D01*
X152921158Y-47300500D01*
X153078844Y-47300500D01*
X153078845Y-47300499D01*
X153233497Y-47269737D01*
X153379179Y-47209394D01*
X153510289Y-47121789D01*
X153621789Y-47010289D01*
X153709394Y-46879179D01*
X153769737Y-46733497D01*
X153800500Y-46578842D01*
X153800500Y-46421158D01*
X153800500Y-46421155D01*
X153800499Y-46421153D01*
X153783244Y-46334409D01*
X153769737Y-46266503D01*
X153769735Y-46266498D01*
X153709397Y-46120827D01*
X153709390Y-46120814D01*
X153621789Y-45989711D01*
X153621786Y-45989707D01*
X153510292Y-45878213D01*
X153510288Y-45878210D01*
X153379185Y-45790609D01*
X153379172Y-45790602D01*
X153233501Y-45730264D01*
X153233489Y-45730261D01*
X153078845Y-45699500D01*
X153078842Y-45699500D01*
X152921158Y-45699500D01*
X152921155Y-45699500D01*
X152766510Y-45730261D01*
X152766498Y-45730264D01*
X152620827Y-45790602D01*
X152620814Y-45790609D01*
X152489711Y-45878210D01*
X152489707Y-45878213D01*
X152378213Y-45989707D01*
X152378210Y-45989711D01*
X152290609Y-46120814D01*
X152290602Y-46120827D01*
X152230264Y-46266498D01*
X152230261Y-46266510D01*
X152199500Y-46421153D01*
X147600500Y-46421153D01*
X147600500Y-46024499D01*
X147620185Y-45957460D01*
X147672989Y-45911705D01*
X147724500Y-45900499D01*
X147947871Y-45900499D01*
X147947872Y-45900499D01*
X148007483Y-45894091D01*
X148142331Y-45843796D01*
X148257546Y-45757546D01*
X148343796Y-45642331D01*
X148356335Y-45608712D01*
X148373601Y-45562420D01*
X148415471Y-45506486D01*
X148480936Y-45482068D01*
X148549209Y-45496919D01*
X148577464Y-45518071D01*
X148627636Y-45568243D01*
X148627641Y-45568247D01*
X148729603Y-45642326D01*
X148805978Y-45697815D01*
X148934375Y-45763237D01*
X149002393Y-45797895D01*
X149002396Y-45797896D01*
X149061951Y-45817246D01*
X149212049Y-45866015D01*
X149429778Y-45900500D01*
X149429779Y-45900500D01*
X149650221Y-45900500D01*
X149650222Y-45900500D01*
X149867951Y-45866015D01*
X150077606Y-45797895D01*
X150274022Y-45697815D01*
X150452365Y-45568242D01*
X150608242Y-45412365D01*
X150737815Y-45234022D01*
X150837895Y-45037606D01*
X150906015Y-44827951D01*
X150940500Y-44610222D01*
X150940500Y-44389778D01*
X150906015Y-44172049D01*
X150850145Y-44000097D01*
X150837896Y-43962396D01*
X150837895Y-43962393D01*
X150790976Y-43870311D01*
X150737815Y-43765978D01*
X150679501Y-43685715D01*
X150608247Y-43587641D01*
X150608243Y-43587636D01*
X150452363Y-43431756D01*
X150452358Y-43431752D01*
X150274025Y-43302187D01*
X150274024Y-43302186D01*
X150274022Y-43302185D01*
X150211096Y-43270122D01*
X150077606Y-43202104D01*
X150077603Y-43202103D01*
X149867952Y-43133985D01*
X149759086Y-43116742D01*
X149650222Y-43099500D01*
X149429778Y-43099500D01*
X149357201Y-43110995D01*
X149212047Y-43133985D01*
X149002396Y-43202103D01*
X149002393Y-43202104D01*
X148805974Y-43302187D01*
X148627641Y-43431752D01*
X148627636Y-43431756D01*
X148577463Y-43481929D01*
X148516140Y-43515413D01*
X148446448Y-43510428D01*
X148390515Y-43468557D01*
X148373601Y-43437580D01*
X148343797Y-43357671D01*
X148343793Y-43357664D01*
X148257547Y-43242455D01*
X148257544Y-43242452D01*
X148142335Y-43156206D01*
X148142328Y-43156202D01*
X148007482Y-43105908D01*
X148007483Y-43105908D01*
X147947883Y-43099501D01*
X147947881Y-43099500D01*
X147947873Y-43099500D01*
X147947865Y-43099500D01*
X146500097Y-43099500D01*
X146470656Y-43090855D01*
X146440670Y-43084332D01*
X146435654Y-43080577D01*
X146433058Y-43079815D01*
X146412416Y-43063181D01*
X146395819Y-43046584D01*
X146362334Y-42985261D01*
X146359500Y-42958903D01*
X146359500Y-37024499D01*
X146379185Y-36957460D01*
X146431989Y-36911705D01*
X146483500Y-36900499D01*
X147459902Y-36900499D01*
X147526941Y-36920184D01*
X147547583Y-36936818D01*
X147676139Y-37065374D01*
X147676149Y-37065385D01*
X147680479Y-37069715D01*
X147680480Y-37069716D01*
X147792284Y-37181520D01*
X147792286Y-37181521D01*
X147792290Y-37181524D01*
X147929209Y-37260573D01*
X147929216Y-37260577D01*
X148041019Y-37290534D01*
X148081942Y-37301500D01*
X148081943Y-37301500D01*
X154400903Y-37301500D01*
X154467942Y-37321185D01*
X154488584Y-37337819D01*
X176173181Y-59022416D01*
X176206666Y-59083739D01*
X176209500Y-59110097D01*
X176209500Y-60270397D01*
X176189815Y-60337436D01*
X176141800Y-60380879D01*
X176128389Y-60387712D01*
X175962786Y-60508028D01*
X175818028Y-60652786D01*
X175697715Y-60818386D01*
X175604781Y-61000776D01*
X175541522Y-61195465D01*
X175509500Y-61397648D01*
X175509500Y-61602351D01*
X175541523Y-61804535D01*
X175541524Y-61804542D01*
X175552455Y-61838183D01*
X175554450Y-61908024D01*
X175518369Y-61967856D01*
X175455668Y-61998684D01*
X175434524Y-62000500D01*
X170591097Y-62000500D01*
X170561656Y-61991855D01*
X170531670Y-61985332D01*
X170526654Y-61981577D01*
X170524058Y-61980815D01*
X170503416Y-61964181D01*
X170484077Y-61944842D01*
X170450592Y-61883519D01*
X170453828Y-61818841D01*
X170458477Y-61804534D01*
X170490500Y-61602352D01*
X170490500Y-61397648D01*
X170474697Y-61297872D01*
X170458477Y-61195465D01*
X170395218Y-61000776D01*
X170339430Y-60891287D01*
X170302287Y-60818390D01*
X170294556Y-60807749D01*
X170181971Y-60652786D01*
X170037213Y-60508028D01*
X169871613Y-60387715D01*
X169871612Y-60387714D01*
X169871610Y-60387713D01*
X169814653Y-60358691D01*
X169689223Y-60294781D01*
X169494534Y-60231522D01*
X169319995Y-60203878D01*
X169292352Y-60199500D01*
X169087648Y-60199500D01*
X169063329Y-60203351D01*
X168885465Y-60231522D01*
X168690776Y-60294781D01*
X168508386Y-60387715D01*
X168342786Y-60508028D01*
X168198028Y-60652786D01*
X168077715Y-60818386D01*
X167984781Y-61000776D01*
X167921522Y-61195465D01*
X167889500Y-61397648D01*
X167889500Y-61602351D01*
X167921522Y-61804534D01*
X167984781Y-61999223D01*
X168077715Y-62181613D01*
X168198028Y-62347213D01*
X168342786Y-62491971D01*
X168462359Y-62578844D01*
X168508390Y-62612287D01*
X168624607Y-62671503D01*
X168690776Y-62705218D01*
X168690778Y-62705218D01*
X168690781Y-62705220D01*
X168777784Y-62733489D01*
X168885465Y-62768477D01*
X168913555Y-62772926D01*
X169087648Y-62800500D01*
X169087649Y-62800500D01*
X169292351Y-62800500D01*
X169292352Y-62800500D01*
X169494534Y-62768477D01*
X169508842Y-62763827D01*
X169524054Y-62763392D01*
X169538315Y-62758074D01*
X169558268Y-62762414D01*
X169578682Y-62761831D01*
X169592769Y-62769920D01*
X169606588Y-62772926D01*
X169634842Y-62794077D01*
X169806139Y-62965374D01*
X169806149Y-62965385D01*
X169810479Y-62969715D01*
X169810480Y-62969716D01*
X169922284Y-63081520D01*
X169990356Y-63120821D01*
X170059215Y-63160577D01*
X170211943Y-63201500D01*
X180812331Y-63201500D01*
X180812347Y-63201501D01*
X180819943Y-63201501D01*
X180978054Y-63201501D01*
X180978057Y-63201501D01*
X181130785Y-63160577D01*
X181199644Y-63120821D01*
X181267716Y-63081520D01*
X181379520Y-62969716D01*
X181379520Y-62969714D01*
X181389724Y-62959511D01*
X181389728Y-62959506D01*
X181928081Y-62421153D01*
X186699500Y-62421153D01*
X186699500Y-62578846D01*
X186730261Y-62733489D01*
X186730264Y-62733501D01*
X186790602Y-62879172D01*
X186790609Y-62879185D01*
X186878210Y-63010288D01*
X186878213Y-63010292D01*
X186989707Y-63121786D01*
X186989711Y-63121789D01*
X187120814Y-63209390D01*
X187120827Y-63209397D01*
X187258683Y-63266498D01*
X187266503Y-63269737D01*
X187421153Y-63300499D01*
X187421156Y-63300500D01*
X187421158Y-63300500D01*
X187578844Y-63300500D01*
X187578845Y-63300499D01*
X187733497Y-63269737D01*
X187879179Y-63209394D01*
X188010289Y-63121789D01*
X188121789Y-63010289D01*
X188209394Y-62879179D01*
X188269737Y-62733497D01*
X188300500Y-62578842D01*
X188300500Y-62421158D01*
X188300500Y-62421155D01*
X188300499Y-62421153D01*
X188269737Y-62266503D01*
X188234575Y-62181613D01*
X188209397Y-62120827D01*
X188209390Y-62120814D01*
X188121789Y-61989711D01*
X188121786Y-61989707D01*
X188010292Y-61878213D01*
X188010288Y-61878210D01*
X187879185Y-61790609D01*
X187879172Y-61790602D01*
X187733501Y-61730264D01*
X187733489Y-61730261D01*
X187578845Y-61699500D01*
X187578842Y-61699500D01*
X187421158Y-61699500D01*
X187421155Y-61699500D01*
X187266510Y-61730261D01*
X187266498Y-61730264D01*
X187120827Y-61790602D01*
X187120814Y-61790609D01*
X186989711Y-61878210D01*
X186989707Y-61878213D01*
X186878213Y-61989707D01*
X186878210Y-61989711D01*
X186790609Y-62120814D01*
X186790602Y-62120827D01*
X186730264Y-62266498D01*
X186730261Y-62266510D01*
X186699500Y-62421153D01*
X181928081Y-62421153D01*
X182907787Y-61441446D01*
X182969108Y-61407963D01*
X183038800Y-61412947D01*
X183072776Y-61432180D01*
X183108711Y-61460838D01*
X183337003Y-61604284D01*
X183579921Y-61721267D01*
X183713417Y-61767979D01*
X183834397Y-61810312D01*
X183834405Y-61810315D01*
X183834408Y-61810315D01*
X183834409Y-61810316D01*
X184097268Y-61870312D01*
X184365187Y-61900499D01*
X184365188Y-61900500D01*
X184365191Y-61900500D01*
X184634812Y-61900500D01*
X184634812Y-61900499D01*
X184902732Y-61870312D01*
X185165591Y-61810316D01*
X185420079Y-61721267D01*
X185662997Y-61604284D01*
X185891289Y-61460838D01*
X186102085Y-61292734D01*
X186292734Y-61102085D01*
X186460838Y-60891289D01*
X186604284Y-60662997D01*
X186721267Y-60420079D01*
X186810316Y-60165591D01*
X186870312Y-59902732D01*
X186900500Y-59634809D01*
X186900500Y-59365191D01*
X186870312Y-59097268D01*
X186810316Y-58834409D01*
X186721267Y-58579921D01*
X186624595Y-58379179D01*
X186604285Y-58337005D01*
X186604284Y-58337003D01*
X186460838Y-58108711D01*
X186292734Y-57897915D01*
X186102085Y-57707266D01*
X185891289Y-57539162D01*
X185662997Y-57395716D01*
X185662994Y-57395714D01*
X185420082Y-57278734D01*
X185165602Y-57189687D01*
X185165594Y-57189684D01*
X184968446Y-57144687D01*
X184902732Y-57129688D01*
X184902728Y-57129687D01*
X184902719Y-57129686D01*
X184634813Y-57099500D01*
X184634809Y-57099500D01*
X184365191Y-57099500D01*
X184365186Y-57099500D01*
X184097280Y-57129686D01*
X184097268Y-57129688D01*
X183834405Y-57189684D01*
X183834397Y-57189687D01*
X183579917Y-57278734D01*
X183337005Y-57395714D01*
X183108712Y-57539161D01*
X182897915Y-57707265D01*
X182707265Y-57897915D01*
X182539161Y-58108712D01*
X182395714Y-58337005D01*
X182278734Y-58579917D01*
X182189687Y-58834397D01*
X182189684Y-58834405D01*
X182129688Y-59097268D01*
X182129686Y-59097280D01*
X182099500Y-59365186D01*
X182099500Y-59634813D01*
X182129686Y-59902719D01*
X182129688Y-59902731D01*
X182189683Y-60165590D01*
X182201549Y-60199500D01*
X182240545Y-60310944D01*
X182244106Y-60380722D01*
X182211184Y-60439579D01*
X180686584Y-61964181D01*
X180625261Y-61997666D01*
X180598903Y-62000500D01*
X178185476Y-62000500D01*
X178118437Y-61980815D01*
X178072682Y-61928011D01*
X178062738Y-61858853D01*
X178067545Y-61838183D01*
X178078475Y-61804542D01*
X178078475Y-61804538D01*
X178078477Y-61804534D01*
X178110500Y-61602352D01*
X178110500Y-61397648D01*
X178094697Y-61297872D01*
X178078477Y-61195465D01*
X178015218Y-61000776D01*
X177959430Y-60891287D01*
X177922287Y-60818390D01*
X177914556Y-60807749D01*
X177801971Y-60652786D01*
X177657213Y-60508028D01*
X177491610Y-60387712D01*
X177478200Y-60380879D01*
X177427406Y-60332903D01*
X177410500Y-60270397D01*
X177410500Y-58899060D01*
X177410501Y-58899047D01*
X177410501Y-58730944D01*
X177410501Y-58730943D01*
X177369577Y-58578216D01*
X177369573Y-58578209D01*
X177290524Y-58441290D01*
X177290518Y-58441282D01*
X174961416Y-56112180D01*
X174927931Y-56050857D01*
X174932915Y-55981165D01*
X174974787Y-55925232D01*
X175040251Y-55900815D01*
X175049097Y-55900499D01*
X175907871Y-55900499D01*
X175907872Y-55900499D01*
X175967483Y-55894091D01*
X176102331Y-55843796D01*
X176217546Y-55757546D01*
X176303796Y-55642331D01*
X176331429Y-55568243D01*
X176333601Y-55562420D01*
X176375471Y-55506486D01*
X176440936Y-55482068D01*
X176509209Y-55496919D01*
X176537464Y-55518071D01*
X176587636Y-55568243D01*
X176587641Y-55568247D01*
X176689603Y-55642326D01*
X176765978Y-55697815D01*
X176894375Y-55763237D01*
X176962393Y-55797895D01*
X176962396Y-55797896D01*
X177067221Y-55831955D01*
X177172049Y-55866015D01*
X177389778Y-55900500D01*
X177389779Y-55900500D01*
X177610221Y-55900500D01*
X177610222Y-55900500D01*
X177827951Y-55866015D01*
X178037606Y-55797895D01*
X178234022Y-55697815D01*
X178412365Y-55568242D01*
X178568242Y-55412365D01*
X178697815Y-55234022D01*
X178797895Y-55037606D01*
X178866015Y-54827951D01*
X178900500Y-54610222D01*
X178900500Y-54389778D01*
X178866015Y-54172049D01*
X178823866Y-54042326D01*
X178797896Y-53962396D01*
X178797895Y-53962393D01*
X178705365Y-53780795D01*
X178692469Y-53712126D01*
X178718745Y-53647386D01*
X178775851Y-53607128D01*
X178815850Y-53600500D01*
X182078925Y-53600500D01*
X182145964Y-53620185D01*
X182191719Y-53672989D01*
X182195966Y-53683545D01*
X182278734Y-53920082D01*
X182395714Y-54162994D01*
X182401404Y-54172049D01*
X182539162Y-54391289D01*
X182707266Y-54602085D01*
X182897915Y-54792734D01*
X183108711Y-54960838D01*
X183337003Y-55104284D01*
X183579921Y-55221267D01*
X183771049Y-55288145D01*
X183834397Y-55310312D01*
X183834405Y-55310315D01*
X183834408Y-55310315D01*
X183834409Y-55310316D01*
X184097268Y-55370312D01*
X184365187Y-55400499D01*
X184365188Y-55400500D01*
X184365191Y-55400500D01*
X184634812Y-55400500D01*
X184634812Y-55400499D01*
X184902732Y-55370312D01*
X185165591Y-55310316D01*
X185420079Y-55221267D01*
X185662997Y-55104284D01*
X185891289Y-54960838D01*
X186102085Y-54792734D01*
X186292734Y-54602085D01*
X186460838Y-54391289D01*
X186604284Y-54162997D01*
X186721267Y-53920079D01*
X186810316Y-53665591D01*
X186870312Y-53402732D01*
X186900500Y-53134809D01*
X186900500Y-52865191D01*
X186870312Y-52597268D01*
X186810316Y-52334409D01*
X186721267Y-52079921D01*
X186624595Y-51879179D01*
X186604285Y-51837005D01*
X186600987Y-51831756D01*
X186460838Y-51608711D01*
X186292734Y-51397915D01*
X186102085Y-51207266D01*
X185891289Y-51039162D01*
X185662997Y-50895716D01*
X185662994Y-50895714D01*
X185420082Y-50778734D01*
X185165602Y-50689687D01*
X185165594Y-50689684D01*
X184968446Y-50644687D01*
X184902732Y-50629688D01*
X184902728Y-50629687D01*
X184902719Y-50629686D01*
X184634813Y-50599500D01*
X184634809Y-50599500D01*
X184365191Y-50599500D01*
X184365186Y-50599500D01*
X184097280Y-50629686D01*
X184097268Y-50629688D01*
X183834405Y-50689684D01*
X183834397Y-50689687D01*
X183579917Y-50778734D01*
X183337005Y-50895714D01*
X183108712Y-51039161D01*
X182897915Y-51207265D01*
X182707265Y-51397915D01*
X182539161Y-51608712D01*
X182395714Y-51837005D01*
X182278734Y-52079917D01*
X182195966Y-52316455D01*
X182155245Y-52373231D01*
X182090292Y-52398978D01*
X182078925Y-52399500D01*
X176380940Y-52399500D01*
X176340019Y-52410464D01*
X176340019Y-52410465D01*
X176302751Y-52420451D01*
X176228214Y-52440423D01*
X176228209Y-52440426D01*
X176091290Y-52519475D01*
X176091282Y-52519481D01*
X175979478Y-52631286D01*
X175547582Y-53063181D01*
X175486259Y-53096666D01*
X175459901Y-53099500D01*
X174012129Y-53099500D01*
X174012123Y-53099501D01*
X173952516Y-53105908D01*
X173817671Y-53156202D01*
X173817664Y-53156206D01*
X173702455Y-53242452D01*
X173702452Y-53242455D01*
X173616206Y-53357664D01*
X173616202Y-53357671D01*
X173565908Y-53492517D01*
X173559501Y-53552116D01*
X173559500Y-53552135D01*
X173559500Y-54410902D01*
X173539815Y-54477941D01*
X173487011Y-54523696D01*
X173417853Y-54533640D01*
X173354297Y-54504615D01*
X173347819Y-54498583D01*
X169258804Y-50409568D01*
X169225319Y-50348245D01*
X169230303Y-50278553D01*
X169272175Y-50222620D01*
X169337639Y-50198203D01*
X169402778Y-50211401D01*
X169481588Y-50251557D01*
X169683757Y-50317246D01*
X169893713Y-50350500D01*
X169893714Y-50350500D01*
X170106286Y-50350500D01*
X170106287Y-50350500D01*
X170316243Y-50317246D01*
X170518412Y-50251557D01*
X170707816Y-50155051D01*
X170729789Y-50139086D01*
X170879786Y-50030109D01*
X170879788Y-50030106D01*
X170879792Y-50030104D01*
X171030104Y-49879792D01*
X171030106Y-49879788D01*
X171030109Y-49879786D01*
X171109228Y-49770886D01*
X171155051Y-49707816D01*
X171155349Y-49707230D01*
X171175235Y-49668205D01*
X171223209Y-49617409D01*
X171285719Y-49600500D01*
X175214281Y-49600500D01*
X175281320Y-49620185D01*
X175324765Y-49668205D01*
X175344947Y-49707814D01*
X175344948Y-49707815D01*
X175469890Y-49879786D01*
X175620213Y-50030109D01*
X175792179Y-50155048D01*
X175792181Y-50155049D01*
X175792184Y-50155051D01*
X175981588Y-50251557D01*
X176183757Y-50317246D01*
X176393713Y-50350500D01*
X176393714Y-50350500D01*
X176606286Y-50350500D01*
X176606287Y-50350500D01*
X176816243Y-50317246D01*
X177018412Y-50251557D01*
X177207816Y-50155051D01*
X177229789Y-50139086D01*
X177379786Y-50030109D01*
X177379788Y-50030106D01*
X177379792Y-50030104D01*
X177530104Y-49879792D01*
X177530106Y-49879788D01*
X177530109Y-49879786D01*
X177655048Y-49707820D01*
X177655047Y-49707820D01*
X177655051Y-49707816D01*
X177751557Y-49518412D01*
X177817246Y-49316243D01*
X177850500Y-49106287D01*
X177850500Y-48893713D01*
X177817246Y-48683757D01*
X177751557Y-48481588D01*
X177655051Y-48292184D01*
X177655049Y-48292181D01*
X177655048Y-48292179D01*
X177530109Y-48120213D01*
X177379786Y-47969890D01*
X177207820Y-47844951D01*
X177018414Y-47748444D01*
X177018413Y-47748443D01*
X177018412Y-47748443D01*
X176816243Y-47682754D01*
X176816241Y-47682753D01*
X176816240Y-47682753D01*
X176654957Y-47657208D01*
X176606287Y-47649500D01*
X176393713Y-47649500D01*
X176345042Y-47657208D01*
X176183760Y-47682753D01*
X176183757Y-47682754D01*
X176027612Y-47733489D01*
X175981585Y-47748444D01*
X175792179Y-47844951D01*
X175620213Y-47969890D01*
X175469890Y-48120213D01*
X175344948Y-48292184D01*
X175344947Y-48292185D01*
X175324765Y-48331795D01*
X175276791Y-48382591D01*
X175214281Y-48399500D01*
X171285719Y-48399500D01*
X171218680Y-48379815D01*
X171175235Y-48331795D01*
X171155052Y-48292185D01*
X171155051Y-48292184D01*
X171030109Y-48120213D01*
X170879786Y-47969890D01*
X170707820Y-47844951D01*
X170518414Y-47748444D01*
X170518413Y-47748443D01*
X170518412Y-47748443D01*
X170316243Y-47682754D01*
X170316241Y-47682753D01*
X170316240Y-47682753D01*
X170154957Y-47657208D01*
X170106287Y-47649500D01*
X169893713Y-47649500D01*
X169845042Y-47657208D01*
X169683760Y-47682753D01*
X169683757Y-47682754D01*
X169527612Y-47733489D01*
X169481585Y-47748444D01*
X169292179Y-47844951D01*
X169120213Y-47969890D01*
X168969890Y-48120213D01*
X168844951Y-48292179D01*
X168748444Y-48481585D01*
X168682753Y-48683760D01*
X168649500Y-48893713D01*
X168649500Y-49106286D01*
X168681814Y-49310312D01*
X168682754Y-49316243D01*
X168700322Y-49370313D01*
X168748444Y-49518414D01*
X168788597Y-49597219D01*
X168801493Y-49665888D01*
X168775217Y-49730629D01*
X168718110Y-49770886D01*
X168648305Y-49773878D01*
X168590431Y-49741195D01*
X165714422Y-46865186D01*
X182099500Y-46865186D01*
X182099500Y-47134813D01*
X182129686Y-47402719D01*
X182129687Y-47402728D01*
X182129688Y-47402732D01*
X182133894Y-47421158D01*
X182189684Y-47665594D01*
X182189687Y-47665602D01*
X182278734Y-47920082D01*
X182395714Y-48162994D01*
X182395716Y-48162997D01*
X182539162Y-48391289D01*
X182707266Y-48602085D01*
X182897915Y-48792734D01*
X183108711Y-48960838D01*
X183337003Y-49104284D01*
X183579921Y-49221267D01*
X183771049Y-49288145D01*
X183834397Y-49310312D01*
X183834405Y-49310315D01*
X183834408Y-49310315D01*
X183834409Y-49310316D01*
X184097268Y-49370312D01*
X184365187Y-49400499D01*
X184365188Y-49400500D01*
X184365191Y-49400500D01*
X184634812Y-49400500D01*
X184634812Y-49400499D01*
X184902732Y-49370312D01*
X185165591Y-49310316D01*
X185420079Y-49221267D01*
X185662997Y-49104284D01*
X185891289Y-48960838D01*
X186102085Y-48792734D01*
X186292734Y-48602085D01*
X186460838Y-48391289D01*
X186604284Y-48162997D01*
X186721267Y-47920079D01*
X186810316Y-47665591D01*
X186870312Y-47402732D01*
X186900500Y-47134809D01*
X186900500Y-46865191D01*
X186870312Y-46597268D01*
X186810316Y-46334409D01*
X186721267Y-46079921D01*
X186604284Y-45837003D01*
X186460838Y-45608711D01*
X186292734Y-45397915D01*
X186102085Y-45207266D01*
X185891289Y-45039162D01*
X185662997Y-44895716D01*
X185662994Y-44895714D01*
X185420082Y-44778734D01*
X185165602Y-44689687D01*
X185165594Y-44689684D01*
X184968446Y-44644687D01*
X184902732Y-44629688D01*
X184902728Y-44629687D01*
X184902719Y-44629686D01*
X184634813Y-44599500D01*
X184634809Y-44599500D01*
X184365191Y-44599500D01*
X184365186Y-44599500D01*
X184097280Y-44629686D01*
X184097268Y-44629688D01*
X183834405Y-44689684D01*
X183834397Y-44689687D01*
X183579917Y-44778734D01*
X183337005Y-44895714D01*
X183108712Y-45039161D01*
X182897915Y-45207265D01*
X182707265Y-45397915D01*
X182539161Y-45608712D01*
X182395714Y-45837005D01*
X182278734Y-46079917D01*
X182189687Y-46334397D01*
X182189684Y-46334405D01*
X182129688Y-46597268D01*
X182129686Y-46597280D01*
X182099500Y-46865186D01*
X165714422Y-46865186D01*
X163242949Y-44393713D01*
X168649500Y-44393713D01*
X168649500Y-44606287D01*
X168682754Y-44816243D01*
X168708576Y-44895716D01*
X168748444Y-45018414D01*
X168844951Y-45207820D01*
X168969890Y-45379786D01*
X169120213Y-45530109D01*
X169292179Y-45655048D01*
X169292181Y-45655049D01*
X169292184Y-45655051D01*
X169481588Y-45751557D01*
X169683757Y-45817246D01*
X169893713Y-45850500D01*
X169893714Y-45850500D01*
X170106286Y-45850500D01*
X170106287Y-45850500D01*
X170316243Y-45817246D01*
X170518412Y-45751557D01*
X170707816Y-45655051D01*
X170771598Y-45608711D01*
X170879786Y-45530109D01*
X170879788Y-45530106D01*
X170879792Y-45530104D01*
X171030104Y-45379792D01*
X171030106Y-45379788D01*
X171030109Y-45379786D01*
X171155048Y-45207820D01*
X171155047Y-45207820D01*
X171155051Y-45207816D01*
X171251557Y-45018412D01*
X171317246Y-44816243D01*
X171350500Y-44606287D01*
X171350500Y-44393713D01*
X175149500Y-44393713D01*
X175149500Y-44606287D01*
X175182754Y-44816243D01*
X175208576Y-44895716D01*
X175248444Y-45018414D01*
X175344951Y-45207820D01*
X175469890Y-45379786D01*
X175620213Y-45530109D01*
X175792179Y-45655048D01*
X175792181Y-45655049D01*
X175792184Y-45655051D01*
X175981588Y-45751557D01*
X176183757Y-45817246D01*
X176393713Y-45850500D01*
X176393714Y-45850500D01*
X176606286Y-45850500D01*
X176606287Y-45850500D01*
X176816243Y-45817246D01*
X177018412Y-45751557D01*
X177207816Y-45655051D01*
X177271598Y-45608711D01*
X177379786Y-45530109D01*
X177379788Y-45530106D01*
X177379792Y-45530104D01*
X177530104Y-45379792D01*
X177530106Y-45379788D01*
X177530109Y-45379786D01*
X177655048Y-45207820D01*
X177655047Y-45207820D01*
X177655051Y-45207816D01*
X177751557Y-45018412D01*
X177817246Y-44816243D01*
X177850500Y-44606287D01*
X177850500Y-44393713D01*
X177817246Y-44183757D01*
X177751557Y-43981588D01*
X177655051Y-43792184D01*
X177655049Y-43792181D01*
X177655048Y-43792179D01*
X177530109Y-43620213D01*
X177379786Y-43469890D01*
X177207820Y-43344951D01*
X177018414Y-43248444D01*
X177018413Y-43248443D01*
X177018412Y-43248443D01*
X176816243Y-43182754D01*
X176816241Y-43182753D01*
X176816240Y-43182753D01*
X176648601Y-43156202D01*
X176606287Y-43149500D01*
X176393713Y-43149500D01*
X176351399Y-43156202D01*
X176183760Y-43182753D01*
X175981585Y-43248444D01*
X175792179Y-43344951D01*
X175620213Y-43469890D01*
X175469890Y-43620213D01*
X175344951Y-43792179D01*
X175248444Y-43981585D01*
X175182753Y-44183760D01*
X175150123Y-44389778D01*
X175149500Y-44393713D01*
X171350500Y-44393713D01*
X171317246Y-44183757D01*
X171251557Y-43981588D01*
X171155051Y-43792184D01*
X171155049Y-43792181D01*
X171155048Y-43792179D01*
X171030109Y-43620213D01*
X170879786Y-43469890D01*
X170707820Y-43344951D01*
X170518414Y-43248444D01*
X170518413Y-43248443D01*
X170518412Y-43248443D01*
X170316243Y-43182754D01*
X170316241Y-43182753D01*
X170316240Y-43182753D01*
X170148601Y-43156202D01*
X170106287Y-43149500D01*
X169893713Y-43149500D01*
X169851399Y-43156202D01*
X169683760Y-43182753D01*
X169481585Y-43248444D01*
X169292179Y-43344951D01*
X169120213Y-43469890D01*
X168969890Y-43620213D01*
X168844951Y-43792179D01*
X168748444Y-43981585D01*
X168682753Y-44183760D01*
X168650123Y-44389778D01*
X168649500Y-44393713D01*
X163242949Y-44393713D01*
X160351983Y-41502747D01*
X160270389Y-41421153D01*
X175199500Y-41421153D01*
X175199500Y-41578846D01*
X175230261Y-41733489D01*
X175230264Y-41733501D01*
X175290602Y-41879172D01*
X175290609Y-41879185D01*
X175378210Y-42010288D01*
X175378213Y-42010292D01*
X175489707Y-42121786D01*
X175489711Y-42121789D01*
X175620814Y-42209390D01*
X175620827Y-42209397D01*
X175766498Y-42269735D01*
X175766503Y-42269737D01*
X175921153Y-42300499D01*
X175921156Y-42300500D01*
X175921158Y-42300500D01*
X176078844Y-42300500D01*
X176078845Y-42300499D01*
X176233497Y-42269737D01*
X176379179Y-42209394D01*
X176510289Y-42121789D01*
X176621789Y-42010289D01*
X176709394Y-41879179D01*
X176769737Y-41733497D01*
X176800500Y-41578842D01*
X176800500Y-41421158D01*
X176800500Y-41421155D01*
X176800499Y-41421153D01*
X178199500Y-41421153D01*
X178199500Y-41578846D01*
X178230261Y-41733489D01*
X178230264Y-41733501D01*
X178290602Y-41879172D01*
X178290609Y-41879185D01*
X178378210Y-42010288D01*
X178378213Y-42010292D01*
X178489707Y-42121786D01*
X178489711Y-42121789D01*
X178620814Y-42209390D01*
X178620827Y-42209397D01*
X178766498Y-42269735D01*
X178766503Y-42269737D01*
X178921153Y-42300499D01*
X178921156Y-42300500D01*
X178921158Y-42300500D01*
X179078844Y-42300500D01*
X179078845Y-42300499D01*
X179233497Y-42269737D01*
X179379179Y-42209394D01*
X179510289Y-42121789D01*
X179621789Y-42010289D01*
X179709394Y-41879179D01*
X179769737Y-41733497D01*
X179800500Y-41578842D01*
X179800500Y-41421158D01*
X179800500Y-41421155D01*
X179800499Y-41421153D01*
X179789366Y-41365186D01*
X182099500Y-41365186D01*
X182099500Y-41634813D01*
X182129686Y-41902719D01*
X182129688Y-41902731D01*
X182189684Y-42165594D01*
X182189687Y-42165602D01*
X182278734Y-42420082D01*
X182395714Y-42662994D01*
X182395716Y-42662997D01*
X182539162Y-42891289D01*
X182614102Y-42985261D01*
X182705204Y-43099500D01*
X182707266Y-43102085D01*
X182897915Y-43292734D01*
X183108711Y-43460838D01*
X183337003Y-43604284D01*
X183579921Y-43721267D01*
X183771049Y-43788145D01*
X183834397Y-43810312D01*
X183834405Y-43810315D01*
X183834408Y-43810315D01*
X183834409Y-43810316D01*
X184097268Y-43870312D01*
X184365187Y-43900499D01*
X184365188Y-43900500D01*
X184365191Y-43900500D01*
X184634812Y-43900500D01*
X184634812Y-43900499D01*
X184902732Y-43870312D01*
X185165591Y-43810316D01*
X185420079Y-43721267D01*
X185662997Y-43604284D01*
X185891289Y-43460838D01*
X186102085Y-43292734D01*
X186292734Y-43102085D01*
X186460838Y-42891289D01*
X186604284Y-42662997D01*
X186721267Y-42420079D01*
X186810316Y-42165591D01*
X186870312Y-41902732D01*
X186900500Y-41634809D01*
X186900500Y-41365191D01*
X186870312Y-41097268D01*
X186810316Y-40834409D01*
X186802046Y-40810776D01*
X186738227Y-40628390D01*
X186721267Y-40579921D01*
X186604284Y-40337003D01*
X186460838Y-40108711D01*
X186292734Y-39897915D01*
X186102085Y-39707266D01*
X185891289Y-39539162D01*
X185662997Y-39395716D01*
X185662994Y-39395714D01*
X185420082Y-39278734D01*
X185165602Y-39189687D01*
X185165594Y-39189684D01*
X184968446Y-39144687D01*
X184902732Y-39129688D01*
X184902728Y-39129687D01*
X184902719Y-39129686D01*
X184634813Y-39099500D01*
X184634809Y-39099500D01*
X184365191Y-39099500D01*
X184365186Y-39099500D01*
X184097280Y-39129686D01*
X184097268Y-39129688D01*
X183834405Y-39189684D01*
X183834397Y-39189687D01*
X183579917Y-39278734D01*
X183337005Y-39395714D01*
X183108712Y-39539161D01*
X182897915Y-39707265D01*
X182707265Y-39897915D01*
X182539161Y-40108712D01*
X182395714Y-40337005D01*
X182278734Y-40579917D01*
X182189687Y-40834397D01*
X182189684Y-40834405D01*
X182129688Y-41097268D01*
X182129686Y-41097280D01*
X182099500Y-41365186D01*
X179789366Y-41365186D01*
X179769738Y-41266510D01*
X179769737Y-41266503D01*
X179709794Y-41121786D01*
X179709397Y-41120827D01*
X179709390Y-41120814D01*
X179621789Y-40989711D01*
X179621786Y-40989707D01*
X179510292Y-40878213D01*
X179510288Y-40878210D01*
X179379185Y-40790609D01*
X179379172Y-40790602D01*
X179233501Y-40730264D01*
X179233489Y-40730261D01*
X179078845Y-40699500D01*
X179078842Y-40699500D01*
X178921158Y-40699500D01*
X178921155Y-40699500D01*
X178766510Y-40730261D01*
X178766498Y-40730264D01*
X178620827Y-40790602D01*
X178620814Y-40790609D01*
X178489711Y-40878210D01*
X178489707Y-40878213D01*
X178378213Y-40989707D01*
X178378210Y-40989711D01*
X178290609Y-41120814D01*
X178290602Y-41120827D01*
X178230264Y-41266498D01*
X178230261Y-41266510D01*
X178199500Y-41421153D01*
X176800499Y-41421153D01*
X176769738Y-41266510D01*
X176769737Y-41266503D01*
X176709794Y-41121786D01*
X176709397Y-41120827D01*
X176709390Y-41120814D01*
X176621789Y-40989711D01*
X176621786Y-40989707D01*
X176510292Y-40878213D01*
X176510288Y-40878210D01*
X176379185Y-40790609D01*
X176379172Y-40790602D01*
X176233501Y-40730264D01*
X176233489Y-40730261D01*
X176078845Y-40699500D01*
X176078842Y-40699500D01*
X175921158Y-40699500D01*
X175921155Y-40699500D01*
X175766510Y-40730261D01*
X175766498Y-40730264D01*
X175620827Y-40790602D01*
X175620814Y-40790609D01*
X175489711Y-40878210D01*
X175489707Y-40878213D01*
X175378213Y-40989707D01*
X175378210Y-40989711D01*
X175290609Y-41120814D01*
X175290602Y-41120827D01*
X175230264Y-41266498D01*
X175230261Y-41266510D01*
X175199500Y-41421153D01*
X160270389Y-41421153D01*
X155188590Y-36339355D01*
X155188588Y-36339352D01*
X155069717Y-36220481D01*
X155069709Y-36220475D01*
X154974646Y-36165591D01*
X154974644Y-36165590D01*
X154932790Y-36141425D01*
X154932789Y-36141424D01*
X154920263Y-36138067D01*
X154780057Y-36100499D01*
X154621943Y-36100499D01*
X154614347Y-36100499D01*
X154614331Y-36100500D01*
X150948131Y-36100500D01*
X150881092Y-36080815D01*
X150835337Y-36028011D01*
X150825393Y-35958853D01*
X150830200Y-35938183D01*
X150866014Y-35827954D01*
X150866013Y-35827954D01*
X150866015Y-35827951D01*
X150900500Y-35610222D01*
X150900500Y-35389778D01*
X150866015Y-35172049D01*
X150807505Y-34991971D01*
X150797896Y-34962396D01*
X150797895Y-34962393D01*
X150763237Y-34894375D01*
X150697815Y-34765978D01*
X150636521Y-34681613D01*
X150568247Y-34587641D01*
X150568243Y-34587636D01*
X150482788Y-34502181D01*
X150449303Y-34440858D01*
X150454287Y-34371166D01*
X150496159Y-34315233D01*
X150561623Y-34290816D01*
X150570469Y-34290500D01*
X153770398Y-34290500D01*
X153837437Y-34310185D01*
X153880883Y-34358205D01*
X153887715Y-34371614D01*
X154008028Y-34537213D01*
X154152786Y-34681971D01*
X154287750Y-34780026D01*
X154318390Y-34802287D01*
X154434607Y-34861503D01*
X154500776Y-34895218D01*
X154500778Y-34895218D01*
X154500781Y-34895220D01*
X154605137Y-34929127D01*
X154695465Y-34958477D01*
X154796557Y-34974488D01*
X154897648Y-34990500D01*
X154897649Y-34990500D01*
X155102351Y-34990500D01*
X155102352Y-34990500D01*
X155304534Y-34958477D01*
X155499219Y-34895220D01*
X155681610Y-34802287D01*
X155774590Y-34734732D01*
X155847213Y-34681971D01*
X155847215Y-34681968D01*
X155847219Y-34681966D01*
X155991966Y-34537219D01*
X155991968Y-34537215D01*
X155991971Y-34537213D01*
X156068587Y-34431758D01*
X156112287Y-34371610D01*
X156205220Y-34189219D01*
X156268477Y-33994534D01*
X156300500Y-33792352D01*
X156300500Y-33614501D01*
X156320185Y-33547462D01*
X156372989Y-33501707D01*
X156424500Y-33490501D01*
X157007448Y-33490501D01*
X157074487Y-33510186D01*
X157120242Y-33562990D01*
X157130186Y-33632148D01*
X157125379Y-33652819D01*
X157111523Y-33695461D01*
X157111523Y-33695464D01*
X157079500Y-33897648D01*
X157079500Y-34102351D01*
X157111522Y-34304534D01*
X157174781Y-34499223D01*
X157219833Y-34587641D01*
X157254180Y-34655051D01*
X157267715Y-34681613D01*
X157388028Y-34847213D01*
X157532786Y-34991971D01*
X157677718Y-35097268D01*
X157698390Y-35112287D01*
X157814607Y-35171503D01*
X157880776Y-35205218D01*
X157880778Y-35205218D01*
X157880781Y-35205220D01*
X157985137Y-35239127D01*
X158075465Y-35268477D01*
X158176557Y-35284488D01*
X158277648Y-35300500D01*
X158277649Y-35300500D01*
X158482351Y-35300500D01*
X158482352Y-35300500D01*
X158684534Y-35268477D01*
X158879219Y-35205220D01*
X159061610Y-35112287D01*
X159154590Y-35044732D01*
X159227213Y-34991971D01*
X159227215Y-34991968D01*
X159227219Y-34991966D01*
X159371966Y-34847219D01*
X159371968Y-34847215D01*
X159371971Y-34847213D01*
X159424732Y-34774590D01*
X159492287Y-34681610D01*
X159585220Y-34499219D01*
X159648477Y-34304534D01*
X159680500Y-34102352D01*
X159680500Y-33897648D01*
X159648477Y-33695466D01*
X159648476Y-33695462D01*
X159648476Y-33695461D01*
X159634621Y-33652819D01*
X159632626Y-33582977D01*
X159668707Y-33523145D01*
X159731408Y-33492317D01*
X159752552Y-33490501D01*
X164627448Y-33490501D01*
X164694487Y-33510186D01*
X164740242Y-33562990D01*
X164750186Y-33632148D01*
X164745379Y-33652819D01*
X164731523Y-33695461D01*
X164731523Y-33695464D01*
X164699500Y-33897648D01*
X164699500Y-34102351D01*
X164731522Y-34304534D01*
X164794781Y-34499223D01*
X164839833Y-34587641D01*
X164874180Y-34655051D01*
X164887715Y-34681613D01*
X165008028Y-34847213D01*
X165152786Y-34991971D01*
X165297718Y-35097268D01*
X165318390Y-35112287D01*
X165434607Y-35171503D01*
X165500776Y-35205218D01*
X165500778Y-35205218D01*
X165500781Y-35205220D01*
X165605137Y-35239127D01*
X165695465Y-35268477D01*
X165796557Y-35284488D01*
X165897648Y-35300500D01*
X165897649Y-35300500D01*
X166102351Y-35300500D01*
X166102352Y-35300500D01*
X166304534Y-35268477D01*
X166499219Y-35205220D01*
X166681610Y-35112287D01*
X166774590Y-35044732D01*
X166847213Y-34991971D01*
X166847215Y-34991968D01*
X166847219Y-34991966D01*
X166991966Y-34847219D01*
X166991968Y-34847215D01*
X166991971Y-34847213D01*
X167044732Y-34774590D01*
X167112287Y-34681610D01*
X167205220Y-34499219D01*
X167268477Y-34304534D01*
X167300500Y-34102352D01*
X167300500Y-33897648D01*
X167268477Y-33695466D01*
X167268476Y-33695462D01*
X167268476Y-33695461D01*
X167254621Y-33652819D01*
X167252626Y-33582977D01*
X167288707Y-33523145D01*
X167351408Y-33492317D01*
X167372552Y-33490501D01*
X168525763Y-33490501D01*
X168592802Y-33510186D01*
X168638557Y-33562990D01*
X168648536Y-33601506D01*
X168648738Y-33601475D01*
X168649067Y-33603556D01*
X168649380Y-33604762D01*
X168649500Y-33606286D01*
X168682754Y-33816244D01*
X168682754Y-33816247D01*
X168696491Y-33858523D01*
X168698486Y-33928364D01*
X168666241Y-33984522D01*
X164631286Y-38019478D01*
X164519481Y-38131282D01*
X164519479Y-38131284D01*
X164491797Y-38179232D01*
X164480096Y-38199500D01*
X164440423Y-38268215D01*
X164399499Y-38420943D01*
X164399499Y-38420945D01*
X164399499Y-38589046D01*
X164399500Y-38589059D01*
X164399500Y-40579057D01*
X164440016Y-40730263D01*
X164440423Y-40731783D01*
X164440426Y-40731790D01*
X164519475Y-40868709D01*
X164519479Y-40868714D01*
X164519480Y-40868716D01*
X164631284Y-40980520D01*
X164631286Y-40980521D01*
X164631290Y-40980524D01*
X164768209Y-41059573D01*
X164768216Y-41059577D01*
X164920943Y-41100500D01*
X164920945Y-41100500D01*
X165079055Y-41100500D01*
X165079057Y-41100500D01*
X165231784Y-41059577D01*
X165368716Y-40980520D01*
X165480520Y-40868716D01*
X165559577Y-40731784D01*
X165600500Y-40579057D01*
X165600500Y-40421153D01*
X180199500Y-40421153D01*
X180199500Y-40578846D01*
X180230261Y-40733489D01*
X180230264Y-40733501D01*
X180290602Y-40879172D01*
X180290609Y-40879185D01*
X180378210Y-41010288D01*
X180378213Y-41010292D01*
X180489707Y-41121786D01*
X180489711Y-41121789D01*
X180620814Y-41209390D01*
X180620827Y-41209397D01*
X180711975Y-41247151D01*
X180766503Y-41269737D01*
X180921153Y-41300499D01*
X180921156Y-41300500D01*
X180921158Y-41300500D01*
X181078844Y-41300500D01*
X181078845Y-41300499D01*
X181233497Y-41269737D01*
X181256256Y-41260309D01*
X181288026Y-41247151D01*
X181379172Y-41209397D01*
X181379172Y-41209396D01*
X181379179Y-41209394D01*
X181510289Y-41121789D01*
X181621789Y-41010289D01*
X181709394Y-40879179D01*
X181713728Y-40868717D01*
X181737727Y-40810776D01*
X181769737Y-40733497D01*
X181800500Y-40578842D01*
X181800500Y-40421158D01*
X181800500Y-40421155D01*
X181800499Y-40421153D01*
X181769738Y-40266510D01*
X181769737Y-40266503D01*
X181769735Y-40266498D01*
X181709397Y-40120827D01*
X181709390Y-40120814D01*
X181621789Y-39989711D01*
X181621786Y-39989707D01*
X181510292Y-39878213D01*
X181510288Y-39878210D01*
X181379185Y-39790609D01*
X181379172Y-39790602D01*
X181233501Y-39730264D01*
X181233489Y-39730261D01*
X181078845Y-39699500D01*
X181078842Y-39699500D01*
X180921158Y-39699500D01*
X180921155Y-39699500D01*
X180766510Y-39730261D01*
X180766498Y-39730264D01*
X180620827Y-39790602D01*
X180620814Y-39790609D01*
X180489711Y-39878210D01*
X180489707Y-39878213D01*
X180378213Y-39989707D01*
X180378210Y-39989711D01*
X180290609Y-40120814D01*
X180290602Y-40120827D01*
X180230264Y-40266498D01*
X180230261Y-40266510D01*
X180199500Y-40421153D01*
X165600500Y-40421153D01*
X165600500Y-38921153D01*
X166699500Y-38921153D01*
X166699500Y-39078846D01*
X166730261Y-39233489D01*
X166730264Y-39233501D01*
X166790602Y-39379172D01*
X166790609Y-39379185D01*
X166878210Y-39510288D01*
X166878213Y-39510292D01*
X166989707Y-39621786D01*
X166989711Y-39621789D01*
X167120814Y-39709390D01*
X167120827Y-39709397D01*
X167266498Y-39769735D01*
X167266503Y-39769737D01*
X167421153Y-39800499D01*
X167421156Y-39800500D01*
X167421158Y-39800500D01*
X167578844Y-39800500D01*
X167578845Y-39800499D01*
X167733497Y-39769737D01*
X167879179Y-39709394D01*
X168010289Y-39621789D01*
X168121789Y-39510289D01*
X168209394Y-39379179D01*
X168269737Y-39233497D01*
X168300500Y-39078842D01*
X168300500Y-38921158D01*
X168300500Y-38921155D01*
X168300499Y-38921153D01*
X168292272Y-38879792D01*
X168269737Y-38766503D01*
X168245428Y-38707815D01*
X168209397Y-38620827D01*
X168209390Y-38620814D01*
X168121789Y-38489711D01*
X168121786Y-38489707D01*
X168010292Y-38378213D01*
X168010288Y-38378210D01*
X167879185Y-38290609D01*
X167879172Y-38290602D01*
X167733501Y-38230264D01*
X167733489Y-38230261D01*
X167578845Y-38199500D01*
X167578842Y-38199500D01*
X167421158Y-38199500D01*
X167421155Y-38199500D01*
X167266510Y-38230261D01*
X167266498Y-38230264D01*
X167120827Y-38290602D01*
X167120814Y-38290609D01*
X166989711Y-38378210D01*
X166989707Y-38378213D01*
X166878213Y-38489707D01*
X166878210Y-38489711D01*
X166790609Y-38620814D01*
X166790602Y-38620827D01*
X166730264Y-38766498D01*
X166730261Y-38766510D01*
X166699500Y-38921153D01*
X165600500Y-38921153D01*
X165600500Y-38800096D01*
X165620185Y-38733057D01*
X165636814Y-38712420D01*
X166455521Y-37893713D01*
X168649500Y-37893713D01*
X168649500Y-38106286D01*
X168675146Y-38268213D01*
X168682754Y-38316243D01*
X168739117Y-38489711D01*
X168748444Y-38518414D01*
X168844951Y-38707820D01*
X168969890Y-38879786D01*
X169120213Y-39030109D01*
X169292179Y-39155048D01*
X169292181Y-39155049D01*
X169292184Y-39155051D01*
X169481588Y-39251557D01*
X169683757Y-39317246D01*
X169893713Y-39350500D01*
X169893714Y-39350500D01*
X170106286Y-39350500D01*
X170106287Y-39350500D01*
X170316243Y-39317246D01*
X170518412Y-39251557D01*
X170707816Y-39155051D01*
X170812707Y-39078844D01*
X170879786Y-39030109D01*
X170879788Y-39030106D01*
X170879792Y-39030104D01*
X171030104Y-38879792D01*
X171030106Y-38879788D01*
X171030109Y-38879786D01*
X171088661Y-38799193D01*
X171155051Y-38707816D01*
X171155349Y-38707230D01*
X171175235Y-38668205D01*
X171223209Y-38617409D01*
X171285719Y-38600500D01*
X175214281Y-38600500D01*
X175281320Y-38620185D01*
X175324765Y-38668205D01*
X175344947Y-38707814D01*
X175344948Y-38707815D01*
X175469890Y-38879786D01*
X175620213Y-39030109D01*
X175792179Y-39155048D01*
X175792181Y-39155049D01*
X175792184Y-39155051D01*
X175981588Y-39251557D01*
X176183757Y-39317246D01*
X176393713Y-39350500D01*
X176393714Y-39350500D01*
X176606286Y-39350500D01*
X176606287Y-39350500D01*
X176816243Y-39317246D01*
X177018412Y-39251557D01*
X177207816Y-39155051D01*
X177312707Y-39078844D01*
X177379786Y-39030109D01*
X177379788Y-39030106D01*
X177379792Y-39030104D01*
X177530104Y-38879792D01*
X177530106Y-38879788D01*
X177530109Y-38879786D01*
X177655048Y-38707820D01*
X177655047Y-38707820D01*
X177655051Y-38707816D01*
X177751557Y-38518412D01*
X177817246Y-38316243D01*
X177850500Y-38106287D01*
X177850500Y-37893713D01*
X177817246Y-37683757D01*
X177751557Y-37481588D01*
X177655051Y-37292184D01*
X177655049Y-37292181D01*
X177655048Y-37292179D01*
X177530109Y-37120213D01*
X177379786Y-36969890D01*
X177207820Y-36844951D01*
X177018414Y-36748444D01*
X177018413Y-36748443D01*
X177018412Y-36748443D01*
X176816243Y-36682754D01*
X176816241Y-36682753D01*
X176816240Y-36682753D01*
X176654957Y-36657208D01*
X176606287Y-36649500D01*
X176393713Y-36649500D01*
X176345042Y-36657208D01*
X176183760Y-36682753D01*
X175981585Y-36748444D01*
X175792179Y-36844951D01*
X175620213Y-36969890D01*
X175469890Y-37120213D01*
X175344948Y-37292184D01*
X175344947Y-37292185D01*
X175324765Y-37331795D01*
X175276791Y-37382591D01*
X175214281Y-37399500D01*
X171285719Y-37399500D01*
X171218680Y-37379815D01*
X171175235Y-37331795D01*
X171155052Y-37292185D01*
X171155051Y-37292184D01*
X171030109Y-37120213D01*
X170879786Y-36969890D01*
X170707820Y-36844951D01*
X170518414Y-36748444D01*
X170518413Y-36748443D01*
X170518412Y-36748443D01*
X170316243Y-36682754D01*
X170316241Y-36682753D01*
X170316240Y-36682753D01*
X170154957Y-36657208D01*
X170106287Y-36649500D01*
X169893713Y-36649500D01*
X169845042Y-36657208D01*
X169683760Y-36682753D01*
X169481585Y-36748444D01*
X169292179Y-36844951D01*
X169120213Y-36969890D01*
X168969890Y-37120213D01*
X168844951Y-37292179D01*
X168748444Y-37481585D01*
X168682753Y-37683760D01*
X168649500Y-37893713D01*
X166455521Y-37893713D01*
X168984047Y-35365186D01*
X182099500Y-35365186D01*
X182099500Y-35634813D01*
X182129686Y-35902719D01*
X182129687Y-35902728D01*
X182129688Y-35902732D01*
X182174828Y-36100500D01*
X182189684Y-36165590D01*
X182189687Y-36165602D01*
X182278734Y-36420082D01*
X182395714Y-36662994D01*
X182408130Y-36682754D01*
X182539162Y-36891289D01*
X182707266Y-37102085D01*
X182897915Y-37292734D01*
X183108711Y-37460838D01*
X183337003Y-37604284D01*
X183579921Y-37721267D01*
X183771049Y-37788145D01*
X183834397Y-37810312D01*
X183834405Y-37810315D01*
X183834408Y-37810315D01*
X183834409Y-37810316D01*
X184097268Y-37870312D01*
X184365187Y-37900499D01*
X184365188Y-37900500D01*
X184365191Y-37900500D01*
X184634812Y-37900500D01*
X184634812Y-37900499D01*
X184902732Y-37870312D01*
X185165591Y-37810316D01*
X185420079Y-37721267D01*
X185662997Y-37604284D01*
X185891289Y-37460838D01*
X186102085Y-37292734D01*
X186292734Y-37102085D01*
X186460838Y-36891289D01*
X186604284Y-36662997D01*
X186721267Y-36420079D01*
X186810316Y-36165591D01*
X186870312Y-35902732D01*
X186900500Y-35634809D01*
X186900500Y-35365191D01*
X186870312Y-35097268D01*
X186810316Y-34834409D01*
X186804310Y-34817246D01*
X186758286Y-34685715D01*
X186721267Y-34579921D01*
X186604284Y-34337003D01*
X186460838Y-34108711D01*
X186292734Y-33897915D01*
X186102085Y-33707266D01*
X185891289Y-33539162D01*
X185662997Y-33395716D01*
X185662994Y-33395714D01*
X185420082Y-33278734D01*
X185165602Y-33189687D01*
X185165594Y-33189684D01*
X184968446Y-33144687D01*
X184902732Y-33129688D01*
X184902728Y-33129687D01*
X184902719Y-33129686D01*
X184634813Y-33099500D01*
X184634809Y-33099500D01*
X184365191Y-33099500D01*
X184365186Y-33099500D01*
X184097280Y-33129686D01*
X184097268Y-33129688D01*
X183834405Y-33189684D01*
X183834397Y-33189687D01*
X183579917Y-33278734D01*
X183337005Y-33395714D01*
X183108712Y-33539161D01*
X182897915Y-33707265D01*
X182707265Y-33897915D01*
X182539161Y-34108712D01*
X182395714Y-34337005D01*
X182278734Y-34579917D01*
X182189687Y-34834397D01*
X182189684Y-34834405D01*
X182129688Y-35097268D01*
X182129686Y-35097280D01*
X182099500Y-35365186D01*
X168984047Y-35365186D01*
X169515478Y-34833755D01*
X169576799Y-34800272D01*
X169641473Y-34803506D01*
X169683757Y-34817246D01*
X169893713Y-34850500D01*
X169893714Y-34850500D01*
X170106286Y-34850500D01*
X170106287Y-34850500D01*
X170316243Y-34817246D01*
X170518412Y-34751557D01*
X170707816Y-34655051D01*
X170800599Y-34587641D01*
X170879786Y-34530109D01*
X170879788Y-34530106D01*
X170879792Y-34530104D01*
X171030104Y-34379792D01*
X171030106Y-34379788D01*
X171030109Y-34379786D01*
X171155048Y-34207820D01*
X171155047Y-34207820D01*
X171155051Y-34207816D01*
X171251557Y-34018412D01*
X171317246Y-33816243D01*
X171350500Y-33606287D01*
X171350500Y-33393713D01*
X175149500Y-33393713D01*
X175149500Y-33606287D01*
X175182754Y-33816243D01*
X175237431Y-33984522D01*
X175248444Y-34018414D01*
X175344951Y-34207820D01*
X175469890Y-34379786D01*
X175620213Y-34530109D01*
X175792179Y-34655048D01*
X175792181Y-34655049D01*
X175792184Y-34655051D01*
X175981588Y-34751557D01*
X176183757Y-34817246D01*
X176393713Y-34850500D01*
X176393714Y-34850500D01*
X176606286Y-34850500D01*
X176606287Y-34850500D01*
X176816243Y-34817246D01*
X177018412Y-34751557D01*
X177207816Y-34655051D01*
X177300599Y-34587641D01*
X177379786Y-34530109D01*
X177379788Y-34530106D01*
X177379792Y-34530104D01*
X177530104Y-34379792D01*
X177530106Y-34379788D01*
X177530109Y-34379786D01*
X177655048Y-34207820D01*
X177655047Y-34207820D01*
X177655051Y-34207816D01*
X177751557Y-34018412D01*
X177817246Y-33816243D01*
X177850500Y-33606287D01*
X177850500Y-33393713D01*
X177817246Y-33183757D01*
X177751557Y-32981588D01*
X177655051Y-32792184D01*
X177655049Y-32792181D01*
X177655048Y-32792179D01*
X177530109Y-32620213D01*
X177379786Y-32469890D01*
X177312704Y-32421153D01*
X187199500Y-32421153D01*
X187199500Y-32578846D01*
X187230261Y-32733489D01*
X187230264Y-32733501D01*
X187290602Y-32879172D01*
X187290609Y-32879185D01*
X187378210Y-33010288D01*
X187378213Y-33010292D01*
X187489707Y-33121786D01*
X187489711Y-33121789D01*
X187620814Y-33209390D01*
X187620827Y-33209397D01*
X187766498Y-33269735D01*
X187766503Y-33269737D01*
X187921153Y-33300499D01*
X187921156Y-33300500D01*
X187921158Y-33300500D01*
X188078844Y-33300500D01*
X188078845Y-33300499D01*
X188233497Y-33269737D01*
X188378969Y-33209481D01*
X188379172Y-33209397D01*
X188379172Y-33209396D01*
X188379179Y-33209394D01*
X188510289Y-33121789D01*
X188621789Y-33010289D01*
X188709394Y-32879179D01*
X188769737Y-32733497D01*
X188800500Y-32578842D01*
X188800500Y-32421158D01*
X188800500Y-32421155D01*
X188800499Y-32421153D01*
X188782452Y-32330424D01*
X188769737Y-32266503D01*
X188762256Y-32248443D01*
X188709397Y-32120827D01*
X188709390Y-32120814D01*
X188621789Y-31989711D01*
X188621786Y-31989707D01*
X188510292Y-31878213D01*
X188510288Y-31878210D01*
X188379185Y-31790609D01*
X188379172Y-31790602D01*
X188233501Y-31730264D01*
X188233489Y-31730261D01*
X188078845Y-31699500D01*
X188078842Y-31699500D01*
X187921158Y-31699500D01*
X187921155Y-31699500D01*
X187766510Y-31730261D01*
X187766498Y-31730264D01*
X187620827Y-31790602D01*
X187620814Y-31790609D01*
X187489711Y-31878210D01*
X187489707Y-31878213D01*
X187378213Y-31989707D01*
X187378210Y-31989711D01*
X187290609Y-32120814D01*
X187290602Y-32120827D01*
X187230264Y-32266498D01*
X187230261Y-32266510D01*
X187199500Y-32421153D01*
X177312704Y-32421153D01*
X177207820Y-32344951D01*
X177018414Y-32248444D01*
X177018413Y-32248443D01*
X177018412Y-32248443D01*
X176816243Y-32182754D01*
X176816241Y-32182753D01*
X176816240Y-32182753D01*
X176654957Y-32157208D01*
X176606287Y-32149500D01*
X176393713Y-32149500D01*
X176345042Y-32157208D01*
X176183760Y-32182753D01*
X175981585Y-32248444D01*
X175792179Y-32344951D01*
X175620213Y-32469890D01*
X175469890Y-32620213D01*
X175344951Y-32792179D01*
X175248444Y-32981585D01*
X175182753Y-33183760D01*
X175160972Y-33321284D01*
X175149500Y-33393713D01*
X171350500Y-33393713D01*
X171317246Y-33183757D01*
X171251557Y-32981588D01*
X171155051Y-32792184D01*
X171155049Y-32792181D01*
X171155048Y-32792179D01*
X171030109Y-32620213D01*
X170879786Y-32469890D01*
X170707820Y-32344951D01*
X170518414Y-32248444D01*
X170518413Y-32248443D01*
X170518412Y-32248443D01*
X170316243Y-32182754D01*
X170316241Y-32182753D01*
X170316240Y-32182753D01*
X170154957Y-32157208D01*
X170106287Y-32149500D01*
X169893713Y-32149500D01*
X169845042Y-32157208D01*
X169683760Y-32182753D01*
X169481585Y-32248444D01*
X169427534Y-32275985D01*
X169414532Y-32279106D01*
X169406176Y-32284477D01*
X169371243Y-32289499D01*
X169371241Y-32289500D01*
X169310944Y-32289500D01*
X169310940Y-32289500D01*
X169303334Y-32289501D01*
X169303333Y-32289500D01*
X169303332Y-32289501D01*
X155720939Y-32289501D01*
X155680018Y-32300465D01*
X155680018Y-32300466D01*
X155642750Y-32310452D01*
X155568213Y-32330424D01*
X155568208Y-32330427D01*
X155424244Y-32413544D01*
X155423068Y-32411507D01*
X155369118Y-32432353D01*
X155320507Y-32426713D01*
X155304531Y-32421522D01*
X155149220Y-32396923D01*
X155102352Y-32389500D01*
X154897648Y-32389500D01*
X154873329Y-32393351D01*
X154695465Y-32421522D01*
X154500776Y-32484781D01*
X154318386Y-32577715D01*
X154152786Y-32698028D01*
X154008028Y-32842786D01*
X153887715Y-33008385D01*
X153880883Y-33021795D01*
X153832909Y-33072591D01*
X153770398Y-33089500D01*
X146447057Y-33089500D01*
X146288943Y-33089500D01*
X146136215Y-33130423D01*
X146136214Y-33130423D01*
X146136212Y-33130424D01*
X146136211Y-33130424D01*
X146101440Y-33150500D01*
X145999287Y-33209477D01*
X145999282Y-33209481D01*
X145278481Y-33930282D01*
X145278480Y-33930284D01*
X145249477Y-33980519D01*
X145199423Y-34067215D01*
X145158499Y-34219943D01*
X145158499Y-34378057D01*
X145158499Y-34378059D01*
X145158500Y-34388053D01*
X145158500Y-43172330D01*
X145158499Y-43172348D01*
X145158499Y-43338054D01*
X145158498Y-43338054D01*
X143600500Y-43338054D01*
X143600500Y-31224500D01*
X143620185Y-31157461D01*
X143672989Y-31111706D01*
X143724500Y-31100500D01*
X189275500Y-31100500D01*
X189342539Y-31120185D01*
G37*
%TD.AperFunction*%
M02*
